<?xml version="1.0" encoding="utf-8"?>
<!-- Generator: Adobe Illustrator 15.0.0, SVG Export Plug-In . SVG Version: 6.00 Build 0)  -->
<!DOCTYPE svg PUBLIC "-//W3C//DTD SVG 1.1//EN" "http://www.w3.org/Graphics/SVG/1.1/DTD/svg11.dtd">
<svg version="1.1" id="Layer_1" xmlns="http://www.w3.org/2000/svg" xmlns:xlink="http://www.w3.org/1999/xlink" x="0px" y="0px"
	 width="304.92px" height="298.4px" viewBox="0 0 304.92 298.4" enable-background="new 0 0 304.92 298.4" xml:space="preserve">
<g>
	<circle fill="#E6E7E8" cx="155.304" cy="181.345" r="72"/>
</g>
<g>
	<path fill="#DCDDDE" d="M155.304,109.344c39.765,0,72.001,32.236,72.001,72s-32.236,72-72.001,72"/>
</g>
<g>
	<rect x="128.091" y="247.019" width="5.497" height="35.382"/>
</g>
<g>
	<path d="M143.256,287.9c0,5.799-5.559,10.5-12.416,10.5s-12.416-4.701-12.416-10.5s13.935-10.5,12.416-10.5
		C129.322,277.4,143.256,282.102,143.256,287.9z"/>
</g>
<g>
	<rect x="177.839" y="247.019" width="5.497" height="35.382"/>
</g>
<g>
	<path d="M193.004,287.9c0,5.799-5.559,10.5-12.416,10.5s-12.416-4.701-12.416-10.5s13.935-10.5,12.416-10.5
		C179.07,277.4,193.004,282.102,193.004,287.9z"/>
</g>
<g>
	<g>
		<path fill="#00AEEF" d="M155.304,209.204c-37.593,0-68.439-15.075-71.698-34.299c-0.188,2.123-0.302,4.268-0.302,6.439
			c0,39.765,32.235,72,72,72s72.001-32.235,72.001-72c0-2.172-0.113-4.316-0.302-6.439
			C223.743,194.129,192.896,209.204,155.304,209.204z"/>
	</g>
</g>
<g>
	<ellipse cx="133.587" cy="157.979" rx="4.333" ry="6.234"/>
</g>
<g>
	<ellipse cx="176.587" cy="157.979" rx="4.333" ry="6.234"/>
</g>
<g>
	<g>
		<g>
			<circle cx="77.942" cy="135.571" r="6.666"/>
		</g>
	</g>
	<g>
		<polygon points="91.85,197.908 87.767,198.438 77.367,139.617 81.449,139.087 		"/>
	</g>
</g>
<g>
	<path d="M155.305,186.9v-2c1.832,0,3.273-0.568,4.405-1.739c1.177-1.216,1.821-2.896,2.173-4.42
		c-1.464,1.326-3.614,2.409-6.578,2.409c-6.972,0-9.226-5.646-9.318-5.886l1.866-0.719l-0.933,0.359l0.932-0.363
		c0.074,0.188,1.885,4.608,7.453,4.608c5.517,0,6.984-4.361,7.044-4.547l1.75-5.436l0.202,5.702
		c0.009,0.253,0.181,6.229-3.147,9.676C159.646,186.108,157.678,186.9,155.305,186.9z"/>
</g>
<g>
	<g>
		<path fill="#1C75BC" d="M155.304,253.345c39.765,0,72.001-32.235,72.001-72c0-2.172-0.113-4.316-0.302-6.439
			c-3.26,19.224-34.106,34.299-71.699,34.299"/>
	</g>
</g>
<g>
	<g>
		<path d="M145.947,235.604c0.652,3.436,4.24,4.713,8.145,4.287c2.859-0.311,5.127-0.947,7.305-1.908l1.717,5.543
			c-2.631,1.4-5.924,2.314-9.553,2.711c-9.129,0.994-14.928-3.715-15.846-12.127c-0.742-6.818,2.672-14.812,12.02-15.832
			c8.688-0.947,12.723,5.457,13.449,12.109c0.156,1.432,0.129,2.713,0.084,3.33L145.947,235.604z M155.166,228.814
			c-0.223-2.035-1.473-5.35-5.322-4.93c-3.52,0.383-4.602,3.729-4.576,6.008L155.166,228.814z"/>
	</g>
	<g>
		<path d="M172.637,214.92l0.354,3.238l-8.396,0.916l-0.354-3.238L172.637,214.92z"/>
	</g>
</g>
<g>
	<g>
		<g>
			<circle cx="232.927" cy="136.114" r="6.666"/>
		</g>
	</g>
	<g>
		<polygon points="219.02,198.451 223.102,198.98 233.502,140.159 229.42,139.629 		"/>
	</g>
</g>
<g>
	<g>
		<rect x="2.5" y="2.5" fill="#F15A29" width="299.92" height="127.571"/>
	</g>
	<g>
		<path fill="#BE1E2D" d="M299.92,5v122.571H5V5H299.92 M304.92,0h-5H5H0v5v122.571v5h5h294.92h5v-5V5V0L304.92,0z"/>
	</g>
</g>
<g>
	<rect x="155.305" y="5" fill="#EF4136" width="144.615" height="122.571"/>
</g>
<g>
	<path fill="#FFFFFF" d="M52.273,69.086v-8.501l48.495-20.462v8.947l-38.456,15.8l38.456,15.886v8.96L52.273,69.086z"/>
	<path fill="#FFFFFF" d="M111.306,49.997c0-5.457,2.047-10.089,6.143-13.899c4.095-3.81,9.105-5.715,15.033-5.715
		c5.826,0,10.744,1.889,14.758,5.665c4.012,3.777,6.018,8.427,6.018,13.949c0,6.223-2.896,11.363-8.689,15.421
		c6.459,3.731,9.689,9.229,9.689,16.492c0,5.765-2.098,10.529-6.293,14.294c-4.195,3.765-9.49,5.647-15.883,5.647
		c-6.326,0-11.636-1.924-15.932-5.772c-4.295-3.848-6.442-8.604-6.442-14.269c0-7.097,3.296-12.561,9.889-16.392
		c-2.964-2.396-5.086-4.783-6.368-7.161C111.947,55.878,111.306,53.125,111.306,49.997z M144.168,82.324v-0.999
		c0-3.196-1.141-5.801-3.42-7.816c-2.281-2.014-5.236-3.021-8.865-3.021c-3.562,0-6.469,1.016-8.715,3.046
		c-2.248,2.031-3.371,4.662-3.371,7.891c0,3.23,1.148,5.86,3.446,7.891c2.297,2.032,5.277,3.047,8.939,3.047
		c3.496,0,6.369-0.932,8.615-2.797C143.045,87.702,144.168,85.288,144.168,82.324z M143.32,50.311c0-3.029-1.041-5.526-3.123-7.491
		c-2.08-1.964-4.719-2.947-7.916-2.947c-3.229,0-5.877,0.966-7.939,2.897c-2.065,1.931-3.097,4.412-3.097,7.441
		c0,2.896,1.09,5.377,3.271,7.441c2.18,2.065,4.803,3.097,7.867,3.097c3.029,0,5.609-1.024,7.74-3.072S143.32,53.175,143.32,50.311z
		"/>
	<path fill="#FFFFFF" d="M188.967,31.083l0.999-0.699l6.043,7.591c-5.327,3.437-9.747,7.189-13.26,11.259
		c-3.514,4.07-6.218,8.857-8.116,14.362c3.696-1.898,7.375-2.847,11.038-2.847c5.493,0,10.121,1.948,13.884,5.843
		c3.762,3.896,5.644,8.673,5.644,14.333c0,5.827-2.048,10.771-6.143,14.833c-4.096,4.062-9.073,6.093-14.934,6.093
		c-6.56,0-11.861-2.305-15.906-6.917c-4.046-4.611-6.068-10.646-6.068-18.104c0-5.594,1.04-11.163,3.121-16.706
		s5.077-10.738,8.99-15.582C178.171,39.698,183.073,35.211,188.967,31.083z M172.485,73.934c-0.267,1.565-0.399,3.313-0.399,5.244
		c0,3.929,1.141,7.159,3.421,9.689c2.28,2.531,5.202,3.795,8.766,3.795c3.196,0,5.835-1.082,7.916-3.246
		c2.08-2.164,3.121-4.895,3.121-8.19c0-3.363-1.107-6.084-3.321-8.166c-2.215-2.08-5.136-3.121-8.765-3.121
		c-1.865,0-3.555,0.283-5.069,0.849C176.639,71.354,174.749,72.403,172.485,73.934z"/>
	<path fill="#FFFFFF" d="M234.665,30.383c6.393,0,11.678,3.355,15.856,10.063c4.178,6.71,6.268,15.225,6.268,25.546
		c0,10.588-2.09,19.195-6.268,25.821c-4.179,6.626-9.598,9.938-16.257,9.938c-6.759,0-12.186-3.246-16.281-9.739
		c-4.095-6.493-6.143-15.099-6.143-25.821c0-10.588,2.114-19.203,6.343-25.845C222.411,33.705,227.905,30.383,234.665,30.383z
		 M234.765,39.873h-0.5c-3.829,0-6.866,2.356-9.114,7.067c-2.247,4.712-3.371,11.096-3.371,19.153
		c0,8.258,1.099,14.733,3.296,19.428c2.198,4.695,5.228,7.042,9.09,7.042s6.909-2.347,9.14-7.042s3.347-11.07,3.347-19.128
		c0-8.091-1.074-14.534-3.222-19.328S238.394,39.873,234.765,39.873z"/>
</g>
</svg>
