<?xml version="1.0" encoding="utf-8"?>
<!-- Generator: Adobe Illustrator 15.0.0, SVG Export Plug-In . SVG Version: 6.00 Build 0)  -->
<!DOCTYPE svg PUBLIC "-//W3C//DTD SVG 1.1//EN" "http://www.w3.org/Graphics/SVG/1.1/DTD/svg11.dtd">
<svg version="1.1" id="Layer_1" xmlns="http://www.w3.org/2000/svg" xmlns:xlink="http://www.w3.org/1999/xlink" x="0px" y="0px"
	 width="304.92px" height="298.4px" viewBox="0 0 304.92 298.4" enable-background="new 0 0 304.92 298.4" xml:space="preserve">
<g>
	<circle fill="#E6E7E8" cx="155.304" cy="181.345" r="72"/>
</g>
<g>
	<path fill="#DCDDDE" d="M155.304,109.344c39.765,0,72.001,32.236,72.001,72s-32.236,72-72.001,72"/>
</g>
<g>
	<rect x="128.091" y="247.019" width="5.497" height="35.382"/>
</g>
<g>
	<path d="M143.256,287.9c0,5.799-5.559,10.5-12.416,10.5s-12.416-4.701-12.416-10.5s13.935-10.5,12.416-10.5
		C129.322,277.4,143.256,282.102,143.256,287.9z"/>
</g>
<g>
	<rect x="177.839" y="247.019" width="5.497" height="35.382"/>
</g>
<g>
	<path d="M193.004,287.9c0,5.799-5.559,10.5-12.416,10.5s-12.416-4.701-12.416-10.5s13.935-10.5,12.416-10.5
		C179.07,277.4,193.004,282.102,193.004,287.9z"/>
</g>
<g>
	<g>
		<path fill="#00AEEF" d="M155.304,209.204c-37.593,0-68.439-15.075-71.698-34.299c-0.188,2.123-0.302,4.268-0.302,6.439
			c0,39.765,32.235,72,72,72s72.001-32.235,72.001-72c0-2.172-0.113-4.316-0.302-6.439
			C223.743,194.129,192.896,209.204,155.304,209.204z"/>
	</g>
</g>
<g>
	<ellipse cx="133.587" cy="157.979" rx="4.333" ry="6.234"/>
</g>
<g>
	<ellipse cx="176.587" cy="157.979" rx="4.333" ry="6.234"/>
</g>
<g>
	<g>
		<g>
			<circle cx="77.942" cy="135.571" r="6.666"/>
		</g>
	</g>
	<g>
		<polygon points="91.85,197.908 87.767,198.438 77.367,139.617 81.449,139.087 		"/>
	</g>
</g>
<g>
	<path d="M155.305,186.9v-2c1.832,0,3.273-0.568,4.405-1.739c1.177-1.216,1.821-2.896,2.173-4.42
		c-1.464,1.326-3.614,2.409-6.578,2.409c-6.972,0-9.226-5.646-9.318-5.886l1.866-0.719l-0.933,0.359l0.932-0.363
		c0.074,0.188,1.885,4.608,7.453,4.608c5.517,0,6.984-4.361,7.044-4.547l1.75-5.436l0.202,5.702
		c0.009,0.253,0.181,6.229-3.147,9.676C159.646,186.108,157.678,186.9,155.305,186.9z"/>
</g>
<g>
	<g>
		<path fill="#1C75BC" d="M155.304,253.345c39.765,0,72.001-32.235,72.001-72c0-2.172-0.113-4.316-0.302-6.439
			c-3.26,19.224-34.106,34.299-71.699,34.299"/>
	</g>
</g>
<g>
	<g>
		<path d="M145.947,235.604c0.652,3.436,4.24,4.713,8.145,4.287c2.859-0.311,5.127-0.947,7.305-1.908l1.717,5.543
			c-2.631,1.4-5.924,2.314-9.553,2.711c-9.129,0.994-14.928-3.715-15.846-12.127c-0.742-6.818,2.672-14.812,12.02-15.832
			c8.688-0.947,12.723,5.457,13.449,12.109c0.156,1.432,0.129,2.713,0.084,3.33L145.947,235.604z M155.166,228.814
			c-0.223-2.035-1.473-5.35-5.322-4.93c-3.52,0.383-4.602,3.729-4.576,6.008L155.166,228.814z"/>
	</g>
	<g>
		<path d="M172.637,214.92l0.354,3.238l-8.396,0.916l-0.354-3.238L172.637,214.92z"/>
	</g>
</g>
<g>
	<g>
		<g>
			<circle cx="232.927" cy="136.114" r="6.666"/>
		</g>
	</g>
	<g>
		<polygon points="219.02,198.451 223.102,198.98 233.502,140.159 229.42,139.629 		"/>
	</g>
</g>
<g>
	<g>
		<rect x="2.5" y="2.5" fill="#EF4136" width="299.92" height="127.571"/>
	</g>
	<g>
		<path fill="#2B3990" d="M299.92,5v122.571H5V5H299.92 M304.92,0h-5H5H0v5v122.571v5h5h294.92h5v-5V5V0L304.92,0z"/>
	</g>
</g>
<g>
	<rect x="155.305" y="5" fill="#BE1E2D" width="144.615" height="122.571"/>
</g>
<g>
	<path fill="#FFFFFF" d="M49.821,101.053v-69.87h22.125c6.659,0,11.969,1.798,15.932,5.394C91.84,40.172,93.821,45,93.821,51.06
		c0,4.062-1.016,7.658-3.046,10.788c-2.031,3.13-4.812,5.402-8.341,6.817c-3.529,1.416-8.59,2.123-15.183,2.123H59.86v30.266H49.821
		z M70.198,40.072H59.86v21.825h10.938c4.062,0,7.192-0.957,9.39-2.872c2.197-1.915,3.296-4.653,3.296-8.216
		C83.483,43.652,79.055,40.072,70.198,40.072z"/>
	<path fill="#FFFFFF" d="M102.512,31.282h9.988v60.681h31.414v9.09h-41.402V31.282z"/>
	<path fill="#FFFFFF" d="M174.931,30.883h7.021l31.284,70.17h-10.224l-9.299-20.676h-29.767l-8.719,20.676h-10.265L174.931,30.883z
		 M189.606,71.486L178.35,46.215l-10.438,25.271H189.606z"/>
	<path fill="#FFFFFF" d="M251.602,31.282h12.125l-25.771,32.863v36.908h-10.238V64.145l-25.771-32.863h12.058l18.672,24.054
		L251.602,31.282z"/>
</g>
</svg>
