<?xml version="1.0" encoding="utf-8"?>
<!-- Generator: Adobe Illustrator 15.0.0, SVG Export Plug-In . SVG Version: 6.00 Build 0)  -->
<!DOCTYPE svg PUBLIC "-//W3C//DTD SVG 1.1//EN" "http://www.w3.org/Graphics/SVG/1.1/DTD/svg11.dtd">
<svg version="1.1" id="Layer_1" xmlns="http://www.w3.org/2000/svg" xmlns:xlink="http://www.w3.org/1999/xlink" x="0px" y="0px"
	 width="131.411px" height="279.204px" viewBox="0 0 131.411 279.204" enable-background="new 0 0 131.411 279.204"
	 xml:space="preserve">
<g>
	<path d="M16.597,33.965v221.429c0,13.149,17.056,23.81,38.095,23.81s38.095-10.66,38.095-23.81V33.965H16.597z"/>
	<ellipse fill="#E6E7E8" cx="54.692" cy="33.965" rx="38.095" ry="23.81"/>
	<g>
		<path fill="#D8D8D8" d="M0,23.425l23.68,12.315l26.417-24.625l-11.632-6.58l-1.285,0.737L27.341,0L0,23.425z M16.154,19.24
			c1.146-2.145,4.042-3.724,7.482-3.83c3.439-0.107,6.428,1.289,7.705,3.358c-1.146,2.144-4.042,3.723-7.481,3.83
			C20.418,22.705,17.431,21.308,16.154,19.24z"/>
		<polygon fill="#3F403F" points="23.68,32.538 54.796,49.942 55.299,58.232 23.68,40.095 		"/>
		<polygon fill="#565656" points="83.742,24.608 83.742,31.024 55.299,58.232 54.796,49.942 		"/>
		<polygon fill="#D8D8D8" points="78.838,30.152 76.223,32.936 129.275,59.967 131.302,57.812 97.116,40.481 96.537,38.667 		"/>
		<polygon fill="#ABACAD" points="0,23.425 23.68,35.741 23.68,40.095 0.127,27.519 		"/>
		<polygon fill="#BFBFBF" points="131.347,57.775 131.411,59.865 129.428,61.975 129.32,59.93 		"/>
		<polygon fill="#ABACAD" points="129.275,59.967 129.383,62.012 76.276,34.656 76.223,32.936 		"/>
		<polygon fill="#D8D8D8" points="62.799,45.057 60.184,47.84 113.236,74.871 115.262,72.717 81.076,55.385 80.497,53.571 		"/>
		<polygon fill="#BFBFBF" points="115.262,72.771 115.326,74.861 113.343,76.97 113.236,74.925 		"/>
		<polygon fill="#ABACAD" points="113.236,74.871 113.343,76.916 60.236,49.56 60.184,47.84 		"/>
		<path fill="#ABACAD" d="M31.34,18.768c-1.277-2.069-4.265-3.465-7.705-3.358c-3.44,0.106-6.336,1.685-7.482,3.83
			c0.024,0.039,0.05,0.08,0.076,0.121c-0.449-0.682-0.71-1.441-0.735-2.247c-0.098-3.169,3.487-5.852,8.008-5.992
			c4.521-0.14,8.265,2.315,8.364,5.484c0.025,0.802-0.187,1.572-0.588,2.279C31.298,18.845,31.32,18.806,31.34,18.768z"/>
		<polygon fill="#070808" points="51.683,7.958 83.742,24.608 54.928,49.914 23.68,32.538 		"/>
	</g>
</g>
</svg>
