<?xml version="1.0" encoding="utf-8"?>
<!-- Generator: Adobe Illustrator 15.0.0, SVG Export Plug-In . SVG Version: 6.00 Build 0)  -->
<!DOCTYPE svg PUBLIC "-//W3C//DTD SVG 1.1//EN" "http://www.w3.org/Graphics/SVG/1.1/DTD/svg11.dtd">
<svg version="1.1" id="Layer_1" xmlns="http://www.w3.org/2000/svg" xmlns:xlink="http://www.w3.org/1999/xlink" x="0px" y="0px"
	 width="242.333px" height="188.084px" viewBox="0 0 242.333 188.084" enable-background="new 0 0 242.333 188.084"
	 xml:space="preserve">
<g>
	<g>
		<path fill="#262262" d="M189.831,142.084h-1c0-9.079,4.981-17.371,13.001-21.64l0.471,0.883
			C194.609,125.423,189.831,133.376,189.831,142.084z"/>
	</g>
	<g>
		<path fill="#262262" d="M81,99.417h-1c0-6.496-2.561-12.574-7.209-17.113l0.698-0.716C78.333,86.318,81,92.65,81,99.417z"/>
	</g>
	
		<rect x="91.935" y="-4.457" transform="matrix(0.7065 0.7077 -0.7077 0.7065 68.5143 -52.135)" fill="#00AEEF" width="10.349" height="121.977"/>
	<polyline fill="#1C75BC" points="140.089,13.259 143.927,17.104 57.604,103.283 54.023,99.695 	"/>
	
		<rect x="174.513" y="5.515" transform="matrix(0.8677 -0.4971 0.4971 0.8677 -15.9941 100.1852)" fill="#1C75BC" width="11.394" height="149.249"/>
	<polyline fill="#00AEEF" points="216.663,145.259 212.365,147.721 138.169,18.221 143.35,15.252 	"/>
	<polygon fill="#1C75BC" points="32.92,90.4 43.247,93.677 43.247,102.65 32.92,108.436 	"/>
	<polyline fill="#27AAE1" points="32.92,98.483 32.92,89.4 43.247,92.677 43.247,98.149 	"/>
	<rect x="29.083" y="140.956" fill="#A97C50" width="213.25" height="10.811"/>
	<rect x="29.083" y="140.956" fill="#C49A6C" width="213.25" height="5.405"/>
	<rect x="198.597" y="135.594" fill="#2B3990" width="34.473" height="21.533"/>
	<circle fill="#2B3990" cx="140.833" cy="12.584" r="12.584"/>
	<circle fill="#27AAE1" cx="140.833" cy="12.584" r="5.993"/>
	<circle fill="#2B3990" cx="48.421" cy="97.584" r="12.584"/>
	<circle fill="#27AAE1" cx="48.421" cy="97.584" r="5.993"/>
	<rect y="73.584" fill="#2B3990" width="33.5" height="114.5"/>
	<g>
		<path fill="#262262" d="M158.927,86.899h1.172v8.186h-1.172V86.899z"/>
		<path fill="#262262" d="M171.009,91.17v3.914h-1.072v-3c0-0.598-0.08-1.015-0.24-1.251s-0.439-0.354-0.838-0.354
			c-0.223,0-0.426,0.051-0.611,0.152s-0.398,0.281-0.637,0.539v3.914h-1.066v-5.391h1.066v0.709
			c0.543-0.543,1.074-0.814,1.594-0.814c0.684,0,1.213,0.324,1.588,0.973c0.57-0.656,1.166-0.984,1.787-0.984
			c0.523,0,0.955,0.191,1.293,0.574s0.506,0.967,0.506,1.752v3.182h-1.066v-3.193c0-0.449-0.092-0.793-0.275-1.031
			s-0.447-0.357-0.791-0.357C171.804,90.502,171.392,90.725,171.009,91.17z"/>
	</g>
	<g>
		<path fill="#262262" d="M107.714,60.626c0.75,0,1.37,0.394,1.86,1.181s0.735,1.786,0.735,2.997c0,1.242-0.245,2.252-0.735,3.029
			s-1.126,1.166-1.907,1.166c-0.793,0-1.43-0.381-1.91-1.143s-0.721-1.771-0.721-3.029c0-1.242,0.248-2.253,0.744-3.032
			S106.921,60.626,107.714,60.626z M107.726,61.739h-0.059c-0.449,0-0.806,0.276-1.069,0.829s-0.396,1.302-0.396,2.247
			c0,0.969,0.129,1.729,0.387,2.279s0.613,0.826,1.066,0.826s0.811-0.275,1.072-0.826s0.393-1.299,0.393-2.244
			c0-0.949-0.126-1.705-0.378-2.268S108.152,61.739,107.726,61.739z"/>
		<path fill="#262262" d="M111.974,67.61c0.199,0,0.369,0.068,0.51,0.205s0.211,0.305,0.211,0.504c0,0.195-0.069,0.359-0.208,0.492
			s-0.31,0.199-0.513,0.199c-0.199,0-0.367-0.066-0.504-0.199s-0.205-0.297-0.205-0.492c0-0.199,0.068-0.367,0.205-0.504
			S111.775,67.61,111.974,67.61z"/>
		<path fill="#262262" d="M114.511,60.731h3.633v1.043h-2.566v2.068c0.082-0.008,0.166-0.012,0.252-0.012
			c0.793,0,1.445,0.241,1.957,0.724s0.768,1.097,0.768,1.843c0,0.77-0.253,1.396-0.759,1.878s-1.161,0.724-1.966,0.724
			c-0.664,0-1.309-0.16-1.934-0.48v-1.207c0.59,0.383,1.166,0.574,1.729,0.574c0.492,0,0.905-0.144,1.239-0.431
			s0.501-0.64,0.501-1.058c0-0.434-0.182-0.796-0.545-1.087s-0.816-0.437-1.359-0.437c-0.465,0-0.781,0.039-0.949,0.117V60.731z"/>
		<path fill="#262262" d="M127.806,65.003v3.914h-1.072v-3c0-0.598-0.08-1.015-0.24-1.251s-0.439-0.354-0.838-0.354
			c-0.223,0-0.427,0.051-0.612,0.152s-0.397,0.281-0.636,0.539v3.914h-1.066v-5.391h1.066v0.709
			c0.543-0.543,1.074-0.814,1.594-0.814c0.684,0,1.213,0.324,1.588,0.973c0.57-0.656,1.166-0.984,1.787-0.984
			c0.523,0,0.954,0.191,1.292,0.574s0.507,0.967,0.507,1.752v3.182h-1.066v-3.193c0-0.449-0.092-0.793-0.275-1.031
			s-0.447-0.357-0.791-0.357C128.601,64.335,128.189,64.558,127.806,65.003z"/>
	</g>
	<g>
		<path fill="#262262" d="M90.093,81.043h0.48v4.594h0.914v0.996h-0.914v2.701h-1.143v-2.701h-3.463v-0.504L90.093,81.043z
			 M89.431,85.637v-2.373l-1.895,2.373H89.431z"/>
		<path fill="#262262" d="M93.046,81.149h3.633v1.043h-2.566v2.068c0.082-0.008,0.166-0.012,0.252-0.012
			c0.793,0,1.445,0.241,1.957,0.724s0.768,1.097,0.768,1.843c0,0.77-0.253,1.396-0.759,1.878s-1.161,0.724-1.966,0.724
			c-0.664,0-1.309-0.16-1.934-0.48v-1.207c0.59,0.383,1.166,0.574,1.729,0.574c0.492,0,0.905-0.144,1.239-0.431
			s0.501-0.64,0.501-1.058c0-0.434-0.182-0.796-0.545-1.087s-0.816-0.437-1.359-0.437c-0.465,0-0.781,0.039-0.949,0.117V81.149z"/>
		<path fill="#262262" d="M98.578,82.221c0-0.445,0.16-0.827,0.48-1.146s0.705-0.478,1.154-0.478c0.445,0,0.826,0.159,1.143,0.478
			s0.475,0.7,0.475,1.146c0,0.449-0.158,0.833-0.475,1.151s-0.697,0.478-1.143,0.478c-0.449,0-0.834-0.159-1.154-0.478
			S98.578,82.67,98.578,82.221z M99.216,82.221c0,0.273,0.098,0.508,0.293,0.703s0.43,0.293,0.703,0.293
			c0.27,0,0.5-0.098,0.691-0.293s0.287-0.43,0.287-0.703s-0.095-0.506-0.284-0.697s-0.421-0.287-0.694-0.287
			c-0.277,0-0.513,0.096-0.706,0.287S99.216,81.948,99.216,82.221z"/>
	</g>
	<g>
		<path fill="#262262" d="M177.019,123.276l0.117-0.082l0.709,0.891c-0.625,0.403-1.143,0.843-1.555,1.321s-0.73,1.039-0.953,1.685
			c0.434-0.223,0.865-0.334,1.295-0.334c0.645,0,1.188,0.229,1.629,0.686s0.662,1.018,0.662,1.682c0,0.684-0.24,1.264-0.721,1.741
			c-0.48,0.477-1.064,0.715-1.752,0.715c-0.77,0-1.391-0.271-1.865-0.812c-0.475-0.541-0.713-1.249-0.713-2.124
			c0-0.656,0.123-1.31,0.367-1.96s0.596-1.26,1.055-1.828S176.327,123.761,177.019,123.276z M175.085,128.304
			c-0.031,0.184-0.047,0.389-0.047,0.615c0,0.461,0.135,0.84,0.402,1.137s0.609,0.445,1.027,0.445c0.375,0,0.686-0.127,0.93-0.381
			s0.365-0.574,0.365-0.961c0-0.395-0.129-0.714-0.389-0.958s-0.604-0.366-1.029-0.366c-0.219,0-0.416,0.033-0.594,0.1
			S175.351,128.124,175.085,128.304z"/>
		<path fill="#262262" d="M182.38,123.194c0.75,0,1.371,0.394,1.861,1.181s0.734,1.786,0.734,2.997c0,1.242-0.244,2.252-0.734,3.029
			c-0.49,0.778-1.127,1.167-1.908,1.167c-0.793,0-1.43-0.381-1.91-1.143c-0.48-0.762-0.721-1.771-0.721-3.029
			c0-1.242,0.248-2.253,0.744-3.032S181.587,123.194,182.38,123.194z M182.392,124.308h-0.059c-0.449,0-0.805,0.276-1.068,0.829
			s-0.396,1.302-0.396,2.247c0,0.969,0.129,1.729,0.387,2.279s0.613,0.826,1.066,0.826s0.811-0.275,1.072-0.826
			s0.393-1.299,0.393-2.244c0-0.949-0.125-1.705-0.377-2.268S182.817,124.308,182.392,124.308z"/>
		<path fill="#262262" d="M186.077,124.372c0-0.445,0.16-0.827,0.48-1.146s0.705-0.478,1.154-0.478c0.445,0,0.826,0.159,1.143,0.478
			s0.475,0.7,0.475,1.146c0,0.449-0.158,0.833-0.475,1.151s-0.697,0.478-1.143,0.478c-0.449,0-0.834-0.159-1.154-0.478
			S186.077,124.821,186.077,124.372z M186.716,124.372c0,0.273,0.098,0.508,0.293,0.703s0.43,0.293,0.703,0.293
			c0.27,0,0.5-0.098,0.691-0.293s0.287-0.43,0.287-0.703s-0.094-0.506-0.283-0.697s-0.422-0.287-0.695-0.287
			c-0.277,0-0.512,0.096-0.705,0.287S186.716,124.099,186.716,124.372z"/>
	</g>
	<g>
		<rect x="60.708" y="99.408" fill="#262262" width="30.834" height="1"/>
	</g>
	<rect y="124.751" fill="#262262" width="33.5" height="63.333"/>
	<rect x="198.597" y="146.361" fill="#262262" width="34.473" height="10.767"/>
	<path fill="#00AEEF" d="M221.849,146.361c0,3.324-2.689,6.017-6.017,6.017c-3.321,0-6.017-2.692-6.017-6.017
		s2.695-6.017,6.017-6.017C219.159,140.344,221.849,143.037,221.849,146.361z"/>
	<path opacity="0.4" fill="#262262" d="M140.833,0c6.95,0,12.584,5.634,12.584,12.584s-5.634,12.584-12.584,12.584"/>
	<path opacity="0.4" fill="#262262" d="M48.122,85c6.95,0,12.584,5.634,12.584,12.584s-5.634,12.584-12.584,12.584"/>
	<path fill="#1C75BC" d="M215.832,140.344c3.327,0,6.017,2.692,6.017,6.017s-2.689,6.017-6.017,6.017"/>
</g>
</svg>
