<?xml version="1.0" encoding="utf-8"?>
<!-- Generator: Adobe Illustrator 15.0.0, SVG Export Plug-In . SVG Version: 6.00 Build 0)  -->
<!DOCTYPE svg PUBLIC "-//W3C//DTD SVG 1.1//EN" "http://www.w3.org/Graphics/SVG/1.1/DTD/svg11.dtd">
<svg version="1.1" id="Layer_1" xmlns="http://www.w3.org/2000/svg" xmlns:xlink="http://www.w3.org/1999/xlink" x="0px" y="0px"
	 width="1179.149px" height="1099.38px" viewBox="0 0 1179.149 1099.38" enable-background="new 0 0 1179.149 1099.38"
	 xml:space="preserve">
<g>
	<g>
		<g enable-background="new    ">
			<g>
				<polygon fill="#664428" points="1114.944,822.213 659.044,574.213 634.829,552.004 1090.729,800.005 				"/>
			</g>
			<g>
				<polygon fill="#744E30" points="1142.298,664.876 686.397,416.876 720.932,414.434 1176.832,662.434 				"/>
			</g>
			<g>
				<polygon fill="#664428" points="1048.517,852.659 592.617,604.659 583.433,570.284 1039.333,818.284 				"/>
			</g>
			<g>
				<polygon fill="#734D2F" points="1114.841,620.865 658.94,372.865 690.516,351.605 1146.415,599.605 				"/>
			</g>
			<g>
				<polygon fill="#694629" points="981.274,844.571 525.374,596.572 534.102,558.868 990.002,806.867 				"/>
			</g>
			<g enable-background="new    ">
				<defs>
					<path id="SVGID_1_" enable-background="new    " d="M990.002,806.867l-455.9-248c-4.895-2.9-9.485-6.291-13.723-10.156
						l455.899,248C980.517,800.577,985.106,803.968,990.002,806.867z"/>
				</defs>
				<clipPath id="SVGID_2_">
					<use xlink:href="#SVGID_1_"  overflow="visible"/>
				</clipPath>
				<g clip-path="url(#SVGID_2_)" enable-background="new    ">
					<path fill="#674528" d="M990.002,806.867l-455.9-248c-4.895-2.9-9.485-6.291-13.723-10.156l455.899,248
						C980.517,800.577,985.106,803.968,990.002,806.867"/>
				</g>
			</g>
			<g>
				<polygon fill="#704B2E" points="1088.95,566.045 633.05,318.045 653.784,325.114 1109.685,573.114 				"/>
			</g>
			<g>
				<polygon fill="#6D492C" points="1069.064,600.935 613.165,352.935 633.05,318.045 1088.95,566.045 				"/>
			</g>
			<g enable-background="new    ">
				<defs>
					<path id="SVGID_3_" enable-background="new    " d="M1051.969,600.736l-455.9-248c5.83-0.482,11.54-0.403,17.097,0.199
						l455.899,248C1063.509,600.333,1057.799,600.254,1051.969,600.736z"/>
				</defs>
				<clipPath id="SVGID_4_">
					<use xlink:href="#SVGID_3_"  overflow="visible"/>
				</clipPath>
				<g clip-path="url(#SVGID_4_)" enable-background="new    ">
					<path fill="#714C2E" d="M1051.969,600.736l-455.9-248c5.83-0.482,11.54-0.403,17.097,0.199l455.899,248
						C1063.509,600.333,1057.799,600.254,1051.969,600.736"/>
				</g>
			</g>
			<g>
				<polygon fill="#6F4A2D" points="931.228,800.114 475.328,552.114 500.171,521.281 956.07,769.281 				"/>
			</g>
			<g>
				<polygon fill="#664428" points="944.536,818.091 488.636,570.091 475.328,552.114 931.228,800.114 				"/>
			</g>
			<g enable-background="new    ">
				<defs>
					<path id="SVGID_5_" enable-background="new    " d="M956.07,769.281l-455.899-248c-2.481-5.192-4.537-10.721-6.119-16.558
						l455.899,248C951.534,758.561,953.59,764.089,956.07,769.281z"/>
				</defs>
				<clipPath id="SVGID_6_">
					<use xlink:href="#SVGID_5_"  overflow="visible"/>
				</clipPath>
				<g clip-path="url(#SVGID_6_)" enable-background="new    ">
					<path fill="#674528" d="M956.07,769.281l-455.899-248c-2.481-5.192-4.537-10.721-6.119-16.558l455.899,248
						C951.534,758.561,953.59,764.089,956.07,769.281"/>
				</g>
			</g>
			<g enable-background="new    ">
				<defs>
					<path id="SVGID_7_" enable-background="new    " d="M1001.692,619.041l-455.899-248c5.155-3.508,10.575-6.586,16.225-9.187
						l455.9,248C1012.268,612.454,1006.848,615.533,1001.692,619.041z"/>
				</defs>
				<clipPath id="SVGID_8_">
					<use xlink:href="#SVGID_7_"  overflow="visible"/>
				</clipPath>
				<g clip-path="url(#SVGID_8_)" enable-background="new    ">
					<path fill="#704B2D" d="M1001.692,619.041l-455.899-248c4.868-3.313,9.973-6.243,15.284-8.749l455.9,248
						C1011.665,612.798,1006.561,615.728,1001.692,619.041"/>
					<path fill="#714C2E" d="M1016.978,610.292l-455.9-248c0.313-0.148,0.626-0.294,0.941-0.438l455.9,248
						C1017.604,609.998,1017.29,610.144,1016.978,610.292"/>
				</g>
			</g>
			<g>
				<polygon fill="#754E30" points="1019.841,570.754 563.941,322.754 586.542,317.027 1042.441,565.027 				"/>
			</g>
			<g>
				<polygon fill="#674428" points="1017.918,609.854 562.018,361.854 563.941,322.754 1019.841,570.754 				"/>
			</g>
			<g enable-background="new    ">
				<defs>
					<path id="SVGID_9_" enable-background="new    " d="M946.408,715.905l-455.9-248c0.43-6.569,1.394-13.067,2.864-19.454
						l455.9,248C947.803,702.839,946.838,709.336,946.408,715.905z"/>
				</defs>
				<clipPath id="SVGID_10_">
					<use xlink:href="#SVGID_9_"  overflow="visible"/>
				</clipPath>
				<g clip-path="url(#SVGID_10_)" enable-background="new    ">
					<path fill="#674528" d="M946.408,715.905l-455.9-248c0.43-6.569,1.394-13.067,2.864-19.454l455.9,248
						C947.803,702.839,946.838,709.336,946.408,715.905"/>
				</g>
			</g>
			<g enable-background="new    ">
				<defs>
					<path id="SVGID_11_" enable-background="new    " d="M963.151,661.057l-455.899-248c3.422-5.953,7.341-11.716,11.684-17.106
						l455.9,248C970.493,649.341,966.574,655.104,963.151,661.057z"/>
				</defs>
				<clipPath id="SVGID_12_">
					<use xlink:href="#SVGID_11_"  overflow="visible"/>
				</clipPath>
				<g clip-path="url(#SVGID_12_)" enable-background="new    ">
					<path fill="#6A472A" d="M963.151,661.057l-455.899-248c1.995-3.47,4.159-6.875,6.477-10.18l455.9,248
						C967.311,654.182,965.146,657.587,963.151,661.057"/>
					<path fill="#6C482B" d="M969.629,650.876l-455.9-248c1.659-2.365,3.396-4.678,5.208-6.926l455.9,248
						C973.024,646.199,971.287,648.512,969.629,650.876"/>
				</g>
			</g>
			<g>
				<polygon fill="#744E30" points="911.811,731.202 455.91,483.202 490.508,467.905 946.408,715.905 				"/>
			</g>
			<g>
				<polygon fill="#664428" points="914.128,755.261 458.228,507.261 455.91,483.202 911.811,731.202 				"/>
			</g>
			<g>
				<polygon fill="#664428" points="973.535,645.153 517.635,397.153 501.697,364.462 957.598,612.463 				"/>
			</g>
			<g>
				<polygon fill="#714C2E" points="957.598,612.463 501.697,364.462 520.115,347.473 976.016,595.473 				"/>
			</g>
			<g>
				<polygon fill="#664428" points="948.902,697.402 493.002,449.402 462.997,432.001 918.896,680.001 				"/>
			</g>
			<g>
				<polygon fill="#6B472A" points="918.896,680.001 462.997,432.001 472.298,408.297 928.198,656.297 				"/>
			</g>
			<g>
				<path fill="#815737" d="M1042.441,565.027l9.527,35.709c5.83-0.482,11.54-0.403,17.096,0.199l19.886-34.89l20.734,7.069
					l-8.791,37.947c4.967,2.777,9.638,6.053,13.947,9.804l31.574-21.26l13.308,17.968l-24.184,30.014
					c2.736,5.398,5.008,11.173,6.759,17.289l34.534-2.442l2.317,24.05l-32.828,14.521c-0.325,6.813-1.25,13.574-2.696,20.199
					l28.43,16.49l-9.294,23.694l-32.801-4.457c-3.43,6.11-7.341,11.933-11.667,17.39l15.061,30.912l-18.409,16.979l-24.215-22.208
					c-5.493,3.72-11.288,6.963-17.339,9.646l-2.272,37.29l-22.602,5.719l-9.184-34.375c-6.144,0.414-12.165,0.215-17.984-0.574
					l-19.347,33.933l-20.728-7.071l8.728-37.704c-4.896-2.899-9.485-6.29-13.724-10.155l-31.742,21.379l-13.309-17.977
					l24.843-30.833c-2.48-5.192-4.536-10.721-6.119-16.558l-35.823,2.537l-2.317-24.059l34.598-15.297
					c0.43-6.569,1.395-13.066,2.864-19.454l-0.37,0.951l-30.006-17.401l9.302-23.704l34.953,4.759
					c3.423-5.952,7.342-11.716,11.685-17.106l-1.301,1.203l-15.938-32.69l18.418-16.99l25.677,23.567
					c5.155-3.508,10.575-6.586,16.226-9.187l1.923-39.1L1042.441,565.027z"/>
			</g>
			<g>
				<polygon fill="#734D2F" points="928.198,656.297 472.298,408.297 507.252,413.057 963.151,661.057 				"/>
			</g>
		</g>
	</g>
</g>
<g>
	<g>
		<g enable-background="new    ">
			<g>
				<polygon fill="#8C6F4C" points="912.568,820.386 456.668,572.386 489.173,580.576 945.073,828.576 				"/>
			</g>
			<g>
				<polygon fill="#715A3C" points="846.474,968.846 390.574,720.846 373.996,691.253 829.896,939.253 				"/>
			</g>
			<g>
				<polygon fill="#937550" points="898.652,768.066 442.752,520.066 477.417,508.573 933.316,756.572 				"/>
			</g>
			<g>
				<polygon fill="#735C3D" points="777.267,978.764 321.367,730.764 321.821,693.66 777.721,941.66 				"/>
			</g>
			<g>
				<polygon fill="#896D4B" points="861.584,734.111 405.684,486.111 433.093,457.45 888.993,705.45 				"/>
			</g>
			<g enable-background="new    ">
				<defs>
					<path id="SVGID_13_" enable-background="new    " d="M845.858,728.654l-455.9-248c5.5,1.31,10.757,3.146,15.726,5.457
						l455.9,248C856.615,731.801,851.357,729.965,845.858,728.654z"/>
				</defs>
				<clipPath id="SVGID_14_">
					<use xlink:href="#SVGID_13_"  overflow="visible"/>
				</clipPath>
				<g clip-path="url(#SVGID_14_)" enable-background="new    ">
					<path fill="#8B6F4C" d="M845.858,728.654l-455.9-248c0.551,0.131,1.101,0.268,1.647,0.41l455.9,248
						C846.959,728.923,846.41,728.786,845.858,728.654"/>
					<path fill="#886C4A" d="M847.506,729.064l-455.9-248c4.904,1.273,9.608,2.968,14.078,5.046l455.9,248
						C857.114,732.032,852.409,730.338,847.506,729.064"/>
				</g>
			</g>
			<g>
				<polygon fill="#715A3C" points="734.605,963.444 278.706,715.444 261.41,702.014 717.31,950.014 				"/>
			</g>
			<g>
				<polygon fill="#7F6545" points="717.31,950.014 261.41,702.014 279.252,667.107 735.152,915.107 				"/>
			</g>
			<g enable-background="new    ">
				<defs>
					<path id="SVGID_15_" enable-background="new    " d="M735.152,915.107l-455.9-248c-3.763-4.39-7.125-9.19-10.031-14.339
						l455.9,248C728.026,905.917,731.39,910.718,735.152,915.107z"/>
				</defs>
				<clipPath id="SVGID_16_">
					<use xlink:href="#SVGID_15_"  overflow="visible"/>
				</clipPath>
				<g clip-path="url(#SVGID_16_)" enable-background="new    ">
					<path fill="#755D3E" d="M735.152,915.107l-455.9-248c-3.763-4.39-7.125-9.19-10.031-14.339l455.9,248
						C728.026,905.917,731.39,910.718,735.152,915.107"/>
				</g>
			</g>
			<g>
				<polygon fill="#7A6142" points="812.068,727.267 356.168,479.267 368.083,440.88 823.983,688.881 				"/>
			</g>
			<g>
				<polygon fill="#90734F" points="823.983,688.881 368.083,440.88 390.431,442.122 846.331,690.122 				"/>
			</g>
			<g enable-background="new    ">
				<defs>
					<path id="SVGID_17_" enable-background="new    " d="M794.707,731.436l-455.9-248c5.666-1.903,11.466-3.314,17.361-4.169
						l455.9,248C806.173,728.121,800.372,729.533,794.707,731.436z"/>
				</defs>
				<clipPath id="SVGID_18_">
					<use xlink:href="#SVGID_17_"  overflow="visible"/>
				</clipPath>
				<g clip-path="url(#SVGID_18_)" enable-background="new    ">
					<path fill="#8B6F4C" d="M794.707,731.436l-455.9-248c5.666-1.903,11.466-3.314,17.361-4.169l455.9,248
						C806.173,728.121,800.372,729.533,794.707,731.436"/>
				</g>
			</g>
			<g enable-background="new    ">
				<defs>
					<path id="SVGID_19_" enable-background="new    " d="M713.597,867.198l-455.899-248c-0.942-5.935-1.403-12.086-1.351-18.394
						l455.9,248C712.194,855.112,712.655,861.263,713.597,867.198z"/>
				</defs>
				<clipPath id="SVGID_20_">
					<use xlink:href="#SVGID_19_"  overflow="visible"/>
				</clipPath>
				<g clip-path="url(#SVGID_20_)" enable-background="new    ">
					<path fill="#755D3E" d="M713.597,867.198l-455.899-248c-0.942-5.935-1.403-12.086-1.351-18.394l455.9,248
						C712.194,855.112,712.655,861.263,713.597,867.198"/>
				</g>
			</g>
			<g>
				<polygon fill="#8E714E" points="682.667,890.304 226.767,642.303 257.697,619.198 713.597,867.198 				"/>
			</g>
			<g>
				<polygon fill="#715A3C" points="690.281,912.312 234.381,664.312 226.767,642.303 682.667,890.304 				"/>
			</g>
			<g enable-background="new    ">
				<defs>
					<path id="SVGID_21_" enable-background="new    " d="M748.221,761.481l-455.899-248c4.702-4.888,9.819-9.428,15.232-13.474
						l455.9,248C758.04,752.054,752.923,756.594,748.221,761.481z"/>
				</defs>
				<clipPath id="SVGID_22_">
					<use xlink:href="#SVGID_21_"  overflow="visible"/>
				</clipPath>
				<g clip-path="url(#SVGID_22_)" enable-background="new    ">
					<path fill="#816746" d="M748.221,761.481l-455.899-248c2.104-2.188,4.292-4.306,6.552-6.341l455.9,248
						C752.514,757.176,750.325,759.294,748.221,761.481"/>
					<path fill="#856A48" d="M754.773,755.141l-455.9-248c2.79-2.512,5.689-4.897,8.68-7.133l455.9,248
						C760.463,750.243,757.563,752.629,754.773,755.141"/>
				</g>
			</g>
			<g enable-background="new    ">
				<defs>
					<path id="SVGID_23_" enable-background="new    " d="M718.531,811.01l-455.9-248c2.103-6.416,4.684-12.604,7.698-18.517
						l455.9,248C723.215,798.405,720.633,804.595,718.531,811.01z"/>
				</defs>
				<clipPath id="SVGID_24_">
					<use xlink:href="#SVGID_23_"  overflow="visible"/>
				</clipPath>
				<g clip-path="url(#SVGID_24_)" enable-background="new    ">
					<path fill="#755D3E" d="M718.531,811.01l-455.9-248c0.482-1.471,0.989-2.929,1.521-4.375l455.9,248
						C719.521,808.08,719.013,809.539,718.531,811.01"/>
					<path fill="#785F40" d="M720.052,806.634l-455.9-248c1.788-4.863,3.854-9.584,6.177-14.141l455.9,248
						C723.906,797.05,721.84,801.771,720.052,806.634"/>
				</g>
			</g>
			<g>
				<polygon fill="#91744F" points="755.714,711.313 299.814,463.313 321.216,452.041 777.116,700.041 				"/>
			</g>
			<g>
				<polygon fill="#725A3C" points="761.938,748.809 306.038,500.809 299.814,463.313 755.714,711.313 				"/>
			</g>
			<g>
				<polygon fill="#937550" points="682.631,815.615 226.731,567.615 262.631,563.01 718.531,811.01 				"/>
			</g>
			<g>
				<polygon fill="#765E3F" points="678.524,840.317 222.625,592.317 226.731,567.615 682.631,815.615 				"/>
			</g>
			<g>
				<polygon fill="#856A48" points="717.203,745.978 261.304,497.978 292.321,513.481 748.221,761.481 				"/>
			</g>
			<g>
				<polygon fill="#846948" points="702.47,766.745 246.57,518.745 261.304,497.978 717.203,745.978 				"/>
			</g>
			<g>
				<polygon fill="#715A3C" points="725.644,793.318 269.743,545.319 246.57,518.745 702.47,766.745 				"/>
			</g>
			<g>
				<path fill="#AD895F" d="M823.983,688.881l22.348,1.241l-0.473,38.532c5.499,1.311,10.757,3.146,15.726,5.457l27.409-28.661
					l17.296,13.422l-17.964,35.121c3.859,4.299,7.318,9.008,10.327,14.073l34.664-11.494l7.606,22.02l-30.104,22.488
					c1.125,6.212,1.722,12.671,1.749,19.306l32.505,8.19l-4.106,24.694l-34.057,4.371c-2.079,6.698-4.686,13.15-7.74,19.319
					l21.958,25.179l-14.733,20.769l-29.105-14.537c-4.75,5.041-9.876,9.643-15.289,13.749l5.884,35.452l-21.41,11.273
					l-16.577-29.593c-5.748,1.921-11.64,3.326-17.614,4.166c-0.297,0.042-0.595,0.082-0.892,0.121l-11.776,36.473l-22.348-1.249
					l0.454-37.104c-5.779-1.47-11.284-3.522-16.453-6.098l-26.662,27.882l-17.296-13.431l17.843-34.906
					c-3.763-4.39-7.126-9.19-10.03-14.339l-34.841,11.544l-7.614-22.009l30.93-23.105c-0.941-5.936-1.402-12.086-1.351-18.395
					l-33.722-8.486l4.106-24.702l35.9-4.605c2.102-6.415,4.684-12.604,7.698-18.517l-0.586,0.825l-23.174-26.573l14.733-20.768
					l31.018,15.504c4.702-4.888,9.819-9.428,15.232-13.474l-1.515,0.801l-6.225-37.495l21.402-11.272l17.591,31.395
					c5.665-1.902,11.466-3.314,17.361-4.169L823.983,688.881z"/>
			</g>
		</g>
	</g>
</g>
<g>
	<g>
		<g enable-background="new    ">
			<g>
				<polygon fill="#6B4E2F" points="656.115,1070.716 200.215,822.716 176.619,799.755 632.52,1047.755 				"/>
			</g>
			<g>
				<polygon fill="#84613D" points="687.112,913.671 231.212,665.671 265.673,664.19 721.573,912.189 				"/>
			</g>
			<g>
				<polygon fill="#6B4E2F" points="589.204,1099.38 133.304,851.38 124.977,816.644 580.877,1064.644 				"/>
			</g>
			<g>
				<polygon fill="#825F3C" points="660.811,868.746 204.91,620.746 236.868,600.313 692.768,848.313 				"/>
			</g>
			<g>
				<polygon fill="#715232" points="522.405,1089.372 66.505,841.372 76.104,803.795 532.005,1051.796 				"/>
			</g>
			<g enable-background="new    ">
				<defs>
					<path id="SVGID_25_" enable-background="new    " d="M532.005,1051.796l-455.9-248.001c-4.807-3.04-9.309-6.573-13.434-10.567
						l455.9,248C522.696,1045.222,527.197,1048.755,532.005,1051.796z"/>
				</defs>
				<clipPath id="SVGID_26_">
					<use xlink:href="#SVGID_25_"  overflow="visible"/>
				</clipPath>
				<g clip-path="url(#SVGID_26_)" enable-background="new    ">
					<path fill="#6E5030" d="M532.005,1051.796l-455.9-248.001c-4.807-3.04-9.309-6.573-13.434-10.567l455.9,248
						C522.696,1045.222,527.197,1048.755,532.005,1051.796"/>
				</g>
			</g>
			<g>
				<polygon fill="#7D5B39" points="636.322,813.027 180.422,565.027 200.9,572.704 656.8,820.704 				"/>
			</g>
			<g>
				<polygon fill="#785836" points="615.678,847.463 159.777,599.463 180.422,565.027 636.322,813.027 				"/>
			</g>
			<g enable-background="new    ">
				<defs>
					<path id="SVGID_27_" enable-background="new    " d="M598.646,846.78l-455.899-248c5.814-0.316,11.507-0.08,17.031,0.683
						l455.9,248C610.153,846.701,604.46,846.464,598.646,846.78z"/>
				</defs>
				<clipPath id="SVGID_28_">
					<use xlink:href="#SVGID_27_"  overflow="visible"/>
				</clipPath>
				<g clip-path="url(#SVGID_28_)" enable-background="new    ">
					<path fill="#7F5D3A" d="M598.646,846.78l-455.899-248c5.814-0.316,11.507-0.08,17.031,0.683l455.9,248
						C610.153,846.701,604.46,846.464,598.646,846.78"/>
				</g>
			</g>
			<g>
				<polygon fill="#7C5B38" points="473.611,1043.364 17.711,795.364 43.193,765.142 499.093,1013.142 				"/>
			</g>
			<g>
				<polygon fill="#6B4E2F" points="486.445,1061.771 30.545,813.771 17.711,795.364 473.611,1043.364 				"/>
			</g>
			<g enable-background="new    ">
				<defs>
					<path id="SVGID_29_" enable-background="new    " d="M499.093,1013.142l-455.9-248c-2.344-5.28-4.264-10.889-5.703-16.78
						l455.9,248C494.829,1002.253,496.749,1007.861,499.093,1013.142z"/>
				</defs>
				<clipPath id="SVGID_30_">
					<use xlink:href="#SVGID_29_"  overflow="visible"/>
				</clipPath>
				<g clip-path="url(#SVGID_30_)" enable-background="new    ">
					<path fill="#6E5030" d="M499.093,1013.142l-455.9-248c-2.344-5.28-4.264-10.889-5.703-16.78l455.9,248
						C494.829,1002.253,496.749,1007.861,499.093,1013.142"/>
				</g>
			</g>
			<g enable-background="new    ">
				<defs>
					<path id="SVGID_31_" enable-background="new    " d="M548.125,863.728l-455.9-248c5.22-3.379,10.694-6.31,16.385-8.761
						l455.9,248C558.819,857.417,553.344,860.348,548.125,863.728z"/>
				</defs>
				<clipPath id="SVGID_32_">
					<use xlink:href="#SVGID_31_"  overflow="visible"/>
				</clipPath>
				<g clip-path="url(#SVGID_32_)" enable-background="new    ">
					<path fill="#7C5B39" d="M548.125,863.728l-455.9-248c4.167-2.698,8.496-5.11,12.968-7.219l455.9,248
						C556.621,858.617,552.292,861.029,548.125,863.728"/>
					<path fill="#7F5D3A" d="M561.093,856.508l-455.9-248c1.13-0.533,2.269-1.047,3.417-1.542l455.9,248
						C563.361,855.461,562.223,855.975,561.093,856.508"/>
				</g>
			</g>
			<g>
				<polygon fill="#85613D" points="567.353,815.798 111.453,567.798 134.101,562.695 590.001,810.695 				"/>
			</g>
			<g>
				<polygon fill="#6D5030" points="564.509,854.967 108.609,606.966 111.453,567.798 567.353,815.798 				"/>
			</g>
			<g enable-background="new    ">
				<defs>
					<path id="SVGID_33_" enable-background="new    " d="M490.737,959.323l-455.9-248c0.581-6.573,1.698-13.067,3.32-19.424
						l455.9,248C492.436,946.256,491.318,952.75,490.737,959.323z"/>
				</defs>
				<clipPath id="SVGID_34_">
					<use xlink:href="#SVGID_33_"  overflow="visible"/>
				</clipPath>
				<g clip-path="url(#SVGID_34_)" enable-background="new    ">
					<path fill="#6E5030" d="M490.737,959.323l-455.9-248c0.581-6.573,1.698-13.067,3.32-19.424l455.9,248
						C492.436,946.256,491.318,952.75,490.737,959.323"/>
				</g>
			</g>
			<g enable-background="new    ">
				<defs>
					<path id="SVGID_35_" enable-background="new    " d="M508.721,904.783l-455.9-248c3.551-5.875,7.597-11.545,12.051-16.83
						l455.9,248C516.318,893.239,512.271,898.908,508.721,904.783z"/>
				</defs>
				<clipPath id="SVGID_36_">
					<use xlink:href="#SVGID_35_"  overflow="visible"/>
				</clipPath>
				<g clip-path="url(#SVGID_36_)" enable-background="new    ">
					<path fill="#725433" d="M508.721,904.783l-455.9-248c1.561-2.583,3.218-5.126,4.963-7.615l455.9,248
						C511.938,899.657,510.282,902.2,508.721,904.783"/>
					<path fill="#755635" d="M513.684,897.169l-455.9-248c2.224-3.171,4.592-6.253,7.088-9.215l455.9,248
						C518.276,890.915,515.908,893.998,513.684,897.169"/>
				</g>
			</g>
			<g>
				<polygon fill="#84613D" points="455.9,973.692 0,725.692 34.837,711.323 490.737,959.323 				"/>
			</g>
			<g>
				<polygon fill="#6C4F2F" points="457.632,997.895 1.732,749.895 0,725.692 455.9,973.692 				"/>
			</g>
			<g>
				<polygon fill="#6B4E2F" points="519.449,889.125 63.549,641.125 48.444,607.886 504.344,855.886 				"/>
			</g>
			<g>
				<polygon fill="#7F5D3A" points="504.344,855.886 48.444,607.886 67.198,591.359 523.098,839.359 				"/>
			</g>
			<g>
				<polygon fill="#6B4E2F" points="493.663,940.837 37.763,692.837 8.288,674.531 464.188,922.531 				"/>
			</g>
			<g>
				<polygon fill="#745534" points="464.188,922.531 8.288,674.531 18.109,651.021 474.01,899.021 				"/>
			</g>
			<g>
				<path fill="#997048" d="M590.001,810.695l8.645,36.085c5.814-0.316,11.508-0.079,17.032,0.683l20.645-34.436l20.478,7.677
					l-9.656,37.809c4.88,2.928,9.454,6.348,13.667,10.233l31.957-20.433l12.827,18.398l-24.808,29.428
					c2.6,5.487,4.728,11.342,6.325,17.531l34.461-1.481l1.731,24.193l-33.042,13.643c-0.493,6.82-1.57,13.576-3.177,20.181
					l27.939,17.338l-9.83,23.511l-32.565-5.398c-3.56,6.033-7.598,11.761-12.044,17.114l14.275,31.428l-18.746,16.518
					l-23.596-22.961c-5.564,3.574-11.416,6.661-17.499,9.193l-3.161,37.329l-22.655,5.103l-8.327-34.736
					c-6.127,0.247-12.116-0.13-17.904-1.08l-20.083,33.483l-20.486-7.675l9.6-37.576c-4.808-3.041-9.309-6.574-13.434-10.568
					l-32.126,20.543l-12.834-18.406l25.482-30.223c-2.344-5.28-4.264-10.889-5.703-16.78l-35.758,1.533l-1.732-24.202l34.836-14.369
					c0.581-6.573,1.699-13.067,3.32-19.424l-0.395,0.938l-29.475-18.306l9.822-23.51l34.711,5.762
					c3.551-5.875,7.598-11.544,12.051-16.829l-1.323,1.171l-15.104-33.239l18.753-16.526l25.027,24.368
					c5.219-3.38,10.694-6.311,16.384-8.761l2.844-39.169L590.001,810.695z"/>
			</g>
			<g>
				<polygon fill="#815E3B" points="474.01,899.021 18.109,651.021 52.821,656.784 508.721,904.783 				"/>
			</g>
		</g>
	</g>
</g>
<g>
	<g>
		<g enable-background="new    ">
			<g>
				<polygon fill="#805E3B" points="979.746,553.819 523.846,305.819 556.345,312.713 1012.245,560.713 				"/>
			</g>
			<g>
				<polygon fill="#6B4E2F" points="917.532,703.842 461.632,455.842 443.894,426.672 899.794,674.672 				"/>
			</g>
			<g>
				<polygon fill="#84613D" points="964.38,501.962 508.48,253.962 542.361,241.489 998.262,489.49 				"/>
			</g>
			<g>
				<polygon fill="#6C4F30" points="848.361,716.21 392.461,468.21 391.778,430.652 847.679,678.652 				"/>
			</g>
			<g>
				<polygon fill="#7D5B39" points="925.987,469.248 470.088,221.248 496.32,192.199 952.22,440.199 				"/>
			</g>
			<g>
				<polygon fill="#6B4E2F" points="805.072,702.491 349.172,454.491 331.402,441.749 787.303,689.749 				"/>
			</g>
			<g enable-background="new    ">
				<defs>
					<path id="SVGID_37_" enable-background="new    " d="M909.613,464.271l-455.9-248c5.652,1.107,11.134,2.774,16.375,4.977
						l455.899,248C920.747,467.045,915.265,465.378,909.613,464.271z"/>
				</defs>
				<clipPath id="SVGID_38_">
					<use xlink:href="#SVGID_37_"  overflow="visible"/>
				</clipPath>
				<g clip-path="url(#SVGID_38_)" enable-background="new    ">
					<path fill="#7F5D3A" d="M909.613,464.271l-455.9-248c1.688,0.331,3.361,0.711,5.018,1.141l455.899,248
						C912.975,464.982,911.301,464.602,909.613,464.271"/>
					<path fill="#7C5B39" d="M914.63,465.412l-455.899-248c3.888,1.01,7.682,2.291,11.357,3.835l455.899,248
						C922.312,467.703,918.519,466.422,914.63,465.412"/>
				</g>
			</g>
			<g>
				<polygon fill="#755635" points="787.303,689.749 331.402,441.749 348.526,405.812 804.427,653.812 				"/>
			</g>
			<g enable-background="new    ">
				<defs>
					<path id="SVGID_39_" enable-background="new    " d="M804.427,653.812l-455.9-248c-3.772-4.078-7.207-8.608-10.249-13.548
						l455.9,248C797.22,645.205,800.654,649.735,804.427,653.812z"/>
				</defs>
				<clipPath id="SVGID_40_">
					<use xlink:href="#SVGID_39_"  overflow="visible"/>
				</clipPath>
				<g clip-path="url(#SVGID_40_)" enable-background="new    ">
					<path fill="#6E5030" d="M804.427,653.812l-455.9-248c-3.772-4.078-7.207-8.608-10.249-13.548l455.9,248
						C797.22,645.205,800.654,649.735,804.427,653.812"/>
				</g>
			</g>
			<g>
				<polygon fill="#715333" points="875.3,464.288 419.399,216.288 430.562,178.051 886.462,426.051 				"/>
			</g>
			<g>
				<polygon fill="#83603C" points="886.462,426.051 430.562,178.051 453.031,178.489 908.931,426.489 				"/>
			</g>
			<g enable-background="new    ">
				<defs>
					<path id="SVGID_41_" enable-background="new    " d="M858.177,469.15l-455.899-248c5.698-2.167,11.426-3.785,17.122-4.862
						l455.9,248C869.604,465.365,863.875,466.983,858.177,469.15z"/>
				</defs>
				<clipPath id="SVGID_42_">
					<use xlink:href="#SVGID_41_"  overflow="visible"/>
				</clipPath>
				<g clip-path="url(#SVGID_42_)" enable-background="new    ">
					<path fill="#7F5D3A" d="M858.177,469.15l-455.899-248c5.698-2.167,11.426-3.785,17.122-4.862l455.9,248
						C869.604,465.365,863.875,466.983,858.177,469.15"/>
				</g>
			</g>
			<g enable-background="new    ">
				<defs>
					<path id="SVGID_43_" enable-background="new    " d="M781.459,607.156l-455.9-248c-1.205-6.21-1.858-12.532-1.982-18.885
						l455.9,248C779.601,594.624,780.254,600.946,781.459,607.156z"/>
				</defs>
				<clipPath id="SVGID_44_">
					<use xlink:href="#SVGID_43_"  overflow="visible"/>
				</clipPath>
				<g clip-path="url(#SVGID_44_)" enable-background="new    ">
					<path fill="#6E5030" d="M781.459,607.156l-455.9-248c-1.205-6.21-1.858-12.532-1.982-18.885l455.9,248
						C779.601,594.624,780.254,600.946,781.459,607.156"/>
				</g>
			</g>
			<g>
				<polygon fill="#805E3B" points="750.719,631.574 294.819,383.574 325.559,359.156 781.459,607.156 				"/>
			</g>
			<g>
				<polygon fill="#6B4E2F" points="759.031,653.2 303.131,405.2 294.819,383.574 750.719,631.574 				"/>
			</g>
			<g enable-background="new    ">
				<defs>
					<path id="SVGID_45_" enable-background="new    " d="M812.528,500.979l-455.899-248c4.277-4.776,8.921-9.232,13.918-13.314
						l455.9,248C821.45,491.747,816.806,496.203,812.528,500.979z"/>
				</defs>
				<clipPath id="SVGID_46_">
					<use xlink:href="#SVGID_45_"  overflow="visible"/>
				</clipPath>
				<g clip-path="url(#SVGID_46_)" enable-background="new    ">
					<path fill="#775736" d="M812.528,500.979l-455.899-248c2.975-3.322,6.127-6.489,9.452-9.483l455.9,248
						C818.656,494.49,815.504,497.658,812.528,500.979"/>
					<path fill="#7A5937" d="M821.981,491.496l-455.9-248c1.456-1.311,2.945-2.588,4.466-3.831l455.9,248
						C824.926,488.908,823.437,490.186,821.981,491.496"/>
				</g>
			</g>
			<g enable-background="new    ">
				<defs>
					<path id="SVGID_47_" enable-background="new    " d="M784.511,551.345l-455.9-248c1.934-6.539,4.42-13.043,7.403-19.323
						l455.9,248C788.932,538.302,786.445,544.806,784.511,551.345z"/>
				</defs>
				<clipPath id="SVGID_48_">
					<use xlink:href="#SVGID_47_"  overflow="visible"/>
				</clipPath>
				<g clip-path="url(#SVGID_48_)" enable-background="new    ">
					<path fill="#6E5030" d="M784.511,551.345l-455.9-248c0.8-2.705,1.695-5.405,2.68-8.085l455.9,248
						C786.206,545.94,785.311,548.64,784.511,551.345"/>
					<path fill="#705232" d="M787.191,543.26l-455.9-248c1.396-3.797,2.975-7.556,4.723-11.238l455.9,248
						C790.165,535.704,788.587,539.462,787.191,543.26"/>
				</g>
			</g>
			<g>
				<polygon fill="#83603C" points="818.612,450.836 362.712,202.836 383.86,190.848 839.76,438.848 				"/>
			</g>
			<g>
				<polygon fill="#6B4E2F" points="826.447,487.665 370.547,239.665 362.712,202.836 818.612,450.836 				"/>
			</g>
			<g>
				<polygon fill="#85613D" points="748.416,557.248 292.516,309.248 328.611,303.345 784.511,551.345 				"/>
			</g>
			<g>
				<polygon fill="#6E5131" points="745.038,581.979 289.139,333.979 292.516,309.248 748.416,557.248 				"/>
			</g>
			<g>
				<polygon fill="#7B5A38" points="781.005,486.713 325.104,238.713 356.629,252.979 812.528,500.979 				"/>
			</g>
			<g>
				<polygon fill="#795937" points="766.847,507.911 310.947,259.911 325.104,238.713 781.005,486.713 				"/>
			</g>
			<g>
				<polygon fill="#6B4E2F" points="790.918,533.519 335.019,285.519 310.947,259.911 766.847,507.911 				"/>
			</g>
			<g>
				<path fill="#997048" d="M886.462,426.051l22.469,0.438l0.683,37.782c5.651,1.107,11.134,2.774,16.374,4.977l26.232-29.049
					l17.77,12.742l-16.666,34.982c4.076,4.199,7.784,8.881,11.057,14.04l33.882-12.473l8.304,21.636l-29.152,23.158
					c1.365,6.412,2.13,12.96,2.333,19.536l32.499,6.894l-3.369,24.729l-33.868,5.547c-1.901,6.681-4.349,13.231-7.323,19.58
					l22.753,24.221l-14.149,21.187l-29.725-13.447c-4.558,5.076-9.539,9.795-14.905,14.076l7.021,35.249l-21.147,11.988
					l-17.738-29.169c-6.035,2.197-12.092,3.792-18.107,4.784l-10.863,37.184l-22.462-0.43l-0.683-37.558
					c-5.611-1.243-11.046-3.037-16.238-5.359l-26.368,29.198l-17.77-12.742l17.124-35.937c-3.772-4.078-7.207-8.608-10.249-13.548
					L759.031,653.2l-8.312-21.626l30.74-24.418c-1.205-6.21-1.858-12.532-1.982-18.885l-0.138,0.987l-34.301-7.28l3.378-24.73
					l36.095-5.903c1.935-6.539,4.421-13.043,7.403-19.323l-0.996,1.497l-24.071-25.608l14.158-21.197l31.523,14.266
					c4.277-4.776,8.922-9.232,13.919-13.314l-7.835-36.829l21.147-11.988l18.417,30.302c5.698-2.167,11.427-3.785,17.123-4.862
					L886.462,426.051z"/>
			</g>
		</g>
	</g>
</g>
<g>
	<g>
		<g enable-background="new    ">
			<g>
				<polygon fill="#674221" points="746.384,650.404 290.484,402.404 322.997,410.592 778.897,658.592 				"/>
			</g>
			<g>
				<polygon fill="#603E1D" points="680.298,798.854 224.397,550.853 207.82,521.27 663.72,769.27 				"/>
			</g>
			<g>
				<polygon fill="#694422" points="732.477,598.074 276.576,350.074 311.232,338.59 767.132,586.59 				"/>
			</g>
			<g>
				<polygon fill="#603E1D" points="611.083,808.781 155.183,560.781 155.645,523.676 611.544,771.677 				"/>
			</g>
			<g>
				<polygon fill="#664220" points="695.399,564.128 239.5,316.128 266.908,287.458 722.808,535.458 				"/>
			</g>
			<g enable-background="new    ">
				<defs>
					<path id="SVGID_49_" enable-background="new    " d="M679.674,558.671l-455.899-248c5.507,1.31,10.756,3.139,15.725,5.457
						l455.9,248C690.431,561.81,685.181,559.981,679.674,558.671z"/>
				</defs>
				<clipPath id="SVGID_50_">
					<use xlink:href="#SVGID_49_"  overflow="visible"/>
				</clipPath>
				<g clip-path="url(#SVGID_50_)" enable-background="new    ">
					<path fill="#674221" d="M679.674,558.671l-455.899-248c0.565,0.134,1.128,0.274,1.688,0.42l455.9,248
						C680.803,558.946,680.24,558.806,679.674,558.671"/>
					<path fill="#664220" d="M681.363,559.091l-455.9-248c4.894,1.271,9.578,2.957,14.037,5.037l455.9,248
						C690.941,562.048,686.257,560.362,681.363,559.091"/>
				</g>
			</g>
			<g>
				<polygon fill="#603E1D" points="568.421,793.452 112.521,545.453 95.225,532.031 551.125,780.03 				"/>
			</g>
			<g>
				<polygon fill="#64401F" points="551.125,780.03 95.225,532.031 113.076,497.124 568.976,745.124 				"/>
			</g>
			<g enable-background="new    ">
				<defs>
					<path id="SVGID_51_" enable-background="new    " d="M568.976,745.124l-455.9-248c-3.771-4.396-7.126-9.198-10.031-14.348
						l455.9,248C561.85,735.926,565.205,740.727,568.976,745.124z"/>
				</defs>
				<clipPath id="SVGID_52_">
					<use xlink:href="#SVGID_51_"  overflow="visible"/>
				</clipPath>
				<g clip-path="url(#SVGID_52_)" enable-background="new    ">
					<path fill="#613E1D" d="M568.976,745.124l-455.9-248c-3.771-4.396-7.126-9.198-10.031-14.348l455.9,248
						C561.85,735.926,565.205,740.727,568.976,745.124"/>
				</g>
			</g>
			<g>
				<polygon fill="#623F1E" points="645.884,557.284 189.983,309.284 201.907,270.896 657.807,518.897 				"/>
			</g>
			<g>
				<polygon fill="#684321" points="657.807,518.897 201.907,270.896 224.247,272.139 680.146,520.139 				"/>
			</g>
			<g enable-background="new    ">
				<defs>
					<path id="SVGID_53_" enable-background="new    " d="M628.522,561.453l-455.9-248c5.673-1.913,11.474-3.316,17.361-4.169
						l455.9,248C639.996,558.138,634.195,559.541,628.522,561.453z"/>
				</defs>
				<clipPath id="SVGID_54_">
					<use xlink:href="#SVGID_53_"  overflow="visible"/>
				</clipPath>
				<g clip-path="url(#SVGID_54_)" enable-background="new    ">
					<path fill="#674221" d="M628.522,561.453l-455.9-248c5.673-1.913,11.474-3.316,17.361-4.169l455.9,248
						C639.996,558.138,634.195,559.541,628.522,561.453"/>
				</g>
			</g>
			<g enable-background="new    ">
				<defs>
					<path id="SVGID_55_" enable-background="new    " d="M547.413,697.216l-455.9-248c-0.934-5.945-1.395-12.096-1.351-18.395
						l455.9,248C546.018,685.12,546.479,691.271,547.413,697.216z"/>
				</defs>
				<clipPath id="SVGID_56_">
					<use xlink:href="#SVGID_55_"  overflow="visible"/>
				</clipPath>
				<g clip-path="url(#SVGID_56_)" enable-background="new    ">
					<path fill="#613E1D" d="M547.413,697.216l-455.9-248c-0.934-5.945-1.395-12.096-1.351-18.395l455.9,248
						C546.018,685.12,546.479,691.271,547.413,697.216"/>
				</g>
			</g>
			<g>
				<polygon fill="#674321" points="516.491,720.311 60.591,472.311 91.513,449.215 547.413,697.216 				"/>
			</g>
			<g>
				<polygon fill="#603E1D" points="524.105,742.329 68.205,494.329 60.591,472.311 516.491,720.311 				"/>
			</g>
			<g enable-background="new    ">
				<defs>
					<path id="SVGID_57_" enable-background="new    " d="M582.044,591.489l-455.9-248c4.702-4.879,9.819-9.419,15.224-13.464
						l455.9,248C591.864,582.07,586.746,586.61,582.044,591.489z"/>
				</defs>
				<clipPath id="SVGID_58_">
					<use xlink:href="#SVGID_57_"  overflow="visible"/>
				</clipPath>
				<g clip-path="url(#SVGID_58_)" enable-background="new    ">
					<path fill="#64411F" d="M582.044,591.489l-455.9-248c2.1-2.179,4.282-4.29,6.536-6.32l455.9,248
						C586.327,587.199,584.144,589.311,582.044,591.489"/>
					<path fill="#654120" d="M588.581,585.169l-455.9-248c2.793-2.516,5.697-4.906,8.688-7.144l455.9,248
						C594.277,580.264,591.374,582.654,588.581,585.169"/>
				</g>
			</g>
			<g enable-background="new    ">
				<defs>
					<path id="SVGID_59_" enable-background="new    " d="M552.354,641.018l-455.9-248c2.102-6.407,4.684-12.596,7.69-18.507
						l455.9,248C557.039,628.422,554.457,634.611,552.354,641.018z"/>
				</defs>
				<clipPath id="SVGID_60_">
					<use xlink:href="#SVGID_59_"  overflow="visible"/>
				</clipPath>
				<g clip-path="url(#SVGID_60_)" enable-background="new    ">
					<path fill="#613E1D" d="M552.354,641.018l-455.9-248c0.479-1.46,0.983-2.91,1.512-4.347l455.9,248
						C553.338,638.108,552.834,639.557,552.354,641.018"/>
					<path fill="#623F1E" d="M553.866,636.671l-455.9-248c1.79-4.867,3.858-9.597,6.179-14.16l455.9,248
						C557.724,627.074,555.656,631.804,553.866,636.671"/>
				</g>
			</g>
			<g>
				<polygon fill="#684322" points="589.53,541.331 133.63,293.331 155.04,282.058 610.94,530.058 				"/>
			</g>
			<g>
				<polygon fill="#603E1D" points="595.754,578.826 139.854,330.826 133.63,293.331 589.53,541.331 				"/>
			</g>
			<g>
				<polygon fill="#694422" points="516.447,645.633 60.546,397.633 96.455,393.018 552.354,641.018 				"/>
			</g>
			<g>
				<polygon fill="#613F1E" points="512.34,670.335 56.44,422.335 60.546,397.633 516.447,645.633 				"/>
			</g>
			<g>
				<polygon fill="#654120" points="551.019,575.995 95.119,327.995 126.145,343.489 582.044,591.489 				"/>
			</g>
			<g>
				<polygon fill="#654120" points="536.294,596.762 80.394,348.762 95.119,327.995 551.019,575.995 				"/>
			</g>
			<g>
				<polygon fill="#603E1D" points="559.458,623.336 103.559,375.336 80.394,348.762 536.294,596.762 				"/>
			</g>
			<g>
				<path fill="#704926" d="M657.807,518.897l22.34,1.242l-0.473,38.532c5.507,1.31,10.757,3.139,15.726,5.457l27.408-28.67
					l17.305,13.43l-17.964,35.122c3.859,4.298,7.318,9.007,10.328,14.064l34.655-11.484l7.614,22.018l-30.111,22.48
					c1.125,6.221,1.722,12.681,1.749,19.316l32.514,8.188l-4.115,24.695l-34.058,4.373c-2.07,6.688-4.677,13.147-7.739,19.309
					l21.958,25.188l-14.725,20.767l-29.106-14.536c-4.758,5.034-9.875,9.635-15.297,13.75l5.884,35.452l-21.401,11.264
					L663.72,769.27c-5.748,1.92-11.64,3.326-17.613,4.166c-0.297,0.042-0.595,0.082-0.893,0.121l-11.784,36.466l-22.347-1.241
					l0.461-37.104c-5.786-1.469-11.284-3.522-16.461-6.097l-26.662,27.872l-17.296-13.422l17.851-34.906
					c-3.771-4.397-7.126-9.198-10.031-14.348l-34.84,11.553l-7.614-22.019l30.922-23.095c-0.934-5.945-1.395-12.096-1.351-18.395
					l-33.721-8.486l4.106-24.703l35.908-4.615c2.102-6.407,4.684-12.596,7.69-18.507l-0.586,0.826l-23.165-26.575l14.725-20.767
					l31.025,15.495c4.702-4.879,9.82-9.419,15.224-13.463l-1.515,0.8l-6.224-37.496l21.41-11.273l17.582,31.396
					c5.673-1.913,11.474-3.315,17.361-4.169L657.807,518.897z"/>
			</g>
		</g>
	</g>
</g>
<g>
	<g>
		<g enable-background="new    ">
			<g>
				<polygon fill="#715A3C" points="810.663,488.613 354.763,240.612 326.694,224.158 782.595,472.158 				"/>
			</g>
			<g>
				<polygon fill="#8A6E4B" points="822.228,385.878 366.327,137.877 398.099,148.158 853.999,396.159 				"/>
			</g>
			<g>
				<polygon fill="#715A3C" points="748.852,531.047 292.951,283.047 278.106,252.234 734.006,500.235 				"/>
			</g>
			<g>
				<polygon fill="#937551" points="811.229,332.361 355.329,84.361 390.277,74.989 846.177,322.989 				"/>
			</g>
			<g>
				<polygon fill="#745C3E" points="679.757,536.662 223.856,288.662 226.281,251.368 682.181,499.368 				"/>
			</g>
			<g>
				<polygon fill="#8B6E4C" points="776.303,295.866 320.402,47.866 349.082,20.764 804.981,268.764 				"/>
			</g>
			<g enable-background="new    ">
				<defs>
					<path id="SVGID_61_" enable-background="new    " d="M668.492,493.487c-151.971-82.668-303.93-165.333-455.9-248
						c-0.771-0.42-1.535-0.852-2.29-1.295l455.9,248C666.958,492.636,667.721,493.067,668.492,493.487z"/>
				</defs>
				<clipPath id="SVGID_62_">
					<use xlink:href="#SVGID_61_"  overflow="visible"/>
				</clipPath>
				<g clip-path="url(#SVGID_62_)" enable-background="new    ">
					<path fill="#755D3E" d="M668.492,493.487l-455.9-248c-0.771-0.42-1.535-0.852-2.29-1.295l455.9,248
						C666.958,492.636,667.721,493.068,668.492,493.487"/>
				</g>
			</g>
			<g enable-background="new    ">
				<defs>
					<path id="SVGID_63_" enable-background="new    " d="M320.115,47.708c151.97,82.668,303.93,165.333,455.9,248
						c-4.717-2.565-9.726-4.69-15.004-6.321l-455.9-248C310.39,43.019,315.399,45.143,320.115,47.708z"/>
				</defs>
				<clipPath id="SVGID_64_">
					<use xlink:href="#SVGID_63_"  overflow="visible"/>
				</clipPath>
				<g clip-path="url(#SVGID_64_)" enable-background="new    ">
					<path fill="#886C4A" d="M761.012,289.388l-455.9-248c4.184,1.292,8.198,2.895,12.031,4.782l455.9,248
						C769.21,292.283,765.195,290.681,761.012,289.388"/>
					<path fill="#856A48" d="M773.043,294.17l-455.9-248c1.003,0.494,1.994,1.007,2.972,1.539l455.9,248
						C775.037,295.177,774.046,294.664,773.043,294.17"/>
				</g>
			</g>
			<g>
				<polygon fill="#816746" points="621.881,503.971 165.981,255.971 185.52,221.977 641.42,469.977 				"/>
			</g>
			<g>
				<polygon fill="#715A3C" points="638.302,518.562 182.402,270.562 165.981,255.971 621.881,503.971 				"/>
			</g>
			<g enable-background="new    ">
				<defs>
					<path id="SVGID_65_" enable-background="new    " d="M641.42,469.977l-455.9-248c-3.499-4.66-6.572-9.7-9.181-15.064l455.9,248
						C634.848,460.277,637.921,465.317,641.42,469.977z"/>
				</defs>
				<clipPath id="SVGID_66_">
					<use xlink:href="#SVGID_65_"  overflow="visible"/>
				</clipPath>
				<g clip-path="url(#SVGID_66_)" enable-background="new    ">
					<path fill="#755D3E" d="M641.42,469.977l-455.9-248c-3.499-4.66-6.572-9.7-9.181-15.064l455.9,248
						C634.848,460.277,637.921,465.317,641.42,469.977"/>
				</g>
			</g>
			<g>
				<polygon fill="#8F724E" points="741.462,248 285.562,0 307.635,2.654 763.534,250.654 				"/>
			</g>
			<g>
				<polygon fill="#7B6243" points="727.609,285.863 271.709,37.863 285.562,0 741.462,248 				"/>
			</g>
			<g enable-background="new    ">
				<defs>
					<path id="SVGID_67_" enable-background="new    " d="M710.187,288.969l-455.9-248c4.011-1.097,8.073-1.942,12.169-2.518
						c1.746-0.245,3.497-0.441,5.254-0.588l455.9,248c-1.757,0.147-3.509,0.343-5.255,0.588
						C718.259,287.026,714.197,287.872,710.187,288.969z"/>
				</defs>
				<clipPath id="SVGID_68_">
					<use xlink:href="#SVGID_67_"  overflow="visible"/>
				</clipPath>
				<g clip-path="url(#SVGID_68_)" enable-background="new    ">
					<path fill="#8B6F4C" d="M710.187,288.969l-455.9-248c4.011-1.097,8.073-1.942,12.169-2.518
						c1.746-0.245,3.497-0.441,5.254-0.588l455.9,248c-1.757,0.147-3.509,0.343-5.255,0.588
						C718.259,287.026,714.197,287.872,710.187,288.969"/>
				</g>
			</g>
			<g enable-background="new    ">
				<defs>
					<path id="SVGID_69_" enable-background="new    " d="M622.605,420.42l-455.9-248c-0.613-6.034-0.746-12.248-0.357-18.586
						l455.9,248C621.86,408.172,621.993,414.386,622.605,420.42z"/>
				</defs>
				<clipPath id="SVGID_70_">
					<use xlink:href="#SVGID_69_"  overflow="visible"/>
				</clipPath>
				<g clip-path="url(#SVGID_70_)" enable-background="new    ">
					<path fill="#755D3E" d="M622.605,420.42l-455.9-248c-0.613-6.034-0.746-12.248-0.357-18.586l455.9,248
						C621.86,408.172,621.993,414.386,622.605,420.42"/>
				</g>
			</g>
			<g enable-background="new    ">
				<defs>
					<path id="SVGID_71_" enable-background="new    " d="M662.536,316.257l-455.9-248c4.917-4.616,10.234-8.864,15.807-12.595
						l455.899,248C672.771,307.393,667.454,311.641,662.536,316.257z"/>
				</defs>
				<clipPath id="SVGID_72_">
					<use xlink:href="#SVGID_71_"  overflow="visible"/>
				</clipPath>
				<g clip-path="url(#SVGID_72_)" enable-background="new    ">
					<path fill="#816746" d="M662.536,316.257l-455.9-248c0.633-0.595,1.273-1.183,1.919-1.765l455.9,248
						C663.81,315.074,663.169,315.663,662.536,316.257"/>
					<path fill="#856A48" d="M664.455,314.492l-455.9-248c3.915-3.525,8.062-6.815,12.372-9.798l455.9,248
						C672.517,307.677,668.37,310.967,664.455,314.492"/>
					<path fill="#886C4A" d="M676.827,304.694l-455.9-248c0.503-0.349,1.008-0.692,1.516-1.032l455.899,248
						C677.836,304.002,677.33,304.346,676.827,304.694"/>
				</g>
			</g>
			<g>
				<polygon fill="#715A3C" points="597.106,464.337 141.207,216.337 134.834,193.713 590.734,441.713 				"/>
			</g>
			<g>
				<polygon fill="#8F724E" points="590.734,441.713 134.834,193.713 166.706,172.42 622.605,420.42 				"/>
			</g>
			<g enable-background="new    ">
				<defs>
					<path id="SVGID_73_" enable-background="new    " d="M630.487,364.207l-455.9-248c2.422-6.321,5.309-12.38,8.61-18.135
						l455.899,248C635.795,351.826,632.909,357.885,630.487,364.207z"/>
				</defs>
				<clipPath id="SVGID_74_">
					<use xlink:href="#SVGID_73_"  overflow="visible"/>
				</clipPath>
				<g clip-path="url(#SVGID_74_)" enable-background="new    ">
					<path fill="#785F40" d="M630.487,364.207l-455.9-248c1.993-5.2,4.299-10.223,6.893-15.045l455.9,248
						C634.786,353.983,632.479,359.006,630.487,364.207"/>
					<path fill="#7B6242" d="M637.38,349.161l-455.9-248c0.559-1.039,1.131-2.069,1.717-3.09l455.899,248
						C638.512,347.092,637.939,348.122,637.38,349.161"/>
				</g>
			</g>
			<g>
				<polygon fill="#725A3D" points="676.797,304.372 220.896,56.372 216.724,18.268 672.624,266.269 				"/>
			</g>
			<g>
				<polygon fill="#927450" points="672.624,266.269 216.724,18.268 238.532,8.279 694.432,256.279 				"/>
			</g>
			<g>
				<polygon fill="#927450" points="594.671,366.579 138.771,118.578 174.587,116.206 630.487,364.207 				"/>
			</g>
			<g>
				<polygon fill="#785F40" points="589.284,391.167 133.384,143.167 138.771,118.578 594.671,366.579 				"/>
			</g>
			<g>
				<polygon fill="#715A3C" points="638.472,346.868 182.571,98.868 161.027,70.674 616.927,318.674 				"/>
			</g>
			<g>
				<path fill="#AD895F" d="M741.462,248l22.072,2.654l-2.522,38.734c5.386,1.664,10.491,3.842,15.291,6.478l28.679-27.102
					l16.43,14.59l-19.668,34.203c3.595,4.569,6.772,9.516,9.486,14.805l34.947-9.373l6.372,22.625l-31.021,20.724
					c0.78,6.321,1.024,12.857,0.7,19.541l31.771,10.281l-5.379,24.579l-33.982,2.261c-2.406,6.597-5.333,12.929-8.691,18.933
					l20.418,26.719l-15.701,19.962l-28.068-16.455c-4.974,4.762-10.291,9.07-15.88,12.864l3.944,36.036l-21.808,9.989
					l-14.846-30.812c-3.942,1.063-7.938,1.888-11.967,2.454c-2.191,0.308-4.394,0.54-6.601,0.692l-13.609,35.944l-22.072-2.663
					l2.424-37.293c-5.65-1.842-10.994-4.246-15.978-7.176l-27.901,26.371l-16.421-14.591l19.539-33.995
					c-3.499-4.66-6.572-9.7-9.181-15.064l-35.133,9.425l-6.372-22.625l31.871-21.293c-0.612-6.034-0.745-12.248-0.357-18.586
					l-32.964-10.667l5.387-24.588l35.816-2.372c2.422-6.322,5.308-12.381,8.609-18.135l-0.625,0.797l-21.545-28.194l15.701-19.97
					l29.908,17.553c4.918-4.616,10.234-8.864,15.807-12.595l-1.546,0.71l-4.173-38.104l21.808-9.99l15.755,32.69
					c4.011-1.097,8.072-1.942,12.168-2.518c1.746-0.246,3.498-0.441,5.255-0.588L741.462,248z"/>
			</g>
			<g>
				<polygon fill="#866B49" points="616.927,318.674 161.027,70.674 176.728,50.704 632.628,298.704 				"/>
			</g>
		</g>
	</g>
</g>
</svg>
