<?xml version="1.0" encoding="utf-8"?>
<!-- Generator: Adobe Illustrator 15.0.0, SVG Export Plug-In . SVG Version: 6.00 Build 0)  -->
<!DOCTYPE svg PUBLIC "-//W3C//DTD SVG 1.1//EN" "http://www.w3.org/Graphics/SVG/1.1/DTD/svg11.dtd">
<svg version="1.1" id="Layer_2" xmlns="http://www.w3.org/2000/svg" xmlns:xlink="http://www.w3.org/1999/xlink" x="0px" y="0px"
	 width="269px" height="114.333px" viewBox="0 0 269 114.333" enable-background="new 0 0 269 114.333" xml:space="preserve">
<g>
	<g>
		<path fill="#FFFFFF" d="M265.5,0.5c1.658,0,3,1.343,3,3v107.333c0,1.656-1.342,3-3,3H3.5c-1.657,0-3-1.344-3-3V3.5
			c0-1.657,1.343-3,3-3H265.5z"/>
		<path fill="#E6E7E8" d="M269,3.5v107.333c0,1.93-1.57,3.5-3.5,3.5H3.5c-1.93,0-3.5-1.57-3.5-3.5V3.5C0,1.57,1.57,0,3.5,0h262
			C267.429,0,269,1.57,269,3.5z M1,110.833c0,1.378,1.122,2.5,2.5,2.5h262c1.379,0,2.5-1.122,2.5-2.5V3.5c0-1.379-1.121-2.5-2.5-2.5
			H3.5C2.122,1,1,2.121,1,3.5V110.833z"/>
	</g>
	<g>
		<circle fill="#D1D3D4" cx="60.396" cy="45.896" r="12.438"/>
	</g>
	<g>
		<circle fill="#D1D3D4" cx="53.708" cy="74.972" r="2.128"/>
		<path fill="#A7A9AC" d="M56.336,74.972c0,1.449-1.179,2.628-2.628,2.628s-2.628-1.179-2.628-2.628s1.179-2.628,2.628-2.628
			S56.336,73.523,56.336,74.972z M52.08,74.972c0,0.897,0.73,1.628,1.628,1.628s1.628-0.73,1.628-1.628s-0.73-1.628-1.628-1.628
			S52.08,74.075,52.08,74.972z"/>
	</g>
	<g>
		<circle fill="#D1D3D4" cx="107.041" cy="71.19" r="2.628"/>
		<path fill="#A7A9AC" d="M110.169,71.19c0,1.725-1.403,3.128-3.128,3.128s-3.128-1.403-3.128-3.128s1.403-3.128,3.128-3.128
			S110.169,69.465,110.169,71.19z M104.913,71.19c0,1.173,0.955,2.128,2.128,2.128s2.128-0.955,2.128-2.128
			s-0.955-2.128-2.128-2.128S104.913,70.017,104.913,71.19z"/>
	</g>
	<g>
		<circle fill="#FFFFFF" cx="107.026" cy="48.258" r="1.67"/>
		<path fill="#D1D3D4" d="M108.946,48.258c0,1.059-0.861,1.92-1.92,1.92s-1.919-0.861-1.919-1.92s0.861-1.92,1.919-1.92
			S108.946,47.199,108.946,48.258z M105.607,48.258c0,0.783,0.637,1.42,1.419,1.42s1.42-0.637,1.42-1.42s-0.637-1.42-1.42-1.42
			S105.607,47.475,105.607,48.258z"/>
	</g>
	<g>
		<circle fill="#FFFFFF" cx="133.207" cy="48.258" r="1.67"/>
		<path fill="#D1D3D4" d="M135.127,48.258c0,1.059-0.861,1.92-1.92,1.92s-1.919-0.861-1.919-1.92s0.861-1.92,1.919-1.92
			S135.127,47.199,135.127,48.258z M131.788,48.258c0,0.783,0.637,1.42,1.419,1.42s1.42-0.637,1.42-1.42s-0.637-1.42-1.42-1.42
			S131.788,47.475,131.788,48.258z"/>
	</g>
	<g>
		<circle fill="#FFFFFF" cx="138.083" cy="48.258" r="1.67"/>
		<path fill="#D1D3D4" d="M140.003,48.258c0,1.059-0.861,1.92-1.92,1.92s-1.92-0.861-1.92-1.92s0.861-1.92,1.92-1.92
			S140.003,47.199,140.003,48.258z M136.664,48.258c0,0.783,0.637,1.42,1.42,1.42s1.42-0.637,1.42-1.42s-0.637-1.42-1.42-1.42
			S136.664,47.475,136.664,48.258z"/>
	</g>
	<g>
		<circle fill="#FFFFFF" cx="164.107" cy="43.382" r="1.67"/>
		<path fill="#D1D3D4" d="M166.027,43.382c0,1.059-0.861,1.92-1.92,1.92s-1.92-0.861-1.92-1.92s0.861-1.919,1.92-1.919
			S166.027,42.323,166.027,43.382z M162.687,43.382c0,0.783,0.637,1.42,1.42,1.42s1.42-0.637,1.42-1.42
			c0-0.782-0.637-1.419-1.42-1.419S162.687,42.6,162.687,43.382z"/>
	</g>
	<g>
		<circle fill="#FFFFFF" cx="164.107" cy="48.258" r="1.67"/>
		<path fill="#D1D3D4" d="M166.027,48.258c0,1.059-0.861,1.92-1.92,1.92s-1.92-0.861-1.92-1.92s0.861-1.92,1.92-1.92
			S166.027,47.199,166.027,48.258z M162.687,48.258c0,0.783,0.637,1.42,1.42,1.42s1.42-0.637,1.42-1.42s-0.637-1.42-1.42-1.42
			S162.687,47.475,162.687,48.258z"/>
	</g>
	<g>
		<circle fill="#FFFFFF" cx="190.191" cy="43.048" r="1.67"/>
		<path fill="#D1D3D4" d="M192.111,43.048c0,1.059-0.861,1.92-1.92,1.92s-1.92-0.861-1.92-1.92s0.861-1.919,1.92-1.919
			S192.111,41.989,192.111,43.048z M188.771,43.048c0,0.783,0.637,1.42,1.42,1.42s1.42-0.637,1.42-1.42
			c0-0.782-0.637-1.419-1.42-1.419S188.771,42.266,188.771,43.048z"/>
	</g>
	<g>
		<circle fill="#FFFFFF" cx="195.498" cy="43.048" r="1.67"/>
		<path fill="#D1D3D4" d="M197.417,43.048c0,1.059-0.861,1.92-1.92,1.92s-1.92-0.861-1.92-1.92s0.861-1.919,1.92-1.919
			S197.417,41.989,197.417,43.048z M194.078,43.048c0,0.783,0.637,1.42,1.42,1.42s1.42-0.637,1.42-1.42
			c0-0.782-0.637-1.419-1.42-1.419S194.078,42.266,194.078,43.048z"/>
	</g>
	<g>
		<circle fill="#FFFFFF" cx="190.191" cy="47.924" r="1.67"/>
		<path fill="#D1D3D4" d="M192.111,47.924c0,1.059-0.861,1.92-1.92,1.92s-1.92-0.861-1.92-1.92s0.861-1.92,1.92-1.92
			S192.111,46.865,192.111,47.924z M188.771,47.924c0,0.783,0.637,1.42,1.42,1.42s1.42-0.637,1.42-1.42s-0.637-1.42-1.42-1.42
			S188.771,47.141,188.771,47.924z"/>
	</g>
	<g>
		<circle fill="#D1D3D4" cx="134.5" cy="71.19" r="2.628"/>
		<path fill="#A7A9AC" d="M137.628,71.19c0,1.725-1.404,3.128-3.128,3.128c-1.725,0-3.128-1.403-3.128-3.128
			s1.403-3.128,3.128-3.128C136.224,68.062,137.628,69.465,137.628,71.19z M132.372,71.19c0,1.173,0.955,2.128,2.128,2.128
			s2.128-0.955,2.128-2.128s-0.955-2.128-2.128-2.128S132.372,70.017,132.372,71.19z"/>
	</g>
	<g>
		<circle fill="#D1D3D4" cx="163.707" cy="71.19" r="2.628"/>
		<path fill="#A7A9AC" d="M166.833,71.19c0,1.725-1.402,3.128-3.127,3.128c-1.727,0-3.129-1.403-3.129-3.128
			s1.402-3.128,3.129-3.128C165.431,68.062,166.833,69.465,166.833,71.19z M161.578,71.19c0,1.173,0.955,2.128,2.129,2.128
			c1.172,0,2.127-0.955,2.127-2.128s-0.955-2.128-2.127-2.128C162.533,69.062,161.578,70.017,161.578,71.19z"/>
	</g>
	<g>
		<circle fill="#D1D3D4" cx="192.373" cy="71.19" r="2.628"/>
		<path fill="#A7A9AC" d="M195.5,71.19c0,1.725-1.402,3.128-3.127,3.128s-3.129-1.403-3.129-3.128s1.404-3.128,3.129-3.128
			S195.5,69.465,195.5,71.19z M190.244,71.19c0,1.173,0.955,2.128,2.129,2.128s2.127-0.955,2.127-2.128s-0.953-2.128-2.127-2.128
			S190.244,70.017,190.244,71.19z"/>
	</g>
	<g>
		<circle fill="#D1D3D4" cx="221.041" cy="71.19" r="2.628"/>
		<path fill="#A7A9AC" d="M224.167,71.19c0,1.725-1.402,3.128-3.127,3.128c-1.727,0-3.129-1.403-3.129-3.128
			s1.402-3.128,3.129-3.128C222.765,68.062,224.167,69.465,224.167,71.19z M218.912,71.19c0,1.173,0.955,2.128,2.129,2.128
			c1.172,0,2.127-0.955,2.127-2.128s-0.955-2.128-2.127-2.128C219.867,69.062,218.912,70.017,218.912,71.19z"/>
	</g>
	<g>
		<circle fill="#D1D3D4" cx="67.33" cy="74.972" r="2.128"/>
		<path fill="#A7A9AC" d="M69.958,74.972c0,1.449-1.179,2.628-2.628,2.628s-2.628-1.179-2.628-2.628s1.179-2.628,2.628-2.628
			S69.958,73.523,69.958,74.972z M65.702,74.972c0,0.897,0.73,1.628,1.628,1.628s1.628-0.73,1.628-1.628s-0.73-1.628-1.628-1.628
			S65.702,74.075,65.702,74.972z"/>
	</g>
	<g>
		<circle fill="#FBB040" cx="60.396" cy="45.896" r="9.062"/>
	</g>
	<g>
		<path fill="#E6E7E8" d="M268.5,97.833v13c0,1.656-1.342,3-3,3H3.5c-1.657,0-3-1.344-3-3v-12.5L268.5,97.833z"/>
	</g>
	<g>
		<g>
			<path d="M15.56,85.282c0-0.298,0.103-0.554,0.309-0.767c0.206-0.211,0.458-0.318,0.756-0.318c0.292,0,0.544,0.107,0.756,0.318
				c0.212,0.213,0.318,0.469,0.318,0.767c0,0.278-0.108,0.524-0.323,0.736s-0.466,0.318-0.751,0.318
				c-0.278,0-0.525-0.106-0.741-0.318C15.668,85.806,15.56,85.56,15.56,85.282z M19.411,86.177v-1.811h9.153v1.811H19.411z"/>
		</g>
		<g>
			<path d="M26.425,69.631h1.791c0.338,0.909,0.507,1.798,0.507,2.667c0,1.432-0.424,2.574-1.273,3.427s-1.986,1.278-3.413,1.278
				c-1.439,0-2.6-0.414-3.482-1.243c-0.882-0.829-1.323-1.921-1.323-3.273c0-0.472,0.045-0.894,0.134-1.269
				c0.09-0.375,0.257-0.838,0.502-1.389h1.93c-0.583,0.916-0.875,1.766-0.875,2.548c0,0.815,0.287,1.485,0.861,2.01
				s1.305,0.786,2.194,0.786c0.935,0,1.678-0.283,2.229-0.852c0.551-0.566,0.826-1.331,0.826-2.293
				C27.032,71.333,26.83,70.533,26.425,69.631z"/>
		</g>
		<g>
			<path d="M14.665,67.736v-1.812h13.899v1.812H14.665z"/>
		</g>
		<g>
			<path d="M15.56,62.577c0-0.298,0.103-0.554,0.309-0.767c0.206-0.211,0.458-0.318,0.756-0.318c0.292,0,0.544,0.107,0.756,0.318
				c0.212,0.213,0.318,0.469,0.318,0.767c0,0.278-0.108,0.524-0.323,0.736s-0.466,0.318-0.751,0.318
				c-0.278,0-0.525-0.106-0.741-0.318C15.668,63.101,15.56,62.855,15.56,62.577z M19.411,63.472v-1.811h9.153v1.811H19.411z"/>
		</g>
		<g>
			<path d="M26.425,52.384h1.791c0.338,0.908,0.507,1.797,0.507,2.666c0,1.432-0.424,2.575-1.273,3.427
				c-0.849,0.853-1.986,1.279-3.413,1.279c-1.439,0-2.6-0.415-3.482-1.244c-0.882-0.829-1.323-1.921-1.323-3.273
				c0-0.471,0.045-0.895,0.134-1.27c0.09-0.375,0.257-0.836,0.502-1.387h1.93c-0.583,0.914-0.875,1.764-0.875,2.547
				c0,0.815,0.287,1.485,0.861,2.009c0.574,0.524,1.305,0.786,2.194,0.786c0.935,0,1.678-0.283,2.229-0.851
				c0.551-0.567,0.826-1.331,0.826-2.294C27.032,54.085,26.83,53.286,26.425,52.384z"/>
		</g>
		<g>
			<path d="M14.665,50.528v-1.812h13.899v1.812H14.665z M19.411,44.569v-2.15l4.477,3.906l4.676-4.703v2.43l-4.671,4.586
				L19.411,44.569z"/>
		</g>
		<g>
			<path d="M24.146,33.778v6.438c0.875-0.047,1.572-0.34,2.089-0.881s0.776-1.238,0.776-2.094c0-1.195-0.371-2.295-1.114-3.305
				h1.771c0.372,0.559,0.637,1.109,0.796,1.658c0.159,0.547,0.239,1.188,0.239,1.924c0,1.008-0.209,1.824-0.626,2.447
				c-0.418,0.625-0.98,1.123-1.687,1.498c-0.707,0.375-1.524,0.562-2.453,0.562c-1.393,0-2.525-0.395-3.397-1.184
				c-0.873-0.789-1.309-1.814-1.309-3.074c0-1.215,0.425-2.184,1.273-2.906c0.849-0.723,1.987-1.084,3.413-1.084H24.146z
				 M23.062,40.175v-4.605c-0.723,0.047-1.28,0.262-1.671,0.646c-0.392,0.385-0.587,0.902-0.587,1.553
				c0,0.648,0.195,1.182,0.587,1.596C21.782,39.778,22.339,40.05,23.062,40.175z"/>
		</g>
		<g>
			<path d="M19.411,30.081h2.099l-0.159-0.1c-1.413-0.875-2.119-1.75-2.119-2.627c0-0.682,0.345-1.395,1.035-2.139l1.592,0.955
				c-0.597,0.631-0.895,1.215-0.895,1.752c0,0.584,0.278,1.09,0.835,1.518s1.217,0.641,1.98,0.641h4.786v1.82h-9.153V30.081z"/>
		</g>
	</g>
	<g>
		<polygon points="21.042,79.539 23.967,74.47 26.893,79.539 		"/>
		<path fill="#FFFFFF" d="M27.759,80.039h-7.584l3.792-6.568L27.759,80.039z M21.908,79.039h4.119l-2.06-3.568L21.908,79.039z"/>
	</g>
	<g>
		<path fill="#E0E0DF" d="M119.333,37.569c2.761,0,5,2.686,5,6v26.528c0,3.313-2.239,6-5,6l0,0c-2.761,0-5-2.687-5-6V43.569
			C114.333,40.255,116.572,37.569,119.333,37.569L119.333,37.569z"/>
	</g>
	<g>
		<path fill="#E6E7E8" d="M268.5,16.833l-268-0.5V3.5c0-1.657,1.343-3,3-3h262c1.658,0,3,1.343,3,3V16.833"/>
	</g>
	<g>
		<path d="M48.017,84.55h-3.994v-1.266c0-0.381,0.103-0.684,0.309-0.91s0.481-0.34,0.828-0.34c0.232,0,0.438,0.059,0.617,0.174
			c0.179,0.116,0.309,0.275,0.39,0.477c0.081,0.202,0.122,0.492,0.122,0.868v0.423h1.73V84.55z M44.531,83.384v0.592h1.248v-0.625
			c0-0.232-0.055-0.412-0.164-0.537s-0.266-0.188-0.47-0.188C44.736,82.625,44.531,82.878,44.531,83.384z"/>
		<path d="M43.972,79.64c0-0.617,0.195-1.13,0.585-1.54c0.39-0.409,0.879-0.614,1.467-0.614c0.588,0,1.075,0.207,1.46,0.62
			c0.385,0.413,0.578,0.935,0.578,1.565c0,0.601-0.193,1.102-0.578,1.502c-0.386,0.4-0.869,0.6-1.449,0.6
			c-0.596,0-1.088-0.201-1.479-0.604S43.972,80.255,43.972,79.64z M44.514,79.617c0,0.456,0.143,0.832,0.428,1.125
			c0.286,0.294,0.65,0.441,1.093,0.441c0.43,0,0.788-0.148,1.074-0.443c0.285-0.294,0.428-0.663,0.428-1.105
			c0-0.445-0.146-0.816-0.437-1.114c-0.291-0.298-0.654-0.446-1.087-0.446c-0.423,0-0.778,0.148-1.066,0.446
			C44.658,78.818,44.514,79.183,44.514,79.617z"/>
		<path d="M44.029,71.996v-0.57l4.005,1.613v0.125l-3.243,1.304l3.243,1.317v0.123l-4.005,1.607V76.94l2.749-1.099l-2.749-1.107
			v-0.539l2.749-1.111L44.029,71.996z"/>
		<path d="M44.029,71.042v-2.262h0.508v1.689h1.216v-1.633h0.511v1.633h1.239v-1.744h0.508v2.316H44.029z"/>
		<path d="M48.017,68.16h-3.988v-1c0-0.402,0.1-0.723,0.3-0.96s0.47-0.355,0.811-0.355c0.232,0,0.433,0.058,0.603,0.174
			s0.296,0.282,0.38,0.5c0.083-0.128,0.198-0.253,0.342-0.374c0.145-0.122,0.397-0.293,0.757-0.514
			c0.227-0.139,0.396-0.25,0.511-0.334l0.286-0.212v0.68l-0.263,0.174c-0.01,0.006-0.026,0.017-0.049,0.034l-0.157,0.111
			l-0.292,0.177l-0.312,0.19c-0.164,0.119-0.294,0.227-0.391,0.324c-0.097,0.099-0.167,0.188-0.209,0.266
			c-0.042,0.08-0.064,0.213-0.064,0.399v0.148h1.736V68.16z M44.514,67.417v0.171h1.259v-0.217c0-0.29-0.024-0.487-0.074-0.595
			c-0.049-0.107-0.124-0.191-0.224-0.252c-0.1-0.061-0.213-0.09-0.341-0.09c-0.126,0-0.239,0.033-0.341,0.1s-0.174,0.16-0.215,0.281
			C44.535,66.937,44.514,67.137,44.514,67.417z"/>
	</g>
	<g>
		<path d="M110.613,60.919l-8.068-3.099v-1.15l8.068-3.302v1.216l-2.444,0.941v3.374l2.444,0.886V60.919z M107.3,58.591v-2.735
			l-2.235,0.842c-0.679,0.257-1.236,0.447-1.673,0.572c0.517,0.103,1.031,0.248,1.541,0.435L107.3,58.591z"/>
	</g>
	<g>
		<path d="M139.753,60.077h-8.069V57.05c0-0.616,0.082-1.111,0.245-1.483c0.163-0.372,0.415-0.664,0.754-0.875
			s0.694-0.316,1.065-0.316c0.345,0,0.669,0.094,0.974,0.28c0.305,0.188,0.55,0.47,0.737,0.848c0.143-0.487,0.387-0.862,0.732-1.125
			s0.753-0.394,1.222-0.394c0.379,0,0.73,0.08,1.055,0.239s0.574,0.356,0.752,0.592c0.176,0.235,0.309,0.529,0.398,0.883
			c0.09,0.354,0.135,0.789,0.135,1.302V60.077z M135.075,59.009v-1.745c0-0.474-0.031-0.813-0.093-1.019
			c-0.081-0.271-0.215-0.476-0.402-0.613s-0.422-0.206-0.705-0.206c-0.268,0-0.503,0.063-0.707,0.191
			c-0.204,0.129-0.343,0.312-0.418,0.551c-0.075,0.238-0.113,0.647-0.113,1.227v1.613H135.075z M138.8,59.009V57
			c0-0.345-0.012-0.587-0.037-0.727c-0.045-0.246-0.117-0.452-0.221-0.617s-0.252-0.301-0.449-0.407
			c-0.195-0.106-0.422-0.16-0.68-0.16c-0.301,0-0.562,0.078-0.784,0.231c-0.222,0.154-0.378,0.368-0.468,0.642
			s-0.135,0.667-0.135,1.181v1.866H138.8z"/>
	</g>
	<g>
		<path d="M165.173,54.276l0.271-1.068c0.877,0.224,1.545,0.627,2.006,1.208c0.459,0.582,0.689,1.293,0.689,2.133
			c0,0.87-0.176,1.577-0.531,2.122c-0.354,0.545-0.865,0.96-1.537,1.244s-1.393,0.426-2.164,0.426c-0.84,0-1.572-0.16-2.197-0.481
			c-0.627-0.321-1.102-0.778-1.426-1.371c-0.324-0.592-0.488-1.245-0.488-1.957c0-0.807,0.207-1.485,0.617-2.036
			s0.988-0.934,1.734-1.15l0.246,1.052c-0.586,0.187-1.014,0.458-1.281,0.813c-0.268,0.356-0.402,0.804-0.402,1.344
			c0,0.62,0.148,1.138,0.445,1.555c0.299,0.417,0.697,0.709,1.197,0.878c0.502,0.168,1.018,0.253,1.551,0.253
			c0.686,0,1.285-0.1,1.797-0.3c0.512-0.2,0.895-0.511,1.146-0.933c0.254-0.422,0.381-0.878,0.381-1.37
			c0-0.598-0.174-1.105-0.518-1.519C166.365,54.703,165.853,54.423,165.173,54.276z"/>
	</g>
	<g>
		<path d="M196.628,60.658h-8.068v-2.779c0-0.627,0.039-1.106,0.115-1.437c0.107-0.462,0.299-0.856,0.578-1.183
			c0.359-0.426,0.818-0.744,1.379-0.955c0.559-0.211,1.199-0.316,1.918-0.316c0.613,0,1.156,0.071,1.629,0.215
			c0.473,0.143,0.865,0.326,1.176,0.55c0.309,0.225,0.553,0.469,0.73,0.735c0.178,0.266,0.312,0.587,0.404,0.963
			s0.139,0.808,0.139,1.296V60.658z M195.675,59.59v-1.723c0-0.532-0.049-0.949-0.148-1.252c-0.098-0.303-0.238-0.544-0.418-0.724
			c-0.252-0.253-0.594-0.45-1.021-0.592c-0.426-0.141-0.945-0.212-1.555-0.212c-0.844,0-1.492,0.139-1.945,0.416
			s-0.756,0.613-0.91,1.01c-0.109,0.286-0.166,0.747-0.166,1.381v1.695H195.675z"/>
	</g>
	<g>
		<path d="M225.253,60.011h-8.068v-5.834h0.951v4.766h2.473v-4.463h0.945v4.463h2.746V53.99h0.953V60.011z"/>
	</g>
	<g>
		<path d="M74.029,92.644v-0.572h3.469v-1.795h0.52v2.367H74.029z"/>
		<path d="M73.972,87.878c0-0.616,0.195-1.129,0.585-1.539s0.879-0.615,1.467-0.615c0.588,0,1.075,0.207,1.46,0.621
			c0.385,0.413,0.578,0.935,0.578,1.564c0,0.602-0.193,1.102-0.578,1.502c-0.386,0.4-0.869,0.601-1.449,0.601
			c-0.596,0-1.088-0.202-1.479-0.604C74.167,89.004,73.972,88.495,73.972,87.878z M74.514,87.855c0,0.457,0.143,0.832,0.428,1.125
			c0.286,0.295,0.65,0.441,1.093,0.441c0.43,0,0.788-0.147,1.074-0.442c0.285-0.294,0.428-0.663,0.428-1.106
			c0-0.445-0.146-0.816-0.437-1.113c-0.291-0.299-0.654-0.447-1.087-0.447c-0.423,0-0.778,0.148-1.066,0.447
			C74.658,87.056,74.514,87.421,74.514,87.855z"/>
		<path d="M74.029,80.234v-0.568l4.005,1.611v0.126l-3.243,1.304l3.243,1.318v0.122l-4.005,1.607v-0.575l2.749-1.1l-2.749-1.105
			v-0.541l2.749-1.111L74.029,80.234z"/>
		<path d="M78.017,76.365v1.35h-3.988v-1.045c0-0.329,0.044-0.586,0.133-0.771s0.21-0.325,0.365-0.423
			c0.155-0.097,0.334-0.146,0.538-0.146c0.392,0,0.673,0.203,0.842,0.608c0.055-0.291,0.175-0.523,0.36-0.695
			s0.405-0.258,0.662-0.258c0.204,0,0.386,0.052,0.545,0.156c0.16,0.105,0.291,0.259,0.391,0.461
			C77.967,75.806,78.017,76.06,78.017,76.365z M74.537,76.653v0.491h1.199v-0.38c0-0.305-0.058-0.521-0.174-0.649
			s-0.267-0.193-0.451-0.193C74.728,75.921,74.537,76.166,74.537,76.653z M76.244,76.61v0.534h1.265v-0.562
			c0-0.312-0.024-0.524-0.073-0.636c-0.048-0.111-0.124-0.2-0.227-0.269c-0.103-0.066-0.213-0.102-0.331-0.102
			c-0.122,0-0.233,0.036-0.334,0.107c-0.101,0.072-0.176,0.173-0.226,0.305C76.269,76.119,76.244,76.326,76.244,76.61z"/>
		<path d="M74.006,73.091V72.69l4.011-1.788v0.584l-1.182,0.531v1.702l1.182,0.498v0.587L74.006,73.091z M76.327,72.252
			l-1.445,0.644l1.445,0.596V72.252z"/>
		<path d="M74.023,71.449v-3.332h0.508v1.391h3.486v0.574h-3.486v1.367H74.023z"/>
		<path d="M74.023,67.975v-3.331h0.508v1.39h3.486v0.574h-3.486v1.367H74.023z"/>
		<path d="M74.029,64.163v-2.261h0.508v1.689h1.216v-1.633h0.511v1.633h1.239v-1.744h0.508v2.315H74.029z"/>
		<path d="M78.017,61.281h-3.988v-1c0-0.403,0.1-0.724,0.3-0.961c0.2-0.236,0.47-0.355,0.811-0.355c0.232,0,0.433,0.059,0.603,0.175
			s0.296,0.282,0.38,0.499c0.083-0.127,0.198-0.252,0.342-0.374c0.145-0.121,0.397-0.293,0.757-0.514
			c0.227-0.139,0.396-0.25,0.511-0.334l0.286-0.211v0.679l-0.263,0.175c-0.01,0.005-0.026,0.017-0.049,0.034l-0.157,0.111
			l-0.292,0.177l-0.312,0.19c-0.164,0.118-0.294,0.226-0.391,0.324c-0.097,0.098-0.167,0.187-0.209,0.266
			c-0.042,0.079-0.064,0.212-0.064,0.398v0.15h1.736V61.281z M74.514,60.539v0.172h1.259v-0.218c0-0.289-0.024-0.487-0.074-0.595
			c-0.049-0.107-0.124-0.191-0.224-0.251c-0.1-0.061-0.213-0.091-0.341-0.091c-0.126,0-0.239,0.034-0.341,0.101
			s-0.174,0.16-0.215,0.281C74.535,60.059,74.514,60.259,74.514,60.539z"/>
		<path d="M74.029,56.011v-0.692l1.878,1.473h2.11v0.586h-2.11l-1.878,1.473V58.16l1.375-1.067L74.029,56.011z"/>
	</g>
	<g>
		<path fill="#787877" d="M119.333,37.569L119.333,37.569c2.761,0,5,2.686,5,6v26.528c0,3.313-2.239,6-5,6V37.569z"/>
	</g>
	<g>
		<path fill="#E0E0DF" d="M147.667,37.569c2.76,0,5,2.686,5,6v26.528c0,3.312-2.24,6-5,6l0,0c-2.762,0-5-2.688-5-6V43.569
			C142.667,40.255,144.906,37.569,147.667,37.569L147.667,37.569z"/>
	</g>
	<g>
		<path fill="#787877" d="M147.667,37.569L147.667,37.569c2.76,0,5,2.686,5,6v26.528c0,3.312-2.24,6-5,6V37.569z"/>
	</g>
	<g>
		<path fill="#E0E0DF" d="M176.667,37.569c2.76,0,5,2.686,5,6v26.527c0,3.313-2.24,6-5,6l0,0c-2.762,0-5-2.687-5-6V43.569
			C171.667,40.255,173.906,37.569,176.667,37.569L176.667,37.569z"/>
	</g>
	<g>
		<path fill="#787877" d="M176.667,37.569L176.667,37.569c2.76,0,5,2.686,5,6v26.527c0,3.313-2.24,6-5,6V37.569z"/>
	</g>
	<g>
		<path fill="#E0E0DF" d="M205.5,37.903c2.762,0,5,2.686,5,6V70.43c0,3.313-2.238,6-5,6l0,0c-2.762,0-5-2.687-5-6V43.903
			C200.5,40.589,202.738,37.903,205.5,37.903L205.5,37.903z"/>
	</g>
	<g>
		<path fill="#787877" d="M205.5,37.903L205.5,37.903c2.762,0,5,2.686,5,6V70.43c0,3.313-2.238,6-5,6V37.903z"/>
	</g>
	<g>
		<path fill="#E0E0DF" d="M233.667,37.903c2.76,0,5,2.686,5,6V70.43c0,3.313-2.24,6-5,6l0,0c-2.762,0-5-2.687-5-6V43.903
			C228.667,40.589,230.906,37.903,233.667,37.903L233.667,37.903z"/>
	</g>
	<g>
		<path fill="#787877" d="M233.667,37.903L233.667,37.903c2.76,0,5,2.686,5,6V70.43c0,3.313-2.24,6-5,6V37.903z"/>
	</g>
	<g>
		<circle fill="#FFFFFF" cx="224.082" cy="43.048" r="1.67"/>
		<path fill="#D1D3D4" d="M226.001,43.048c0,1.059-0.861,1.92-1.92,1.92s-1.92-0.861-1.92-1.92c0-1.058,0.861-1.918,1.92-1.918
			S226.001,41.99,226.001,43.048z M222.662,43.048c0,0.783,0.637,1.42,1.42,1.42s1.42-0.637,1.42-1.42
			c0-0.782-0.637-1.418-1.42-1.418S222.662,42.266,222.662,43.048z"/>
	</g>
	<g>
		<circle fill="#FFFFFF" cx="218.773" cy="47.925" r="1.67"/>
		<path fill="#D1D3D4" d="M220.693,47.925c0,1.059-0.861,1.92-1.92,1.92s-1.92-0.861-1.92-1.92s0.861-1.92,1.92-1.92
			S220.693,46.866,220.693,47.925z M217.353,47.925c0,0.783,0.637,1.42,1.42,1.42s1.42-0.637,1.42-1.42s-0.637-1.42-1.42-1.42
			S217.353,47.142,217.353,47.925z"/>
	</g>
	<g>
		<rect x="95.083" y="22.333" fill="#E6E7E8" width="173.417" height="9.568"/>
	</g>
	<g>
		<rect x="95.583" y="83.515" fill="#E6E7E8" width="172.167" height="9.568"/>
	</g>
	<g>
		<path fill="#CCCDCE" d="M95.583,93.083c-3.313,0-6-2.568-6-5.736V28.069c0-3.168,2.687-5.736,6-5.736V93.083z"/>
	</g>
	<g>
		<path fill="#FBB040" d="M69.458,45.896c0,5.005-4.058,9.062-9.062,9.062"/>
	</g>
	<g>
		<path fill="#F9ED32" d="M60.396,54.958c-5.005,0-9.062-4.058-9.062-9.062s4.058-9.062,9.062-9.062"/>
	</g>
	<g>
		<path d="M60.083,45.146c0.414,0,0.75,0.336,0.75,0.75l0,0c0,0.414-0.336,0.75-0.75,0.75h-5.625c-0.414,0-0.75-0.336-0.75-0.75l0,0
			c0-0.414,0.336-0.75,0.75-0.75H60.083z"/>
	</g>
	<g>
		<path d="M66.896,45.896c0,3.343-2.72,6.062-6.062,6.062c-2.722,0-5.125-1.83-5.846-4.451l0.964-0.266
			c0.602,2.188,2.609,3.717,4.882,3.717c2.792,0,5.062-2.271,5.062-5.062s-2.271-5.062-5.062-5.062
			c-2.278,0-4.287,1.533-4.885,3.729l-0.965-0.264c0.716-2.629,3.122-4.466,5.85-4.466C64.176,39.833,66.896,42.553,66.896,45.896z"
			/>
	</g>
	<g>
		<rect x="176.167" y="22.333" fill="#D1D3D4" width="92.332" height="9.568"/>
	</g>
	<g>
		<rect x="176.433" y="83.515" fill="#D1D3D4" width="91.668" height="9.568"/>
	</g>
	<g>
		<path fill="#D1D3D4" d="M134.833,113.833H265.5c1.658,0,3-1.344,3-3v-13l-133.667,0.25V113.833z"/>
	</g>
	<g>
		<path fill="#D1D3D4" d="M134.833,0.667H265.5c1.658,0,3,1.344,3,3v13l-133.667-0.25V0.667z"/>
	</g>
</g>
</svg>
