<?xml version="1.0" encoding="utf-8"?>
<!-- Generator: Adobe Illustrator 15.0.0, SVG Export Plug-In . SVG Version: 6.00 Build 0)  -->
<!DOCTYPE svg PUBLIC "-//W3C//DTD SVG 1.1//EN" "http://www.w3.org/Graphics/SVG/1.1/DTD/svg11.dtd">
<svg version="1.1" id="Layer_1" xmlns="http://www.w3.org/2000/svg" xmlns:xlink="http://www.w3.org/1999/xlink" x="0px" y="0px"
	 width="347.196px" height="340.39px" viewBox="0 0 347.196 340.39" enable-background="new 0 0 347.196 340.39"
	 xml:space="preserve">
<g>
	<g>
		<polygon fill="#C49A6C" points="129.581,186.667 34.919,217.667 129.581,248.667 224.242,217.667 		"/>
	</g>
	<g>
		<g>
			
				<rect x="174.911" y="111.698" transform="matrix(0.0073 -1 1 0.0073 51.8109 297.395)" fill="#3C2415" width="1.549" height="21.811"/>
		</g>
		<g>
			
				<rect x="163.058" y="114.788" transform="matrix(-0.5804 -0.8143 0.8143 -0.5804 156.5654 332.0602)" fill="#3C2415" width="1.549" height="21.811"/>
		</g>
		<g>
			<g>
				<path fill="#100B09" d="M174.248,143.637h4.167c0,0,14.666-1.292,12.224-27.192c-2.614-27.728-3.225,1.483-3.225,1.483
					S193.831,137.595,174.248,143.637z"/>
			</g>
			<g>
				<path fill="#100B09" d="M152.756,127.474c0,0,1.747,13.287,14.407,15.038c0,0-10.488-2.779-13.161-15.306L152.756,127.474z"/>
			</g>
			<g>
				<rect x="166.595" y="121.749" fill="#3C2415" width="1.549" height="21.81"/>
			</g>
			<g>
				<rect x="167.955" y="121.749" width="1.549" height="21.81"/>
			</g>
			<g>
				<polygon points="183.172,138.366 181.805,139.385 169.503,121.3 170.778,120.42 				"/>
			</g>
			<g>
				
					<rect x="174.326" y="119.845" transform="matrix(0.8313 -0.5558 0.5558 0.8313 -43.134 119.3737)" fill="#3C2415" width="1.549" height="21.81"/>
			</g>
			<g>
				<path fill="#3C2415" d="M169.812,144.637c-10.463,0-18.976-8.512-18.976-18.975c0-10.463,8.512-18.976,18.976-18.976
					c10.463,0,18.975,8.512,18.975,18.976C188.788,136.125,180.275,144.637,169.812,144.637z M169.812,108.687
					c-9.36,0-16.976,7.615-16.976,16.976c0,9.36,7.615,16.975,16.976,16.975c9.36,0,16.975-7.615,16.975-16.975
					C186.788,116.302,179.172,108.687,169.812,108.687z"/>
			</g>
		</g>
	</g>
	<g>
		<polyline fill="#AD6728" points="34.919,217.667 129.581,248.667 224.242,217.667 34.919,217.667 		"/>
	</g>
	<g>
		<polygon points="129.174,201.818 80.78,217.667 129.174,233.515 176.72,217.667 		"/>
	</g>
	<g>
		<polygon fill="#8B5E3C" points="158.327,109.458 158.327,206.833 167.327,209.318 167.327,107.833 		"/>
	</g>
	<g>
		<polygon fill="#3C2415" points="167.327,121.5 167.327,209.318 175.092,205.833 177.08,109.458 		"/>
	</g>
	<g>
		<g enable-background="new    ">
			<g enable-background="new    ">
				<defs>
					<path id="SVGID_1_" enable-background="new    " d="M125.376,139.858l32.367-5.074c0.186-0.029,0.376-0.043,0.571-0.041
						l-32.367,5.074C125.753,139.814,125.562,139.829,125.376,139.858z"/>
				</defs>
				<clipPath id="SVGID_2_">
					<use xlink:href="#SVGID_1_"  overflow="visible"/>
				</clipPath>
				<g clip-path="url(#SVGID_2_)" enable-background="new    ">
					<g>
						<path fill="#924B23" d="M125.376,139.858l32.367-5.074c0.021-0.003,0.043-0.006,0.065-0.009l-32.367,5.074
							C125.42,139.851,125.398,139.854,125.376,139.858"/>
					</g>
					<g>
						<path fill="#964E25" d="M125.442,139.848l32.367-5.074c0.108-0.015,0.218-0.025,0.33-0.029l-32.367,5.074
							C125.66,139.824,125.55,139.833,125.442,139.848"/>
					</g>
					<g>
						<path fill="#995027" d="M125.771,139.819l32.367-5.074c0.058-0.002,0.117-0.003,0.176-0.002l-32.367,5.074
							C125.888,139.816,125.83,139.817,125.771,139.819"/>
					</g>
				</g>
			</g>
			<g>
				<g>
					<path fill="#A4562B" d="M125.947,139.816c0.08,0.001,0.159,0.004,0.239,0.01c2.52,0.188,4.631,3.01,4.7,6.304
						c0.072,3.18-1.789,5.645-4.2,5.619c-0.079-0.001-0.159-0.005-0.239-0.011c-2.526-0.187-4.631-3.01-4.7-6.304
						C121.675,142.247,123.536,139.792,125.947,139.816z"/>
				</g>
			</g>
			<g enable-background="new    ">
				<defs>
					<path id="SVGID_3_" enable-background="new    " d="M159.622,146.635l-32.367,5.074c2.129-0.334,3.698-2.653,3.631-5.578
						c-0.069-3.293-2.18-6.116-4.7-6.304c-0.081-0.006-0.16-0.009-0.239-0.01l32.367-5.074c0.079,0.001,0.159,0.004,0.239,0.01
						c2.52,0.188,4.631,3.01,4.7,6.304C163.32,143.982,161.751,146.301,159.622,146.635z"/>
				</defs>
				<use xlink:href="#SVGID_3_"  overflow="visible" fill="#A97C50"/>
				<clipPath id="SVGID_4_">
					<use xlink:href="#SVGID_3_"  overflow="visible"/>
				</clipPath>
				<g clip-path="url(#SVGID_4_)" enable-background="new    ">
					<g>
						<path fill="#A97C50" d="M125.947,139.816l32.367-5.074c0.042,0,0.084,0.001,0.127,0.003l-32.367,5.074
							C126.032,139.818,125.989,139.817,125.947,139.816"/>
					</g>
					<g>
						<path fill="#A97C50" d="M126.074,139.82l32.367-5.074c0.037,0.001,0.075,0.004,0.112,0.007
							c0.051,0.004,0.102,0.009,0.152,0.015l-32.367,5.074c-0.05-0.006-0.101-0.011-0.152-0.015
							C126.149,139.824,126.111,139.822,126.074,139.82"/>
					</g>
					<g>
						<path fill="#A97C50" d="M126.338,139.841l32.367-5.074c0.083,0.01,0.166,0.022,0.247,0.038l-32.367,5.074
							C126.504,139.863,126.421,139.851,126.338,139.841"/>
					</g>
					<g>
						<path fill="#A97C50" d="M126.585,139.879l32.367-5.074c0.076,0.014,0.152,0.031,0.227,0.05l-32.367,5.074
							C126.737,139.91,126.662,139.893,126.585,139.879"/>
					</g>
					<g>
						<path fill="#A97C50" d="M126.812,139.929l32.367-5.074c0.074,0.019,0.146,0.039,0.219,0.062l-32.367,5.074
							C126.959,139.968,126.886,139.947,126.812,139.929"/>
					</g>
					<g>
						<path fill="#A97C50" d="M127.032,139.991l32.367-5.074c0.071,0.022,0.141,0.047,0.211,0.074l-32.367,5.074
							C127.173,140.038,127.103,140.013,127.032,139.991"/>
					</g>
					<g>
						<path fill="#A97C50" d="M127.243,140.064l32.367-5.074c0.069,0.026,0.137,0.054,0.205,0.084l-32.367,5.074
							C127.38,140.119,127.312,140.09,127.243,140.064"/>
					</g>
					<g>
						<path fill="#A97C50" d="M127.447,140.148l32.367-5.074c0.068,0.03,0.135,0.062,0.201,0.096l-32.367,5.074
							C127.582,140.21,127.515,140.179,127.447,140.148"/>
					</g>
					<g>
						<path fill="#A97C50" d="M127.648,140.244l32.367-5.074c0.067,0.034,0.133,0.07,0.199,0.107l-32.367,5.074
							C127.781,140.314,127.715,140.278,127.648,140.244"/>
					</g>
					<g>
						<path fill="#A97C50" d="M127.847,140.352l32.367-5.074c0.066,0.039,0.132,0.079,0.197,0.12l-32.367,5.074
							C127.979,140.43,127.914,140.39,127.847,140.352"/>
					</g>
					<g>
						<path fill="#A97C50" d="M128.044,140.472l32.367-5.074c0.066,0.043,0.132,0.088,0.197,0.134l-32.367,5.074
							C128.177,140.56,128.111,140.515,128.044,140.472"/>
					</g>
					<g>
						<path fill="#A97C50" d="M128.242,140.606l32.367-5.074c0.068,0.049,0.135,0.099,0.201,0.152l-32.367,5.074
							C128.376,140.706,128.31,140.655,128.242,140.606"/>
					</g>
					<g>
						<path fill="#A97C50" d="M128.442,140.758l32.367-5.074c0.068,0.054,0.135,0.11,0.201,0.168l-32.367,5.074
							C128.577,140.868,128.51,140.812,128.442,140.758"/>
					</g>
					<g>
						<path fill="#A97C50" d="M128.643,140.926l32.367-5.074c0.071,0.063,0.141,0.128,0.209,0.195l-32.367,5.074
							C128.784,141.054,128.714,140.989,128.643,140.926"/>
					</g>
					<g>
						<path fill="#A97C50" d="M128.853,141.121l32.367-5.074c0.074,0.073,0.147,0.149,0.219,0.227l-32.367,5.074
							C129,141.27,128.927,141.194,128.853,141.121"/>
					</g>
					<g>
						<path fill="#A97C50" d="M129.071,141.348l32.367-5.074c0.079,0.087,0.156,0.176,0.231,0.269l-32.367,5.074
							C129.228,141.525,129.15,141.435,129.071,141.348"/>
					</g>
					<g>
						<path fill="#A97C50" d="M129.303,141.617l32.367-5.074c0.088,0.108,0.173,0.221,0.255,0.337l-32.367,5.074
							C129.476,141.838,129.391,141.726,129.303,141.617"/>
					</g>
					<g>
						<path fill="#A97C50" d="M129.558,141.955l32.367-5.074c0.106,0.151,0.208,0.309,0.304,0.472l-32.367,5.074
							C129.766,142.263,129.664,142.106,129.558,141.955"/>
					</g>
					<g>
						<path fill="#A97C50" d="M129.861,142.426l32.367-5.074c0.365,0.623,0.647,1.329,0.823,2.085l-32.367,5.074
							C130.509,143.755,130.227,143.049,129.861,142.426"/>
					</g>
					<g>
						<path fill="#A97C50" d="M130.684,144.511l32.367-5.074c0.043,0.187,0.08,0.376,0.11,0.569l-32.367,5.074
							C130.764,144.888,130.728,144.698,130.684,144.511"/>
					</g>
					<g>
						<path fill="#A97C50" d="M130.794,145.08l32.367-5.074c0.022,0.144,0.041,0.289,0.056,0.435l-32.367,5.074
							C130.835,145.369,130.816,145.224,130.794,145.08"/>
					</g>
					<g>
						<path fill="#A97C50" d="M130.85,145.515l32.367-5.074c0.012,0.126,0.021,0.252,0.028,0.38l-32.367,5.074
							C130.871,145.767,130.862,145.641,130.85,145.515"/>
					</g>
					<g>
						<path fill="#A97C50" d="M130.878,145.895l32.367-5.074c0.004,0.078,0.007,0.157,0.008,0.236
							c0.001,0.04,0.001,0.079,0.002,0.118l-32.367,5.074c0-0.039-0.001-0.079-0.002-0.118
							C130.885,146.051,130.882,145.973,130.878,145.895"/>
					</g>
					<g>
						<path fill="#A97C50" d="M130.888,146.249l32.367-5.074c0,0.112-0.001,0.223-0.005,0.333l-32.367,5.073
							C130.887,146.471,130.889,146.36,130.888,146.249"/>
					</g>
					<g>
						<path fill="#A97C50" d="M130.883,146.581l32.367-5.073c-0.003,0.099-0.009,0.198-0.016,0.296l-32.367,5.073
							C130.875,146.779,130.88,146.68,130.883,146.581"/>
					</g>
					<g>
						<path fill="#A97C50" d="M130.867,146.876l32.367-5.073c-0.007,0.095-0.016,0.19-0.026,0.284l-32.367,5.074
							C130.852,147.067,130.86,146.972,130.867,146.876"/>
					</g>
					<g>
						<path fill="#A97C50" d="M130.841,147.161l32.367-5.074c-0.011,0.091-0.022,0.182-0.036,0.271l-32.367,5.074
							C130.818,147.343,130.83,147.252,130.841,147.161"/>
					</g>
					<g>
						<path fill="#A97C50" d="M130.805,147.433l32.367-5.074c-0.014,0.089-0.028,0.176-0.045,0.263l-32.367,5.074
							C130.776,147.609,130.791,147.521,130.805,147.433"/>
					</g>
					<g>
						<path fill="#A97C50" d="M130.76,147.696l32.367-5.074c-0.017,0.086-0.035,0.172-0.054,0.256l-32.367,5.074
							C130.725,147.867,130.743,147.782,130.76,147.696"/>
					</g>
					<g>
						<path fill="#A97C50" d="M130.706,147.952l32.367-5.074c-0.02,0.085-0.041,0.169-0.063,0.252l-32.367,5.074
							C130.665,148.121,130.686,148.037,130.706,147.952"/>
					</g>
					<g>
						<path fill="#A97C50" d="M130.643,148.204l32.367-5.074c-0.022,0.084-0.047,0.167-0.073,0.249l-32.367,5.074
							C130.595,148.371,130.62,148.288,130.643,148.204"/>
					</g>
					<g>
						<path fill="#A97C50" d="M130.569,148.452l32.367-5.074c-0.026,0.083-0.054,0.166-0.083,0.247l-32.367,5.074
							C130.515,148.618,130.543,148.536,130.569,148.452"/>
					</g>
					<g>
						<path fill="#A97C50" d="M130.486,148.699l32.367-5.074c-0.03,0.084-0.062,0.167-0.096,0.25l-32.367,5.074
							C130.423,148.866,130.456,148.783,130.486,148.699"/>
					</g>
					<g>
						<path fill="#A97C50" d="M130.39,148.948l32.367-5.074c-0.035,0.084-0.071,0.167-0.109,0.249l-32.367,5.074
							C130.318,149.116,130.355,149.033,130.39,148.948"/>
					</g>
					<g>
						<path fill="#A97C50" d="M130.28,149.197l32.367-5.074c-0.04,0.086-0.082,0.171-0.126,0.254l-32.367,5.074
							C130.198,149.368,130.24,149.283,130.28,149.197"/>
					</g>
					<g>
						<path fill="#A97C50" d="M130.154,149.451l32.367-5.074c-0.048,0.09-0.098,0.179-0.15,0.265l-32.367,5.074
							C130.057,149.629,130.106,149.541,130.154,149.451"/>
					</g>
					<g>
						<path fill="#A97C50" d="M130.004,149.716l32.367-5.074c-0.057,0.095-0.117,0.187-0.179,0.276l-32.367,5.074
							C129.888,149.903,129.947,149.811,130.004,149.716"/>
					</g>
					<g>
						<path fill="#A97C50" d="M129.826,149.992l32.367-5.074c-0.072,0.104-0.146,0.203-0.224,0.298l-32.367,5.074
							C129.679,150.195,129.754,150.096,129.826,149.992"/>
					</g>
					<g>
						<path fill="#A97C50" d="M129.602,150.291l32.367-5.074c-0.098,0.121-0.201,0.235-0.309,0.343l-32.367,5.074
							C129.4,150.526,129.503,150.412,129.602,150.291"/>
					</g>
					<g>
						<path fill="#A97C50" d="M129.293,150.633l32.367-5.074c-0.572,0.575-1.269,0.955-2.038,1.075l-32.367,5.074
							C128.024,151.588,128.721,151.208,129.293,150.633"/>
					</g>
				</g>
			</g>
		</g>
	</g>
	<g>
		<g enable-background="new    ">
			<g enable-background="new    ">
				<defs>
					<path id="SVGID_5_" enable-background="new    " d="M122.029,135.756l16.184-2.537c0.311-0.048,0.628-0.072,0.952-0.068
						l-16.184,2.537C122.657,135.684,122.34,135.708,122.029,135.756z"/>
				</defs>
				<use xlink:href="#SVGID_5_"  overflow="visible" fill="#603913"/>
				<clipPath id="SVGID_6_">
					<use xlink:href="#SVGID_5_"  overflow="visible"/>
				</clipPath>
				<g clip-path="url(#SVGID_6_)" enable-background="new    ">
					<g>
						<path fill="#603913" d="M122.029,135.756l16.184-2.537c0.036-0.005,0.072-0.011,0.108-0.016l-16.184,2.537
							C122.102,135.746,122.065,135.75,122.029,135.756"/>
					</g>
					<g>
						<path fill="#603913" d="M122.138,135.74l16.184-2.537c0.181-0.025,0.364-0.041,0.549-0.048l-16.184,2.537
							C122.501,135.699,122.318,135.716,122.138,135.74"/>
					</g>
					<g>
						<path fill="#603913" d="M122.687,135.692l16.184-2.537c0.098-0.004,0.196-0.005,0.294-0.004l-16.184,2.537
							C122.883,135.687,122.785,135.688,122.687,135.692"/>
					</g>
				</g>
			</g>
			<g>
				<g>
					<path fill="#754C29" d="M122.981,135.688c4.158,0.043,7.795,4.493,8.124,9.945c0.329,5.443-2.777,9.822-6.935,9.779
						c-4.165-0.044-7.802-4.493-8.13-9.936C115.712,140.023,118.817,135.644,122.981,135.688z"/>
				</g>
			</g>
			<g enable-background="new    ">
				<defs>
					<path id="SVGID_7_" enable-background="new    " d="M141.304,152.806l-16.184,2.537c3.67-0.575,6.288-4.69,5.985-9.71
						c-0.329-5.453-3.966-9.902-8.124-9.945l16.184-2.537c4.158,0.043,7.795,4.493,8.124,9.945
						C147.592,148.116,144.974,152.23,141.304,152.806z"/>
				</defs>
				<use xlink:href="#SVGID_7_"  overflow="visible" fill="#603913"/>
				<clipPath id="SVGID_8_">
					<use xlink:href="#SVGID_7_"  overflow="visible"/>
				</clipPath>
				<g clip-path="url(#SVGID_8_)" enable-background="new    ">
					<g>
						<path fill="#603913" d="M122.981,135.688l16.184-2.537c0.064,0,0.128,0.002,0.191,0.005l-16.184,2.537
							C123.109,135.69,123.045,135.688,122.981,135.688"/>
					</g>
					<g>
						<path fill="#603913" d="M123.173,135.693l16.184-2.537c0.148,0.006,0.295,0.019,0.441,0.036l-16.184,2.537
							C123.468,135.711,123.321,135.699,123.173,135.693"/>
					</g>
					<g>
						<path fill="#603913" d="M123.614,135.728l16.184-2.537c0.132,0.016,0.264,0.036,0.396,0.06l-16.184,2.537
							C123.878,135.764,123.747,135.744,123.614,135.728"/>
					</g>
					<g>
						<path fill="#603913" d="M124.01,135.789l16.184-2.537c0.127,0.024,0.253,0.052,0.379,0.083l-16.184,2.537
							C124.263,135.84,124.137,135.812,124.01,135.789"/>
					</g>
					<g>
						<path fill="#603913" d="M124.389,135.872l16.184-2.537c0.121,0.031,0.242,0.065,0.361,0.103l-16.184,2.537
							C124.63,135.937,124.51,135.902,124.389,135.872"/>
					</g>
					<g>
						<path fill="#603913" d="M124.75,135.975l16.184-2.537c0.117,0.037,0.232,0.077,0.347,0.121l-16.184,2.537
							C124.982,136.052,124.867,136.011,124.75,135.975"/>
					</g>
					<g>
						<path fill="#603913" d="M125.097,136.095l16.184-2.537c0.114,0.043,0.227,0.09,0.339,0.14l-16.184,2.537
							C125.324,136.185,125.211,136.139,125.097,136.095"/>
					</g>
					<g>
						<path fill="#603913" d="M125.437,136.235l16.184-2.537c0.112,0.049,0.223,0.102,0.333,0.158l-16.184,2.537
							C125.659,136.337,125.548,136.285,125.437,136.235"/>
					</g>
					<g>
						<path fill="#603913" d="M125.769,136.393l16.184-2.537c0.11,0.057,0.22,0.116,0.329,0.178l-16.184,2.537
							C125.989,136.509,125.879,136.449,125.769,136.393"/>
					</g>
					<g>
						<path fill="#603913" d="M126.098,136.571l16.184-2.537c0.11,0.063,0.219,0.129,0.326,0.198l-16.184,2.537
							C126.316,136.7,126.208,136.634,126.098,136.571"/>
					</g>
					<g>
						<path fill="#603913" d="M126.424,136.77l16.184-2.537c0.111,0.072,0.221,0.146,0.329,0.224l-16.184,2.537
							C126.645,136.916,126.535,136.841,126.424,136.77"/>
					</g>
					<g>
						<path fill="#603913" d="M126.753,136.993l16.184-2.537c0.11,0.079,0.22,0.162,0.327,0.248l-16.184,2.537
							C126.973,137.155,126.863,137.073,126.753,136.993"/>
					</g>
					<g>
						<path fill="#603913" d="M127.08,137.241l16.184-2.537c0.114,0.091,0.227,0.185,0.337,0.283l-16.184,2.537
							C127.307,137.426,127.194,137.332,127.08,137.241"/>
					</g>
					<g>
						<path fill="#603913" d="M127.417,137.524l16.184-2.537c0.118,0.104,0.233,0.211,0.347,0.323l-16.184,2.537
							C127.651,137.736,127.535,137.628,127.417,137.524"/>
					</g>
					<g>
						<path fill="#603913" d="M127.765,137.847l16.184-2.537c0.121,0.119,0.24,0.243,0.357,0.371l-16.184,2.537
							C128.005,138.09,127.886,137.966,127.765,137.847"/>
					</g>
					<g>
						<path fill="#603913" d="M128.122,138.217l16.184-2.537c0.129,0.141,0.255,0.287,0.377,0.438l-16.184,2.537
							C128.376,138.505,128.25,138.358,128.122,138.217"/>
					</g>
					<g>
						<path fill="#603913" d="M128.499,138.656l16.184-2.537c0.144,0.177,0.283,0.361,0.417,0.551l-16.184,2.537
							C128.782,139.017,128.643,138.833,128.499,138.656"/>
					</g>
					<g>
						<path fill="#603913" d="M128.917,139.207l16.184-2.537c0.181,0.255,0.352,0.521,0.514,0.797l-16.184,2.537
							C129.269,139.727,129.097,139.461,128.917,139.207"/>
					</g>
					<g>
						<path fill="#603913" d="M129.43,140.003l16.184-2.537c0.603,1.029,1.071,2.197,1.361,3.455l-16.184,2.537
							C130.501,142.201,130.033,141.032,129.43,140.003"/>
					</g>
					<g>
						<path fill="#603913" d="M130.792,143.458l16.184-2.537c0.071,0.305,0.131,0.615,0.18,0.929l-16.184,2.537
							C130.922,144.073,130.862,143.763,130.792,143.458"/>
					</g>
					<g>
						<path fill="#603913" d="M130.971,144.387l16.184-2.537c0.038,0.243,0.069,0.487,0.094,0.735l-16.184,2.537
							C131.041,144.875,131.009,144.629,130.971,144.387"/>
					</g>
					<g>
						<path fill="#603913" d="M131.065,145.122l16.184-2.537c0.017,0.169,0.03,0.339,0.041,0.511
							c0.003,0.045,0.005,0.089,0.008,0.134l-16.184,2.537c-0.002-0.044-0.005-0.089-0.008-0.133
							C131.095,145.461,131.082,145.291,131.065,145.122"/>
					</g>
					<g>
						<path fill="#603913" d="M131.113,145.766l16.184-2.537c0.009,0.192,0.015,0.383,0.016,0.573l-16.184,2.537
							C131.128,146.149,131.123,145.958,131.113,145.766"/>
					</g>
					<g>
						<path fill="#603913" d="M131.129,146.339l16.184-2.537c0.001,0.175-0.001,0.349-0.007,0.521l-16.184,2.537
							C131.128,146.688,131.13,146.514,131.129,146.339"/>
					</g>
					<g>
						<path fill="#603913" d="M131.122,146.86l16.184-2.537c-0.006,0.167-0.015,0.332-0.027,0.496l-16.184,2.537
							C131.107,147.192,131.116,147.027,131.122,146.86"/>
					</g>
					<g>
						<path fill="#603913" d="M131.095,147.356l16.184-2.537c-0.012,0.157-0.026,0.312-0.043,0.466l-16.184,2.537
							C131.068,147.668,131.083,147.513,131.095,147.356"/>
					</g>
					<g>
						<path fill="#603913" d="M131.051,147.822l16.184-2.537c-0.017,0.151-0.037,0.3-0.06,0.449l-16.184,2.537
							C131.014,148.123,131.034,147.973,131.051,147.822"/>
					</g>
					<g>
						<path fill="#603913" d="M130.992,148.271l16.184-2.537c-0.022,0.146-0.047,0.292-0.075,0.435l-16.184,2.537
							C130.944,148.562,130.969,148.417,130.992,148.271"/>
					</g>
					<g>
						<path fill="#603913" d="M130.917,148.706l16.184-2.537c-0.027,0.143-0.057,0.284-0.089,0.424l-16.184,2.537
							C130.86,148.99,130.89,148.849,130.917,148.706"/>
					</g>
					<g>
						<path fill="#603913" d="M130.828,149.13l16.184-2.537c-0.032,0.14-0.067,0.279-0.104,0.416l-16.184,2.537
							C130.76,149.409,130.795,149.27,130.828,149.13"/>
					</g>
					<g>
						<path fill="#603913" d="M130.723,149.546l16.184-2.537c-0.038,0.139-0.078,0.277-0.121,0.412l-16.184,2.537
							C130.645,149.822,130.685,149.685,130.723,149.546"/>
					</g>
					<g>
						<path fill="#603913" d="M130.602,149.958l16.184-2.537c-0.043,0.139-0.09,0.276-0.139,0.411l-16.184,2.537
							C130.512,150.233,130.559,150.097,130.602,149.958"/>
					</g>
					<g>
						<path fill="#603913" d="M130.463,150.369l16.184-2.537c-0.05,0.138-0.103,0.273-0.157,0.407l-16.184,2.537
							C130.361,150.642,130.414,150.506,130.463,150.369"/>
					</g>
					<g>
						<path fill="#603913" d="M130.306,150.775l16.184-2.537c-0.059,0.142-0.12,0.282-0.184,0.418l-16.184,2.537
							C130.187,151.057,130.248,150.917,130.306,150.775"/>
					</g>
					<g>
						<path fill="#603913" d="M130.123,151.194l16.184-2.537c-0.067,0.144-0.137,0.284-0.209,0.421l-16.184,2.537
							C129.986,151.478,130.056,151.337,130.123,151.194"/>
					</g>
					<g>
						<path fill="#603913" d="M129.913,151.615l16.184-2.537c-0.078,0.146-0.158,0.289-0.242,0.428l-16.184,2.537
							C129.755,151.904,129.835,151.761,129.913,151.615"/>
					</g>
					<g>
						<path fill="#603913" d="M129.671,152.043l16.184-2.537c-0.095,0.157-0.193,0.311-0.296,0.459l-16.184,2.537
							C129.478,152.354,129.576,152.201,129.671,152.043"/>
					</g>
					<g>
						<path fill="#603913" d="M129.375,152.502l16.183-2.537c-0.118,0.171-0.242,0.335-0.37,0.494l-16.184,2.537
							C129.133,152.837,129.256,152.673,129.375,152.502"/>
					</g>
					<g>
						<path fill="#603913" d="M129.005,152.996l16.184-2.537c-0.16,0.196-0.327,0.383-0.5,0.558l-16.184,2.537
							C128.678,153.378,128.845,153.192,129.005,152.996"/>
					</g>
					<g>
						<path fill="#603913" d="M128.504,153.554l16.184-2.537c-0.946,0.954-2.101,1.588-3.384,1.789l-16.184,2.537
							C126.403,155.142,127.558,154.508,128.504,153.554"/>
					</g>
				</g>
			</g>
		</g>
	</g>
	<g>
		<polygon fill="#A97C50" points="34.919,217.667 129.581,248.667 129.5,321.167 34.919,293.167 		"/>
	</g>
	<g>
		<polygon fill="#8B5E3C" points="224.242,217.667 129.581,248.667 129.661,321.167 224.242,293.167 		"/>
	</g>
	<g>
		<polygon fill="#754C29" points="129.661,308.688 129.52,308.646 34.778,280.646 35.061,279.687 129.661,307.645 224.1,279.687 
			224.384,280.646 		"/>
	</g>
	<g>
		<polygon fill="#754C29" points="129.581,294.688 129.439,294.646 34.697,266.646 34.98,265.687 129.581,293.645 224.019,265.687 
			224.303,266.646 		"/>
	</g>
	<g>
		<polygon fill="#754C29" points="129.371,279.817 129.229,279.775 34.487,251.775 34.771,250.816 129.371,278.774 223.809,250.816 
			224.093,251.775 		"/>
	</g>
	<g>
		<polygon fill="#754C29" points="129.29,263.817 129.148,263.775 34.407,235.775 34.69,234.816 129.29,262.774 223.729,234.816 
			224.013,235.775 		"/>
	</g>
	<g>
		<polygon fill="#C49A6C" points="63.167,13.167 2.5,111.667 114.036,93.959 		"/>
	</g>
	<g>
		
			<rect x="58.531" y="43.313" transform="matrix(0.1474 0.9891 -0.9891 0.1474 143.7191 22.1161)" fill="#8B5E3C" width="1" height="102.221"/>
	</g>
	<g>
		
			<rect x="58.885" y="39.88" transform="matrix(0.1455 0.9894 -0.9894 0.1455 134.3109 13.4231)" fill="#8B5E3C" width="1" height="89.174"/>
	</g>
	<g>
		
			<rect x="59.963" y="35.438" transform="matrix(0.1328 0.9911 -0.9911 0.1328 124.787 3.3775)" fill="#8B5E3C" width="1" height="75.125"/>
	</g>
	<g>
		
			<rect x="60.055" y="30.371" transform="matrix(0.1601 0.9871 -0.9871 0.1601 109.7849 -9.6367)" fill="#8B5E3C" width="1" height="58.649"/>
	</g>
	<g>
		
			<rect x="61.171" y="25.6" transform="matrix(0.1514 0.9885 -0.9885 0.1514 99.4695 -20.4952)" fill="#8B5E3C" width="1" height="44.169"/>
	</g>
	<g>
		
			<rect x="60.948" y="21.932" transform="matrix(0.1592 0.9873 -0.9873 0.1592 86.6221 -30.8936)" fill="#8B5E3C" width="1" height="26.949"/>
	</g>
	<g>
		
			<rect x="62.418" y="16.917" transform="matrix(0.1074 0.9942 -0.9942 0.1074 79.5489 -41.5549)" fill="#8B5E3C" width="1" height="13.219"/>
	</g>
	<g>
		<polygon fill="#8B5E3C" points="67.666,20.312 16.75,102.417 19.75,106 71.75,25.917 		"/>
	</g>
	<g>
		<polygon fill="#3C2415" points="71.75,25.917 19.75,106 25.25,106 74.75,31.292 		"/>
	</g>
	<g>
		<polygon fill="#6D5A50" points="34.5,89.167 44.25,89.167 75.875,94.385 74.75,97.292 		"/>
	</g>
	<g>
		<polygon fill="#8B5E3C" points="73.054,28.253 77.375,229.167 86.625,231.917 82.583,42.083 		"/>
	</g>
	<g>
		<polygon fill="#8B5E3C" points="34.5,89.167 29.125,97.292 74.75,106 74.75,97.042 		"/>
	</g>
	<g>
		<polygon fill="#8B5E3C" points="63.167,7.333 206.5,0 281.833,106 145.833,136 		"/>
	</g>
	<g>
		
			<rect x="146.344" y="-49.486" transform="matrix(0.086 0.9963 -0.9963 0.086 155.4743 -126.8032)" fill="#754C29" width="1" height="141.634"/>
	</g>
	<g>
		
			<rect x="160.19" y="-27.866" transform="matrix(0.1269 0.9919 -0.9919 0.1269 182.1018 -122.5934)" fill="#754C29" width="1" height="140.025"/>
	</g>
	<g>
		
			<rect x="174.135" y="-7.702" transform="matrix(0.1474 0.9891 -0.9891 0.1474 209.4042 -120.5629)" fill="#754C29" width="1" height="137.774"/>
	</g>
	<g>
		
			<rect x="188.58" y="14.971" transform="matrix(0.1875 0.9823 -0.9823 0.1875 236.4507 -117.2214)" fill="#754C29" width="1" height="138.683"/>
	</g>
	<g>
		
			<rect x="203.815" y="37.076" transform="matrix(0.1954 0.9807 -0.9807 0.1954 269.2033 -114.3922)" fill="#754C29" width="1" height="139.574"/>
	</g>
	<g>
		
			<rect x="140.328" y="-59.255" transform="matrix(0.0683 0.9977 -0.9977 0.0683 143.4297 -129.0824)" fill="#754C29" width="1" height="143.017"/>
	</g>
	<g>
		
			<rect x="152.157" y="-40.263" transform="matrix(0.1045 0.9945 -0.9945 0.1045 166.7296 -124.781)" fill="#754C29" width="1" height="140.917"/>
	</g>
	<g>
		
			<rect x="166.425" y="-18.721" transform="matrix(0.1328 0.9911 -0.9911 0.1328 195.6831 -120.8883)" fill="#754C29" width="1" height="140.206"/>
	</g>
	<g>
		
			<rect x="181.947" y="4.998" transform="matrix(0.1739 0.9848 -0.9848 0.1739 224.0482 -118.1539)" fill="#754C29" width="1" height="138.928"/>
	</g>
	<g>
		
			<rect x="196.346" y="26.21" transform="matrix(0.1905 0.9817 -0.9817 0.1905 253.4019 -115.686)" fill="#754C29" width="1" height="139.189"/>
	</g>
	<g>
		<g enable-background="new    ">
			<g enable-background="new    ">
				<defs>
					<path id="SVGID_9_" enable-background="new    " d="M89.387,145.853l32.367-5.074c0.187-0.029,0.377-0.043,0.572-0.042
						l-32.367,5.074C89.764,145.809,89.573,145.823,89.387,145.853z"/>
				</defs>
				<use xlink:href="#SVGID_9_"  overflow="visible" fill="#A97C50"/>
				<clipPath id="SVGID_10_">
					<use xlink:href="#SVGID_9_"  overflow="visible"/>
				</clipPath>
				<g clip-path="url(#SVGID_10_)" enable-background="new    ">
					<g>
						<path fill="#A97C50" d="M89.387,145.853l32.367-5.074c0.022-0.003,0.044-0.007,0.066-0.01l-32.367,5.074
							C89.431,145.846,89.409,145.849,89.387,145.853"/>
					</g>
					<g>
						<path fill="#A97C50" d="M89.453,145.843l32.367-5.074c0.109-0.015,0.219-0.024,0.331-0.029l-32.367,5.074
							C89.671,145.818,89.562,145.828,89.453,145.843"/>
					</g>
					<g>
						<path fill="#A97C50" d="M89.783,145.814l32.367-5.074c0.058-0.002,0.117-0.003,0.176-0.003l-32.367,5.074
							C89.9,145.811,89.841,145.812,89.783,145.814"/>
					</g>
				</g>
			</g>
			<g>
				<g>
					<path fill="#C49A6C" d="M89.959,145.811c0.076,0.001,0.151,0.004,0.228,0.01c2.52,0.196,4.631,3.019,4.699,6.304
						c0.073,3.194-1.794,5.652-4.211,5.627c-0.076-0.001-0.151-0.004-0.228-0.01c-2.526-0.187-4.631-3.01-4.699-6.303
						C85.675,148.245,87.542,145.787,89.959,145.811z"/>
				</g>
			</g>
			<g enable-background="new    ">
				<defs>
					<path id="SVGID_11_" enable-background="new    " d="M123.615,152.636l-32.367,5.074c2.132-0.334,3.706-2.649,3.638-5.585
						c-0.068-3.285-2.179-6.107-4.699-6.304c-0.077-0.005-0.152-0.009-0.228-0.01l32.367-5.074c0.076,0.001,0.151,0.004,0.228,0.01
						c2.52,0.196,4.631,3.019,4.699,6.304C127.32,149.987,125.747,152.302,123.615,152.636z"/>
				</defs>
				<use xlink:href="#SVGID_11_"  overflow="visible" fill="#A97C50"/>
				<clipPath id="SVGID_12_">
					<use xlink:href="#SVGID_11_"  overflow="visible"/>
				</clipPath>
				<g clip-path="url(#SVGID_12_)" enable-background="new    ">
					<g>
						<path fill="#A97C50" d="M89.959,145.811l32.367-5.074c0.04,0,0.08,0.001,0.121,0.003l-32.367,5.074
							C90.039,145.813,89.999,145.812,89.959,145.811"/>
					</g>
					<g>
						<path fill="#A97C50" d="M90.08,145.814l32.367-5.074c0.036,0.001,0.071,0.004,0.107,0.006c0.047,0.004,0.093,0.008,0.14,0.014
							l-32.367,5.074c-0.046-0.005-0.093-0.01-0.14-0.014C90.15,145.818,90.115,145.816,90.08,145.814"/>
					</g>
					<g>
						<path fill="#A97C50" d="M90.327,145.834l32.367-5.074c0.083,0.01,0.166,0.022,0.248,0.038l-32.367,5.074
							C90.493,145.857,90.41,145.844,90.327,145.834"/>
					</g>
					<g>
						<path fill="#A97C50" d="M90.575,145.872l32.367-5.074c0.076,0.015,0.152,0.031,0.228,0.05l-32.367,5.074
							C90.727,145.903,90.651,145.887,90.575,145.872"/>
					</g>
					<g>
						<path fill="#A97C50" d="M90.802,145.922l32.367-5.074c0.074,0.019,0.147,0.04,0.22,0.062l-32.367,5.074
							C90.95,145.962,90.876,145.941,90.802,145.922"/>
					</g>
					<g>
						<path fill="#A97C50" d="M91.022,145.985l32.367-5.074c0.071,0.022,0.142,0.047,0.211,0.074l-32.367,5.074
							C91.164,146.032,91.093,146.007,91.022,145.985"/>
					</g>
					<g>
						<path fill="#A97C50" d="M91.234,146.059l32.367-5.074c0.069,0.026,0.138,0.054,0.206,0.084l-32.367,5.074
							C91.372,146.113,91.303,146.084,91.234,146.059"/>
					</g>
					<g>
						<path fill="#A97C50" d="M91.44,146.143l32.367-5.074c0.067,0.03,0.135,0.062,0.201,0.096l-32.367,5.073
							C91.575,146.205,91.508,146.173,91.44,146.143"/>
					</g>
					<g>
						<path fill="#A97C50" d="M91.642,146.239l32.367-5.073c0.067,0.034,0.134,0.07,0.2,0.108l-32.367,5.074
							C91.775,146.309,91.708,146.273,91.642,146.239"/>
					</g>
					<g>
						<path fill="#A97C50" d="M91.841,146.347l32.367-5.074c0.066,0.039,0.133,0.079,0.198,0.121l-32.367,5.074
							C91.974,146.426,91.908,146.386,91.841,146.347"/>
					</g>
					<g>
						<path fill="#A97C50" d="M92.04,146.468l32.367-5.074c0.067,0.043,0.133,0.088,0.198,0.135l-32.367,5.074
							C92.172,146.556,92.106,146.511,92.04,146.468"/>
					</g>
					<g>
						<path fill="#A97C50" d="M92.238,146.603l32.367-5.074c0.068,0.049,0.135,0.1,0.202,0.152l-32.367,5.074
							C92.373,146.702,92.306,146.651,92.238,146.603"/>
					</g>
					<g>
						<path fill="#A97C50" d="M92.439,146.755l32.367-5.074c0.068,0.055,0.135,0.111,0.202,0.169l-32.367,5.074
							C92.574,146.866,92.507,146.809,92.439,146.755"/>
					</g>
					<g>
						<path fill="#A97C50" d="M92.641,146.924l32.367-5.074c0.071,0.063,0.141,0.128,0.21,0.195l-32.367,5.074
							C92.782,147.052,92.712,146.987,92.641,146.924"/>
					</g>
					<g>
						<path fill="#A97C50" d="M92.851,147.12l32.367-5.074c0.075,0.073,0.148,0.149,0.22,0.228l-32.367,5.074
							C92.999,147.269,92.925,147.193,92.851,147.12"/>
					</g>
					<g>
						<path fill="#A97C50" d="M93.07,147.348l32.367-5.074c0.08,0.087,0.157,0.177,0.232,0.27l-32.367,5.074
							C93.227,147.524,93.15,147.435,93.07,147.348"/>
					</g>
					<g>
						<path fill="#A97C50" d="M93.303,147.618l32.367-5.074c0.088,0.108,0.173,0.221,0.256,0.338l-32.367,5.074
							C93.476,147.839,93.391,147.726,93.303,147.618"/>
					</g>
					<g>
						<path fill="#A97C50" d="M93.558,147.956l32.367-5.074c0.106,0.151,0.208,0.309,0.304,0.472l-32.367,5.074
							C93.766,148.265,93.665,148.107,93.558,147.956"/>
					</g>
					<g>
						<path fill="#A97C50" d="M93.862,148.428l32.367-5.074c0.365,0.623,0.648,1.328,0.823,2.083l-32.367,5.074
							C94.51,149.756,94.227,149.051,93.862,148.428"/>
					</g>
					<g>
						<path fill="#A97C50" d="M94.685,150.511l32.367-5.074c0.043,0.187,0.08,0.375,0.11,0.567l-32.367,5.074
							C94.765,150.887,94.728,150.698,94.685,150.511"/>
					</g>
					<g>
						<path fill="#A97C50" d="M94.794,151.079l32.367-5.074c0.022,0.143,0.041,0.287,0.055,0.433l-32.367,5.074
							C94.835,151.366,94.816,151.221,94.794,151.079"/>
					</g>
					<g>
						<path fill="#A97C50" d="M94.849,151.511l32.367-5.074c0.013,0.125,0.022,0.251,0.028,0.377l-32.367,5.074
							C94.871,151.762,94.862,151.636,94.849,151.511"/>
					</g>
					<g>
						<path fill="#A97C50" d="M94.877,151.889l32.367-5.074c0.004,0.079,0.007,0.157,0.008,0.236
							c0.001,0.04,0.001,0.079,0.002,0.119l-32.367,5.074c0-0.04-0.001-0.079-0.002-0.119
							C94.884,152.045,94.881,151.967,94.877,151.889"/>
					</g>
					<g>
						<path fill="#A97C50" d="M94.888,152.243l32.367-5.074c0.001,0.113,0,0.224-0.004,0.335l-32.367,5.074
							C94.887,152.467,94.889,152.356,94.888,152.243"/>
					</g>
					<g>
						<path fill="#A97C50" d="M94.883,152.578l32.367-5.074c-0.003,0.1-0.009,0.199-0.016,0.297l-32.367,5.074
							C94.875,152.777,94.88,152.678,94.883,152.578"/>
					</g>
					<g>
						<path fill="#A97C50" d="M94.867,152.875l32.367-5.074c-0.007,0.096-0.016,0.191-0.027,0.285L94.84,153.16
							C94.851,153.066,94.86,152.971,94.867,152.875"/>
					</g>
					<g>
						<path fill="#A97C50" d="M94.84,153.16l32.367-5.074c-0.01,0.091-0.022,0.182-0.036,0.272l-32.367,5.074
							C94.818,153.342,94.83,153.251,94.84,153.16"/>
					</g>
					<g>
						<path fill="#A97C50" d="M94.804,153.432l32.367-5.074c-0.014,0.088-0.028,0.176-0.045,0.263l-32.367,5.074
							C94.776,153.608,94.791,153.521,94.804,153.432"/>
					</g>
					<g>
						<path fill="#A97C50" d="M94.759,153.695l32.367-5.074c-0.017,0.086-0.035,0.171-0.054,0.256l-32.367,5.074
							C94.725,153.867,94.743,153.782,94.759,153.695"/>
					</g>
					<g>
						<path fill="#A97C50" d="M94.705,153.951l32.367-5.074c-0.02,0.085-0.041,0.169-0.063,0.252l-32.367,5.074
							C94.665,154.12,94.686,154.036,94.705,153.951"/>
					</g>
					<g>
						<path fill="#A97C50" d="M94.642,154.203l32.367-5.074c-0.022,0.084-0.047,0.167-0.073,0.249l-32.367,5.074
							C94.595,154.37,94.619,154.287,94.642,154.203"/>
					</g>
					<g>
						<path fill="#A97C50" d="M94.569,154.452l32.367-5.074c-0.026,0.083-0.054,0.166-0.083,0.247l-32.367,5.074
							C94.515,154.617,94.542,154.535,94.569,154.452"/>
					</g>
					<g>
						<path fill="#A97C50" d="M94.485,154.698l32.367-5.074c-0.03,0.084-0.062,0.167-0.096,0.249l-32.367,5.074
							C94.423,154.866,94.455,154.783,94.485,154.698"/>
					</g>
					<g>
						<path fill="#A97C50" d="M94.389,154.947l32.367-5.074c-0.035,0.084-0.071,0.167-0.109,0.249l-32.367,5.074
							C94.318,155.114,94.354,155.032,94.389,154.947"/>
					</g>
					<g>
						<path fill="#A97C50" d="M94.28,155.196l32.367-5.074c-0.041,0.086-0.083,0.171-0.126,0.253l-32.367,5.074
							C94.198,155.367,94.24,155.282,94.28,155.196"/>
					</g>
					<g>
						<path fill="#A97C50" d="M94.154,155.449l32.367-5.074c-0.048,0.091-0.098,0.179-0.15,0.265l-32.367,5.074
							C94.057,155.628,94.106,155.54,94.154,155.449"/>
					</g>
					<g>
						<path fill="#A97C50" d="M94.004,155.714l32.367-5.074c-0.057,0.095-0.117,0.187-0.179,0.276l-32.367,5.074
							C93.888,155.901,93.947,155.809,94.004,155.714"/>
					</g>
					<g>
						<path fill="#A97C50" d="M93.826,155.99l32.367-5.074c-0.072,0.104-0.146,0.203-0.224,0.299l-32.367,5.073
							C93.68,156.193,93.754,156.094,93.826,155.99"/>
					</g>
					<g>
						<path fill="#A97C50" d="M93.602,156.289l32.367-5.073c-0.098,0.121-0.201,0.235-0.309,0.343l-32.367,5.074
							C93.4,156.524,93.503,156.41,93.602,156.289"/>
					</g>
					<g>
						<path fill="#A97C50" d="M93.293,156.632l32.367-5.074c-0.574,0.576-1.273,0.957-2.045,1.078l-32.367,5.074
							C92.02,157.589,92.719,157.208,93.293,156.632"/>
					</g>
				</g>
			</g>
		</g>
	</g>
	<g>
		<g>
			<path fill="#3C2415" d="M145.833,227.862l-1.98,0.639c0,0,0.855-80.432-0.02-85.351c-0.875-4.918-2.71-7.591-10.771-9.108
				l3.146-0.389c9.673,1.821,9.623,9.393,9.625,9.47L145.833,227.862z"/>
		</g>
	</g>
	<g>
		<polygon fill="#3A242A" points="145.833,136 142.5,139.167 279.5,109.667 281.833,106 		"/>
	</g>
	<g>
		<polygon fill="#3C2415" points="93.079,60.674 82.583,42.083 86.625,231.917 94.917,229.25 		"/>
	</g>
	<g>
		<polygon fill="#8B5E3C" points="89.5,98.667 89.5,108.833 129.667,117 123.167,106 		"/>
	</g>
	<g>
		<polygon fill="#6D5A50" points="89.5,98.667 123.5,106 123.5,103.75 93.485,97.917 		"/>
	</g>
	<g>
		<polygon fill="#3C2415" points="0,107.667 63.167,7.333 145.833,136 142.5,139.167 63.167,13.167 2.5,111.667 		"/>
	</g>
	<g>
		<g>
			<rect x="167.196" y="229.011" fill="#3C2415" width="180" height="76.379"/>
		</g>
		<g>
			<rect x="206.196" y="276.89" fill="#A97C50" width="19.5" height="63.5"/>
		</g>
		<g>
			<rect x="295.696" y="276.89" fill="#A97C50" width="19.5" height="63.5"/>
		</g>
		<g>
			<rect x="167.196" y="267.201" width="180" height="38.189"/>
		</g>
		<g>
			<path fill="#FFFFFF" d="M217.481,242.941h2.557l-7.24,17.984h-0.563l-5.855-14.562l-5.916,14.562h-0.55l-7.218-17.984h2.583
				l4.935,12.344l4.968-12.344h2.423l4.991,12.344L217.481,242.941z"/>
			<path fill="#FFFFFF" d="M225.641,242.838h1.802l8.029,18.01h-2.624l-2.387-5.307h-7.64l-2.237,5.307h-2.635L225.641,242.838z
				 M229.407,253.259l-2.889-6.486l-2.679,6.486H229.407z"/>
			<path fill="#FFFFFF" d="M237.51,260.848v-17.907h4.487c1.812,0,3.25,0.448,4.313,1.346s1.596,2.11,1.596,3.641
				c0,1.042-0.261,1.944-0.782,2.704c-0.521,0.761-1.269,1.329-2.243,1.705c0.572,0.376,1.132,0.889,1.679,1.538
				c0.546,0.649,1.316,1.782,2.307,3.397c0.624,1.017,1.124,1.781,1.5,2.294l0.948,1.282h-3.051l-0.781-1.18
				c-0.026-0.043-0.077-0.115-0.154-0.219l-0.499-0.705l-0.794-1.308l-0.857-1.398c-0.529-0.735-1.014-1.32-1.455-1.756
				c-0.44-0.435-0.838-0.748-1.193-0.94c-0.355-0.191-0.952-0.288-1.79-0.288h-0.667v7.794H237.51z M240.843,245.12h-0.769v5.653
				h0.974c1.299,0,2.19-0.111,2.673-0.333c0.482-0.223,0.859-0.558,1.128-1.007c0.269-0.448,0.404-0.959,0.404-1.531
				c0-0.564-0.15-1.075-0.449-1.532c-0.299-0.457-0.72-0.78-1.263-0.968S242.099,245.12,240.843,245.12z"/>
			<path fill="#FFFFFF" d="M267.518,242.941h2.436v17.907h-2.205l-11.973-13.792v13.792h-2.41v-17.907h2.077l12.075,13.908V242.941z
				"/>
			<path fill="#FFFFFF" d="M273.812,242.941h2.564v17.907h-2.564V242.941z"/>
			<path fill="#FFFFFF" d="M294.578,242.941h2.436v17.907h-2.205l-11.972-13.792v13.792h-2.41v-17.907h2.077l12.075,13.908V242.941z
				"/>
			<path fill="#FFFFFF" d="M310.525,252.029h6.012v7.589c-2.205,0.957-4.393,1.436-6.564,1.436c-2.965,0-5.334-0.865-7.107-2.596
				s-2.66-3.865-2.66-6.403c0-2.674,0.919-4.9,2.757-6.678c1.837-1.777,4.14-2.667,6.909-2.667c1.008,0,1.965,0.109,2.871,0.327
				s2.051,0.617,3.436,1.198v2.615c-2.137-1.239-4.256-1.858-6.357-1.858c-1.957,0-3.607,0.666-4.949,2
				c-1.342,1.333-2.012,2.97-2.012,4.909c0,2.034,0.67,3.696,2.012,4.986s3.068,1.936,5.18,1.936c1.025,0,2.252-0.235,3.678-0.705
				l0.244-0.077v-3.729h-3.447V252.029z"/>
			<path fill="#FFFFFF" d="M321.062,257.925c0.436,0,0.808,0.155,1.115,0.464s0.462,0.682,0.462,1.119
				c0,0.43-0.154,0.794-0.462,1.095c-0.308,0.3-0.68,0.45-1.115,0.45c-0.419,0-0.782-0.15-1.09-0.45
				c-0.308-0.301-0.461-0.665-0.461-1.095c0-0.438,0.149-0.811,0.448-1.119S320.626,257.925,321.062,257.925z M321.267,248.825
				c0.436,0,0.808,0.153,1.115,0.461s0.462,0.68,0.462,1.115c0,0.428-0.154,0.793-0.462,1.096c-0.308,0.304-0.68,0.455-1.115,0.455
				c-0.419,0-0.779-0.151-1.083-0.455c-0.304-0.303-0.455-0.668-0.455-1.096c0-0.436,0.149-0.808,0.448-1.115
				C320.477,248.978,320.839,248.825,321.267,248.825z"/>
			<path fill="#FFFFFF" d="M194.696,274.444h2.564v17.907h-2.564V274.444z"/>
			<path fill="#FFFFFF" d="M215.462,274.444h2.436v17.907h-2.205l-11.973-13.792v13.792h-2.41v-17.907h2.077l12.075,13.908V274.444z
				"/>
			<path fill="#FFFFFF" d="M221.756,274.444h9.55v2.281h-6.986v4.999h6.986v2.282h-6.986v8.345h-2.564V274.444z"/>
			<path fill="#FFFFFF" d="M234.075,274.444h2.564v17.907h-2.564V274.444z"/>
			<path fill="#FFFFFF" d="M254.841,274.444h2.436v17.907h-2.205l-11.973-13.792v13.792h-2.41v-17.907h2.077l12.075,13.908V274.444z
				"/>
			<path fill="#FFFFFF" d="M261.134,274.444h2.564v17.907h-2.564V274.444z"/>
			<path fill="#FFFFFF" d="M266.147,274.417h14.959v2.282h-6.242v15.651h-2.577V276.7h-6.14V274.417z"/>
			<path fill="#FFFFFF" d="M283.529,274.444h10.153v2.281h-7.589v5.461h7.333v2.294h-7.333v5.563h7.833v2.282h-10.396V274.444z"/>
			<path fill="#FFFFFF" d="M299.82,291.018c0,0.428-0.151,0.79-0.455,1.09c-0.303,0.299-0.672,0.448-1.108,0.448
				c-0.462,0-0.849-0.147-1.159-0.442c-0.312-0.295-0.469-0.66-0.469-1.096c0-0.462,0.154-0.849,0.461-1.16
				c0.309-0.312,0.684-0.468,1.129-0.468c0.461,0,0.844,0.156,1.146,0.468C299.669,290.169,299.82,290.556,299.82,291.018z
				 M297.963,286.762l-0.205-0.653c-0.18-0.514-0.387-1.68-0.623-3.5c-0.234-1.82-0.352-3.367-0.352-4.641
				c0-2.504,0.491-3.756,1.474-3.756c0.957,0,1.437,1.218,1.437,3.653c0,2.025-0.193,4.098-0.578,6.218l-0.346,1.961l-0.205,0.743
				c-0.076,0.266-0.191,0.397-0.346,0.397C298.125,287.185,298.039,287.044,297.963,286.762z"/>
			<path fill="#FFFFFF" d="M306.936,291.018c0,0.428-0.152,0.79-0.455,1.09c-0.303,0.299-0.672,0.448-1.109,0.448
				c-0.461,0-0.848-0.147-1.16-0.442c-0.311-0.295-0.467-0.66-0.467-1.096c0-0.462,0.154-0.849,0.461-1.16
				c0.309-0.312,0.684-0.468,1.129-0.468c0.461,0,0.844,0.156,1.146,0.468S306.936,290.556,306.936,291.018z M305.076,286.762
				l-0.205-0.653c-0.178-0.514-0.387-1.68-0.621-3.5s-0.352-3.367-0.352-4.641c0-2.504,0.49-3.756,1.473-3.756
				c0.957,0,1.436,1.218,1.436,3.653c0,2.025-0.191,4.098-0.576,6.218l-0.346,1.961l-0.205,0.743
				c-0.078,0.266-0.193,0.397-0.346,0.397C305.238,287.185,305.154,287.044,305.076,286.762z"/>
		</g>
		<g>
			<rect x="206.196" y="321.36" fill="#8B5E3C" width="19.5" height="19.03"/>
		</g>
		<g>
			<rect x="295.696" y="321.36" fill="#8B5E3C" width="19.5" height="19.03"/>
		</g>
	</g>
</g>
</svg>
