<?xml version="1.0" encoding="utf-8"?>
<!-- Generator: Adobe Illustrator 15.0.0, SVG Export Plug-In . SVG Version: 6.00 Build 0)  -->
<!DOCTYPE svg PUBLIC "-//W3C//DTD SVG 1.1//EN" "http://www.w3.org/Graphics/SVG/1.1/DTD/svg11.dtd">
<svg version="1.1" id="Layer_1" xmlns="http://www.w3.org/2000/svg" xmlns:xlink="http://www.w3.org/1999/xlink" x="0px" y="0px"
	 width="449.771px" height="470.009px" viewBox="0 0 449.771 470.009" enable-background="new 0 0 449.771 470.009"
	 xml:space="preserve">
<g>
	<polygon fill="#EF4136" points="449.771,189.963 376.79,234.093 376.79,402.118 449.771,363.083 	"/>
</g>
<g>
	<polygon fill="#D1D3D4" points="398.854,160.261 324.176,206.087 376.79,234.093 449.771,189.963 	"/>
</g>
<g>
	<polygon fill="#ED1C24" points="332.661,239.183 0,429.276 10.184,436.065 332.661,247.669 	"/>
</g>
<g>
	<polygon fill="#E6E7E8" points="0,429.276 0,449.218 10.184,457.704 10.184,436.065 	"/>
</g>
<g>
	<polygon fill="#939598" points="376.79,234.093 376.79,258.278 449.771,216.271 449.771,189.963 	"/>
</g>
<g>
	<defs>
		<polygon id="SVGID_1_" points="10.184,436.065 10.184,457.704 332.661,270.583 332.661,247.669 		"/>
	</defs>
	<use xlink:href="#SVGID_1_"  overflow="visible" fill="#D1D3D4"/>
	<clipPath id="SVGID_2_">
		<use xlink:href="#SVGID_1_"  overflow="visible"/>
	</clipPath>
	<g clip-path="url(#SVGID_2_)">
		<polygon fill="#F15A29" points="44.978,380.479 19.094,470.009 41.158,452.612 63.647,373.265 		"/>
	</g>
	<g clip-path="url(#SVGID_2_)">
		<polygon fill="#F15A29" points="84.438,365.204 58.555,454.733 80.62,437.337 103.108,357.991 		"/>
	</g>
	<g clip-path="url(#SVGID_2_)">
		<polygon fill="#F15A29" points="126.87,341.868 100.987,431.397 123.051,414.001 145.539,334.653 		"/>
	</g>
	<g clip-path="url(#SVGID_2_)">
		<polygon fill="#F15A29" points="169.938,320.937 144.054,410.466 166.118,393.069 188.607,313.724 		"/>
	</g>
	<g clip-path="url(#SVGID_2_)">
		<polygon fill="#F15A29" points="216.611,289.536 190.729,379.067 212.793,361.671 235.282,282.325 		"/>
	</g>
	<g clip-path="url(#SVGID_2_)">
		<polygon fill="#F15A29" points="257.856,272.565 231.974,362.095 254.037,344.698 276.526,265.353 		"/>
	</g>
	<g clip-path="url(#SVGID_2_)">
		<polygon fill="#F15A29" points="303.257,241.167 277.375,330.696 299.439,313.3 321.928,233.952 		"/>
	</g>
</g>
<g>
	<polygon fill="#F15A29" points="324.176,206.087 324.176,371.569 376.79,402.118 376.79,234.093 	"/>
</g>
<g>
	<polygon fill="#A7A9AC" points="324.176,206.087 376.79,234.093 376.79,258.278 324.176,231.12 	"/>
</g>
<g>
	<ellipse fill="#939598" cx="386.974" cy="194.085" rx="9.539" ry="6"/>
</g>
<g>
	<polyline fill="#939598" points="377.679,47.256 377.435,194.585 396.513,191.952 396.513,47.256 377.679,45.658 	"/>
</g>
<g>
	<ellipse fill="#A7A9AC" cx="387.18" cy="47.256" rx="9.539" ry="6.828"/>
</g>
<g>
	<rect x="29.987" fill="#ED1C24" width="366.525" height="167.809"/>
</g>
<g>
	<path fill="#FFFFFF" d="M77.81,38.273h2.922l-8.273,20.552h-0.644l-6.691-16.641l-6.76,16.641h-0.629l-8.248-20.552h2.952
		l5.64,14.106l5.677-14.106h2.77l5.704,14.106L77.81,38.273z"/>
	<path fill="#FFFFFF" d="M88.003,38.156h2.059l9.176,20.581H96.24l-2.728-6.064h-8.73l-2.557,6.064h-3.011L88.003,38.156z
		 M92.308,50.065l-3.302-7.412l-3.062,7.412H92.308z"/>
	<path fill="#FFFFFF" d="M102.438,58.737V38.273h5.127c2.07,0,3.713,0.513,4.929,1.538s1.824,2.412,1.824,4.16
		c0,1.191-0.298,2.222-0.894,3.091s-1.45,1.519-2.563,1.948c0.654,0.43,1.294,1.016,1.919,1.758s1.504,2.036,2.637,3.882
		c0.713,1.162,1.284,2.036,1.714,2.622l1.084,1.465h-3.486l-0.893-1.349c-0.029-0.049-0.088-0.132-0.175-0.249l-0.571-0.806
		l-0.907-1.495l-0.98-1.598c-0.604-0.84-1.159-1.509-1.662-2.006s-0.958-0.855-1.364-1.075c-0.406-0.22-1.088-0.329-2.046-0.329
		h-0.763v8.906H102.438z M106.246,40.763h-0.879v6.46h1.113c1.484,0,2.502-0.127,3.054-0.381s0.981-0.637,1.289-1.15
		c0.308-0.512,0.461-1.096,0.461-1.75c0-0.645-0.171-1.228-0.513-1.75s-0.823-0.892-1.443-1.106S107.682,40.763,106.246,40.763z"/>
	<path fill="#FFFFFF" d="M137.599,38.273h2.783v20.464h-2.52l-13.682-15.761v15.761h-2.754V38.273h2.373l13.799,15.895V38.273z"/>
	<path fill="#FFFFFF" d="M145.662,38.273h2.93v20.464h-2.93V38.273z"/>
	<path fill="#FFFFFF" d="M170.262,38.273h2.783v20.464h-2.52l-13.682-15.761v15.761h-2.754V38.273h2.373l13.799,15.895V38.273z"/>
	<path fill="#FFFFFF" d="M189.355,48.659h6.87v8.672c-2.52,1.094-5.02,1.641-7.5,1.641c-3.389,0-6.096-0.988-8.123-2.967
		c-2.026-1.977-3.04-4.416-3.04-7.316c0-3.057,1.05-5.601,3.149-7.632s4.731-3.047,7.896-3.047c1.152,0,2.246,0.124,3.281,0.374
		c1.035,0.248,2.344,0.705,3.926,1.369v2.988c-2.441-1.416-4.863-2.124-7.266-2.124c-2.236,0-4.121,0.762-5.654,2.285
		s-2.3,3.394-2.3,5.61c0,2.324,0.767,4.224,2.3,5.698s3.506,2.212,5.918,2.212c1.172,0,2.573-0.269,4.204-0.806l0.278-0.088v-4.263
		h-3.94V48.659z"/>
	<path fill="#FFFFFF" d="M202.266,55.397c0.498,0,0.923,0.177,1.274,0.529c0.352,0.354,0.527,0.78,0.527,1.279
		c0,0.491-0.176,0.908-0.527,1.251s-0.776,0.515-1.274,0.515c-0.479,0-0.894-0.172-1.245-0.515s-0.527-0.76-0.527-1.251
		c0-0.499,0.171-0.926,0.513-1.279C201.348,55.574,201.768,55.397,202.266,55.397z M202.5,44.997c0.498,0,0.923,0.176,1.274,0.527
		s0.527,0.776,0.527,1.274c0,0.488-0.176,0.906-0.527,1.253s-0.776,0.52-1.274,0.52c-0.479,0-0.891-0.173-1.238-0.52
		s-0.52-0.765-0.52-1.253c0-0.498,0.171-0.923,0.513-1.274S202.012,44.997,202.5,44.997z"/>
	<path fill="#FFFFFF" d="M221.95,58.737h-6.929V38.273h5.361c1.689,0,3.008,0.228,3.955,0.681c0.947,0.455,1.67,1.08,2.168,1.875
		c0.498,0.797,0.747,1.717,0.747,2.762c0,2.012-1.04,3.452-3.12,4.321c1.494,0.283,2.683,0.898,3.567,1.846
		c0.883,0.947,1.325,2.08,1.325,3.398c0,1.045-0.269,1.978-0.806,2.798s-1.326,1.489-2.366,2.007
		C224.814,58.478,223.513,58.737,221.95,58.737z M220.471,40.88h-2.52v6.152h1.948c1.562,0,2.673-0.298,3.333-0.894
		s0.989-1.367,0.989-2.314C224.221,41.862,222.971,40.88,220.471,40.88z M220.69,49.64h-2.739v6.489h2.886
		c1.602,0,2.688-0.125,3.259-0.373c0.571-0.25,1.03-0.638,1.377-1.165s0.52-1.094,0.52-1.699c0-0.625-0.183-1.196-0.549-1.714
		s-0.886-0.903-1.56-1.157S222.146,49.64,220.69,49.64z"/>
	<path fill="#FFFFFF" d="M242.823,37.98c3.161,0,5.794,1.001,7.896,3.003c2.104,2.002,3.155,4.512,3.155,7.529
		s-1.062,5.516-3.185,7.492c-2.122,1.979-4.799,2.967-8.029,2.967c-3.083,0-5.652-0.988-7.707-2.967
		c-2.055-1.977-3.081-4.455-3.081-7.434c0-3.057,1.034-5.586,3.104-7.588S239.661,37.98,242.823,37.98z M242.94,40.763
		c-2.342,0-4.267,0.732-5.773,2.197c-1.508,1.465-2.262,3.335-2.262,5.61c0,2.207,0.756,4.043,2.269,5.508s3.405,2.197,5.679,2.197
		c2.282,0,4.188-0.747,5.715-2.241c1.526-1.494,2.29-3.354,2.29-5.581c0-2.168-0.764-3.992-2.29-5.471
		C247.04,41.502,245.164,40.763,242.94,40.763z"/>
	<path fill="#FFFFFF" d="M272.587,38.273h2.943v11.616c0,1.572-0.114,2.759-0.344,3.56s-0.513,1.468-0.85,1.999
		c-0.337,0.533-0.75,1.009-1.238,1.429c-1.621,1.396-3.74,2.095-6.357,2.095c-2.666,0-4.805-0.693-6.416-2.08
		c-0.488-0.43-0.9-0.91-1.237-1.443c-0.337-0.531-0.615-1.184-0.835-1.955s-0.33-1.982-0.33-3.633V38.273h2.945v11.616
		c0,1.924,0.219,3.262,0.658,4.014s1.109,1.355,2.008,1.809c0.898,0.455,1.957,0.682,3.178,0.682c1.738,0,3.154-0.454,4.248-1.362
		c0.576-0.488,0.992-1.064,1.246-1.729s0.381-1.802,0.381-3.413V38.273z"/>
	<path fill="#FFFFFF" d="M296.718,38.273h2.783v20.464h-2.52L283.3,42.976v15.761h-2.754V38.273h2.373l13.799,15.895V38.273z"/>
	<path fill="#FFFFFF" d="M304.78,58.708V38.273h6.9c2.783,0,4.984,0.417,6.605,1.253c1.621,0.834,2.91,2.062,3.867,3.684
		s1.436,3.389,1.436,5.303c0,1.367-0.264,2.676-0.791,3.926s-1.279,2.349-2.256,3.296c-0.996,0.977-2.152,1.714-3.471,2.212
		c-0.771,0.303-1.48,0.506-2.125,0.607c-0.645,0.104-1.875,0.154-3.691,0.154H304.78z M311.372,40.88h-3.662V56.1h3.75
		c1.465,0,2.604-0.1,3.414-0.301c0.811-0.199,1.486-0.453,2.028-0.762c0.542-0.307,1.038-0.686,1.487-1.135
		c1.445-1.465,2.168-3.315,2.168-5.552c0-2.197-0.742-3.989-2.227-5.376c-0.547-0.518-1.175-0.942-1.883-1.274
		s-1.379-0.552-2.014-0.659S312.778,40.88,311.372,40.88z"/>
	<path fill="#FFFFFF" d="M333,38.156h2.06l9.176,20.581h-2.999l-2.728-6.064h-8.73l-2.557,6.064h-3.012L333,38.156z M337.305,50.065
		l-3.302-7.412l-3.062,7.412H337.305z"/>
	<path fill="#FFFFFF" d="M347.434,58.737V38.273h5.127c2.07,0,3.714,0.513,4.929,1.538c1.217,1.025,1.824,2.412,1.824,4.16
		c0,1.191-0.298,2.222-0.894,3.091s-1.45,1.519-2.563,1.948c0.654,0.43,1.294,1.016,1.919,1.758s1.504,2.036,2.637,3.882
		c0.713,1.162,1.284,2.036,1.714,2.622l1.084,1.465h-3.486l-0.893-1.349c-0.029-0.049-0.088-0.132-0.176-0.249l-0.57-0.806
		l-0.906-1.495l-0.98-1.598c-0.605-0.84-1.159-1.509-1.662-2.006c-0.504-0.497-0.959-0.855-1.364-1.075
		c-0.406-0.22-1.088-0.329-2.046-0.329h-0.763v8.906H347.434z M351.242,40.763h-0.879v6.46h1.113c1.484,0,2.503-0.127,3.054-0.381
		c0.553-0.254,0.982-0.637,1.289-1.15c0.309-0.512,0.462-1.096,0.462-1.75c0-0.645-0.171-1.228-0.513-1.75s-0.822-0.892-1.443-1.106
		C353.706,40.871,352.678,40.763,351.242,40.763z"/>
	<path fill="#FFFFFF" d="M375.64,38.273h3.557l-7.558,9.639v10.825h-3.003V47.912l-7.559-9.639h3.537l5.477,7.055L375.64,38.273z"/>
	<path fill="#FFFFFF" d="M61.784,73.98c3.162,0,5.794,1.001,7.897,3.003s3.155,4.512,3.155,7.529s-1.062,5.516-3.184,7.492
		c-2.123,1.979-4.799,2.967-8.029,2.967c-3.083,0-5.653-0.988-7.707-2.967c-2.055-1.977-3.082-4.455-3.082-7.434
		c0-3.057,1.034-5.586,3.104-7.588C56.006,74.981,58.622,73.98,61.784,73.98z M61.901,76.763c-2.342,0-4.266,0.732-5.773,2.197
		s-2.261,3.335-2.261,5.61c0,2.207,0.756,4.043,2.269,5.508c1.512,1.465,3.405,2.197,5.678,2.197c2.283,0,4.188-0.747,5.715-2.241
		s2.291-3.354,2.291-5.581c0-2.168-0.764-3.992-2.291-5.471C66.001,77.502,64.125,76.763,61.901,76.763z"/>
	<path fill="#FFFFFF" d="M77.339,74.273h10.913v2.607h-7.983v5.713h7.983v2.607h-7.983v9.536h-2.93V74.273z"/>
	<path fill="#FFFFFF" d="M101.549,94.737V74.273h5.127c2.07,0,3.713,0.513,4.929,1.538s1.824,2.412,1.824,4.16
		c0,1.191-0.298,2.222-0.894,3.091s-1.45,1.519-2.563,1.948c0.654,0.43,1.294,1.016,1.919,1.758s1.504,2.036,2.637,3.882
		c0.713,1.162,1.284,2.036,1.714,2.622l1.084,1.465h-3.486l-0.893-1.349c-0.029-0.049-0.088-0.132-0.175-0.249l-0.571-0.806
		l-0.907-1.495l-0.98-1.598c-0.604-0.84-1.159-1.509-1.662-2.006s-0.958-0.855-1.364-1.075c-0.406-0.22-1.088-0.329-2.046-0.329
		h-0.763v8.906H101.549z M105.358,76.763h-0.879v6.46h1.113c1.484,0,2.502-0.127,3.054-0.381s0.981-0.637,1.289-1.15
		c0.308-0.512,0.461-1.096,0.461-1.75c0-0.645-0.171-1.228-0.513-1.75s-0.823-0.892-1.443-1.106S106.793,76.763,105.358,76.763z"/>
	<path fill="#FFFFFF" d="M128.691,73.98c3.162,0,5.794,1.001,7.897,3.003s3.155,4.512,3.155,7.529s-1.062,5.516-3.184,7.492
		c-2.123,1.979-4.799,2.967-8.029,2.967c-3.083,0-5.653-0.988-7.707-2.967c-2.055-1.977-3.082-4.455-3.082-7.434
		c0-3.057,1.034-5.586,3.104-7.588C122.914,74.981,125.529,73.98,128.691,73.98z M128.809,76.763c-2.342,0-4.266,0.732-5.773,2.197
		s-2.261,3.335-2.261,5.61c0,2.207,0.756,4.043,2.269,5.508c1.512,1.465,3.405,2.197,5.678,2.197c2.283,0,4.188-0.747,5.715-2.241
		s2.291-3.354,2.291-5.581c0-2.168-0.764-3.992-2.291-5.471C132.909,77.502,131.033,76.763,128.809,76.763z"/>
	<path fill="#FFFFFF" d="M151.146,94.737h-6.929V74.273h5.361c1.689,0,3.008,0.228,3.955,0.681c0.947,0.455,1.67,1.08,2.168,1.875
		c0.498,0.797,0.747,1.717,0.747,2.762c0,2.012-1.04,3.452-3.12,4.321c1.494,0.283,2.683,0.898,3.567,1.846s1.326,2.08,1.326,3.398
		c0,1.045-0.269,1.978-0.806,2.798s-1.326,1.489-2.366,2.007S152.708,94.737,151.146,94.737z M149.667,76.88h-2.52v6.152h1.948
		c1.562,0,2.673-0.298,3.333-0.894s0.989-1.367,0.989-2.314C153.417,77.862,152.167,76.88,149.667,76.88z M149.886,85.64h-2.739
		v6.489h2.886c1.602,0,2.688-0.125,3.259-0.373c0.571-0.25,1.03-0.638,1.377-1.165s0.52-1.094,0.52-1.699
		c0-0.625-0.183-1.196-0.549-1.714s-0.886-0.903-1.56-1.157S151.341,85.64,149.886,85.64z"/>
	<path fill="#FFFFFF" d="M172.019,73.98c3.162,0,5.794,1.001,7.897,3.003s3.155,4.512,3.155,7.529s-1.062,5.516-3.184,7.492
		c-2.123,1.979-4.799,2.967-8.029,2.967c-3.083,0-5.653-0.988-7.707-2.967c-2.055-1.977-3.082-4.455-3.082-7.434
		c0-3.057,1.034-5.586,3.104-7.588C166.241,74.981,168.856,73.98,172.019,73.98z M172.136,76.763c-2.342,0-4.266,0.732-5.773,2.197
		s-2.261,3.335-2.261,5.61c0,2.207,0.756,4.043,2.269,5.508c1.512,1.465,3.405,2.197,5.678,2.197c2.283,0,4.188-0.747,5.715-2.241
		s2.291-3.354,2.291-5.581c0-2.168-0.764-3.992-2.291-5.471C176.236,77.502,174.36,76.763,172.136,76.763z"/>
	<path fill="#FFFFFF" d="M183.853,74.244h17.095v2.607h-7.134v17.886h-2.944V76.851h-7.017V74.244z"/>
	<path fill="#FFFFFF" d="M218.859,86.163l-2.227-1.353c-1.396-0.853-2.39-1.691-2.981-2.517s-0.886-1.775-0.886-2.85
		c0-1.611,0.559-2.92,1.677-3.926s2.571-1.509,4.358-1.509c1.709,0,3.276,0.479,4.702,1.439v3.325
		c-1.475-1.419-3.062-2.128-4.761-2.128c-0.957,0-1.743,0.222-2.358,0.664s-0.923,1.009-0.923,1.699c0,0.613,0.227,1.188,0.68,1.723
		s1.182,1.097,2.187,1.685l2.237,1.324c2.496,1.491,3.744,3.389,3.744,5.693c0,1.641-0.549,2.974-1.648,3.999
		s-2.527,1.538-4.285,1.538c-2.021,0-3.862-0.621-5.522-1.864v-3.721c1.582,2.005,3.413,3.007,5.493,3.007
		c0.918,0,1.682-0.256,2.292-0.767s0.916-1.15,0.916-1.919C221.555,88.461,220.656,87.281,218.859,86.163z"/>
	<path fill="#FFFFFF" d="M242.64,74.273h2.944v11.616c0,1.572-0.114,2.759-0.345,3.56c-0.229,0.801-0.512,1.468-0.85,1.999
		c-0.336,0.533-0.749,1.009-1.237,1.429c-1.621,1.396-3.74,2.095-6.357,2.095c-2.666,0-4.805-0.693-6.416-2.08
		c-0.488-0.43-0.901-0.91-1.237-1.443c-0.338-0.531-0.615-1.184-0.836-1.955c-0.219-0.771-0.329-1.982-0.329-3.633V74.273h2.944
		v11.616c0,1.924,0.22,3.262,0.659,4.014s1.108,1.355,2.007,1.809c0.898,0.455,1.958,0.682,3.179,0.682
		c1.738,0,3.154-0.454,4.248-1.362c0.576-0.488,0.991-1.064,1.245-1.729s0.381-1.802,0.381-3.413V74.273z"/>
	<path fill="#FFFFFF" d="M266.786,74.273h2.738v20.464h-2.943V78.814l-6.292,7.91h-0.542l-6.365-7.91v15.923h-2.93V74.273h2.773
		l6.801,8.404L266.786,74.273z"/>
	<path fill="#FFFFFF" d="M291.079,74.273h2.738v20.464h-2.943V78.814l-6.292,7.91h-0.542l-6.365-7.91v15.923h-2.93V74.273h2.773
		l6.801,8.404L291.079,74.273z"/>
	<path fill="#FFFFFF" d="M299.097,74.273h11.602v2.607h-8.672v6.24h8.379v2.622h-8.379V92.1h8.951v2.607h-11.881V74.273z"/>
	<path fill="#FFFFFF" d="M315.056,94.737V74.273h5.127c2.07,0,3.713,0.513,4.929,1.538s1.823,2.412,1.823,4.16
		c0,1.191-0.297,2.222-0.893,3.091s-1.451,1.519-2.564,1.948c0.654,0.43,1.295,1.016,1.92,1.758s1.504,2.036,2.637,3.882
		c0.713,1.162,1.283,2.036,1.713,2.622l1.084,1.465h-3.486l-0.893-1.349c-0.029-0.049-0.088-0.132-0.175-0.249l-0.571-0.806
		l-0.906-1.495l-0.98-1.598c-0.604-0.84-1.158-1.509-1.662-2.006s-0.959-0.855-1.363-1.075c-0.406-0.22-1.088-0.329-2.047-0.329
		h-0.762v8.906H315.056z M318.864,76.763h-0.879v6.46h1.113c1.484,0,2.502-0.127,3.054-0.381s0.981-0.637,1.289-1.15
		c0.308-0.512,0.462-1.096,0.462-1.75c0-0.645-0.172-1.228-0.514-1.75s-0.822-0.892-1.442-1.106S320.3,76.763,318.864,76.763z"/>
	<path fill="#FFFFFF" d="M334.968,91.47c0.498,0,0.923,0.171,1.274,0.513s0.527,0.762,0.527,1.26c0,0.488-0.173,0.898-0.521,1.23
		c-0.346,0.332-0.773,0.498-1.281,0.498c-0.498,0-0.918-0.166-1.26-0.498s-0.513-0.742-0.513-1.23c0-0.498,0.171-0.918,0.513-1.26
		S334.47,91.47,334.968,91.47z"/>
	<path fill="#FFFFFF" d="M51.771,130.708v-20.435h6.899c2.783,0,4.985,0.417,6.606,1.253c1.621,0.834,2.91,2.062,3.867,3.684
		s1.436,3.389,1.436,5.303c0,1.367-0.264,2.676-0.791,3.926s-1.279,2.349-2.256,3.296c-0.996,0.977-2.153,1.714-3.472,2.212
		c-0.771,0.303-1.479,0.506-2.124,0.607c-0.645,0.104-1.875,0.154-3.691,0.154H51.771z M58.363,112.88h-3.662v15.22h3.75
		c1.465,0,2.603-0.1,3.413-0.301c0.811-0.199,1.487-0.453,2.029-0.762c0.542-0.307,1.038-0.686,1.487-1.135
		c1.445-1.465,2.168-3.315,2.168-5.552c0-2.197-0.742-3.989-2.227-5.376c-0.547-0.518-1.174-0.942-1.882-1.274
		s-1.379-0.552-2.014-0.659S59.77,112.88,58.363,112.88z"/>
	<path fill="#FFFFFF" d="M85.154,109.98c3.162,0,5.794,1.001,7.897,3.003s3.155,4.512,3.155,7.529s-1.062,5.516-3.184,7.492
		c-2.123,1.979-4.799,2.967-8.029,2.967c-3.083,0-5.653-0.988-7.707-2.967c-2.055-1.977-3.082-4.455-3.082-7.434
		c0-3.057,1.034-5.586,3.104-7.588C79.376,110.981,81.992,109.98,85.154,109.98z M85.271,112.763c-2.342,0-4.266,0.732-5.773,2.197
		s-2.261,3.335-2.261,5.61c0,2.207,0.756,4.043,2.269,5.508c1.512,1.465,3.405,2.197,5.678,2.197c2.283,0,4.188-0.747,5.715-2.241
		s2.291-3.354,2.291-5.581c0-2.168-0.764-3.992-2.291-5.471C89.371,113.502,87.495,112.763,85.271,112.763z"/>
	<path fill="#FFFFFF" d="M100.68,110.273h11.602v2.607h-8.672v6.24h8.379v2.622h-8.379v6.357h8.95v2.607h-11.88V110.273z"/>
	<path fill="#FFFFFF" d="M121.618,122.163l-2.227-1.353c-1.396-0.853-2.39-1.691-2.981-2.517s-0.886-1.775-0.886-2.85
		c0-1.611,0.559-2.92,1.677-3.926s2.571-1.509,4.358-1.509c1.709,0,3.276,0.479,4.702,1.439v3.325
		c-1.475-1.419-3.062-2.128-4.761-2.128c-0.957,0-1.743,0.222-2.358,0.664s-0.923,1.009-0.923,1.699c0,0.613,0.227,1.188,0.68,1.723
		s1.182,1.097,2.187,1.685l2.237,1.324c2.496,1.491,3.744,3.389,3.744,5.693c0,1.641-0.549,2.974-1.648,3.999
		s-2.527,1.538-4.285,1.538c-2.021,0-3.862-0.621-5.522-1.864v-3.721c1.582,2.005,3.413,3.007,5.493,3.007
		c0.918,0,1.682-0.256,2.292-0.767s0.916-1.15,0.916-1.919C124.313,124.461,123.415,123.281,121.618,122.163z"/>
	<path fill="#FFFFFF" d="M155.179,110.273h3.541l-8.187,9.87l8.758,10.594h-3.539l-6.97-8.482l-7.035,8.482h-3.579l8.807-10.595
		l-8.177-9.869h3.576l6.422,7.815L155.179,110.273z"/>
	<path fill="#FFFFFF" d="M167.895,110.009h1.655c-1.221,1.816-2.107,3.369-2.659,4.658s-0.967,2.767-1.245,4.431
		c-0.278,1.666-0.417,3.274-0.417,4.827c0,5.332,1.44,9.893,4.321,13.682h-1.655l-0.439-0.542c-1.104-1.328-1.921-2.417-2.454-3.267
		s-1.062-1.953-1.589-3.311c-0.85-2.168-1.274-4.385-1.274-6.65c0-2.305,0.425-4.528,1.274-6.673
		C164.262,115.022,165.756,112.636,167.895,110.009z"/>
	<path fill="#FFFFFF" d="M178.403,110.009c1.875,0,3.425,0.984,4.651,2.952s1.838,4.465,1.838,7.492c0,3.105-0.613,5.63-1.838,7.573
		s-2.815,2.915-4.768,2.915c-1.982,0-3.574-0.952-4.775-2.856s-1.802-4.429-1.802-7.573c0-3.105,0.62-5.633,1.86-7.58
		C174.81,110.983,176.421,110.009,178.403,110.009z M178.433,112.792h-0.146c-1.123,0-2.014,0.691-2.673,2.073
		s-0.989,3.254-0.989,5.617c0,2.422,0.322,4.321,0.967,5.698s1.533,2.065,2.666,2.065s2.026-0.688,2.681-2.065
		s0.981-3.247,0.981-5.61c0-2.373-0.315-4.263-0.945-5.669S179.497,112.792,178.433,112.792z"/>
	<path fill="#FFFFFF" d="M188.663,137.607h-1.641c1.27-1.914,2.173-3.538,2.71-4.87c0.537-1.334,0.938-2.799,1.201-4.395
		c0.264-1.598,0.396-3.128,0.396-4.593c0-1.699-0.154-3.345-0.461-4.937s-0.767-3.103-1.377-4.533s-1.433-2.854-2.468-4.271h1.641
		l0.454,0.542c1.094,1.299,1.907,2.373,2.439,3.223s1.062,1.958,1.589,3.325c0.85,2.168,1.274,4.404,1.274,6.709
		c0,2.207-0.386,4.331-1.157,6.372c-0.381,1.016-0.862,2.026-1.443,3.032S190.187,135.683,188.663,137.607z"/>
	<path fill="#FFFFFF" d="M222.278,118.11h-14.18v-2.461h14.18V118.11z M222.278,124.628h-14.18v-2.461h14.18V124.628z"/>
	<path fill="#FFFFFF" d="M251.093,110.273h3.541l-8.188,9.87l8.758,10.594h-3.538l-6.97-8.482l-7.035,8.482h-3.58l8.808-10.595
		l-8.177-9.869h3.575l6.423,7.815L251.093,110.273z"/>
	<path fill="#FFFFFF" d="M263.81,110.009h1.654c-1.221,1.816-2.106,3.369-2.658,4.658s-0.967,2.767-1.245,4.431
		c-0.278,1.666-0.417,3.274-0.417,4.827c0,5.332,1.439,9.893,4.32,13.682h-1.654l-0.439-0.542c-1.104-1.328-1.922-2.417-2.454-3.267
		s-1.062-1.953-1.589-3.311c-0.85-2.168-1.275-4.385-1.275-6.65c0-2.305,0.426-4.528,1.275-6.673
		C260.177,115.022,261.671,112.636,263.81,110.009z"/>
	<path fill="#FFFFFF" d="M268.956,110.273h2.93v17.798h9.215v2.666h-12.145V110.273z"/>
	<path fill="#FFFFFF" d="M284.284,137.607h-1.641c1.27-1.914,2.173-3.538,2.71-4.87c0.537-1.334,0.938-2.799,1.201-4.395
		c0.264-1.598,0.396-3.128,0.396-4.593c0-1.699-0.154-3.345-0.461-4.937c-0.309-1.592-0.768-3.103-1.377-4.533
		c-0.611-1.431-1.434-2.854-2.469-4.271h1.641l0.454,0.542c1.094,1.299,1.907,2.373,2.438,3.223c0.533,0.85,1.062,1.958,1.59,3.325
		c0.85,2.168,1.274,4.404,1.274,6.709c0,2.207-0.386,4.331-1.157,6.372c-0.381,1.016-0.861,2.026-1.443,3.032
		C286.86,134.218,285.808,135.683,284.284,137.607z"/>
	<path fill="#FFFFFF" d="M317.899,118.11h-14.18v-2.461h14.18V118.11z M317.899,124.628h-14.18v-2.461h14.18V124.628z"/>
	<path fill="#FFFFFF" d="M337.261,110.009c1.875,0,3.426,0.984,4.651,2.952s1.839,4.465,1.839,7.492c0,3.105-0.613,5.63-1.839,7.573
		s-2.815,2.915-4.769,2.915c-1.982,0-3.574-0.952-4.775-2.856s-1.801-4.429-1.801-7.573c0-3.105,0.619-5.633,1.859-7.58
		C333.667,110.983,335.278,110.009,337.261,110.009z M337.29,112.792h-0.146c-1.123,0-2.014,0.691-2.673,2.073
		s-0.989,3.254-0.989,5.617c0,2.422,0.322,4.321,0.967,5.698s1.533,2.065,2.666,2.065s2.027-0.688,2.682-2.065s0.98-3.247,0.98-5.61
		c0-2.373-0.314-4.263-0.944-5.669S338.354,112.792,337.29,112.792z"/>
	<path fill="#FFFFFF" d="M347.462,113.188l1.924-3.208c1.585,0.059,2.789,0.5,3.611,1.324c0.822,0.825,1.232,1.842,1.232,3.052
		c0,0.78-0.158,1.607-0.477,2.48s-1.031,2.153-2.139,3.842c-1.283,1.971-1.926,3.371-1.926,4.199c0,0.128,0.029,0.327,0.088,0.601
		c-0.664-0.303-1.14-0.666-1.428-1.09c-0.288-0.425-0.432-0.992-0.432-1.705c0-0.683,0.115-1.292,0.346-1.829
		c0.23-0.536,0.787-1.492,1.67-2.867c0.844-1.327,1.266-2.429,1.266-3.307c0-0.605-0.189-1.085-0.566-1.441
		c-0.378-0.356-0.881-0.534-1.508-0.534C348.653,112.705,348.1,112.866,347.462,113.188z M351.944,129.206
		c0,0.501-0.176,0.92-0.529,1.258c-0.354,0.339-0.789,0.508-1.309,0.508c-0.49,0-0.902-0.167-1.236-0.5
		c-0.333-0.333-0.5-0.745-0.5-1.235c0-0.51,0.172-0.944,0.516-1.302c0.343-0.358,0.76-0.537,1.25-0.537
		c0.51,0,0.938,0.174,1.287,0.522C351.771,128.267,351.944,128.697,351.944,129.206z"/>
</g>
</svg>
