<?xml version="1.0" encoding="utf-8"?>
<!-- Generator: Adobe Illustrator 15.0.0, SVG Export Plug-In . SVG Version: 6.00 Build 0)  -->
<!DOCTYPE svg PUBLIC "-//W3C//DTD SVG 1.1//EN" "http://www.w3.org/Graphics/SVG/1.1/DTD/svg11.dtd">
<svg version="1.1" id="Layer_1" xmlns="http://www.w3.org/2000/svg" xmlns:xlink="http://www.w3.org/1999/xlink" x="0px" y="0px"
	 width="179.427px" height="179.449px" viewBox="0 0 179.427 179.449" enable-background="new 0 0 179.427 179.449"
	 xml:space="preserve">
<g>
	<g>
		<path fill="#E6E7E8" d="M34.664,179.05l-34.039-28.27L0,149.449V1.75l2.954-1.224l34.04,34.039L37.5,35.79v141.928L34.664,179.05z
			 M3.461,148.634l30.578,25.395V36.506L3.461,5.929V148.634z"/>
	</g>
	<g>
		<polygon fill="#FFFFFF" points="0.008,3.759 0.008,0 2.036,0 		"/>
	</g>
	<polygon fill="#E6E7E8" points="3.461,148.634 34.039,174.029 34.039,36.506 3.461,5.929 	"/>
	<g>
		<rect x="37.5" y="37.521" fill="#D1D3D4" width="138.466" height="138.465"/>
		<g>
			<path fill="#D1D3D4" d="M177.697,179.449H35.77l-1.73-1.73V35.79l1.73-1.731h141.927l1.73,1.731v141.928L177.697,179.449z
				 M37.5,175.986h138.466V37.521H37.5V175.986z"/>
		</g>
		<g>
			<path fill="#FFFFFF" d="M177.697,37.521H35.77l-1.215-0.498L0.01,2.983l1.215-2.965h149.357l1.354,0.652l27.115,34.04
				L177.697,37.521z M36.479,34.059h137.626L149.748,3.48H5.447L36.479,34.059z"/>
		</g>
		<g>
			<rect x="82.491" y="80.78" fill="#414042" width="86.551" height="86.551"/>
			<path fill="#414042" d="M84.223,165.599h83.089V82.511H84.223V165.599z"/>
		</g>
		<g>
			<polygon fill="#848484" points="82.491,80.78 61.734,60.021 152.509,60.021 169.042,80.78 			"/>
		</g>
		<g>
			<polygon fill="#58595B" points="61.734,60.021 61.734,150.091 82.491,167.332 82.491,80.78 			"/>
			<path fill="#58595B" d="M63.466,149.279l17.294,14.363V81.497L63.466,64.2V149.279z"/>
		</g>
		<g>
			<path fill="#FFFFFF" d="M93.24,103.117h8.469v1.904h-6.33v4.555h6.117v1.916h-6.117v4.641h6.533v1.904H93.24V103.117z"/>
			<path fill="#FFFFFF" d="M110.718,108.218h2.488l-4.049,4.85l4.338,4.99h-2.498l-3.088-3.529l-2.92,3.529h-2.447l4.143-4.986
				l-4.143-4.854h2.455l2.916,3.375L110.718,108.218z"/>
			<path fill="#FFFFFF" d="M113.494,109.779l3.658-3.592v2.031h3.111v1.754h-3.111v4.816c0,1.123,0.467,1.686,1.402,1.686
				c0.697,0,1.436-0.23,2.213-0.695v1.818c-0.748,0.422-1.564,0.631-2.449,0.631c-0.891,0-1.633-0.26-2.225-0.781
				c-0.186-0.156-0.338-0.332-0.461-0.529c-0.121-0.195-0.223-0.451-0.303-0.77c-0.082-0.316-0.123-0.922-0.123-1.812v-4.363h-1.713
				V109.779z"/>
			<path fill="#FFFFFF" d="M124.253,108.218v2.256l0.107-0.17c0.939-1.52,1.881-2.279,2.822-2.279c0.734,0,1.502,0.371,2.299,1.113
				l-1.025,1.711c-0.678-0.641-1.305-0.963-1.883-0.963c-0.627,0-1.17,0.299-1.631,0.898s-0.689,1.309-0.689,2.129v5.145h-1.957
				v-9.84H124.253z"/>
			<path fill="#FFFFFF" d="M137.109,118.058v-1.262c-0.414,0.451-0.887,0.803-1.418,1.055s-1.061,0.377-1.588,0.377
				c-0.619,0-1.193-0.154-1.717-0.465s-0.92-0.73-1.188-1.262s-0.4-1.414-0.4-2.646v-5.637h1.945v5.607
				c0,1.033,0.148,1.754,0.445,2.162c0.295,0.41,0.814,0.615,1.555,0.615c0.928,0,1.715-0.453,2.365-1.357v-7.027h1.945v9.84
				H137.109z"/>
			<path fill="#FFFFFF" d="M148.359,103.117h1.957v14.941h-4.16c-1.455,0-2.613-0.461-3.48-1.381s-1.299-2.152-1.299-3.699
				c0-1.447,0.453-2.639,1.363-3.572c0.908-0.936,2.068-1.402,3.48-1.402c0.656,0,1.369,0.141,2.139,0.418V103.117z
				 M148.359,116.388v-6.234c-0.605-0.307-1.219-0.461-1.84-0.461c-0.969,0-1.74,0.318-2.314,0.953s-0.861,1.49-0.861,2.566
				c0,1.012,0.25,1.793,0.75,2.342c0.299,0.328,0.615,0.551,0.951,0.664c0.334,0.113,0.938,0.17,1.807,0.17H148.359z"/>
			<path fill="#FFFFFF" d="M161.343,113.308h-6.92c0.051,0.941,0.365,1.689,0.947,2.246c0.58,0.557,1.33,0.834,2.25,0.834
				c1.283,0,2.467-0.398,3.551-1.197v1.904c-0.6,0.398-1.191,0.684-1.781,0.855c-0.588,0.17-1.277,0.256-2.068,0.256
				c-1.084,0-1.961-0.225-2.631-0.674s-1.207-1.053-1.609-1.812c-0.404-0.76-0.604-1.639-0.604-2.637
				c0-1.496,0.424-2.715,1.271-3.652s1.951-1.406,3.305-1.406c1.305,0,2.346,0.457,3.123,1.369c0.777,0.914,1.166,2.137,1.166,3.668
				V113.308z M154.466,112.142h4.951c-0.049-0.775-0.281-1.375-0.695-1.795c-0.414-0.422-0.969-0.631-1.668-0.631
				s-1.271,0.209-1.717,0.631C154.892,110.767,154.601,111.367,154.466,112.142z"/>
			<path fill="#FFFFFF" d="M97.195,129.208h1.209c-0.891,1.326-1.537,2.459-1.941,3.4c-0.402,0.941-0.705,2.02-0.908,3.234
				c-0.203,1.217-0.305,2.391-0.305,3.525c0,3.893,1.051,7.223,3.154,9.988h-1.209l-0.32-0.396
				c-0.805-0.969-1.402-1.764-1.791-2.385c-0.389-0.619-0.775-1.426-1.16-2.416c-0.621-1.582-0.932-3.201-0.932-4.855
				c0-1.684,0.311-3.307,0.932-4.871C94.542,132.867,95.634,131.126,97.195,129.208z"/>
			<path fill="#FFFFFF" d="M104.019,138.082l-1.625-0.988c-1.02-0.623-1.746-1.234-2.178-1.838c-0.432-0.602-0.646-1.295-0.646-2.08
				c0-1.176,0.408-2.131,1.225-2.865s1.877-1.102,3.182-1.102c1.248,0,2.393,0.35,3.434,1.051v2.428
				c-1.078-1.035-2.236-1.555-3.477-1.555c-0.699,0-1.273,0.162-1.721,0.486c-0.449,0.322-0.674,0.736-0.674,1.24
				c0,0.447,0.164,0.865,0.496,1.258c0.33,0.391,0.863,0.799,1.596,1.23l1.633,0.967c1.822,1.088,2.734,2.473,2.734,4.156
				c0,1.197-0.402,2.17-1.203,2.92c-0.803,0.748-1.846,1.121-3.129,1.121c-1.475,0-2.82-0.453-4.031-1.359v-2.717
				c1.154,1.463,2.492,2.195,4.01,2.195c0.67,0,1.229-0.188,1.674-0.561s0.67-0.84,0.67-1.4
				C105.988,139.759,105.33,138.896,104.019,138.082z"/>
			<path fill="#FFFFFF" d="M110.041,129.4h1.945v6.396c0.812-0.992,1.822-1.486,3.027-1.486c0.656,0,1.244,0.164,1.764,0.49
				c0.521,0.33,0.908,0.781,1.16,1.359c0.254,0.578,0.381,1.438,0.381,2.578v5.604h-1.947v-6.086c0-0.719-0.176-1.299-0.529-1.738
				c-0.352-0.438-0.818-0.656-1.395-0.656c-0.428,0-0.832,0.109-1.209,0.33c-0.379,0.223-0.795,0.59-1.252,1.102v7.049h-1.945V129.4
				z"/>
			<path fill="#FFFFFF" d="M122.041,130.363c0.32,0,0.594,0.111,0.822,0.332s0.342,0.492,0.342,0.812
				c0,0.314-0.113,0.586-0.342,0.812c-0.229,0.229-0.502,0.342-0.822,0.342c-0.301,0-0.564-0.115-0.793-0.348
				c-0.229-0.23-0.342-0.5-0.342-0.807c0-0.299,0.113-0.564,0.342-0.797S121.74,130.363,122.041,130.363z M121.078,134.501h1.945
				v9.84h-1.945V134.501z"/>
			<path fill="#FFFFFF" d="M126.06,134.501v-0.588c0-1.582,0.338-2.762,1.012-3.539s1.48-1.166,2.422-1.166
				c0.406,0,0.887,0.064,1.443,0.191v1.904c-0.314-0.113-0.613-0.172-0.898-0.172c-0.762,0-1.293,0.203-1.588,0.611
				c-0.297,0.406-0.443,1.129-0.443,2.17v0.588h1.754v1.754h-1.754v8.086h-1.947v-8.086h-1.41v-1.754H126.06z"/>
			<path fill="#FFFFFF" d="M129.933,136.064l3.656-3.594v2.031h3.113v1.754h-3.113v4.816c0,1.123,0.469,1.688,1.402,1.688
				c0.699,0,1.436-0.232,2.213-0.697v1.818c-0.748,0.422-1.564,0.631-2.449,0.631c-0.891,0-1.633-0.26-2.225-0.779
				c-0.186-0.156-0.338-0.334-0.459-0.529c-0.121-0.197-0.223-0.453-0.305-0.771c-0.082-0.316-0.123-0.92-0.123-1.812v-4.363h-1.711
				V136.064z"/>
			<path fill="#FFFFFF" d="M138.103,138.449h5.326v2.086h-5.326V138.449z"/>
			<path fill="#FFFFFF" d="M154.07,139.593h-6.92c0.051,0.941,0.365,1.689,0.947,2.246c0.582,0.555,1.332,0.834,2.252,0.834
				c1.283,0,2.467-0.4,3.551-1.199v1.904c-0.6,0.398-1.193,0.686-1.781,0.855c-0.588,0.172-1.277,0.258-2.07,0.258
				c-1.084,0-1.959-0.225-2.631-0.674c-0.67-0.449-1.207-1.055-1.609-1.814c-0.402-0.758-0.604-1.637-0.604-2.635
				c0-1.498,0.424-2.715,1.271-3.652c0.85-0.938,1.951-1.406,3.305-1.406c1.307,0,2.348,0.455,3.123,1.369
				c0.777,0.912,1.166,2.135,1.166,3.668V139.593z M147.193,138.427h4.953c-0.051-0.777-0.283-1.377-0.695-1.797
				c-0.414-0.422-0.971-0.631-1.67-0.631c-0.697,0-1.27,0.209-1.715,0.631C147.621,137.05,147.33,137.65,147.193,138.427z"/>
			<path fill="#FFFFFF" d="M156.263,149.357h-1.197c0.926-1.398,1.586-2.584,1.977-3.557c0.393-0.973,0.686-2.041,0.879-3.207
				c0.191-1.166,0.287-2.283,0.287-3.354c0-1.24-0.111-2.441-0.336-3.604s-0.561-2.266-1.006-3.311s-1.047-2.084-1.801-3.117h1.197
				l0.332,0.395c0.797,0.949,1.391,1.732,1.779,2.354c0.389,0.619,0.775,1.43,1.16,2.428c0.621,1.582,0.932,3.215,0.932,4.898
				c0,1.611-0.283,3.162-0.846,4.652c-0.277,0.74-0.629,1.479-1.053,2.213S157.375,147.953,156.263,149.357z"/>
		</g>
		<polygon fill="#FFFFFF" points="36.479,34.059 174.105,34.059 149.748,3.48 5.447,3.48 		"/>
	</g>
</g>
</svg>
