<?xml version="1.0" encoding="utf-8"?>
<!-- Generator: Adobe Illustrator 15.0.0, SVG Export Plug-In . SVG Version: 6.00 Build 0)  -->
<!DOCTYPE svg PUBLIC "-//W3C//DTD SVG 1.1//EN" "http://www.w3.org/Graphics/SVG/1.1/DTD/svg11.dtd">
<svg version="1.1" id="Layer_1" xmlns="http://www.w3.org/2000/svg" xmlns:xlink="http://www.w3.org/1999/xlink" x="0px" y="0px"
	 width="588px" height="324.801px" viewBox="0 0 588 324.801" enable-background="new 0 0 588 324.801" xml:space="preserve">
<path fill="#74726E" d="M550.875,321.801c0,1.657-1.344,3-3,3h-70.208c-1.657,0-3-1.343-3-3v-16.667c0-1.657,1.343-3,3-3h70.208
	c1.656,0,3,1.343,3,3V321.801z"/>
<path fill="#74726E" d="M4,55.75c0,0-1.44-36.333,42.56-36.333S229.059,0.25,292.059,0.25l6-0.25
	c63,0,201.498,19.167,245.498,19.167S585.559,55.5,585.559,55.5"/>
<g>
	<defs>
		<path id="XMLID_3_" d="M586.117,282.923c0,16.278-20.575,29.476-45.956,29.476H49.957C24.575,312.398,4,299.201,4,282.923V56.942
			c0-16.278,20.575-29.476,45.957-29.476h490.205c25.381,0,45.956,13.197,45.956,29.476V282.923z"/>
	</defs>
	<use xlink:href="#XMLID_3_"  overflow="visible" fill="#EBECED"/>
	<clipPath id="XMLID_2_">
		<use xlink:href="#XMLID_3_"  overflow="visible"/>
	</clipPath>
	<g clip-path="url(#XMLID_2_)">
		<path fill="#EBECED" d="M0,46.467c125.805,0,252.14,3.511,377.997-0.825c38.706-1.333,77.215-2.984,115.887-0.004
			c31.027,2.392,62.642-4.011,94.116-4.171"/>
	</g>
</g>
<path fill="#74726E" d="M110.208,321.801c0,1.657-1.343,3-3,3H37c-1.657,0-3-1.343-3-3v-16.667c0-1.657,1.343-3,3-3h70.208
	c1.657,0,3,1.343,3,3V321.801z"/>
<g opacity="0.05">
	<g>
		<path d="M0,46.467c125.805,0,252.14,3.511,377.997-0.825c38.706-1.333,77.215-2.984,115.887-0.004
			c31.027,2.392,62.642-4.011,94.116-4.171"/>
	</g>
	<path d="M4,170.466l582.117-1V56.942c0-16.278-20.575-29.476-45.956-29.476H49.957C24.575,27.467,4,40.664,4,56.942V170.466"/>
</g>
<g>
	<path fill="#F1EDED" d="M110.609,19.89c0,0.319-0.441,0.577-0.984,0.577H86.377c-0.544,0-0.984-0.258-0.984-0.577V9.861
		c0-0.318,0.44-0.577,0.984-0.577h23.248c0.543,0,0.984,0.259,0.984,0.577V19.89z"/>
	<path fill="#C1BABB" d="M109.625,7.176H86.377c-0.544,0-0.984,0.409-0.984,0.915v3.302c0-0.506,0.44-0.915,0.984-0.915h23.248
		c0.543,0,0.984,0.409,0.984,0.915V8.091C110.609,7.585,110.168,7.176,109.625,7.176z"/>
</g>
<path fill="#D3D3D3" d="M357,282.923c0,16.278-12.477,29.476-27.868,29.476H31.868C16.477,312.398,4,299.201,4,282.923V56.942
	c19-24.143,29.942-24.81,45.333-24.81l279.799-4.666c15.392,0,27.868,13.197,27.868,29.476V282.923z"/>
<path fill="#C1BABB" d="M540.295,24.467H48.749c-25.451,0-43.749,12-44.754,29.75L4,69.967c0-16.279,19.297-30.834,44.749-30.834
	h491.546c25.45,0,45.822,13.197,45.822,29.477l0.261-14.667C586.378,37.664,565.745,24.467,540.295,24.467z"/>
<path fill="none" stroke="#C1BABB" stroke-miterlimit="10" d="M315,63.467c0,1.656-1.343,3-3,3H48c-1.657,0-3-1.344-3-3V49.538
	c0-1.657,1.343-3,3-3h264c1.657,0,3,1.343,3,3V63.467z"/>
<path fill="#FFF200" d="M103.333,60.503c0,1.657-1.343,3-3,3h-48c-1.657,0-3-1.343-3-3v-8c0-1.657,1.343-3,3-3h48
	c1.657,0,3,1.343,3,3V60.503z"/>
<g>
	<path d="M111.398,57.503v-7.332h2.526c0.57,0,1.005,0.035,1.305,0.105c0.42,0.097,0.778,0.272,1.075,0.525
		c0.387,0.327,0.676,0.745,0.868,1.253c0.191,0.508,0.288,1.089,0.288,1.743c0,0.557-0.065,1.05-0.195,1.48
		c-0.13,0.43-0.296,0.786-0.5,1.068c-0.203,0.282-0.426,0.503-0.667,0.665s-0.534,0.284-0.875,0.368s-0.734,0.125-1.178,0.125
		H111.398z M112.369,56.638h1.565c0.483,0,0.863-0.045,1.138-0.135c0.275-0.09,0.494-0.217,0.658-0.38
		c0.23-0.23,0.409-0.539,0.538-0.928c0.128-0.388,0.192-0.859,0.192-1.413c0-0.767-0.125-1.356-0.377-1.768
		c-0.252-0.412-0.558-0.688-0.917-0.828c-0.26-0.1-0.679-0.15-1.255-0.15h-1.541V56.638z"/>
	<path d="M118.465,55.147l0.916-0.08c0.043,0.367,0.144,0.667,0.302,0.903c0.158,0.235,0.404,0.425,0.738,0.57
		s0.708,0.218,1.125,0.218c0.37,0,0.697-0.055,0.98-0.165s0.494-0.261,0.633-0.453c0.138-0.192,0.208-0.401,0.208-0.627
		c0-0.23-0.067-0.431-0.2-0.603c-0.133-0.171-0.354-0.315-0.66-0.433c-0.197-0.077-0.632-0.196-1.305-0.357
		c-0.674-0.162-1.146-0.314-1.416-0.458c-0.35-0.183-0.611-0.411-0.783-0.683c-0.171-0.272-0.257-0.576-0.257-0.913
		c0-0.37,0.105-0.716,0.315-1.038c0.21-0.321,0.517-0.565,0.92-0.732c0.403-0.167,0.852-0.25,1.345-0.25
		c0.543,0,1.022,0.087,1.438,0.263c0.416,0.175,0.734,0.433,0.958,0.772c0.223,0.34,0.343,0.725,0.36,1.155l-0.93,0.07
		c-0.05-0.463-0.219-0.813-0.507-1.05c-0.289-0.236-0.714-0.355-1.278-0.355c-0.587,0-1.015,0.108-1.283,0.323
		c-0.269,0.215-0.403,0.474-0.403,0.778c0,0.263,0.095,0.48,0.285,0.65c0.187,0.17,0.674,0.344,1.463,0.522
		c0.789,0.179,1.329,0.334,1.623,0.468c0.427,0.197,0.742,0.446,0.945,0.748c0.204,0.302,0.305,0.649,0.305,1.043
		c0,0.39-0.112,0.757-0.335,1.103c-0.224,0.345-0.544,0.614-0.963,0.805c-0.418,0.192-0.889,0.288-1.413,0.288
		c-0.664,0-1.22-0.097-1.668-0.29c-0.449-0.193-0.8-0.484-1.055-0.873C118.612,56.077,118.478,55.638,118.465,55.147z"/>
	<path d="M128.652,57.503h-0.9v-5.736c-0.217,0.207-0.501,0.414-0.853,0.62c-0.352,0.207-0.667,0.362-0.948,0.465v-0.87
		c0.503-0.237,0.943-0.523,1.32-0.86c0.376-0.337,0.644-0.664,0.8-0.98h0.58V57.503z"/>
	<path d="M133.588,57.503h-0.9v-5.736c-0.217,0.207-0.501,0.414-0.853,0.62c-0.352,0.207-0.667,0.362-0.948,0.465v-0.87
		c0.503-0.237,0.943-0.523,1.32-0.86c0.376-0.337,0.644-0.664,0.8-0.98h0.58V57.503z"/>
	<path d="M135.894,53.887c0-0.867,0.089-1.564,0.268-2.093c0.178-0.529,0.443-0.936,0.795-1.223c0.352-0.287,0.794-0.43,1.328-0.43
		c0.394,0,0.739,0.08,1.035,0.238c0.297,0.158,0.542,0.387,0.735,0.685s0.345,0.662,0.455,1.09s0.165,1.006,0.165,1.733
		c0,0.86-0.088,1.555-0.265,2.083s-0.441,0.937-0.792,1.225c-0.352,0.289-0.796,0.433-1.333,0.433c-0.707,0-1.262-0.253-1.665-0.76
		C136.136,56.258,135.894,55.264,135.894,53.887z M136.819,53.887c0,1.204,0.141,2.004,0.423,2.403s0.629,0.598,1.042,0.598
		c0.414,0,0.761-0.2,1.043-0.6c0.282-0.4,0.422-1.2,0.422-2.4c0-1.207-0.141-2.009-0.422-2.406
		c-0.282-0.396-0.633-0.595-1.053-0.595c-0.414,0-0.744,0.175-0.99,0.525C136.974,51.858,136.819,52.684,136.819,53.887z"/>
	<path d="M146.321,56.638v0.865h-4.846c-0.007-0.217,0.028-0.425,0.105-0.625c0.124-0.33,0.321-0.655,0.593-0.976
		c0.271-0.32,0.664-0.69,1.178-1.11c0.797-0.653,1.335-1.171,1.615-1.553c0.28-0.382,0.42-0.743,0.42-1.083
		c0-0.356-0.127-0.658-0.382-0.903c-0.255-0.245-0.588-0.367-0.998-0.367c-0.434,0-0.78,0.13-1.041,0.39
		c-0.26,0.26-0.392,0.62-0.395,1.081l-0.925-0.095c0.063-0.69,0.302-1.216,0.715-1.578c0.413-0.362,0.968-0.543,1.666-0.543
		c0.703,0,1.26,0.195,1.67,0.585c0.41,0.39,0.615,0.874,0.615,1.45c0,0.293-0.06,0.582-0.18,0.865
		c-0.12,0.283-0.319,0.582-0.598,0.895c-0.279,0.313-0.741,0.744-1.388,1.291c-0.54,0.453-0.887,0.761-1.04,0.922
		c-0.153,0.162-0.28,0.325-0.38,0.488H146.321z"/>
	<path d="M147.651,57.503v-7.332h2.526c0.57,0,1.005,0.035,1.305,0.105c0.42,0.097,0.778,0.272,1.075,0.525
		c0.387,0.327,0.676,0.745,0.868,1.253c0.191,0.508,0.288,1.089,0.288,1.743c0,0.557-0.065,1.05-0.195,1.48
		c-0.13,0.43-0.296,0.786-0.5,1.068c-0.203,0.282-0.426,0.503-0.667,0.665s-0.534,0.284-0.875,0.368s-0.734,0.125-1.178,0.125
		H147.651z M148.622,56.638h1.565c0.483,0,0.863-0.045,1.138-0.135c0.275-0.09,0.494-0.217,0.658-0.38
		c0.23-0.23,0.409-0.539,0.538-0.928c0.128-0.388,0.192-0.859,0.192-1.413c0-0.767-0.125-1.356-0.377-1.768
		c-0.252-0.412-0.558-0.688-0.917-0.828c-0.26-0.1-0.679-0.15-1.255-0.15h-1.541V56.638z"/>
	<path d="M110.999,59.982h1.683c0.332,0,0.6,0.045,0.804,0.135s0.373,0.219,0.506,0.388s0.23,0.364,0.29,0.587
		c0.06,0.224,0.09,0.46,0.09,0.71c0,0.392-0.044,0.695-0.134,0.911c-0.089,0.216-0.213,0.397-0.371,0.543
		c-0.159,0.146-0.329,0.243-0.51,0.291c-0.249,0.067-0.474,0.1-0.675,0.1h-1.683V59.982z M112.131,60.813v2.003h0.277
		c0.237,0,0.405-0.026,0.505-0.079c0.1-0.052,0.178-0.144,0.235-0.275s0.085-0.343,0.085-0.636c0-0.389-0.063-0.654-0.19-0.798
		c-0.127-0.143-0.337-0.215-0.63-0.215H112.131z"/>
	<path d="M115.012,59.982h1.135v3.666h-1.135V59.982z"/>
	<path d="M118.802,62.321v-0.763h1.75v1.562c-0.335,0.229-0.631,0.384-0.889,0.467c-0.258,0.083-0.563,0.124-0.917,0.124
		c-0.435,0-0.79-0.074-1.064-0.223c-0.274-0.148-0.487-0.369-0.638-0.663s-0.227-0.63-0.227-1.01c0-0.4,0.083-0.748,0.248-1.044
		s0.407-0.521,0.725-0.674c0.249-0.118,0.583-0.178,1.003-0.178c0.405,0,0.708,0.037,0.909,0.11c0.201,0.073,0.367,0.187,0.5,0.341
		c0.132,0.154,0.232,0.35,0.299,0.586l-1.093,0.195c-0.045-0.138-0.122-0.244-0.229-0.317s-0.245-0.11-0.411-0.11
		c-0.249,0-0.446,0.086-0.594,0.259c-0.148,0.173-0.222,0.446-0.222,0.819c0,0.396,0.075,0.68,0.224,0.85
		c0.149,0.17,0.357,0.255,0.624,0.255c0.127,0,0.248-0.018,0.363-0.055c0.115-0.037,0.247-0.099,0.395-0.188v-0.345H118.802z"/>
	<path d="M121.271,59.982h1.135v3.666h-1.135V59.982z"/>
	<path d="M122.961,59.982h3.443v0.905h-1.155v2.761h-1.132v-2.761h-1.155V59.982z"/>
	<path d="M128.823,63.043h-1.286l-0.179,0.605h-1.157l1.378-3.666h1.236l1.377,3.666h-1.187L128.823,63.043z M128.588,62.25
		l-0.404-1.318l-0.4,1.318H128.588z"/>
	<path d="M130.553,59.982h1.133v2.763h1.768v0.903h-2.901V59.982z"/>
	<path d="M135.534,61.818c0-0.598,0.167-1.064,0.5-1.397c0.333-0.333,0.798-0.5,1.393-0.5c0.61,0,1.08,0.164,1.41,0.492
		s0.495,0.786,0.495,1.376c0,0.428-0.072,0.78-0.216,1.054c-0.144,0.274-0.353,0.488-0.625,0.64
		c-0.272,0.153-0.612,0.229-1.019,0.229c-0.414,0-0.755-0.066-1.026-0.198c-0.271-0.131-0.491-0.34-0.659-0.625
		C135.618,62.603,135.534,62.247,135.534,61.818z M136.667,61.823c0,0.37,0.069,0.636,0.207,0.797
		c0.137,0.162,0.324,0.243,0.561,0.243c0.244,0,0.432-0.079,0.565-0.238c0.133-0.158,0.2-0.442,0.2-0.853
		c0-0.345-0.069-0.597-0.208-0.756s-0.328-0.239-0.566-0.239c-0.229,0-0.412,0.081-0.55,0.243
		C136.736,61.182,136.667,61.45,136.667,61.823z"/>
	<path d="M139.745,62.436l1.078-0.067c0.023,0.175,0.071,0.309,0.143,0.4c0.117,0.148,0.283,0.223,0.5,0.223
		c0.162,0,0.286-0.038,0.374-0.114c0.087-0.076,0.131-0.164,0.131-0.264c0-0.095-0.042-0.18-0.125-0.255
		c-0.083-0.075-0.276-0.146-0.58-0.213c-0.497-0.111-0.851-0.26-1.062-0.445c-0.213-0.185-0.32-0.421-0.32-0.708
		c0-0.188,0.055-0.366,0.164-0.534c0.109-0.167,0.273-0.299,0.493-0.395c0.219-0.096,0.52-0.144,0.901-0.144
		c0.468,0,0.825,0.087,1.071,0.262c0.246,0.174,0.392,0.451,0.439,0.831l-1.068,0.062c-0.028-0.165-0.088-0.285-0.179-0.36
		s-0.216-0.112-0.376-0.112c-0.131,0-0.231,0.028-0.297,0.083c-0.067,0.056-0.1,0.124-0.1,0.204c0,0.059,0.027,0.111,0.083,0.158
		c0.053,0.048,0.18,0.093,0.38,0.135c0.495,0.106,0.85,0.214,1.064,0.324c0.214,0.109,0.37,0.245,0.468,0.406
		s0.146,0.343,0.146,0.542c0,0.235-0.065,0.452-0.195,0.65c-0.13,0.198-0.312,0.349-0.545,0.451s-0.528,0.154-0.883,0.154
		c-0.624,0-1.055-0.12-1.295-0.36C139.912,63.111,139.776,62.806,139.745,62.436z"/>
	<path d="M146.081,62.148l0.993,0.3c-0.066,0.278-0.171,0.511-0.315,0.698c-0.143,0.187-0.321,0.328-0.534,0.422
		c-0.212,0.095-0.483,0.143-0.812,0.143c-0.398,0-0.724-0.058-0.977-0.174s-0.47-0.319-0.654-0.611s-0.275-0.665-0.275-1.12
		c0-0.606,0.161-1.072,0.484-1.398c0.322-0.326,0.779-0.489,1.369-0.489c0.462,0,0.825,0.094,1.089,0.28s0.46,0.474,0.589,0.86
		l-1,0.222c-0.035-0.111-0.072-0.193-0.11-0.245c-0.063-0.087-0.141-0.153-0.232-0.2c-0.092-0.047-0.194-0.07-0.308-0.07
		c-0.257,0-0.454,0.104-0.59,0.31c-0.103,0.153-0.155,0.394-0.155,0.722c0,0.406,0.062,0.685,0.185,0.835
		c0.123,0.151,0.296,0.226,0.52,0.226c0.217,0,0.38-0.061,0.491-0.183S146.031,62.38,146.081,62.148z"/>
	<path d="M147.668,59.982h1.135v3.666h-1.135V59.982z"/>
	<path d="M149.617,59.982h1.133v2.763h1.768v0.903h-2.901V59.982z"/>
	<path d="M153.032,59.982h1.133v2.763h1.768v0.903h-2.901V59.982z"/>
	<path d="M156.218,61.818c0-0.598,0.167-1.064,0.5-1.397c0.333-0.333,0.798-0.5,1.393-0.5c0.61,0,1.08,0.164,1.41,0.492
		s0.495,0.786,0.495,1.376c0,0.428-0.072,0.78-0.216,1.054c-0.144,0.274-0.353,0.488-0.625,0.64
		c-0.272,0.153-0.612,0.229-1.019,0.229c-0.414,0-0.755-0.066-1.026-0.198c-0.271-0.131-0.491-0.34-0.659-0.625
		C156.302,62.603,156.218,62.247,156.218,61.818z M157.351,61.823c0,0.37,0.069,0.636,0.207,0.797
		c0.137,0.162,0.324,0.243,0.561,0.243c0.244,0,0.432-0.079,0.565-0.238c0.133-0.158,0.2-0.442,0.2-0.853
		c0-0.345-0.069-0.597-0.208-0.756s-0.328-0.239-0.566-0.239c-0.229,0-0.412,0.081-0.55,0.243
		C157.42,61.182,157.351,61.45,157.351,61.823z"/>
	<path d="M160.429,62.436l1.078-0.067c0.023,0.175,0.071,0.309,0.143,0.4c0.117,0.148,0.283,0.223,0.5,0.223
		c0.162,0,0.286-0.038,0.374-0.114c0.087-0.076,0.131-0.164,0.131-0.264c0-0.095-0.042-0.18-0.125-0.255
		c-0.083-0.075-0.276-0.146-0.58-0.213c-0.497-0.111-0.851-0.26-1.062-0.445c-0.213-0.185-0.32-0.421-0.32-0.708
		c0-0.188,0.055-0.366,0.164-0.534c0.109-0.167,0.273-0.299,0.493-0.395c0.219-0.096,0.52-0.144,0.901-0.144
		c0.468,0,0.825,0.087,1.071,0.262c0.246,0.174,0.392,0.451,0.439,0.831l-1.068,0.062c-0.028-0.165-0.088-0.285-0.179-0.36
		s-0.216-0.112-0.376-0.112c-0.131,0-0.231,0.028-0.297,0.083c-0.067,0.056-0.1,0.124-0.1,0.204c0,0.059,0.027,0.111,0.083,0.158
		c0.053,0.048,0.18,0.093,0.38,0.135c0.495,0.106,0.85,0.214,1.064,0.324c0.214,0.109,0.37,0.245,0.468,0.406
		s0.146,0.343,0.146,0.542c0,0.235-0.065,0.452-0.195,0.65c-0.13,0.198-0.312,0.349-0.545,0.451s-0.528,0.154-0.883,0.154
		c-0.624,0-1.055-0.12-1.295-0.36C160.597,63.111,160.46,62.806,160.429,62.436z"/>
	<path d="M166.765,62.148l0.993,0.3c-0.066,0.278-0.171,0.511-0.315,0.698c-0.143,0.187-0.321,0.328-0.534,0.422
		c-0.212,0.095-0.483,0.143-0.812,0.143c-0.398,0-0.724-0.058-0.977-0.174s-0.47-0.319-0.654-0.611s-0.275-0.665-0.275-1.12
		c0-0.606,0.161-1.072,0.484-1.398c0.322-0.326,0.779-0.489,1.369-0.489c0.462,0,0.825,0.094,1.089,0.28s0.46,0.474,0.589,0.86
		l-1,0.222c-0.035-0.111-0.072-0.193-0.11-0.245c-0.063-0.087-0.141-0.153-0.232-0.2c-0.092-0.047-0.194-0.07-0.308-0.07
		c-0.257,0-0.454,0.104-0.59,0.31c-0.103,0.153-0.155,0.394-0.155,0.722c0,0.406,0.062,0.685,0.185,0.835
		c0.123,0.151,0.296,0.226,0.52,0.226c0.217,0,0.38-0.061,0.491-0.183S166.715,62.38,166.765,62.148z"/>
	<path d="M168.166,61.818c0-0.598,0.167-1.064,0.5-1.397c0.333-0.333,0.798-0.5,1.393-0.5c0.61,0,1.08,0.164,1.41,0.492
		s0.495,0.786,0.495,1.376c0,0.428-0.072,0.78-0.216,1.054c-0.144,0.274-0.353,0.488-0.625,0.64
		c-0.272,0.153-0.612,0.229-1.019,0.229c-0.414,0-0.755-0.066-1.026-0.198c-0.271-0.131-0.491-0.34-0.659-0.625
		C168.25,62.603,168.166,62.247,168.166,61.818z M169.298,61.823c0,0.37,0.069,0.636,0.207,0.797
		c0.137,0.162,0.324,0.243,0.561,0.243c0.244,0,0.432-0.079,0.565-0.238c0.133-0.158,0.2-0.442,0.2-0.853
		c0-0.345-0.069-0.597-0.208-0.756s-0.328-0.239-0.566-0.239c-0.229,0-0.412,0.081-0.55,0.243
		C169.368,61.182,169.298,61.45,169.298,61.823z"/>
	<path d="M172.569,59.982h1.883c0.41,0,0.717,0.098,0.921,0.293c0.204,0.195,0.307,0.473,0.307,0.833
		c0,0.37-0.111,0.659-0.334,0.868s-0.562,0.312-1.019,0.312h-0.62v1.36h-1.138V59.982z M173.707,61.545h0.277
		c0.219,0,0.372-0.038,0.46-0.114c0.088-0.076,0.132-0.173,0.132-0.291c0-0.115-0.038-0.213-0.115-0.293s-0.221-0.12-0.433-0.12
		h-0.323V61.545z"/>
	<path d="M176.27,59.982h3.036v0.783h-1.9v0.583h1.763v0.748h-1.763v0.723h1.956v0.83h-3.091V59.982z"/>
</g>
<g>
	<path d="M60.43,56.691c0.119,0.061,0.236,0.169,0.35,0.328c0.019,0.023,0.035,0.042,0.048,0.057l1.119,1.458h0.076h0.137
		c0.266,0,0.466,0.051,0.601,0.153c0.135,0.102,0.203,0.254,0.203,0.458c0,0.222-0.067,0.382-0.203,0.48
		c-0.135,0.098-0.358,0.147-0.669,0.147h-0.845c-0.311,0-0.554-0.111-0.728-0.333l-0.021-0.011l-1.682-2.13
		c-0.064-0.083-0.137-0.146-0.22-0.189c-0.082-0.043-0.169-0.065-0.261-0.065h-0.645v1.491h0.11c0.247,0,0.433,0.052,0.559,0.155
		c0.126,0.104,0.189,0.255,0.189,0.455c0,0.222-0.065,0.382-0.196,0.48c-0.13,0.098-0.351,0.147-0.662,0.147H55.92
		c-0.307,0-0.526-0.049-0.659-0.147c-0.133-0.098-0.199-0.258-0.199-0.48c0-0.2,0.063-0.351,0.189-0.455
		c0.125-0.104,0.31-0.155,0.552-0.155h0.117v-4.214h-0.117c-0.238,0-0.421-0.054-0.549-0.161c-0.128-0.107-0.192-0.261-0.192-0.46
		c0-0.218,0.067-0.377,0.203-0.478c0.135-0.1,0.354-0.149,0.655-0.149h3.165c0.97,0,1.705,0.155,2.204,0.466
		c0.499,0.311,0.748,0.77,0.748,1.376c0,0.422-0.138,0.787-0.415,1.096C61.344,56.316,60.947,56.544,60.43,56.691z M57.609,54.284
		v1.599h0.927c0.572,0,0.973-0.062,1.201-0.184c0.229-0.123,0.343-0.327,0.343-0.613c0-0.282-0.104-0.487-0.312-0.613
		c-0.208-0.126-0.544-0.189-1.006-0.189H57.609z"/>
	<path d="M68.037,54.318v4.214h1.153c0.311,0,0.534,0.048,0.669,0.144c0.135,0.096,0.203,0.251,0.203,0.466
		c0,0.218-0.069,0.377-0.206,0.477c-0.137,0.1-0.359,0.15-0.666,0.15h-4.078c-0.312,0-0.535-0.049-0.669-0.147
		c-0.135-0.098-0.203-0.258-0.203-0.48c0-0.219,0.066-0.375,0.199-0.469c0.133-0.094,0.357-0.141,0.673-0.141h1.153v-4.214h-1.153
		c-0.312,0-0.535-0.049-0.669-0.147c-0.135-0.098-0.203-0.256-0.203-0.475c0-0.222,0.066-0.38,0.199-0.475s0.357-0.141,0.673-0.141
		h4.078c0.325,0,0.551,0.047,0.68,0.141c0.128,0.094,0.192,0.252,0.192,0.475c0,0.219-0.066,0.376-0.199,0.475
		s-0.357,0.147-0.673,0.147H68.037z"/>
	<path d="M77.675,53.256c0.086-0.136,0.179-0.232,0.278-0.288c0.098-0.057,0.221-0.085,0.367-0.085c0.224,0,0.383,0.049,0.477,0.147
		c0.094,0.098,0.141,0.266,0.141,0.503l0.014,1.469c0,0.26-0.052,0.435-0.155,0.525s-0.292,0.135-0.566,0.135
		c-0.192,0-0.342-0.039-0.45-0.116c-0.107-0.077-0.195-0.216-0.264-0.417c-0.124-0.363-0.313-0.622-0.57-0.777
		s-0.616-0.232-1.078-0.232c-0.705,0-1.244,0.196-1.617,0.588s-0.56,0.959-0.56,1.703c0,0.743,0.196,1.317,0.587,1.722
		c0.392,0.405,0.946,0.608,1.665,0.608c0.165,0,0.352-0.016,0.562-0.048s0.458-0.082,0.742-0.15v-0.893h-0.776
		c-0.311,0-0.532-0.047-0.663-0.141c-0.13-0.094-0.195-0.25-0.195-0.469c0-0.226,0.065-0.387,0.195-0.483
		c0.131-0.096,0.352-0.144,0.663-0.144h2.479c0.32,0,0.545,0.047,0.676,0.142c0.131,0.094,0.196,0.252,0.196,0.474
		c0,0.2-0.065,0.354-0.196,0.46c-0.13,0.107-0.319,0.161-0.566,0.161h-0.11v1.345v0.068c0,0.121-0.016,0.204-0.048,0.251
		c-0.032,0.047-0.096,0.095-0.192,0.144c-0.261,0.128-0.675,0.241-1.242,0.339c-0.568,0.098-1.142,0.147-1.723,0.147
		c-1.199,0-2.169-0.326-2.911-0.978c-0.742-0.651-1.112-1.503-1.112-2.554c0-1.013,0.375-1.854,1.126-2.525
		c0.75-0.67,1.702-1.005,2.855-1.005c0.32,0,0.64,0.03,0.958,0.09C76.98,53.034,77.318,53.128,77.675,53.256z"/>
	<path d="M84.025,52.883c1.126,0,2.053,0.332,2.781,0.994c0.728,0.663,1.091,1.509,1.091,2.537c0,1.036-0.362,1.883-1.084,2.542
		c-0.724,0.659-1.652,0.989-2.788,0.989c-1.121,0-2.048-0.333-2.78-0.997c-0.732-0.665-1.098-1.51-1.098-2.534
		c0-1.032,0.363-1.878,1.088-2.539C81.96,53.214,82.89,52.883,84.025,52.883z M84.025,54.194c-0.59,0-1.054,0.196-1.39,0.588
		c-0.336,0.392-0.504,0.936-0.504,1.632s0.169,1.243,0.508,1.639c0.339,0.396,0.801,0.593,1.387,0.593
		c0.591,0,1.055-0.197,1.394-0.591c0.338-0.393,0.508-0.94,0.508-1.641c0-0.697-0.168-1.241-0.504-1.632
		C85.086,54.39,84.62,54.194,84.025,54.194z"/>
	<path d="M91.721,54.318v4.214h3.124v-1.005c0-0.26,0.056-0.444,0.168-0.554c0.112-0.109,0.298-0.164,0.559-0.164
		c0.261,0,0.451,0.056,0.57,0.167c0.119,0.111,0.179,0.294,0.179,0.551v1.734c0,0.203-0.048,0.339-0.144,0.407
		c-0.096,0.068-0.289,0.102-0.577,0.102h-6.227c-0.298,0-0.51-0.049-0.639-0.147c-0.128-0.098-0.192-0.258-0.192-0.48
		c0-0.219,0.062-0.375,0.188-0.469c0.126-0.094,0.34-0.141,0.642-0.141h0.604v-4.214h-0.604c-0.298,0-0.51-0.049-0.639-0.147
		c-0.128-0.098-0.192-0.256-0.192-0.475c0-0.218,0.067-0.377,0.202-0.478c0.135-0.1,0.349-0.149,0.642-0.149h2.924
		c0.293,0,0.507,0.05,0.642,0.149c0.135,0.1,0.202,0.259,0.202,0.478c0,0.219-0.066,0.376-0.199,0.475
		c-0.133,0.098-0.348,0.147-0.646,0.147H91.721z"/>
</g>
<path fill="#00AEEF" stroke="#B0AFB0" stroke-miterlimit="10" d="M343,119.634c0,1.657-1.343,3-3,3h-15.667c-1.657,0-3-1.343-3-3
	v-5.5c0-1.657,1.343-3,3-3H340c1.657,0,3,1.343,3,3V119.634z"/>
<path fill="#00AEEF" stroke="#B0AFB0" stroke-miterlimit="10" d="M422.65,73.717c0,1.656-1.343,3-3,3h-15.667c-1.657,0-3-1.344-3-3
	v-5.5c0-1.656,1.343-3,3-3h15.667c1.657,0,3,1.344,3,3V73.717z"/>
<path fill="#00AEEF" stroke="#B0AFB0" stroke-miterlimit="10" d="M456.396,73.717c0,1.656-1.343,3-3,3h-15.667c-1.657,0-3-1.344-3-3
	v-5.5c0-1.656,1.343-3,3-3h15.667c1.657,0,3,1.344,3,3V73.717z"/>
<path fill="#00AEEF" stroke="#B0AFB0" stroke-miterlimit="10" d="M488.5,73.717c0,1.656-1.343,3-3,3h-15.667c-1.657,0-3-1.344-3-3
	v-5.5c0-1.656,1.343-3,3-3H485.5c1.657,0,3,1.344,3,3V73.717z"/>
<path fill="#00AEEF" stroke="#B0AFB0" stroke-miterlimit="10" d="M533.021,85.898c0,2.683-1.926,4.857-4.304,4.857h-22.477
	c-2.377,0-4.304-2.175-4.304-4.857v-8.906c0-2.684,1.927-4.858,4.304-4.858h22.477c2.378,0,4.304,2.175,4.304,4.858V85.898z"/>
<path fill="#FFF200" stroke="#B1B0B0" stroke-miterlimit="10" d="M569.042,85.898c0,2.683-1.926,4.857-4.304,4.857h-22.477
	c-2.377,0-4.304-2.175-4.304-4.857v-8.906c0-2.684,1.927-4.858,4.304-4.858h22.477c2.378,0,4.304,2.175,4.304,4.858V85.898z"/>
<path fill="#00AEEF" stroke="#B0AFB0" stroke-miterlimit="10" d="M422.471,100.529c0,1.656-1.343,3-3,3h-15.667
	c-1.657,0-3-1.344-3-3v-5.5c0-1.656,1.343-3,3-3h15.667c1.657,0,3,1.344,3,3V100.529z"/>
<path fill="#00AEEF" stroke="#B0AFB0" stroke-miterlimit="10" d="M456.217,100.529c0,1.656-1.343,3-3,3H437.55c-1.657,0-3-1.344-3-3
	v-5.5c0-1.656,1.343-3,3-3h15.667c1.657,0,3,1.344,3,3V100.529z"/>
<path fill="#F4F4F4" stroke="#B0AFB0" stroke-miterlimit="10" d="M441.317,181.175c0,1.657-1.343,3-3,3H422.65c-1.657,0-3-1.343-3-3
	v-5.5c0-1.657,1.343-3,3-3h15.667c1.657,0,3,1.343,3,3V181.175z"/>
<path fill="#F4F4F4" stroke="#B0AFB0" stroke-miterlimit="10" d="M386.483,156.784c0,1.657-1.343,3-3,3h-15.667
	c-1.657,0-3-1.343-3-3v-5.5c0-1.657,1.343-3,3-3h15.667c1.657,0,3,1.343,3,3V156.784z"/>
<path fill="#FFF200" stroke="#B1B0B0" stroke-miterlimit="10" d="M386.483,133.117c0,1.657-1.343,3-3,3h-15.667
	c-1.657,0-3-1.343-3-3v-5.5c0-1.656,1.343-3,3-3h15.667c1.657,0,3,1.344,3,3V133.117z"/>
<path fill="#FFF200" stroke="#B1B0B0" stroke-miterlimit="10" d="M385.547,229.762c0,1.657-1.343,3-3,3H366.88c-1.657,0-3-1.343-3-3
	v-5.5c0-1.656,1.343-3,3-3h15.667c1.657,0,3,1.344,3,3V229.762z"/>
<path fill="#F4F4F4" stroke="#B0AFB0" stroke-miterlimit="10" d="M501.333,181.175c0,1.657-1.343,3-3,3h-15.667
	c-1.657,0-3-1.343-3-3v-5.5c0-1.657,1.343-3,3-3h15.667c1.657,0,3,1.343,3,3V181.175z"/>
<path fill="#F4F4F4" stroke="#B0AFB0" stroke-miterlimit="10" d="M557.25,181.175c0,1.657-1.343,3-3,3h-15.667c-1.657,0-3-1.343-3-3
	v-5.5c0-1.657,1.343-3,3-3h15.667c1.657,0,3,1.343,3,3V181.175z"/>
<path fill="#F4F4F4" stroke="#B0AFB0" stroke-miterlimit="10" d="M557.25,203.815c0,1.657-1.343,3-3,3h-15.667c-1.657,0-3-1.343-3-3
	v-5.5c0-1.657,1.343-3,3-3h15.667c1.657,0,3,1.343,3,3V203.815z"/>
<path fill="#F4F4F4" stroke="#B0AFB0" stroke-miterlimit="10" d="M557.25,227.763c0,1.657-1.343,3-3,3h-15.667c-1.657,0-3-1.343-3-3
	v-5.5c0-1.657,1.343-3,3-3h15.667c1.657,0,3,1.343,3,3V227.763z"/>
<path fill="#00AEEF" stroke="#B0AFB0" stroke-miterlimit="10" d="M488.32,100.529c0,1.656-1.343,3-3,3h-15.667c-1.657,0-3-1.344-3-3
	v-5.5c0-1.656,1.343-3,3-3h15.667c1.657,0,3,1.344,3,3V100.529z"/>
<path fill="#00AEEF" stroke="#B0AFB0" stroke-miterlimit="10" d="M343,146.801c0,1.656-1.343,3-3,3h-15.667c-1.657,0-3-1.344-3-3
	v-5.5c0-1.657,1.343-3,3-3H340c1.657,0,3,1.343,3,3V146.801z"/>
<path fill="#00AEEF" stroke="#B0AFB0" stroke-miterlimit="10" d="M343,175.425c0,1.657-1.343,3-3,3h-15.667c-1.657,0-3-1.343-3-3
	v-5.5c0-1.657,1.343-3,3-3H340c1.657,0,3,1.343,3,3V175.425z"/>
<path fill="#00AEEF" stroke="#B0AFB0" stroke-miterlimit="10" d="M343,202.925c0,1.657-1.343,3-3,3h-15.667c-1.657,0-3-1.343-3-3
	v-5.5c0-1.657,1.343-3,3-3H340c1.657,0,3,1.343,3,3V202.925z"/>
<path fill="#00AEEF" stroke="#B0AFB0" stroke-miterlimit="10" d="M385.547,205.815c0,1.657-1.343,3-3,3H366.88c-1.657,0-3-1.343-3-3
	v-5.5c0-1.657,1.343-3,3-3h15.667c1.657,0,3,1.343,3,3V205.815z"/>
<path fill="#00AEEF" stroke="#B0AFB0" stroke-miterlimit="10" d="M385.547,181.175c0,1.657-1.343,3-3,3H366.88c-1.657,0-3-1.343-3-3
	v-5.5c0-1.657,1.343-3,3-3h15.667c1.657,0,3,1.343,3,3V181.175z"/>
<path fill="#00AEEF" stroke="#B0AFB0" stroke-miterlimit="10" d="M343,231.092c0,1.657-1.343,3-3,3h-15.667c-1.657,0-3-1.343-3-3
	v-5.5c0-1.657,1.343-3,3-3H340c1.657,0,3,1.343,3,3V231.092z"/>
<polyline fill="none" stroke="#B0AFB0" stroke-miterlimit="10" points="292.25,111.092 316.625,116.342 321.333,116.342 "/>
<polyline fill="none" stroke="#B0AFB0" stroke-miterlimit="10" points="292.25,139.299 316.625,144.549 321.333,144.549 "/>
<polyline fill="none" stroke="#B0AFB0" stroke-miterlimit="10" points="292.25,167.308 316.625,172.558 321.333,172.558 "/>
<polyline fill="none" stroke="#B0AFB0" stroke-miterlimit="10" points="292.25,194.424 316.625,199.674 321.333,199.674 "/>
<polyline fill="none" stroke="#B0AFB0" stroke-miterlimit="10" points="292.25,223.092 316.625,228.342 321.334,228.342 "/>
<circle fill="#FFFFFF" stroke="#B0AFB0" stroke-miterlimit="10" cx="332.167" cy="88.801" r="5.833"/>
<g>
	<path fill="#938D8E" d="M324.16,66.467h-0.68V60h0.846l1.494,4.258L327.315,60h0.823v6.466h-0.775v-4.121l0.021-0.566h-0.022
		l-0.184,0.566l-1.001,2.829h-0.841l-1.014-2.829l-0.163-0.566h-0.021l0.021,0.566V66.467z"/>
	<path fill="#938D8E" d="M332.705,65.754v0.712h-3.492V60h3.43v0.65h-2.588v2.196h2.33v0.646h-2.33v2.262H332.705z"/>
	<path fill="#938D8E" d="M334.788,66.467h-0.774V60h0.758l2.283,4.304l0.25,0.642h0.021l-0.021-0.642V60h0.775v6.466h-0.775
		l-2.221-4.23l-0.312-0.679l0.017,0.67V66.467z"/>
	<path fill="#938D8E" d="M339.133,60h0.842v4.246c0,0.558,0.047,0.939,0.14,1.144s0.235,0.36,0.429,0.467
		c0.192,0.107,0.407,0.16,0.643,0.16c0.249,0,0.472-0.058,0.667-0.173c0.196-0.115,0.34-0.295,0.433-0.542
		c0.093-0.246,0.14-0.708,0.14-1.385V60h0.775v4.221c0,0.603-0.09,1.074-0.269,1.415c-0.18,0.34-0.413,0.596-0.702,0.769
		c-0.288,0.172-0.652,0.258-1.09,0.258c-0.405,0-0.762-0.075-1.069-0.225c-0.309-0.15-0.541-0.375-0.699-0.675
		s-0.238-0.842-0.238-1.625V60z"/>
	<path fill="#938D8E" d="M320.686,76.902c-0.734,0-1.294-0.309-1.682-0.928c-0.387-0.618-0.581-1.453-0.581-2.503
		c0-1.048,0.194-1.881,0.581-2.499c0.388-0.619,0.947-0.928,1.682-0.928c0.735,0,1.297,0.309,1.683,0.928
		c0.386,0.618,0.579,1.451,0.579,2.499c0,1.051-0.193,1.885-0.579,2.503C321.982,76.593,321.421,76.902,320.686,76.902z
		 M320.686,76.256c0.405,0,0.743-0.23,1.014-0.69c0.271-0.46,0.406-1.158,0.406-2.092c0-0.935-0.135-1.632-0.406-2.093
		c-0.271-0.46-0.608-0.69-1.014-0.69c-0.406,0-0.744,0.23-1.016,0.69c-0.27,0.46-0.406,1.158-0.406,2.093
		c0,0.935,0.137,1.632,0.406,2.092C319.941,76.026,320.279,76.256,320.686,76.256z"/>
	<path fill="#938D8E" d="M324.547,76.706h-0.774V70.24h0.759l2.283,4.304l0.25,0.642h0.021l-0.021-0.642V70.24h0.774v6.466h-0.774
		l-2.222-4.23l-0.312-0.679l0.016,0.67V76.706z"/>
	<path fill="#938D8E" d="M329.269,76.902h-0.763l4.109-6.854h0.738L329.269,76.902z"/>
	<path fill="#938D8E" d="M336.047,76.902c-0.734,0-1.294-0.309-1.682-0.928c-0.387-0.618-0.581-1.453-0.581-2.503
		c0-1.048,0.194-1.881,0.581-2.499c0.388-0.619,0.947-0.928,1.682-0.928c0.735,0,1.297,0.309,1.683,0.928
		c0.386,0.618,0.579,1.451,0.579,2.499c0,1.051-0.193,1.885-0.579,2.503C337.344,76.593,336.782,76.902,336.047,76.902z
		 M336.047,76.256c0.405,0,0.743-0.23,1.014-0.69c0.271-0.46,0.406-1.158,0.406-2.092c0-0.935-0.135-1.632-0.406-2.093
		c-0.271-0.46-0.608-0.69-1.014-0.69c-0.406,0-0.744,0.23-1.016,0.69c-0.27,0.46-0.406,1.158-0.406,2.093
		c0,0.935,0.137,1.632,0.406,2.092C335.303,76.026,335.641,76.256,336.047,76.256z"/>
	<path fill="#938D8E" d="M339.555,76.706V70.24h3.554v0.646h-2.712v2.2h2.454v0.646h-2.454v2.975H339.555z"/>
	<path fill="#938D8E" d="M344.675,76.706V70.24h3.555v0.646h-2.713v2.2h2.454v0.646h-2.454v2.975H344.675z"/>
</g>
<g>
	<path fill="#707071" d="M438.346,59.647h-0.424v-4.035h0.527l0.933,2.657l0.934-2.657h0.514v4.035h-0.483v-2.571l0.013-0.354
		h-0.014l-0.114,0.354l-0.625,1.765h-0.525l-0.632-1.765l-0.102-0.354h-0.014l0.013,0.354V59.647z"/>
	<path fill="#707071" d="M443.679,59.203v0.445h-2.18v-4.035h2.141v0.405h-1.615v1.371h1.454v0.403h-1.454v1.412H443.679z"/>
	<path fill="#707071" d="M444.979,59.647h-0.484v-4.035h0.474l1.425,2.686l0.156,0.4h0.013l-0.013-0.4v-2.686h0.483v4.035h-0.483
		l-1.387-2.64l-0.194-0.424l0.011,0.418V59.647z"/>
	<path fill="#707071" d="M447.689,55.612h0.525v2.649c0,0.348,0.029,0.586,0.087,0.714c0.059,0.127,0.147,0.224,0.268,0.291
		s0.254,0.1,0.401,0.1c0.155,0,0.294-0.036,0.416-0.108s0.212-0.185,0.271-0.338c0.058-0.153,0.087-0.442,0.087-0.865v-2.444h0.483
		v2.634c0,0.376-0.056,0.67-0.168,0.883c-0.111,0.212-0.257,0.372-0.438,0.479c-0.18,0.107-0.406,0.161-0.681,0.161
		c-0.252,0-0.475-0.047-0.667-0.14c-0.192-0.094-0.338-0.234-0.437-0.421s-0.148-0.525-0.148-1.014V55.612z"/>
</g>
<g>
	<path fill="#707071" d="M399.606,112.069h0.552l-1.344,4.374h-0.581l-1.355-4.374h0.601l0.948,3.055l0.126,0.442l0.108-0.439
		L399.606,112.069z"/>
	<path fill="#707071" d="M403.181,115.961v0.482h-2.361v-4.374h2.319v0.44h-1.75v1.485h1.575v0.437h-1.575v1.53H403.181z"/>
	<path fill="#707071" d="M404.699,114.583v1.86h-0.569v-4.374h1.168c0.381,0,0.662,0.039,0.842,0.117
		c0.181,0.078,0.319,0.195,0.418,0.353s0.148,0.328,0.148,0.51c0,0.169-0.033,0.339-0.099,0.509
		c-0.065,0.171-0.156,0.324-0.271,0.458c-0.115,0.134-0.281,0.262-0.499,0.382l1.265,2.045h-0.678l-1.158-1.86H404.699z
		 M404.699,114.146h0.795c0.179-0.098,0.312-0.198,0.398-0.299c0.088-0.102,0.153-0.209,0.199-0.325
		c0.045-0.115,0.067-0.229,0.067-0.344c0-0.205-0.075-0.368-0.224-0.49c-0.149-0.122-0.42-0.182-0.812-0.182h-0.425V114.146z"/>
	<path fill="#707071" d="M408.619,116.443v-3.892h-1.31v-0.482h3.189v0.482h-1.311v3.892H408.619z"/>
	<path fill="#707071" d="M411.122,116.443v-0.437h0.961v-3.5h-0.961v-0.437h2.491v0.437h-0.961v3.5h0.961v0.437H411.122z"/>
	<path fill="#707071" d="M417.167,116.393c-0.327,0.122-0.62,0.183-0.88,0.183c-0.342,0-0.656-0.091-0.943-0.274
		c-0.288-0.184-0.512-0.456-0.671-0.817c-0.16-0.362-0.239-0.771-0.239-1.228c0-0.453,0.078-0.859,0.236-1.22
		s0.381-0.634,0.668-0.82s0.604-0.279,0.949-0.279c0.26,0,0.553,0.061,0.88,0.182v0.519c-0.303-0.176-0.604-0.264-0.902-0.264
		c-0.226,0-0.432,0.077-0.618,0.231c-0.188,0.154-0.338,0.38-0.452,0.679c-0.115,0.298-0.172,0.622-0.172,0.971
		c0,0.355,0.059,0.684,0.177,0.984c0.119,0.301,0.271,0.526,0.454,0.675c0.185,0.15,0.388,0.225,0.611,0.225
		c0.297,0,0.598-0.087,0.902-0.262V116.393z"/>
	<path fill="#707071" d="M418.204,116.443h-0.547l1.349-4.374h0.577l1.354,4.374h-0.6l-0.299-0.961h-1.538L418.204,116.443z
		 M418.636,115.045h1.276l-0.527-1.66l-0.122-0.444l-0.111,0.444L418.636,115.045z"/>
	<path fill="#707071" d="M424.003,115.961v0.482h-2.358v-4.374h0.569v3.892H424.003z"/>
</g>
<g>
	<path fill="#707071" d="M476.676,116.884v-4.374h0.569v1.883h1.611v-1.883h0.569v4.374h-0.569v-2.055h-1.611v2.055H476.676z"/>
	<path fill="#707071" d="M481.515,117.016c-0.496,0-0.875-0.209-1.138-0.627c-0.262-0.418-0.393-0.982-0.393-1.693
		c0-0.708,0.131-1.272,0.393-1.69c0.263-0.418,0.642-0.627,1.138-0.627c0.498,0,0.877,0.209,1.139,0.627
		c0.261,0.418,0.392,0.982,0.392,1.69c0,0.711-0.131,1.275-0.392,1.693C482.392,116.807,482.013,117.016,481.515,117.016z
		 M481.515,116.58c0.274,0,0.503-0.156,0.687-0.467c0.183-0.312,0.274-0.783,0.274-1.416s-0.092-1.104-0.274-1.416
		c-0.184-0.311-0.412-0.467-0.687-0.467s-0.503,0.156-0.687,0.467c-0.183,0.312-0.274,0.783-0.274,1.416s0.092,1.104,0.274,1.416
		C481.012,116.424,481.24,116.58,481.515,116.58z"/>
	<path fill="#707071" d="M484.236,115.024v1.86h-0.569v-4.374h1.168c0.381,0,0.662,0.039,0.842,0.117
		c0.181,0.078,0.319,0.195,0.418,0.353s0.148,0.328,0.148,0.51c0,0.169-0.033,0.339-0.099,0.509
		c-0.065,0.171-0.156,0.324-0.271,0.458c-0.115,0.134-0.281,0.262-0.499,0.382l1.265,2.045h-0.678l-1.158-1.86H484.236z
		 M484.236,114.587h0.795c0.179-0.098,0.312-0.198,0.398-0.299c0.088-0.102,0.153-0.209,0.199-0.325
		c0.045-0.115,0.067-0.229,0.067-0.344c0-0.205-0.075-0.368-0.224-0.49c-0.149-0.122-0.42-0.182-0.812-0.182h-0.425V114.587z"/>
	<path fill="#707071" d="M487.195,116.884v-0.437h0.961v-3.5h-0.961v-0.437h2.491v0.437h-0.961v3.5h0.961v0.437H487.195z"/>
	<path fill="#707071" d="M490.519,116.884v-0.482l2.073-3.452h-2.009v-0.44h2.669v0.44l-2.069,3.452h2.112v0.482H490.519z"/>
	<path fill="#707071" d="M495.368,117.016c-0.496,0-0.875-0.209-1.138-0.627c-0.262-0.418-0.393-0.982-0.393-1.693
		c0-0.708,0.131-1.272,0.393-1.69c0.263-0.418,0.642-0.627,1.138-0.627c0.498,0,0.877,0.209,1.139,0.627
		c0.261,0.418,0.392,0.982,0.392,1.69c0,0.711-0.131,1.275-0.392,1.693C496.245,116.807,495.866,117.016,495.368,117.016z
		 M495.368,116.58c0.274,0,0.503-0.156,0.687-0.467c0.183-0.312,0.274-0.783,0.274-1.416s-0.092-1.104-0.274-1.416
		c-0.184-0.311-0.412-0.467-0.687-0.467s-0.503,0.156-0.687,0.467c-0.183,0.312-0.274,0.783-0.274,1.416s0.092,1.104,0.274,1.416
		C494.865,116.424,495.094,116.58,495.368,116.58z"/>
	<path fill="#707071" d="M497.98,116.884h-0.523v-4.374h0.513l1.544,2.912l0.169,0.434h0.015l-0.015-0.434v-2.912h0.524v4.374
		h-0.524l-1.502-2.862l-0.211-0.459l0.011,0.454V116.884z"/>
	<path fill="#707071" d="M502.01,116.884v-3.892h-1.31v-0.482h3.189v0.482h-1.311v3.892H502.01z"/>
	<path fill="#707071" d="M504.668,116.884h-0.547l1.349-4.374h0.577l1.354,4.374h-0.6l-0.299-0.961h-1.538L504.668,116.884z
		 M505.1,115.486h1.276l-0.527-1.66l-0.122-0.444l-0.111,0.444L505.1,115.486z"/>
	<path fill="#707071" d="M510.468,116.402v0.482h-2.358v-4.374h0.569v3.892H510.468z"/>
</g>
<g>
	<path fill="#707071" d="M538.823,116.884v-3.892h-1.31v-0.482h3.189v0.482h-1.311v3.892H538.823z"/>
	<path fill="#707071" d="M541.831,115.024v1.86h-0.569v-4.374h1.168c0.381,0,0.662,0.039,0.842,0.117
		c0.181,0.078,0.319,0.195,0.418,0.353s0.148,0.328,0.148,0.51c0,0.169-0.033,0.339-0.099,0.509
		c-0.065,0.171-0.156,0.324-0.271,0.458c-0.115,0.134-0.281,0.262-0.499,0.382l1.265,2.045h-0.678l-1.158-1.86H541.831z
		 M541.831,114.587h0.795c0.179-0.098,0.312-0.198,0.398-0.299c0.088-0.102,0.153-0.209,0.199-0.325
		c0.045-0.115,0.067-0.229,0.067-0.344c0-0.205-0.075-0.368-0.224-0.49c-0.149-0.122-0.42-0.182-0.812-0.182h-0.425V114.587z"/>
	<path fill="#707071" d="M544.789,116.884v-0.437h0.961v-3.5h-0.961v-0.437h2.491v0.437h-0.961v3.5h0.961v0.437H544.789z"/>
	<path fill="#707071" d="M550.835,116.881c-0.309,0.09-0.591,0.135-0.849,0.135c-0.364,0-0.688-0.09-0.974-0.271
		c-0.284-0.18-0.508-0.452-0.669-0.816c-0.162-0.363-0.242-0.774-0.242-1.233c0-0.453,0.078-0.859,0.236-1.22
		s0.381-0.634,0.668-0.82s0.603-0.279,0.946-0.279c0.26,0,0.553,0.061,0.88,0.182v0.519c-0.303-0.176-0.604-0.264-0.902-0.264
		c-0.225,0-0.432,0.077-0.618,0.231c-0.187,0.154-0.337,0.38-0.451,0.679c-0.113,0.298-0.17,0.624-0.17,0.977
		c0,0.474,0.107,0.905,0.324,1.294c0.216,0.389,0.557,0.584,1.022,0.584c0.061,0,0.137-0.005,0.229-0.014v-1.409h-0.437v-0.437
		h1.006V116.881z"/>
	<path fill="#707071" d="M554.299,116.881c-0.309,0.09-0.591,0.135-0.849,0.135c-0.364,0-0.688-0.09-0.974-0.271
		c-0.284-0.18-0.508-0.452-0.669-0.816c-0.162-0.363-0.242-0.774-0.242-1.233c0-0.453,0.078-0.859,0.236-1.22
		s0.381-0.634,0.668-0.82s0.603-0.279,0.946-0.279c0.26,0,0.553,0.061,0.88,0.182v0.519c-0.303-0.176-0.604-0.264-0.902-0.264
		c-0.225,0-0.432,0.077-0.618,0.231c-0.187,0.154-0.337,0.38-0.451,0.679c-0.113,0.298-0.17,0.624-0.17,0.977
		c0,0.474,0.107,0.905,0.324,1.294c0.216,0.389,0.557,0.584,1.022,0.584c0.061,0,0.137-0.005,0.229-0.014v-1.409h-0.437v-0.437
		h1.006V116.881z"/>
	<path fill="#707071" d="M557.629,116.402v0.482h-2.361v-4.374h2.319v0.44h-1.75v1.485h1.575v0.437h-1.575v1.53H557.629z"/>
	<path fill="#707071" d="M559.148,115.024v1.86h-0.569v-4.374h1.168c0.381,0,0.662,0.039,0.842,0.117
		c0.181,0.078,0.319,0.195,0.418,0.353s0.148,0.328,0.148,0.51c0,0.169-0.033,0.339-0.099,0.509
		c-0.065,0.171-0.156,0.324-0.271,0.458c-0.115,0.134-0.281,0.262-0.499,0.382l1.265,2.045h-0.678l-1.158-1.86H559.148z
		 M559.148,114.587h0.795c0.179-0.098,0.312-0.198,0.398-0.299c0.088-0.102,0.153-0.209,0.199-0.325
		c0.045-0.115,0.067-0.229,0.067-0.344c0-0.205-0.075-0.368-0.224-0.49c-0.149-0.122-0.42-0.182-0.812-0.182h-0.425V114.587z"/>
</g>
<g>
	<path fill="#707071" d="M542.455,126.305v0.329h-1.61v-2.985h0.389v2.656H542.455z"/>
	<path fill="#707071" d="M544.789,126.305v0.329h-1.611v-2.985h1.582v0.3h-1.193v1.013h1.074v0.298h-1.074v1.044H544.789z"/>
	<path fill="#707071" d="M547.077,123.649h0.376l-0.917,2.985h-0.396l-0.925-2.985h0.41l0.647,2.085l0.085,0.302l0.074-0.3
		L547.077,123.649z"/>
	<path fill="#707071" d="M549.517,126.305v0.329h-1.611v-2.985h1.582v0.3h-1.193v1.013h1.074v0.298h-1.074v1.044H549.517z"/>
	<path fill="#707071" d="M551.909,126.305v0.329h-1.61v-2.985h0.389v2.656H551.909z"/>
</g>
<g>
	<path fill="#707071" d="M484.726,195.205v-0.365c0.307,0.147,0.586,0.221,0.836,0.221c0.105,0,0.206-0.02,0.302-0.061
		c0.096-0.04,0.168-0.098,0.218-0.174c0.049-0.076,0.073-0.158,0.073-0.246c0-0.104-0.033-0.202-0.102-0.293
		c-0.067-0.09-0.194-0.189-0.381-0.299l-0.194-0.113l-0.198-0.114c-0.35-0.206-0.524-0.463-0.524-0.77
		c0-0.225,0.077-0.414,0.233-0.567c0.155-0.154,0.399-0.23,0.729-0.23c0.213,0,0.419,0.03,0.617,0.09v0.333
		c-0.219-0.083-0.432-0.125-0.639-0.125c-0.165,0-0.299,0.043-0.4,0.131s-0.152,0.193-0.152,0.316c0,0.122,0.038,0.224,0.116,0.305
		s0.178,0.155,0.299,0.224l0.151,0.091l0.188,0.112l0.153,0.093c0.328,0.2,0.492,0.452,0.492,0.755c0,0.23-0.084,0.428-0.252,0.594
		c-0.167,0.165-0.437,0.248-0.807,0.248c-0.117,0-0.23-0.01-0.337-0.03C485.04,195.309,484.9,195.268,484.726,195.205z"/>
	<path fill="#707071" d="M488.88,195.234c-0.224,0.083-0.424,0.125-0.601,0.125c-0.233,0-0.448-0.062-0.645-0.188
		c-0.195-0.125-0.349-0.312-0.457-0.559c-0.109-0.246-0.164-0.525-0.164-0.837c0-0.31,0.055-0.587,0.162-0.833
		s0.26-0.433,0.456-0.56c0.195-0.127,0.412-0.19,0.647-0.19c0.177,0,0.377,0.042,0.601,0.125v0.354
		c-0.207-0.12-0.412-0.18-0.616-0.18c-0.153,0-0.294,0.052-0.422,0.158c-0.128,0.105-0.23,0.259-0.309,0.463
		c-0.078,0.203-0.117,0.425-0.117,0.663c0,0.242,0.04,0.467,0.121,0.672s0.184,0.358,0.31,0.461
		c0.126,0.102,0.265,0.152,0.417,0.152c0.203,0,0.408-0.059,0.616-0.179V195.234z"/>
	<path fill="#707071" d="M489.587,195.269h-0.373l0.92-2.985h0.394l0.925,2.985h-0.409l-0.204-0.655h-1.049L489.587,195.269z
		 M489.882,194.314h0.87l-0.359-1.132l-0.084-0.303l-0.075,0.303L489.882,194.314z"/>
	<path fill="#707071" d="M493.546,194.939v0.329h-1.61v-2.985h0.389v2.656H493.546z"/>
	<path fill="#707071" d="M495.88,194.939v0.329h-1.611v-2.985h1.582v0.3h-1.193v1.014h1.074v0.298h-1.074v1.044H495.88z"/>
</g>
<g>
	<path fill="#707071" d="M424.876,194.36v-0.365c0.307,0.147,0.586,0.222,0.836,0.222c0.105,0,0.206-0.021,0.302-0.062
		s0.168-0.099,0.218-0.175c0.049-0.075,0.073-0.157,0.073-0.246c0-0.104-0.033-0.201-0.102-0.292
		c-0.067-0.09-0.194-0.19-0.381-0.299l-0.194-0.113l-0.198-0.115c-0.35-0.207-0.524-0.463-0.524-0.77
		c0-0.225,0.077-0.414,0.233-0.567c0.155-0.154,0.399-0.23,0.729-0.23c0.213,0,0.419,0.03,0.617,0.09v0.333
		c-0.219-0.083-0.432-0.125-0.639-0.125c-0.165,0-0.299,0.043-0.4,0.131s-0.152,0.193-0.152,0.316c0,0.122,0.038,0.224,0.116,0.305
		s0.178,0.155,0.299,0.224l0.151,0.091l0.188,0.113l0.153,0.092c0.328,0.2,0.492,0.452,0.492,0.754c0,0.23-0.084,0.43-0.252,0.594
		c-0.167,0.166-0.437,0.248-0.807,0.248c-0.117,0-0.23-0.01-0.337-0.029C425.19,194.465,425.051,194.424,424.876,194.36z"/>
	<path fill="#707071" d="M429.03,194.389c-0.224,0.084-0.424,0.125-0.601,0.125c-0.233,0-0.448-0.062-0.645-0.188
		c-0.195-0.125-0.349-0.311-0.457-0.557c-0.109-0.248-0.164-0.526-0.164-0.838c0-0.309,0.055-0.587,0.162-0.833
		s0.26-0.433,0.456-0.56c0.195-0.127,0.412-0.19,0.647-0.19c0.177,0,0.377,0.042,0.601,0.125v0.354
		c-0.207-0.12-0.412-0.18-0.616-0.18c-0.153,0-0.294,0.052-0.422,0.158c-0.128,0.105-0.23,0.259-0.309,0.463
		c-0.078,0.203-0.117,0.424-0.117,0.663c0,0.242,0.04,0.466,0.121,0.671c0.081,0.206,0.184,0.359,0.31,0.461
		c0.126,0.103,0.265,0.154,0.417,0.154c0.203,0,0.408-0.061,0.616-0.18V194.389z"/>
	<path fill="#707071" d="M429.737,194.424h-0.373l0.92-2.985h0.394l0.925,2.985h-0.409l-0.204-0.656h-1.049L429.737,194.424z
		 M430.032,193.47h0.87l-0.359-1.132l-0.084-0.303l-0.075,0.303L430.032,193.47z"/>
	<path fill="#707071" d="M433.696,194.096v0.328h-1.61v-2.985h0.389v2.657H433.696z"/>
	<path fill="#707071" d="M436.03,194.096v0.328h-1.611v-2.985h1.582v0.3h-1.193v1.013h1.074v0.298h-1.074v1.045H436.03z"/>
</g>
<g>
	<path fill="#707071" d="M385.697,249.68c-0.404,0.15-0.768,0.227-1.088,0.227c-0.424,0-0.812-0.113-1.169-0.34
		c-0.355-0.228-0.633-0.564-0.83-1.012c-0.197-0.448-0.297-0.954-0.297-1.52c0-0.561,0.099-1.063,0.294-1.511
		c0.195-0.446,0.471-0.784,0.826-1.015s0.748-0.346,1.176-0.346c0.32,0,0.684,0.075,1.088,0.226v0.642
		c-0.374-0.217-0.746-0.326-1.116-0.326c-0.278,0-0.534,0.096-0.766,0.286c-0.231,0.191-0.418,0.471-0.56,0.84
		s-0.213,0.77-0.213,1.202c0,0.44,0.073,0.847,0.22,1.219s0.334,0.651,0.562,0.836c0.229,0.186,0.48,0.277,0.757,0.277
		c0.367,0,0.74-0.108,1.116-0.324V249.68z"/>
	<path fill="#707071" d="M386.629,249.742v-5.414h0.705v2.33h1.995v-2.33h0.704v5.414h-0.704v-2.543h-1.995v2.543H386.629z"/>
	<path fill="#707071" d="M392.458,249.201v-4.175c-0.195,0.154-0.385,0.287-0.568,0.396s-0.437,0.22-0.757,0.333v-0.586
		c0.509-0.216,0.95-0.496,1.325-0.841h0.648v4.873h1.302v0.541h-3.275v-0.541H392.458z"/>
</g>
<g>
	<path fill="#707071" d="M361.257,275.467h-0.732l1.584-2.815l-1.433-2.599h0.801l1.038,1.876l1.055-1.876h0.736l-1.427,2.534
		l1.595,2.88h-0.812l-1.189-2.156L361.257,275.467z"/>
</g>
<g>
	<path fill="#707071" d="M423.652,276.634v-2.505l-1.613-2.909h0.796l1.208,2.15l1.204-2.15h0.723l-1.613,2.909v2.505H423.652z"/>
</g>
<g>
	<path fill="#707071" d="M449.515,249.68c-0.404,0.15-0.768,0.227-1.088,0.227c-0.424,0-0.812-0.113-1.169-0.34
		c-0.355-0.228-0.633-0.564-0.83-1.012c-0.197-0.448-0.297-0.954-0.297-1.52c0-0.561,0.099-1.063,0.294-1.511
		c0.195-0.446,0.471-0.784,0.826-1.015s0.748-0.346,1.176-0.346c0.32,0,0.684,0.075,1.088,0.226v0.642
		c-0.374-0.217-0.746-0.326-1.116-0.326c-0.278,0-0.534,0.096-0.766,0.286c-0.231,0.191-0.418,0.471-0.56,0.84
		s-0.213,0.77-0.213,1.202c0,0.44,0.073,0.847,0.22,1.219s0.334,0.651,0.562,0.836c0.229,0.186,0.48,0.277,0.757,0.277
		c0.367,0,0.74-0.108,1.116-0.324V249.68z"/>
	<path fill="#707071" d="M450.446,249.742v-5.414h0.705v2.33h1.995v-2.33h0.704v5.414h-0.704v-2.543h-1.995v2.543H450.446z"/>
	<path fill="#707071" d="M458.089,249.742h-3.275v-0.597c0-0.153,0.031-0.317,0.095-0.493c0.062-0.176,0.183-0.373,0.358-0.592
		c0.177-0.218,0.364-0.429,0.562-0.631l0.369-0.377c0.074-0.077,0.236-0.255,0.487-0.533c0.251-0.279,0.416-0.493,0.496-0.643
		c0.08-0.148,0.12-0.295,0.12-0.439c0-0.232-0.093-0.412-0.278-0.539c-0.187-0.126-0.396-0.189-0.627-0.189
		c-0.133,0-0.28,0.015-0.444,0.045s-0.308,0.065-0.431,0.106s-0.322,0.124-0.599,0.249v-0.575c0.293-0.14,0.587-0.235,0.881-0.288
		c0.294-0.052,0.536-0.078,0.728-0.078c0.281,0,0.54,0.046,0.775,0.138c0.236,0.092,0.412,0.234,0.527,0.428
		c0.115,0.192,0.173,0.398,0.173,0.617c0,0.244-0.074,0.494-0.223,0.75s-0.428,0.585-0.836,0.987l-0.397,0.394l-0.335,0.328
		c-0.211,0.214-0.382,0.421-0.512,0.621s-0.202,0.438-0.216,0.715h2.602V249.742z"/>
</g>
<g>
	<path fill="#707071" d="M498.771,249.146v0.597h-2.923v-5.414h2.871v0.545h-2.166v1.838h1.949v0.541h-1.949v1.894H498.771z"/>
	<path fill="#707071" d="M500.329,249.742h-0.732l1.584-2.815l-1.433-2.599h0.801l1.038,1.876l1.055-1.876h0.736l-1.427,2.534
		l1.595,2.88h-0.812l-1.189-2.156L500.329,249.742z"/>
	<path fill="#707071" d="M505.504,249.742v-4.817h-1.622v-0.597h3.949v0.597h-1.622v4.817H505.504z"/>
	<path fill="#707071" d="M514.078,249.742v-4.817h-1.622v-0.597h3.949v0.597h-1.622v4.817H514.078z"/>
	<path fill="#707071" d="M517.801,247.44v2.302h-0.705v-5.414h1.446c0.472,0,0.818,0.049,1.042,0.145
		c0.223,0.097,0.396,0.242,0.518,0.438s0.183,0.405,0.183,0.631c0,0.209-0.041,0.419-0.122,0.631
		c-0.081,0.211-0.193,0.4-0.336,0.566s-0.349,0.323-0.617,0.472l1.565,2.532h-0.839l-1.434-2.302H517.801z M517.801,246.899h0.983
		c0.222-0.121,0.386-0.245,0.494-0.37c0.107-0.126,0.189-0.26,0.245-0.402c0.056-0.142,0.084-0.284,0.084-0.426
		c0-0.254-0.092-0.456-0.276-0.606s-0.52-0.226-1.005-0.226h-0.525V246.899z"/>
	<path fill="#707071" d="M521.463,249.742v-0.541h1.189v-4.332h-1.189v-0.541h3.084v0.541h-1.189v4.332h1.189v0.541H521.463z"/>
	<path fill="#707071" d="M528.945,249.738c-0.381,0.112-0.731,0.168-1.05,0.168c-0.451,0-0.853-0.111-1.205-0.335
		s-0.629-0.56-0.828-1.01c-0.2-0.45-0.301-0.959-0.301-1.526c0-0.561,0.099-1.063,0.294-1.511c0.195-0.446,0.471-0.784,0.826-1.015
		s0.746-0.346,1.172-0.346c0.321,0,0.684,0.075,1.089,0.226v0.642c-0.375-0.217-0.747-0.326-1.116-0.326
		c-0.279,0-0.534,0.096-0.766,0.286c-0.231,0.191-0.418,0.471-0.559,0.84s-0.211,0.772-0.211,1.21c0,0.586,0.134,1.12,0.401,1.602
		c0.268,0.482,0.689,0.723,1.266,0.723c0.075,0,0.169-0.006,0.283-0.018v-1.744H527.7v-0.54h1.245V249.738z"/>
</g>
<g>
	<path fill="#707071" d="M421.756,125.635v1.088h-0.388v-2.985h0.742c0.305,0,0.527,0.035,0.667,0.103
		c0.14,0.069,0.247,0.169,0.321,0.301c0.074,0.132,0.111,0.28,0.111,0.442c0,0.191-0.05,0.37-0.149,0.535
		c-0.101,0.166-0.24,0.293-0.419,0.382c-0.179,0.089-0.421,0.134-0.728,0.134H421.756z M421.756,125.336h0.168
		c0.239,0,0.418-0.031,0.534-0.093c0.117-0.062,0.207-0.152,0.27-0.269s0.094-0.244,0.094-0.379c0-0.172-0.056-0.308-0.168-0.408
		c-0.112-0.101-0.334-0.15-0.664-0.15h-0.233V125.336z"/>
	<path fill="#707071" d="M424.573,126.813c-0.338,0-0.597-0.143-0.775-0.428c-0.18-0.285-0.269-0.67-0.269-1.155
		c0-0.484,0.089-0.868,0.269-1.154c0.179-0.285,0.438-0.428,0.775-0.428c0.34,0,0.599,0.143,0.777,0.428
		c0.178,0.286,0.267,0.67,0.267,1.154c0,0.485-0.089,0.87-0.267,1.155C425.172,126.671,424.913,126.813,424.573,126.813z
		 M424.573,126.516c0.188,0,0.344-0.106,0.469-0.319s0.188-0.535,0.188-0.966c0-0.432-0.062-0.753-0.188-0.966
		c-0.125-0.213-0.281-0.319-0.469-0.319s-0.343,0.106-0.468,0.319c-0.125,0.212-0.188,0.534-0.188,0.966
		c0,0.431,0.062,0.753,0.188,0.966S424.386,126.516,424.573,126.516z"/>
	<path fill="#707071" d="M426.058,126.66v-0.365c0.307,0.147,0.586,0.221,0.836,0.221c0.105,0,0.206-0.021,0.302-0.061
		c0.096-0.04,0.168-0.098,0.218-0.174c0.049-0.076,0.073-0.158,0.073-0.246c0-0.104-0.033-0.202-0.102-0.292
		c-0.067-0.09-0.194-0.19-0.381-0.299l-0.194-0.113l-0.198-0.115c-0.35-0.207-0.524-0.463-0.524-0.77
		c0-0.225,0.077-0.414,0.233-0.567c0.155-0.154,0.399-0.23,0.729-0.23c0.213,0,0.419,0.03,0.617,0.09v0.333
		c-0.219-0.083-0.432-0.125-0.639-0.125c-0.165,0-0.299,0.043-0.4,0.131s-0.152,0.193-0.152,0.316c0,0.122,0.038,0.224,0.116,0.305
		s0.178,0.155,0.299,0.224l0.151,0.091l0.188,0.113l0.153,0.092c0.328,0.2,0.492,0.452,0.492,0.754c0,0.23-0.084,0.429-0.252,0.594
		c-0.167,0.166-0.437,0.248-0.807,0.248c-0.117,0-0.23-0.01-0.337-0.03C426.372,126.764,426.232,126.723,426.058,126.66z"/>
	<path fill="#707071" d="M428.451,126.723v-0.298h0.655v-2.389h-0.655v-0.298h1.7v0.298h-0.656v2.389h0.656v0.298H428.451z"/>
	<path fill="#707071" d="M431.47,126.723v-2.656h-0.894v-0.329h2.177v0.329h-0.895v2.656H431.47z"/>
	<path fill="#707071" d="M433.178,126.723v-0.298h0.655v-2.389h-0.655v-0.298h1.7v0.298h-0.656v2.389h0.656v0.298H433.178z"/>
	<path fill="#707071" d="M436.391,126.813c-0.338,0-0.597-0.143-0.775-0.428c-0.18-0.285-0.269-0.67-0.269-1.155
		c0-0.484,0.089-0.868,0.269-1.154c0.179-0.285,0.438-0.428,0.775-0.428c0.34,0,0.599,0.143,0.777,0.428
		c0.178,0.286,0.267,0.67,0.267,1.154c0,0.485-0.089,0.87-0.267,1.155C436.989,126.671,436.73,126.813,436.391,126.813z
		 M436.391,126.516c0.188,0,0.344-0.106,0.469-0.319s0.188-0.535,0.188-0.966c0-0.432-0.062-0.753-0.188-0.966
		c-0.125-0.213-0.281-0.319-0.469-0.319s-0.343,0.106-0.468,0.319c-0.125,0.212-0.188,0.534-0.188,0.966
		c0,0.431,0.062,0.753,0.188,0.966S436.203,126.516,436.391,126.516z"/>
	<path fill="#707071" d="M438.174,126.723h-0.357v-2.985h0.351l1.054,1.987l0.115,0.296h0.01l-0.01-0.296v-1.987h0.357v2.985h-0.357
		l-1.025-1.953l-0.144-0.313l0.007,0.31V126.723z"/>
</g>
<g>
	<path fill="#707071" d="M481.605,126.078v1.088h-0.388v-2.985h0.742c0.305,0,0.527,0.035,0.667,0.103
		c0.14,0.069,0.247,0.169,0.321,0.301c0.074,0.132,0.111,0.28,0.111,0.442c0,0.191-0.05,0.37-0.149,0.535
		c-0.101,0.166-0.24,0.293-0.419,0.382c-0.179,0.089-0.421,0.134-0.728,0.134H481.605z M481.605,125.78h0.168
		c0.239,0,0.418-0.031,0.534-0.093c0.117-0.062,0.207-0.152,0.27-0.269s0.094-0.244,0.094-0.379c0-0.172-0.056-0.308-0.168-0.408
		c-0.112-0.101-0.334-0.15-0.664-0.15h-0.233V125.78z"/>
	<path fill="#707071" d="M484.423,127.257c-0.338,0-0.597-0.143-0.775-0.428c-0.18-0.285-0.269-0.67-0.269-1.155
		c0-0.484,0.089-0.868,0.269-1.154c0.179-0.285,0.438-0.428,0.775-0.428c0.34,0,0.599,0.143,0.777,0.428
		c0.178,0.286,0.267,0.67,0.267,1.154c0,0.485-0.089,0.87-0.267,1.155C485.021,127.114,484.763,127.257,484.423,127.257z
		 M484.423,126.959c0.188,0,0.344-0.106,0.469-0.319s0.188-0.535,0.188-0.966c0-0.432-0.062-0.753-0.188-0.966
		c-0.125-0.213-0.281-0.319-0.469-0.319s-0.343,0.106-0.468,0.319c-0.125,0.212-0.188,0.534-0.188,0.966
		c0,0.431,0.062,0.753,0.188,0.966S484.235,126.959,484.423,126.959z"/>
	<path fill="#707071" d="M485.907,127.103v-0.365c0.307,0.147,0.586,0.221,0.836,0.221c0.105,0,0.206-0.021,0.302-0.061
		c0.096-0.04,0.168-0.098,0.218-0.174c0.049-0.076,0.073-0.158,0.073-0.246c0-0.104-0.033-0.202-0.102-0.292
		c-0.067-0.09-0.194-0.19-0.381-0.299l-0.194-0.113l-0.198-0.115c-0.35-0.207-0.524-0.463-0.524-0.77
		c0-0.225,0.077-0.414,0.233-0.567c0.155-0.154,0.399-0.23,0.729-0.23c0.213,0,0.419,0.03,0.617,0.09v0.333
		c-0.219-0.083-0.432-0.125-0.639-0.125c-0.165,0-0.299,0.043-0.4,0.131s-0.152,0.193-0.152,0.316c0,0.122,0.038,0.224,0.116,0.305
		s0.178,0.155,0.299,0.224l0.151,0.091l0.188,0.113l0.153,0.092c0.328,0.2,0.492,0.452,0.492,0.754c0,0.23-0.084,0.429-0.252,0.594
		c-0.167,0.166-0.437,0.248-0.807,0.248c-0.117,0-0.23-0.01-0.337-0.03C486.222,127.207,486.082,127.166,485.907,127.103z"/>
	<path fill="#707071" d="M488.301,127.167v-0.298h0.655v-2.389h-0.655v-0.298h1.7v0.298h-0.656v2.389h0.656v0.298H488.301z"/>
	<path fill="#707071" d="M491.319,127.167v-2.656h-0.894v-0.329h2.177v0.329h-0.895v2.656H491.319z"/>
	<path fill="#707071" d="M493.027,127.167v-0.298h0.655v-2.389h-0.655v-0.298h1.7v0.298h-0.656v2.389h0.656v0.298H493.027z"/>
	<path fill="#707071" d="M496.24,127.257c-0.338,0-0.597-0.143-0.775-0.428c-0.18-0.285-0.269-0.67-0.269-1.155
		c0-0.484,0.089-0.868,0.269-1.154c0.179-0.285,0.438-0.428,0.775-0.428c0.34,0,0.599,0.143,0.777,0.428
		c0.178,0.286,0.267,0.67,0.267,1.154c0,0.485-0.089,0.87-0.267,1.155C496.839,127.114,496.58,127.257,496.24,127.257z
		 M496.24,126.959c0.188,0,0.344-0.106,0.469-0.319s0.188-0.535,0.188-0.966c0-0.432-0.062-0.753-0.188-0.966
		c-0.125-0.213-0.281-0.319-0.469-0.319s-0.343,0.106-0.468,0.319c-0.125,0.212-0.188,0.534-0.188,0.966
		c0,0.431,0.062,0.753,0.188,0.966S496.053,126.959,496.24,126.959z"/>
	<path fill="#707071" d="M498.023,127.167h-0.357v-2.985h0.351l1.054,1.987l0.115,0.296h0.01l-0.01-0.296v-1.987h0.357v2.985h-0.357
		l-1.025-1.953l-0.144-0.313l0.007,0.31V127.167z"/>
</g>
<g>
	<path fill="#707071" d="M518.921,57.932v1.716h-0.525v-4.035h1.077c0.352,0,0.61,0.036,0.777,0.107
		c0.166,0.072,0.294,0.181,0.386,0.326c0.091,0.146,0.136,0.302,0.136,0.47c0,0.156-0.03,0.312-0.091,0.47
		c-0.061,0.157-0.144,0.298-0.25,0.422s-0.26,0.241-0.461,0.352l1.167,1.887h-0.625l-1.068-1.716H518.921z M518.921,57.528h0.732
		c0.165-0.09,0.288-0.182,0.368-0.276c0.081-0.094,0.142-0.194,0.184-0.3c0.041-0.106,0.062-0.211,0.062-0.317
		c0-0.189-0.069-0.34-0.207-0.452c-0.137-0.112-0.387-0.168-0.748-0.168h-0.392V57.528z"/>
	<path fill="#707071" d="M521.53,55.612h0.525v2.649c0,0.348,0.029,0.586,0.087,0.714c0.059,0.127,0.147,0.224,0.268,0.291
		s0.254,0.1,0.401,0.1c0.155,0,0.294-0.036,0.416-0.108s0.212-0.185,0.271-0.338c0.058-0.153,0.087-0.442,0.087-0.865v-2.444h0.483
		v2.634c0,0.376-0.056,0.67-0.168,0.883c-0.111,0.212-0.257,0.372-0.438,0.479c-0.18,0.107-0.406,0.161-0.681,0.161
		c-0.252,0-0.475-0.047-0.667-0.14c-0.192-0.094-0.338-0.234-0.437-0.421s-0.148-0.525-0.148-1.014V55.612z"/>
	<path fill="#707071" d="M525.21,59.647h-0.484v-4.035h0.474l1.425,2.686l0.156,0.4h0.013l-0.013-0.4v-2.686h0.483v4.035h-0.483
		l-1.387-2.64l-0.194-0.424l0.011,0.418V59.647z"/>
	<path fill="#707071" d="M533.619,59.601c-0.302,0.113-0.572,0.169-0.812,0.169c-0.315,0-0.605-0.084-0.871-0.253
		c-0.265-0.169-0.472-0.42-0.619-0.754c-0.146-0.333-0.221-0.711-0.221-1.132c0-0.418,0.073-0.793,0.219-1.126
		c0.146-0.333,0.351-0.585,0.616-0.756c0.265-0.172,0.557-0.258,0.876-0.258c0.239,0,0.51,0.056,0.812,0.168v0.479
		c-0.279-0.162-0.557-0.243-0.832-0.243c-0.208,0-0.398,0.071-0.571,0.213c-0.172,0.142-0.312,0.351-0.417,0.625
		c-0.105,0.275-0.158,0.574-0.158,0.896c0,0.328,0.055,0.631,0.163,0.908c0.109,0.277,0.249,0.485,0.419,0.623
		c0.17,0.138,0.358,0.207,0.564,0.207c0.273,0,0.551-0.081,0.832-0.242V59.601z"/>
	<path fill="#707071" d="M535.582,59.77c-0.458,0-0.808-0.193-1.05-0.579c-0.241-0.386-0.362-0.907-0.362-1.562
		c0-0.654,0.121-1.174,0.362-1.56c0.242-0.386,0.592-0.579,1.05-0.579c0.459,0,0.81,0.193,1.05,0.579
		c0.241,0.386,0.361,0.906,0.361,1.56c0,0.656-0.12,1.176-0.361,1.562C536.392,59.577,536.041,59.77,535.582,59.77z M535.582,59.367
		c0.253,0,0.464-0.144,0.633-0.431c0.169-0.287,0.254-0.723,0.254-1.306c0-0.583-0.085-1.019-0.254-1.306
		c-0.169-0.287-0.38-0.431-0.633-0.431s-0.465,0.144-0.634,0.431c-0.169,0.288-0.253,0.723-0.253,1.306
		c0,0.583,0.084,1.019,0.253,1.306C535.117,59.223,535.329,59.367,535.582,59.367z"/>
	<path fill="#707071" d="M537.992,59.647h-0.484v-4.035h0.474l1.425,2.686l0.156,0.4h0.013l-0.013-0.4v-2.686h0.483v4.035h-0.483
		l-1.387-2.64l-0.194-0.424l0.011,0.418V59.647z"/>
	<path fill="#707071" d="M541.71,59.647v-3.591h-1.209v-0.444h2.943v0.444h-1.209v3.591H541.71z"/>
	<path fill="#707071" d="M544.484,57.932v1.716h-0.525v-4.035h1.077c0.352,0,0.61,0.036,0.777,0.107
		c0.166,0.072,0.294,0.181,0.386,0.326c0.091,0.146,0.136,0.302,0.136,0.47c0,0.156-0.03,0.312-0.091,0.47
		c-0.061,0.157-0.144,0.298-0.25,0.422s-0.26,0.241-0.461,0.352l1.167,1.887h-0.625l-1.068-1.716H544.484z M544.484,57.528h0.732
		c0.165-0.09,0.288-0.182,0.368-0.276c0.081-0.094,0.142-0.194,0.184-0.3c0.041-0.106,0.062-0.211,0.062-0.317
		c0-0.189-0.069-0.34-0.207-0.452c-0.137-0.112-0.387-0.168-0.748-0.168h-0.392V57.528z"/>
	<path fill="#707071" d="M548.363,59.77c-0.458,0-0.808-0.193-1.05-0.579c-0.241-0.386-0.362-0.907-0.362-1.562
		c0-0.654,0.121-1.174,0.362-1.56c0.242-0.386,0.592-0.579,1.05-0.579c0.459,0,0.81,0.193,1.05,0.579
		c0.241,0.386,0.361,0.906,0.361,1.56c0,0.656-0.12,1.176-0.361,1.562C549.173,59.577,548.822,59.77,548.363,59.77z M548.363,59.367
		c0.253,0,0.464-0.144,0.633-0.431c0.169-0.287,0.254-0.723,0.254-1.306c0-0.583-0.085-1.019-0.254-1.306
		c-0.169-0.287-0.38-0.431-0.633-0.431s-0.465,0.144-0.634,0.431c-0.169,0.288-0.253,0.723-0.253,1.306
		c0,0.583,0.084,1.019,0.253,1.306C547.898,59.223,548.11,59.367,548.363,59.367z"/>
	<path fill="#707071" d="M552.708,59.203v0.445h-2.177v-4.035h0.525v3.59H552.708z"/>
</g>
<path fill="none" stroke="#AEADAD" stroke-miterlimit="10" d="M315,256.967c0,1.657-1.343,3-3,3H48c-1.657,0-3-1.343-3-3v-183
	c0-1.656,1.343-3,3-3h264c1.657,0,3,1.344,3,3V256.967z"/>
<rect x="70.5" y="77.467" width="221.75" height="167.5"/>
<polygon fill="#AEADAE" points="48,70.967 70.5,77.467 292.25,77.467 309.5,70.967 "/>
<polygon fill="#AEADAE" points="70.5,244.967 49.333,259.967 306.792,259.967 292.25,244.967 "/>
<g>
	<path fill="#FFF200" d="M80.697,238.592c-0.333,0.125-0.632,0.187-0.897,0.187c-0.349,0-0.669-0.093-0.963-0.28
		c-0.293-0.187-0.521-0.464-0.684-0.833s-0.244-0.786-0.244-1.252c0-0.462,0.081-0.877,0.241-1.245
		c0.161-0.368,0.388-0.646,0.681-0.836c0.293-0.19,0.616-0.285,0.969-0.285c0.265,0,0.563,0.062,0.897,0.186v0.529
		c-0.309-0.18-0.615-0.27-0.92-0.27c-0.23,0-0.44,0.079-0.631,0.236c-0.19,0.157-0.344,0.388-0.461,0.692
		c-0.117,0.304-0.175,0.634-0.175,0.99c0,0.362,0.061,0.697,0.181,1.004c0.121,0.308,0.275,0.537,0.463,0.689
		c0.188,0.152,0.396,0.229,0.624,0.229c0.303,0,0.609-0.089,0.92-0.268V238.592z"/>
	<path fill="#FFF200" d="M81.464,238.644v-4.461h0.581v1.92h1.644v-1.92h0.581v4.461h-0.581v-2.096h-1.644v2.096H81.464z"/>
	<path fill="#FFF200" d="M86.268,238.198v-3.441c-0.161,0.128-0.317,0.236-0.469,0.326s-0.359,0.182-0.624,0.274v-0.482
		c0.419-0.179,0.784-0.409,1.092-0.692h0.535v4.016h1.072v0.445h-2.699v-0.445H86.268z"/>
	<path fill="#FFF200" d="M95.026,236.37v0.445h-3.122v-0.445H95.026z M95.026,237.373v0.445h-3.122v-0.445H95.026z"/>
	<path fill="#FFF200" d="M99.307,236.326v-2.144h2.498v0.514h-1.963v1.093h0.092c0.642,0,1.137,0.134,1.483,0.402
		s0.521,0.63,0.521,1.084c0,0.287-0.07,0.545-0.21,0.773c-0.14,0.228-0.337,0.406-0.592,0.536c-0.255,0.129-0.526,0.193-0.813,0.193
		s-0.655-0.069-1.104-0.209v-0.584c0.163,0.089,0.345,0.161,0.546,0.217c0.201,0.057,0.387,0.085,0.558,0.085s0.337-0.041,0.5-0.123
		c0.163-0.083,0.29-0.203,0.379-0.36c0.09-0.158,0.135-0.319,0.135-0.484c0-0.277-0.123-0.512-0.369-0.704
		c-0.247-0.192-0.684-0.289-1.312-0.289H99.307z"/>
	<path fill="#FFF200" d="M104.064,234.05c0.508,0,0.895,0.213,1.161,0.64c0.267,0.427,0.399,1.001,0.399,1.724
		c0,0.725-0.133,1.3-0.399,1.726c-0.266,0.427-0.653,0.64-1.161,0.64c-0.506,0-0.893-0.213-1.16-0.64
		c-0.267-0.426-0.401-1.001-0.401-1.726c0-0.723,0.134-1.297,0.401-1.724C103.172,234.263,103.559,234.05,104.064,234.05z
		 M103.193,237.366l1.541-2.417c-0.098-0.178-0.203-0.298-0.317-0.36s-0.232-0.094-0.354-0.094c-0.319,0-0.562,0.178-0.729,0.533
		c-0.166,0.355-0.25,0.807-0.25,1.353c0,0.124,0.004,0.259,0.012,0.402C103.103,236.927,103.136,237.121,103.193,237.366z
		 M104.927,235.481l-1.53,2.432c0.082,0.141,0.177,0.245,0.284,0.315c0.107,0.069,0.227,0.104,0.359,0.104
		c0.363,0,0.622-0.203,0.775-0.61c0.153-0.407,0.229-0.859,0.229-1.355C105.044,236.061,105.005,235.766,104.927,235.481z"/>
	<path fill="#FFF200" d="M107.597,234.05c0.508,0,0.895,0.213,1.161,0.64c0.267,0.427,0.399,1.001,0.399,1.724
		c0,0.725-0.133,1.3-0.399,1.726c-0.266,0.427-0.653,0.64-1.161,0.64c-0.506,0-0.893-0.213-1.16-0.64
		c-0.267-0.426-0.401-1.001-0.401-1.726c0-0.723,0.134-1.297,0.401-1.724C106.705,234.263,107.091,234.05,107.597,234.05z
		 M106.726,237.366l1.541-2.417c-0.098-0.178-0.203-0.298-0.317-0.36s-0.232-0.094-0.354-0.094c-0.319,0-0.562,0.178-0.729,0.533
		c-0.166,0.355-0.25,0.807-0.25,1.353c0,0.124,0.004,0.259,0.012,0.402C106.636,236.927,106.668,237.121,106.726,237.366z
		 M108.459,235.481l-1.53,2.432c0.082,0.141,0.177,0.245,0.284,0.315c0.107,0.069,0.227,0.104,0.359,0.104
		c0.363,0,0.622-0.203,0.775-0.61c0.153-0.407,0.229-0.859,0.229-1.355C108.577,236.061,108.538,235.766,108.459,235.481z"/>
	<path fill="#FFF200" d="M109.569,238.644v-3.211h0.469v0.736c0.147-0.312,0.285-0.528,0.412-0.647
		c0.127-0.118,0.256-0.178,0.387-0.178c0.155,0,0.28,0.061,0.375,0.183c0.095,0.121,0.142,0.294,0.142,0.519v0.173
		c0.063-0.196,0.139-0.354,0.229-0.477c0.089-0.121,0.182-0.218,0.277-0.29c0.096-0.071,0.206-0.107,0.331-0.107
		c0.138,0,0.256,0.059,0.354,0.175c0.098,0.117,0.146,0.35,0.146,0.699v2.426h-0.468v-2.193c0-0.18-0.006-0.304-0.017-0.369
		c-0.012-0.066-0.035-0.116-0.069-0.151c-0.034-0.034-0.072-0.052-0.112-0.052c-0.1,0-0.207,0.076-0.321,0.229
		c-0.114,0.152-0.23,0.405-0.349,0.758v1.779h-0.446v-2.19c0-0.283-0.028-0.45-0.083-0.5s-0.105-0.075-0.15-0.075
		c-0.098,0-0.204,0.086-0.316,0.256c-0.112,0.171-0.22,0.39-0.321,0.655v1.854H109.569z"/>
	<path fill="#FFF200" d="M115.778,234.183h0.562l-1.371,4.461h-0.593l-1.383-4.461h0.613l0.967,3.115l0.128,0.452l0.111-0.448
		L115.778,234.183z"/>
</g>
<g>
	<path fill="#FFF200" d="M192.611,238.644v-3.97h-1.336v-0.491h3.254v0.491h-1.337v3.97H192.611z"/>
	<path fill="#FFF200" d="M196.014,238.644v-2.766h-0.891v-0.445h1.426v2.766h0.894v0.445H196.014z M195.928,234.272
		c0-0.12,0.041-0.21,0.123-0.269c0.082-0.06,0.159-0.089,0.232-0.089c0.074,0,0.152,0.029,0.234,0.089
		c0.083,0.059,0.124,0.148,0.124,0.269c0,0.118-0.041,0.207-0.124,0.267c-0.082,0.06-0.16,0.089-0.234,0.089
		c-0.073,0-0.15-0.029-0.232-0.089S195.928,234.391,195.928,234.272z"/>
	<path fill="#FFF200" d="M198.406,238.644v-3.211h0.469v0.736c0.147-0.312,0.285-0.528,0.412-0.647
		c0.127-0.118,0.256-0.178,0.387-0.178c0.155,0,0.28,0.061,0.375,0.183c0.095,0.121,0.142,0.294,0.142,0.519v0.173
		c0.063-0.196,0.139-0.354,0.229-0.477c0.089-0.121,0.182-0.218,0.277-0.29c0.096-0.071,0.206-0.107,0.331-0.107
		c0.138,0,0.256,0.059,0.354,0.175c0.098,0.117,0.146,0.35,0.146,0.699v2.426h-0.468v-2.193c0-0.18-0.006-0.304-0.017-0.369
		c-0.012-0.066-0.035-0.116-0.069-0.151c-0.034-0.034-0.072-0.052-0.112-0.052c-0.1,0-0.207,0.076-0.321,0.229
		c-0.114,0.152-0.23,0.405-0.349,0.758v1.779h-0.446v-2.19c0-0.283-0.028-0.45-0.083-0.5s-0.105-0.075-0.15-0.075
		c-0.098,0-0.204,0.086-0.316,0.256c-0.112,0.171-0.22,0.39-0.321,0.655v1.854H198.406z"/>
	<path fill="#FFF200" d="M204.851,238.43c-0.428,0.202-0.832,0.303-1.213,0.303c-0.289,0-0.548-0.071-0.776-0.215
		s-0.411-0.35-0.548-0.616c-0.137-0.268-0.206-0.553-0.206-0.857c0-0.293,0.065-0.574,0.196-0.845c0.13-0.27,0.312-0.479,0.546-0.63
		s0.495-0.226,0.782-0.226c0.381,0,0.687,0.136,0.918,0.407s0.347,0.69,0.347,1.257v0.115h-2.213c0,0.223,0.046,0.427,0.139,0.61
		c0.093,0.185,0.215,0.323,0.367,0.415c0.151,0.093,0.324,0.139,0.518,0.139c0.345,0,0.726-0.115,1.144-0.346V238.43z
		 M202.715,236.724h1.601v-0.078c0-0.262-0.064-0.47-0.193-0.624c-0.128-0.155-0.3-0.232-0.515-0.232
		c-0.216,0-0.404,0.079-0.562,0.236C202.889,236.184,202.778,236.416,202.715,236.724z"/>
	<path fill="#FFF200" d="M209.341,236.326v-2.144h2.498v0.514h-1.963v1.093h0.092c0.642,0,1.137,0.134,1.483,0.402
		s0.521,0.63,0.521,1.084c0,0.287-0.07,0.545-0.21,0.773c-0.14,0.228-0.337,0.406-0.592,0.536c-0.255,0.129-0.526,0.193-0.813,0.193
		s-0.655-0.069-1.104-0.209v-0.584c0.163,0.089,0.345,0.161,0.546,0.217c0.201,0.057,0.387,0.085,0.558,0.085s0.337-0.041,0.5-0.123
		c0.163-0.083,0.29-0.203,0.379-0.36c0.09-0.158,0.135-0.319,0.135-0.484c0-0.277-0.123-0.512-0.369-0.704
		c-0.247-0.192-0.684-0.289-1.312-0.289H209.341z"/>
	<path fill="#FFF200" d="M214.099,234.05c0.508,0,0.895,0.213,1.161,0.64c0.267,0.427,0.399,1.001,0.399,1.724
		c0,0.725-0.133,1.3-0.399,1.726c-0.266,0.427-0.653,0.64-1.161,0.64c-0.506,0-0.893-0.213-1.16-0.64
		c-0.267-0.426-0.401-1.001-0.401-1.726c0-0.723,0.134-1.297,0.401-1.724C213.206,234.263,213.593,234.05,214.099,234.05z
		 M213.227,237.366l1.541-2.417c-0.098-0.178-0.203-0.298-0.317-0.36s-0.232-0.094-0.354-0.094c-0.319,0-0.562,0.178-0.729,0.533
		c-0.166,0.355-0.25,0.807-0.25,1.353c0,0.124,0.004,0.259,0.012,0.402C213.137,236.927,213.17,237.121,213.227,237.366z
		 M214.961,235.481l-1.53,2.432c0.082,0.141,0.177,0.245,0.284,0.315c0.107,0.069,0.227,0.104,0.359,0.104
		c0.363,0,0.622-0.203,0.775-0.61c0.153-0.407,0.229-0.859,0.229-1.355C215.079,236.061,215.04,235.766,214.961,235.481z"/>
	<path fill="#FFF200" d="M217.631,238.778c-0.128,0-0.239-0.046-0.331-0.138c-0.092-0.092-0.138-0.202-0.138-0.33
		c0-0.131,0.046-0.241,0.14-0.332c0.093-0.092,0.203-0.137,0.329-0.137s0.236,0.045,0.329,0.137
		c0.093,0.091,0.139,0.201,0.139,0.332c0,0.128-0.046,0.238-0.138,0.33C217.87,238.732,217.76,238.778,217.631,238.778z"/>
	<path fill="#FFF200" d="M221.164,234.05c0.508,0,0.895,0.213,1.161,0.64c0.267,0.427,0.399,1.001,0.399,1.724
		c0,0.725-0.133,1.3-0.399,1.726c-0.266,0.427-0.653,0.64-1.161,0.64c-0.506,0-0.893-0.213-1.16-0.64
		c-0.267-0.426-0.401-1.001-0.401-1.726c0-0.723,0.134-1.297,0.401-1.724C220.271,234.263,220.658,234.05,221.164,234.05z
		 M220.292,237.366l1.541-2.417c-0.098-0.178-0.203-0.298-0.317-0.36s-0.232-0.094-0.354-0.094c-0.319,0-0.562,0.178-0.729,0.533
		c-0.166,0.355-0.25,0.807-0.25,1.353c0,0.124,0.004,0.259,0.012,0.402C220.203,236.927,220.235,237.121,220.292,237.366z
		 M222.026,235.481l-1.53,2.432c0.082,0.141,0.177,0.245,0.284,0.315c0.107,0.069,0.227,0.104,0.359,0.104
		c0.363,0,0.622-0.203,0.775-0.61c0.153-0.407,0.229-0.859,0.229-1.355C222.144,236.061,222.105,235.766,222.026,235.481z"/>
	<path fill="#FFF200" d="M224.697,234.05c0.508,0,0.895,0.213,1.161,0.64c0.267,0.427,0.399,1.001,0.399,1.724
		c0,0.725-0.133,1.3-0.399,1.726c-0.266,0.427-0.653,0.64-1.161,0.64c-0.506,0-0.893-0.213-1.16-0.64
		c-0.267-0.426-0.401-1.001-0.401-1.726c0-0.723,0.134-1.297,0.401-1.724C223.805,234.263,224.191,234.05,224.697,234.05z
		 M223.826,237.366l1.541-2.417c-0.098-0.178-0.203-0.298-0.317-0.36s-0.232-0.094-0.354-0.094c-0.319,0-0.562,0.178-0.729,0.533
		c-0.166,0.355-0.25,0.807-0.25,1.353c0,0.124,0.004,0.259,0.012,0.402C223.736,236.927,223.769,237.121,223.826,237.366z
		 M225.56,235.481l-1.53,2.432c0.082,0.141,0.177,0.245,0.284,0.315c0.107,0.069,0.227,0.104,0.359,0.104
		c0.363,0,0.622-0.203,0.775-0.61c0.153-0.407,0.229-0.859,0.229-1.355C225.677,236.061,225.638,235.766,225.56,235.481z"/>
	<path fill="#FFF200" d="M229.552,235.433v3.211h-0.535v-0.704c-0.172,0.265-0.364,0.463-0.575,0.595
		c-0.21,0.133-0.421,0.198-0.632,0.198c-0.188,0-0.36-0.05-0.516-0.15c-0.156-0.101-0.265-0.233-0.326-0.397
		c-0.061-0.163-0.092-0.482-0.092-0.958v-1.794h0.535v1.86c0,0.308,0.015,0.512,0.044,0.61s0.084,0.18,0.164,0.243
		s0.165,0.095,0.257,0.095c0.188,0,0.389-0.089,0.605-0.266c0.215-0.178,0.394-0.401,0.536-0.672v-1.871H229.552z"/>
	<path fill="#FFF200" d="M230.449,238.549v-0.546c0.459,0.22,0.875,0.33,1.25,0.33c0.157,0,0.307-0.03,0.45-0.091
		s0.252-0.147,0.325-0.261c0.074-0.112,0.11-0.235,0.11-0.368c0-0.155-0.05-0.301-0.151-0.437c-0.102-0.135-0.292-0.284-0.57-0.447
		l-0.291-0.168l-0.296-0.172c-0.522-0.309-0.784-0.692-0.784-1.15c0-0.336,0.116-0.619,0.349-0.848
		c0.233-0.229,0.596-0.345,1.091-0.345c0.318,0,0.625,0.045,0.923,0.136v0.497c-0.327-0.125-0.646-0.188-0.956-0.188
		c-0.247,0-0.446,0.065-0.599,0.196c-0.152,0.131-0.228,0.288-0.228,0.473c0,0.183,0.058,0.334,0.174,0.455
		c0.117,0.121,0.265,0.232,0.447,0.334l0.226,0.136l0.28,0.168l0.23,0.139c0.49,0.3,0.735,0.676,0.735,1.128
		c0,0.345-0.125,0.641-0.376,0.888c-0.25,0.247-0.653,0.37-1.206,0.37c-0.176,0-0.344-0.015-0.504-0.044
		C230.919,238.704,230.709,238.643,230.449,238.549z"/>
</g>
<g>
	<path fill="#00AEEF" d="M80.344,84.413v1.897h-0.581V81.85h1.192c0.389,0,0.675,0.039,0.858,0.119
		c0.184,0.079,0.326,0.199,0.426,0.36c0.101,0.16,0.151,0.334,0.151,0.52c0,0.172-0.033,0.346-0.101,0.52
		c-0.067,0.174-0.159,0.33-0.276,0.467c-0.118,0.137-0.288,0.267-0.509,0.389l1.29,2.087h-0.691l-1.182-1.897H80.344z
		 M80.344,83.968h0.811c0.182-0.1,0.318-0.201,0.407-0.306c0.089-0.104,0.157-0.214,0.203-0.331s0.069-0.233,0.069-0.351
		c0-0.21-0.076-0.376-0.228-0.5c-0.152-0.124-0.428-0.186-0.828-0.186h-0.434V83.968z"/>
	<path fill="#00AEEF" d="M83.363,86.311v-0.445h0.98v-3.57h-0.98V81.85h2.541v0.445h-0.98v3.57h0.98v0.445H83.363z"/>
	<path fill="#00AEEF" d="M89.529,86.308c-0.314,0.092-0.603,0.138-0.865,0.138c-0.372,0-0.703-0.092-0.993-0.275
		c-0.29-0.185-0.518-0.462-0.683-0.832c-0.165-0.371-0.247-0.79-0.247-1.258c0-0.462,0.081-0.877,0.241-1.245
		c0.161-0.368,0.388-0.646,0.681-0.836c0.293-0.19,0.615-0.285,0.966-0.285c0.264,0,0.563,0.062,0.896,0.186v0.529
		c-0.309-0.18-0.615-0.27-0.92-0.27c-0.23,0-0.44,0.079-0.631,0.236c-0.19,0.157-0.344,0.388-0.46,0.692
		c-0.116,0.304-0.174,0.636-0.174,0.996c0,0.483,0.11,0.924,0.331,1.32C87.892,85.802,88.24,86,88.715,86
		c0.062,0,0.139-0.005,0.233-0.015v-1.437h-0.445v-0.446h1.026V86.308z"/>
	<path fill="#00AEEF" d="M91.699,86.445c-0.506,0-0.893-0.213-1.16-0.64c-0.267-0.427-0.401-1.002-0.401-1.728
		c0-0.723,0.134-1.298,0.401-1.724c0.268-0.427,0.654-0.641,1.16-0.641c0.508,0,0.895,0.214,1.161,0.641
		c0.267,0.426,0.399,1.001,0.399,1.724c0,0.726-0.133,1.301-0.399,1.728C92.594,86.232,92.207,86.445,91.699,86.445z M91.699,86
		c0.28,0,0.513-0.159,0.7-0.477c0.187-0.317,0.28-0.799,0.28-1.443c0-0.646-0.093-1.126-0.28-1.444
		c-0.187-0.317-0.42-0.477-0.7-0.477s-0.513,0.159-0.7,0.477c-0.187,0.318-0.28,0.799-0.28,1.444c0,0.645,0.094,1.126,0.28,1.443
		C91.186,85.841,91.419,86,91.699,86z"/>
	<path fill="#00AEEF" d="M96.502,85.819v0.491h-2.406V81.85h0.581v3.97H96.502z"/>
	<path fill="#00AEEF" d="M100.984,86.216V85.67c0.459,0.22,0.875,0.33,1.25,0.33c0.157,0,0.307-0.03,0.45-0.091
		s0.252-0.147,0.325-0.261c0.074-0.112,0.11-0.235,0.11-0.368c0-0.155-0.05-0.301-0.151-0.437c-0.102-0.135-0.292-0.284-0.57-0.447
		l-0.291-0.168l-0.296-0.172c-0.522-0.309-0.784-0.692-0.784-1.15c0-0.336,0.116-0.619,0.349-0.848
		c0.233-0.229,0.596-0.345,1.091-0.345c0.318,0,0.625,0.045,0.923,0.136v0.497c-0.327-0.125-0.646-0.188-0.956-0.188
		c-0.247,0-0.446,0.065-0.599,0.196c-0.152,0.131-0.228,0.288-0.228,0.473c0,0.183,0.058,0.334,0.174,0.455
		c0.117,0.121,0.265,0.232,0.447,0.334l0.226,0.136l0.28,0.168l0.23,0.139c0.49,0.3,0.735,0.676,0.735,1.128
		c0,0.345-0.125,0.641-0.376,0.888c-0.25,0.247-0.653,0.37-1.206,0.37c-0.176,0-0.344-0.015-0.504-0.044
		C101.455,86.371,101.244,86.31,100.984,86.216z"/>
	<path fill="#00AEEF" d="M105.54,86.311v-3.97h-1.336V81.85h3.254v0.491h-1.337v3.97H105.54z"/>
	<path fill="#00AEEF" d="M109.364,86.445c-0.506,0-0.893-0.213-1.16-0.64c-0.267-0.427-0.401-1.002-0.401-1.728
		c0-0.723,0.134-1.298,0.401-1.724c0.268-0.427,0.654-0.641,1.16-0.641c0.508,0,0.895,0.214,1.161,0.641
		c0.267,0.426,0.399,1.001,0.399,1.724c0,0.726-0.133,1.301-0.399,1.728C110.259,86.232,109.872,86.445,109.364,86.445z M109.364,86
		c0.28,0,0.513-0.159,0.7-0.477c0.187-0.317,0.28-0.799,0.28-1.443c0-0.646-0.093-1.126-0.28-1.444
		c-0.187-0.317-0.42-0.477-0.7-0.477s-0.513,0.159-0.7,0.477c-0.187,0.318-0.28,0.799-0.28,1.444c0,0.645,0.094,1.126,0.28,1.443
		C108.851,85.841,109.084,86,109.364,86z"/>
	<path fill="#00AEEF" d="M112.218,84.684v1.627h-0.581V81.85h1.11c0.456,0,0.789,0.051,0.997,0.153
		c0.209,0.103,0.369,0.253,0.48,0.45c0.111,0.197,0.167,0.418,0.167,0.661c0,0.285-0.075,0.552-0.224,0.799s-0.358,0.438-0.625,0.57
		c-0.267,0.134-0.63,0.2-1.088,0.2H112.218z M112.218,84.238h0.25c0.358,0,0.625-0.047,0.799-0.14
		c0.174-0.094,0.309-0.228,0.402-0.402c0.094-0.174,0.141-0.363,0.141-0.566c0-0.258-0.084-0.461-0.251-0.61
		c-0.168-0.15-0.499-0.225-0.993-0.225h-0.348V84.238z"/>
</g>
<g>
	<g>
		<polyline fill="none" stroke="#AEADAD" stroke-width="0.5" stroke-miterlimit="10" points="285.667,227.842 285.667,228.342 
			285.167,228.342 		"/>
		
			<line fill="none" stroke="#AEADAD" stroke-width="0.5" stroke-miterlimit="10" stroke-dasharray="1.0033,1.0033" x1="284.163" y1="228.342" x2="80.001" y2="228.342"/>
		<polyline fill="none" stroke="#AEADAD" stroke-width="0.5" stroke-miterlimit="10" points="79.5,228.342 79,228.342 79,227.842 		
			"/>
		
			<line fill="none" stroke="#AEADAD" stroke-width="0.5" stroke-miterlimit="10" stroke-dasharray="1.004,1.004" x1="79" y1="226.838" x2="79" y2="92.801"/>
		<polyline fill="none" stroke="#AEADAD" stroke-width="0.5" stroke-miterlimit="10" points="79,92.299 79,91.799 79.5,91.799 		"/>
		
			<line fill="none" stroke="#AEADAD" stroke-width="0.5" stroke-miterlimit="10" stroke-dasharray="1.0033,1.0033" x1="80.503" y1="91.799" x2="284.665" y2="91.799"/>
		<polyline fill="none" stroke="#AEADAD" stroke-width="0.5" stroke-miterlimit="10" points="285.167,91.799 285.667,91.799 
			285.667,92.299 		"/>
		
			<line fill="none" stroke="#AEADAD" stroke-width="0.5" stroke-miterlimit="10" stroke-dasharray="1.004,1.004" x1="285.667" y1="93.303" x2="285.667" y2="227.34"/>
	</g>
</g>
<line fill="none" stroke="#AEADAD" stroke-width="0.5" stroke-miterlimit="10" stroke-dasharray="1" x1="97" y1="91.799" x2="97" y2="228.342"/>
<line fill="none" stroke="#AEADAD" stroke-width="0.5" stroke-miterlimit="10" stroke-dasharray="1" x1="114.667" y1="92.945" x2="114.667" y2="229.488"/>
<line fill="none" stroke="#AEADAD" stroke-width="0.5" stroke-miterlimit="10" stroke-dasharray="1" x1="130" y1="92.373" x2="130" y2="228.915"/>
<line fill="none" stroke="#AEADAD" stroke-width="0.5" stroke-miterlimit="10" stroke-dasharray="1" x1="147.667" y1="93.52" x2="147.667" y2="230.062"/>
<line fill="none" stroke="#AEADAD" stroke-width="0.5" stroke-miterlimit="10" stroke-dasharray="1" x1="164.667" y1="92.945" x2="164.667" y2="229.488"/>
<line fill="none" stroke="#AEADAD" stroke-width="0.5" stroke-miterlimit="10" stroke-dasharray="1" x1="182.333" y1="94.092" x2="182.333" y2="230.635"/>
<line fill="none" stroke="#AEADAD" stroke-width="0.5" stroke-miterlimit="10" stroke-dasharray="1" x1="201.333" y1="91.513" x2="201.333" y2="228.055"/>
<line fill="none" stroke="#AEADAD" stroke-width="0.5" stroke-miterlimit="10" stroke-dasharray="1" x1="216.667" y1="90.939" x2="216.667" y2="227.482"/>
<line fill="none" stroke="#AEADAD" stroke-width="0.5" stroke-miterlimit="10" stroke-dasharray="1" x1="234.333" y1="92.086" x2="234.333" y2="228.629"/>
<line fill="none" stroke="#AEADAD" stroke-width="0.5" stroke-miterlimit="10" stroke-dasharray="1" x1="251.333" y1="91.513" x2="251.333" y2="228.055"/>
<line fill="none" stroke="#AEADAD" stroke-width="0.5" stroke-miterlimit="10" stroke-dasharray="1" x1="269" y1="92.659" x2="269" y2="229.201"/>
<line fill="none" stroke="#AEADAD" stroke-width="0.5" stroke-miterlimit="10" stroke-dasharray="1" x1="79" y1="108.467" x2="285.667" y2="108.467"/>
<line fill="none" stroke="#AEADAD" stroke-width="0.5" stroke-miterlimit="10" stroke-dasharray="1" x1="79" y1="126.133" x2="285.667" y2="126.133"/>
<line fill="none" stroke="#AEADAD" stroke-width="0.5" stroke-miterlimit="10" stroke-dasharray="1" x1="79" y1="142.924" x2="285.667" y2="142.924"/>
<line fill="none" stroke="#AEADAD" stroke-width="0.5" stroke-miterlimit="10" stroke-dasharray="1" x1="79" y1="160.591" x2="285.667" y2="160.591"/>
<line fill="none" stroke="#AEADAD" stroke-width="0.5" stroke-miterlimit="10" stroke-dasharray="1" x1="79" y1="176.758" x2="285.667" y2="176.758"/>
<line fill="none" stroke="#AEADAD" stroke-width="0.5" stroke-miterlimit="10" stroke-dasharray="1" x1="79" y1="194.425" x2="285.667" y2="194.425"/>
<line fill="none" stroke="#AEADAD" stroke-width="0.5" stroke-miterlimit="10" stroke-dasharray="1" x1="79" y1="212.8" x2="285.667" y2="212.8"/>
<path fill="none" stroke="#FAC53D" stroke-miterlimit="10" d="M79,130.467c0,0,15,16,26.333,16s41.667-35.333,59.333-35.333
	s34.333,35.333,52,35.333s39.667-32.75,54.333-32.75s14.667,4.75,14.667,4.75"/>
<polygon fill="#FFF200" points="182.333,95.694 180.827,93.086 179.321,90.477 182.333,90.477 185.345,90.477 183.839,93.086 "/>
<path fill="none" stroke="#FFFFFF" stroke-miterlimit="10" d="M95.333,312.398v-37.932c0-1.657,1.343-3,3-3H129.5
	c1.657,0,3,1.343,3,3v37.932"/>
<path fill="none" stroke="#FFFFFF" stroke-miterlimit="10" d="M339.667,299.134c0,1.657-1.343,3-3,3H172.333c-1.657,0-3-1.343-3-3
	v-23c0-1.657,1.343-3,3-3h164.333c1.657,0,3,1.343,3,3V299.134z"/>
<path fill="none" stroke="#FFFFFF" stroke-miterlimit="10" d="M128.25,297.969c0,1.657-1.343,3-3,3h-23c-1.657,0-3-1.343-3-3v-7.334
	c0-1.657,1.343-3,3-3h23c1.657,0,3,1.343,3,3V297.969z"/>
<rect x="103.25" y="291.933" fill="#FFFFFF" stroke="#C6C4C5" stroke-miterlimit="10" width="20.5" height="5.285"/>
<circle cx="105.874" cy="291.302" r="1.667"/>
<circle cx="110.208" cy="291.302" r="1.667"/>
<circle cx="115.792" cy="291.302" r="1.667"/>
<circle cx="120.125" cy="291.302" r="1.667"/>
<rect x="180" y="277.717" fill="none" stroke="#9D9D9D" stroke-miterlimit="10" width="109" height="19.501"/>
<rect x="172" y="281.217" fill="#9D9D9D" width="11" height="11.752"/>
<rect x="285.5" y="281.758" fill="#9D9D9D" width="11" height="11.752"/>
<circle fill="#FFFFFF" stroke="#000000" stroke-miterlimit="10" cx="177.5" cy="287.093" r="2.542"/>
<circle fill="#FFFFFF" stroke="#000000" stroke-miterlimit="10" cx="291" cy="287.634" r="2.542"/>
<path stroke="#5E5E5F" stroke-miterlimit="10" d="M279.5,282.551c0,1.07-0.868,1.938-1.938,1.938h-86.625
	c-1.07,0-1.938-0.867-1.938-1.938l0,0c0-1.07,0.868-1.938,1.938-1.938h86.625C278.632,280.613,279.5,281.48,279.5,282.551
	L279.5,282.551z"/>
<rect x="192" y="284.551" fill="#B7B7B7" stroke="#5E5E5F" stroke-miterlimit="10" width="84.667" height="7.382"/>
<rect x="192" y="287.467" fill="#5E5E5F" width="84.667" height="1.497"/>
<path fill="none" stroke="#4AC4D5" stroke-miterlimit="10" d="M374.713,61.467c2.946,0,5.334,2.388,5.334,5.334
	c0,2.945-2.388,5.333-5.334,5.333c-2.945,0-5.333-2.388-5.333-5.333"/>
<polygon fill="#7D7D7D" points="414.655,122.608 415.408,123.912 416.161,125.217 414.655,125.217 413.148,125.217 413.901,123.912 
	"/>
<polygon fill="#4BC4D4" points="369.381,63.344 370.606,65.467 371.833,67.591 369.381,67.591 366.927,67.591 368.152,65.467 "/>
<polygon fill="#7D7D7D" points="414.654,129.117 413.901,127.812 413.148,126.508 414.654,126.508 416.161,126.508 415.408,127.812 
	"/>
<ellipse fill="#BABABA" cx="375.65" cy="95.694" rx="11.5" ry="12.573"/>
<circle fill="#EAE9E6" stroke="#BABABA" stroke-miterlimit="10" cx="375.65" cy="98.779" r="9.333"/>
<circle fill="#D8D8D8" stroke="#D3D3D3" stroke-miterlimit="10" cx="375.65" cy="98.779" r="6.271"/>
<ellipse fill="#BABABA" cx="431.15" cy="146.467" rx="11.5" ry="12.572"/>
<circle fill="#EAE9E6" stroke="#BABABA" stroke-miterlimit="10" cx="431.15" cy="149.551" r="9.333"/>
<circle fill="#D8D8D8" stroke="#D3D3D3" stroke-miterlimit="10" cx="431.15" cy="149.551" r="6.271"/>
<ellipse fill="#BABABA" cx="490.5" cy="146.467" rx="11.5" ry="12.572"/>
<circle fill="#EAE9E6" stroke="#BABABA" stroke-miterlimit="10" cx="490.5" cy="149.551" r="9.333"/>
<circle fill="#D8D8D8" stroke="#D3D3D3" stroke-miterlimit="10" cx="490.5" cy="149.551" r="6.271"/>
<ellipse fill="#BABABA" cx="549.5" cy="146.467" rx="11.5" ry="12.572"/>
<circle fill="#EAE9E6" stroke="#BABABA" stroke-miterlimit="10" cx="549.5" cy="149.551" r="9.333"/>
<circle fill="#D8D8D8" stroke="#D3D3D3" stroke-miterlimit="10" cx="549.5" cy="149.551" r="6.271"/>
<path fill="#969595" d="M558.833,288.634c0,1.657-1.343,3-3,3h-8.5c-1.657,0-3-1.343-3-3v-30.5c0-1.657,1.343-3,3-3h8.5
	c1.657,0,3,1.343,3,3V288.634z"/>
<polyline fill="none" stroke="#7D7D7D" stroke-miterlimit="10" points="561.333,263.801 563.833,263.801 563.833,258.134 
	567.5,258.134 567.5,263.801 570.333,263.801 "/>
<polyline fill="none" stroke="#7D7D7D" stroke-miterlimit="10" points="562.5,284.217 564.375,282.342 570.333,282.342 
	568.479,284.195 "/>
<polyline fill="none" stroke="#7D7D7D" stroke-miterlimit="10" points="566.416,276.967 566.416,282.342 565.833,284.217 "/>
<g>
	<ellipse fill="#BABABA" cx="431.15" cy="217.264" rx="18" ry="18.196"/>
	<path fill="#EAE9E6" stroke="#BABABA" stroke-miterlimit="10" d="M447.484,220.381c0,8.285-6.716,15.002-15.002,15.002
		c-8.284,0-14.998-6.717-14.998-15.002c0-8.283,6.714-14.998,14.998-14.998C440.769,205.383,447.484,212.098,447.484,220.381z"/>
	<circle fill="#D8D8D8" stroke="#D3D3D3" stroke-miterlimit="10" cx="432.484" cy="220.381" r="10.078"/>
	<path opacity="0.2" d="M447.051,220.381c0,8.285-6.521,15.002-14.568,15.002c-8.045,0-14.564-6.717-14.564-15.002H447.051z"/>
</g>
<g>
	<ellipse fill="#BABABA" cx="490.5" cy="218.593" rx="18" ry="18.196"/>
	<path fill="#EAE9E6" stroke="#BABABA" stroke-miterlimit="10" d="M507.484,221.715c0,8.285-6.716,15.002-15.002,15.002
		c-8.284,0-14.998-6.717-14.998-15.002c0-8.283,6.714-14.998,14.998-14.998C500.769,206.717,507.484,213.432,507.484,221.715z"/>
	<circle fill="#D8D8D8" stroke="#D3D3D3" stroke-miterlimit="10" cx="492.484" cy="221.715" r="10.078"/>
</g>
<line fill="none" stroke="#B0AFB0" stroke-miterlimit="10" x1="385.547" y1="178.425" x2="419.471" y2="178.425"/>
<line fill="none" stroke="#B0AFB0" stroke-miterlimit="10" x1="386.38" y1="154.034" x2="400.75" y2="154.034"/>
<line fill="none" stroke="#B0AFB0" stroke-miterlimit="10" x1="386.016" y1="202.133" x2="400.386" y2="202.133"/>
<path fill="none" stroke="#B0AFB0" stroke-miterlimit="10" d="M386.278,129.117l5.021,0.084c5.173,0,9.366,6.223,9.366,13.897
	v70.017c0,7.677-4.193,13.897-9.366,13.897h-5.753"/>
<path fill="none" stroke="#4AC4D5" stroke-miterlimit="10" d="M455.334,57.503h29.437c6.628,0,12,4.721,12,10.544v29.875
	c0,5.824-5.372,10.545-12,10.545h-79.206c-6.627,0-12-4.721-12-10.545V68.047c0-5.823,5.373-10.544,12-10.544H434"/>
<path fill="none" stroke="#4AC4D5" stroke-miterlimit="10" d="M427,113.717h31.687c1.652,0,2.99,2.957,2.99,6.604v114.459
	c0,3.646-1.338,6.603-2.99,6.603h-96.899c-1.652,0-2.99-2.957-2.99-6.603V120.32c0-3.646,1.338-6.604,2.99-6.604h30.88"/>
<path fill="none" stroke="#4AC4D5" stroke-miterlimit="10" d="M513,113.717h7.587c0.975,0,1.764,2.957,1.764,6.604v114.459
	c0,3.646-0.789,6.603-1.764,6.603H463.44c-0.975,0-1.764-2.957-1.764-6.603V120.32c0-3.646,0.789-6.604,1.764-6.604H471"/>
<path fill="none" stroke="#4AC4D5" stroke-miterlimit="10" d="M564.334,113.717h8.815c0.84,0,1.521,2.957,1.521,6.604v114.459
	c0,3.646-0.681,6.603-1.521,6.603h-49.278c-0.84,0-1.521-2.957-1.521-6.603V120.32c0-3.646,0.681-6.604,1.521-6.604h11.462"/>
<path fill="none" stroke="#4AC4D5" stroke-miterlimit="10" d="M560.334,57.503h11.336c1.657,0,3,1.181,3,2.636v45.691
	c0,1.456-1.343,2.637-3,2.637H501c-1.657,0-3-1.181-3-2.637V60.139c0-1.455,1.343-2.636,3-2.636h12.667"/>
<polygon fill="#7D7D7D" points="505.93,125.217 504.625,125.971 503.321,126.723 503.321,125.217 503.321,123.711 504.625,124.463 
	"/>
<polygon fill="#7D7D7D" points="475.745,125.217 477.05,124.463 478.354,123.711 478.354,125.217 478.354,126.723 477.05,125.971 
	"/>
<polygon fill="#7D7D7D" points="505.593,193.763 504.288,194.516 502.984,195.269 502.984,193.763 502.984,192.256 504.288,193.009 
	"/>
<polygon fill="#7D7D7D" points="475.408,193.762 476.713,193.009 478.017,192.256 478.017,193.762 478.017,195.269 476.713,194.516 
	"/>
<polygon fill="#7D7D7D" points="413.655,188.559 414.408,189.862 415.161,191.166 413.655,191.166 412.148,191.166 412.901,189.862 
	"/>
<polygon fill="#7D7D7D" points="413.654,195.066 412.901,193.762 412.148,192.458 413.654,192.458 415.161,192.458 414.408,193.762 
	"/>
<polygon fill="#7D7D7D" points="534.077,121.963 534.83,123.267 535.583,124.57 534.077,124.57 532.57,124.57 533.323,123.267 "/>
<polygon fill="#7D7D7D" points="534.076,128.471 533.323,127.166 532.57,125.862 534.076,125.862 535.583,125.862 534.83,127.166 
	"/>
<line fill="none" stroke="#FAC53D" stroke-miterlimit="10" x1="369.833" y1="246.467" x2="379" y2="246.467"/>
<line fill="none" stroke="#FAC53D" stroke-miterlimit="10" x1="397.926" y1="246.467" x2="407.093" y2="246.467"/>
<line fill="none" stroke="#4BC4D4" stroke-miterlimit="10" x1="433.5" y1="246.467" x2="442.667" y2="246.467"/>
<line fill="none" stroke="#4BC4D4" stroke-miterlimit="10" x1="461.593" y1="246.467" x2="470.76" y2="246.467"/>
<g>
	<circle fill="#D8D8D8" stroke="#707071" stroke-miterlimit="10" cx="388.333" cy="273.134" r="18.5"/>
	<path fill="#B7B7B7" d="M398.01,270.964c-0.924-4.885-4.905-8.559-9.677-8.559c-5.457,0-9.88,4.804-9.88,10.729
		c0,0.622,0.049,1.231,0.143,1.824l4.651,8.589l14.126-2.837L398.01,270.964z"/>
	<circle fill="#707071" cx="389.424" cy="277.717" r="8.502"/>
	<circle fill="#FFFFFF" cx="389.424" cy="276.634" r="4.835"/>
	<circle cx="389.424" cy="276.634" r="1.167"/>
	<rect x="386.5" y="259.967" fill="#898989" width="4.091" height="3.835"/>
</g>
<g>
	<circle fill="#D8D8D8" stroke="#707071" stroke-miterlimit="10" cx="449.15" cy="272.976" r="18.5"/>
	<path fill="#B7B7B7" d="M458.827,270.806c-0.924-4.885-4.905-8.559-9.677-8.559c-5.457,0-9.88,4.804-9.88,10.729
		c0,0.622,0.049,1.231,0.143,1.824l4.651,8.589l14.126-2.837L458.827,270.806z"/>
	<circle fill="#707071" cx="450.241" cy="277.559" r="8.502"/>
	<circle fill="#FFFFFF" cx="450.241" cy="276.476" r="4.835"/>
	<circle cx="450.241" cy="276.476" r="1.167"/>
	<rect x="447.317" y="259.809" fill="#898989" width="4.091" height="3.835"/>
</g>
<g>
	<circle fill="#D8D8D8" stroke="#707071" stroke-miterlimit="10" cx="512.289" cy="273.384" r="18.5"/>
	<path fill="#B7B7B7" d="M521.966,271.214c-0.924-4.885-4.905-8.559-9.677-8.559c-5.457,0-9.88,4.804-9.88,10.729
		c0,0.622,0.049,1.231,0.143,1.824l4.651,8.589l14.126-2.837L521.966,271.214z"/>
	<circle fill="#707071" cx="513.38" cy="277.967" r="8.502"/>
	<circle fill="#FFFFFF" cx="513.38" cy="276.884" r="4.835"/>
	<circle cx="513.38" cy="276.884" r="1.167"/>
	<rect x="510.456" y="260.217" fill="#898989" width="4.091" height="3.835"/>
</g>
<path opacity="0.2" d="M507.067,221.341c0,8.285-6.529,15.002-14.585,15.002c-8.054,0-14.581-6.717-14.581-15.002H507.067z"/>
<path opacity="0.2" d="M558.333,149.551c0,4.878-3.955,8.834-8.834,8.834c-4.878,0-8.832-3.956-8.832-8.834H558.333z"/>
<path opacity="0.2" d="M499.333,149.551c0,4.878-3.955,8.834-8.834,8.834c-4.878,0-8.832-3.956-8.832-8.834H499.333z"/>
<path opacity="0.2" d="M439.983,149.551c0,4.878-3.955,8.834-8.834,8.834c-4.878,0-8.832-3.956-8.832-8.834H439.983z"/>
<path opacity="0.2" d="M384.483,98.779c0,4.878-3.955,8.834-8.834,8.834c-4.878,0-8.832-3.956-8.832-8.834H384.483z"/>
<path fill="#1C75BC" stroke="#B0AFB0" stroke-miterlimit="10" d="M343,116.467v3.167c0,1.657-1.343,3-3,3h-15.667
	c-1.657,0-3-1.343-3-3v-3.292"/>
<path fill="#1C75BC" stroke="#B0AFB0" stroke-miterlimit="10" d="M422.65,70.446v3.167c0,1.657-1.343,3-3,3h-15.667
	c-1.657,0-3-1.343-3-3v-3.292"/>
<path fill="#1C75BC" stroke="#B0AFB0" stroke-miterlimit="10" d="M422.471,97.362v3.167c0,1.657-1.343,3-3,3h-15.667
	c-1.657,0-3-1.343-3-3v-3.292"/>
<path fill="#1C75BC" stroke="#B0AFB0" stroke-miterlimit="10" d="M456.307,70.446v3.167c0,1.657-1.343,3-3,3H437.64
	c-1.657,0-3-1.343-3-3v-3.292"/>
<path fill="#1C75BC" stroke="#B0AFB0" stroke-miterlimit="10" d="M456.127,97.362v3.167c0,1.657-1.343,3-3,3H437.46
	c-1.657,0-3-1.343-3-3v-3.292"/>
<path fill="#1C75BC" stroke="#B0AFB0" stroke-miterlimit="10" d="M488.5,70.446v3.167c0,1.657-1.343,3-3,3h-15.667
	c-1.657,0-3-1.343-3-3v-3.292"/>
<path fill="#1C75BC" stroke="#B0AFB0" stroke-miterlimit="10" d="M488.32,97.362v3.167c0,1.657-1.343,3-3,3h-15.667
	c-1.657,0-3-1.343-3-3v-3.292"/>
<path fill="#1C75BC" stroke="#B0AFB0" stroke-miterlimit="10" d="M343,143.446v3.167c0,1.657-1.343,3-3,3h-15.667
	c-1.657,0-3-1.343-3-3v-3.292"/>
<path fill="#1C75BC" stroke="#B0AFB0" stroke-miterlimit="10" d="M343,172.683v3.167c0,1.657-1.343,3-3,3h-15.667
	c-1.657,0-3-1.343-3-3v-3.292"/>
<path fill="#1C75BC" stroke="#B0AFB0" stroke-miterlimit="10" d="M385.547,177.675v3.167c0,1.657-1.343,3-3,3H366.88
	c-1.657,0-3-1.343-3-3v-3.292"/>
<path fill="#1C75BC" stroke="#B0AFB0" stroke-miterlimit="10" d="M385.547,202.648v3.167c0,1.657-1.343,3-3,3H366.88
	c-1.657,0-3-1.343-3-3v-3.292"/>
<path fill="#FBB040" stroke="#B0AFB0" stroke-miterlimit="10" d="M385.547,226.595v3.167c0,1.657-1.343,3-3,3H366.88
	c-1.657,0-3-1.343-3-3v-3.292"/>
<path fill="#FBB040" stroke="#B0AFB0" stroke-miterlimit="10" d="M386.483,129.95v3.167c0,1.657-1.343,3-3,3h-15.667
	c-1.657,0-3-1.343-3-3v-3.292"/>
<path fill="#D3D3D3" stroke="#B0AFB0" stroke-miterlimit="10" d="M386.483,153.617v3.167c0,1.657-1.343,3-3,3h-15.667
	c-1.657,0-3-1.343-3-3v-3.292"/>
<path fill="#D3D3D3" stroke="#B0AFB0" stroke-miterlimit="10" d="M441.317,178.008v3.167c0,1.657-1.343,3-3,3H422.65
	c-1.657,0-3-1.343-3-3v-3.292"/>
<path fill="#D3D3D3" stroke="#B0AFB0" stroke-miterlimit="10" d="M501.333,178.008v3.167c0,1.657-1.343,3-3,3h-15.667
	c-1.657,0-3-1.343-3-3v-3.292"/>
<path fill="#D3D3D3" stroke="#B0AFB0" stroke-miterlimit="10" d="M557.25,178.008v3.167c0,1.657-1.343,3-3,3h-15.667
	c-1.657,0-3-1.343-3-3v-3.292"/>
<path fill="#D3D3D3" stroke="#B0AFB0" stroke-miterlimit="10" d="M557.25,200.648v3.167c0,1.658-1.343,3-3,3h-15.667
	c-1.657,0-3-1.342-3-3v-3.292"/>
<path fill="#D3D3D3" stroke="#B0AFB0" stroke-miterlimit="10" d="M557.25,224.596v3.167c0,1.658-1.343,3-3,3h-15.667
	c-1.657,0-3-1.342-3-3v-3.292"/>
<path fill="#1C75BC" stroke="#B0AFB0" stroke-miterlimit="10" d="M343,199.746v3.166c0,1.658-1.343,3-3,3h-15.667
	c-1.657,0-3-1.342-3-3v-3.292"/>
<path fill="#1C75BC" stroke="#B0AFB0" stroke-miterlimit="10" d="M343,228.181v3.166c0,1.658-1.343,3-3,3h-15.667
	c-1.657,0-3-1.342-3-3v-3.292"/>
<path fill="#CCCACA" d="M544.333,273.05v-14.916c0-1.657,1.343-3,3-3h8.5c1.657,0,3,1.343,3,3V273.3"/>
<rect x="550.875" y="260.134" fill="#6D6B6B" width="1.625" height="26.167"/>
<path fill="#1C75BC" stroke="#B0AFB0" stroke-miterlimit="10" d="M533.021,81.051v4.848c0,2.683-1.926,4.857-4.304,4.857h-22.477
	c-2.377,0-4.304-2.175-4.304-4.857v-4.848"/>
<path fill="#FBB040" stroke="#B0AFB0" stroke-miterlimit="10" d="M569.042,81.051v4.848c0,2.683-1.926,4.857-4.304,4.857h-22.477
	c-2.377,0-4.304-2.175-4.304-4.857v-4.848"/>
</svg>
