<?xml version="1.0" encoding="utf-8"?>
<!-- Generator: Adobe Illustrator 15.0.0, SVG Export Plug-In . SVG Version: 6.00 Build 0)  -->
<!DOCTYPE svg PUBLIC "-//W3C//DTD SVG 1.1//EN" "http://www.w3.org/Graphics/SVG/1.1/DTD/svg11.dtd">
<svg version="1.1" id="Layer_1" xmlns="http://www.w3.org/2000/svg" xmlns:xlink="http://www.w3.org/1999/xlink" x="0px" y="0px"
	 width="216.5px" height="200.347px" viewBox="0 0 216.5 200.347" enable-background="new 0 0 216.5 200.347" xml:space="preserve">
<g>
	<polygon fill="#1C75BC" points="178.5,24.222 153.5,33.347 188,67.347 216.5,55.347 	"/>
	<polygon fill="#1C75BC" points="30.5,65.347 49,51.347 80.5,76.847 63,97.347 	"/>
	<polygon fill="#2B3990" points="63,200.347 30.5,162.847 30.5,65.347 63,97.347 	"/>
	<polygon fill="#1C75BC" points="30.5,74.347 0,85.347 34.5,119.347 63,107.347 	"/>
	<polygon fill="#262262" points="63,107.347 36.311,118.584 36.311,127.347 63,116.347 	"/>
	<polygon fill="#262262" points="216.5,55.347 189.811,66.584 189.811,75.347 216.5,64.347 	"/>
	<polygon fill="#126BA6" points="36.311,118.584 0,85.347 0,92.501 36.311,127.347 	"/>
	<g>
		<path fill="#2B3990" d="M28.479,84.462c-2.601-1.579-5.741-1.214-7.428,0.715c1.689-0.718,3.828-0.591,5.69,0.54
			c2.865,1.738,3.968,5.157,2.464,7.636c-0.14,0.229-0.313,0.427-0.485,0.624c0.911-0.388,1.696-1.011,2.224-1.879
			C32.447,89.619,31.344,86.2,28.479,84.462z"/>
		<path d="M28.72,93.977c0.172-0.197,0.346-0.395,0.485-0.624c1.504-2.479,0.4-5.897-2.464-7.636
			c-1.862-1.131-4.001-1.258-5.69-0.54c-0.172,0.197-0.346,0.395-0.485,0.624c-1.504,2.479-0.4,5.897,2.465,7.636
			C24.892,94.567,27.031,94.694,28.72,93.977z"/>
	</g>
	<path fill="#2B3990" d="M41.854,98.837c-2.601-1.579-5.741-1.214-7.428,0.715c1.689-0.718,3.828-0.591,5.689,0.54
		c2.865,1.738,3.969,5.157,2.465,7.636c-0.14,0.229-0.312,0.427-0.485,0.624c0.911-0.388,1.696-1.011,2.224-1.879
		C45.822,103.994,44.719,100.575,41.854,98.837z"/>
	<path d="M42.095,108.352c0.173-0.197,0.346-0.395,0.485-0.624c1.504-2.479,0.4-5.897-2.465-7.636c-1.861-1.131-4-1.258-5.689-0.54
		c-0.172,0.197-0.346,0.395-0.485,0.624c-1.505,2.479-0.4,5.897,2.465,7.636C38.268,108.942,40.406,109.069,42.095,108.352z"/>
	<g>
		<path fill="#2B3990" d="M179.74,33.07c-2.6-1.579-5.74-1.214-7.428,0.715c1.689-0.718,3.828-0.591,5.69,0.54
			c2.864,1.738,3.969,5.157,2.464,7.636c-0.139,0.229-0.312,0.427-0.484,0.624c0.91-0.388,1.695-1.011,2.223-1.879
			C183.709,38.228,182.605,34.809,179.74,33.07z"/>
		<path d="M179.982,42.585c0.172-0.197,0.346-0.395,0.484-0.624c1.505-2.479,0.4-5.897-2.464-7.636
			c-1.862-1.131-4.001-1.258-5.69-0.54c-0.172,0.197-0.346,0.395-0.484,0.624c-1.505,2.479-0.4,5.897,2.465,7.636
			C176.154,43.176,178.293,43.303,179.982,42.585z"/>
	</g>
	<g>
		<path fill="#2B3990" d="M195.758,46.901c-2.601-1.579-5.741-1.214-7.428,0.715c1.689-0.718,3.828-0.591,5.689,0.54
			c2.865,1.738,3.969,5.157,2.465,7.636c-0.14,0.229-0.312,0.427-0.485,0.624c0.911-0.388,1.696-1.011,2.224-1.879
			C199.727,52.059,198.623,48.64,195.758,46.901z"/>
		<path d="M195.999,56.416c0.173-0.197,0.346-0.395,0.485-0.624c1.504-2.479,0.4-5.897-2.465-7.636c-1.861-1.131-4-1.258-5.689-0.54
			c-0.172,0.197-0.346,0.395-0.485,0.624c-1.505,2.479-0.4,5.897,2.465,7.636C192.172,57.007,194.311,57.134,195.999,56.416z"/>
	</g>
	<polygon fill="#00B9F2" points="110.167,37.514 144.2,70.28 192,54.347 152.5,24.847 	"/>
	<polygon fill="#2B3990" points="80.5,76.847 63,97.347 147,69.347 147,55.597 	"/>
	<polygon fill="#00AEEF" points="49,51.347 117.25,30.597 147,55.597 80.5,76.847 	"/>
	<polygon fill="#262262" points="63,97.347 63,200.347 80.5,194.847 80.5,198.347 179,160.347 179,157.347 188,151.847 192,54.347 	
		"/>
	
		<ellipse transform="matrix(0.7802 0.6255 -0.6255 0.7802 62.2136 -85.2421)" fill="#262262" cx="152.411" cy="45.912" rx="17.524" ry="8.55"/>
	<path fill="#262262" d="M137.727,22.185v15.148c0,0,14.723,23.463,27.748,20.157l1.621-3.144V38.185L137.727,22.185z"/>
	
		<ellipse transform="matrix(0.7802 0.6255 -0.6255 0.7802 52.6339 -88.608)" fill="#2B3990" cx="152.411" cy="30.597" rx="17.524" ry="8.55"/>
	<path fill="#BCBEC0" d="M106.18,43.031v4.139c0,0,5.49,5.612,22.656,0.394c17.168-5.219,17-4.134,17-4.134
		s26.58,21.226,37.414,11.403l0.087-5.988l-34.334-10.334L106.18,43.031z"/>
	<path fill="#BCBEC0" d="M118.893,3.553v6.128c0,0,3.107,9.667,12.273,16c9.168,6.333,3.5-4.5,3.5-4.5L118.893,3.553z"/>
	<path fill="#BCBEC0" d="M197.492,16.122v6.475c0,0-11.492,9.75-23.992,11.917s-2.345-3.917-2.345-3.917L197.492,16.122z"/>
	<path fill="#E6E7E8" d="M197.492,16.122c-0.098-9.136-14.08-7.336-14.08-7.336s-8.309,1.333-25.145,5.897
		c-6.933-5.513-24.88-18.308-36.995-13.702c-6.083,2.312-0.326,12.084,9.707,22.683c-4.329,1.764-8.433,3.662-12.103,5.692
		c-25.076,13.868-9.889,23.416,18.429,12.825c2.695-1.008,6.604-1.381,9.343-2.326c12.355,9.592,27.467,16.693,33.115,14.614
		c7.737-2.848,1.652-13.561-5.562-22.794C189.822,26.485,197.551,21.64,197.492,16.122z"/>
	<path fill="#A7A9AC" d="M142.851,25.261l-0.012,3.627c0,0,0.883,5.125,10.667,5.125c9.785,0,10.668-5.041,10.668-5.041v-3.25
		L142.851,25.261z"/>
	<ellipse cx="153.506" cy="25.551" rx="10.667" ry="7.083"/>
	<polygon fill="#262262" points="63,200.347 30.5,162.847 30.5,124.423 63,151.757 	"/>
	<polygon fill="#16162D" points="63,151.757 63,200.347 80.5,194.847 80.5,198.347 179,160.347 179,157.347 188,151.847 
		189.866,106.347 	"/>
</g>
</svg>
