<?xml version="1.0" encoding="utf-8"?>
<!-- Generator: Adobe Illustrator 15.0.0, SVG Export Plug-In . SVG Version: 6.00 Build 0)  -->
<!DOCTYPE svg PUBLIC "-//W3C//DTD SVG 1.1//EN" "http://www.w3.org/Graphics/SVG/1.1/DTD/svg11.dtd">
<svg version="1.1" id="Layer_1" xmlns="http://www.w3.org/2000/svg" xmlns:xlink="http://www.w3.org/1999/xlink" x="0px" y="0px"
	 width="281.281px" height="215.07px" viewBox="0 0 281.281 215.07" enable-background="new 0 0 281.281 215.07"
	 xml:space="preserve">
<g>
	<g>
		<path fill="#00AEEF" d="M188.679,35.39l55.598-32.887c0,0,6.313,1.624,6.485,9.271l-51.46,41.171L188.679,35.39z"/>
	</g>
	<g>
		<path fill="#00C0F3" d="M193.376,43.154l-4.697-7.764l55.598-32.887c0,0,2.467,0.634,4.358,2.977"/>
	</g>
	<g>
		<polygon fill="#58595B" points="0,162.396 0,187.564 166.026,213.543 166.026,183.911 		"/>
	</g>
	<g>
		<polygon points="0,162.396 49.524,141.289 198.095,159.15 166.026,183.911 		"/>
	</g>
	<g>
		<polygon fill="#6D6E71" points="195.659,165.644 172.115,182.693 195.254,186.346 		"/>
	</g>
	<g>
		<polygon points="166.026,213.543 168.664,211.108 168.664,186.752 195.254,167.674 195.254,186.346 198.095,183.911 
			198.095,159.15 166.026,183.911 		"/>
	</g>
	<g>
		<polygon fill="#FFF200" points="122.026,154.659 93.567,170.92 158.922,179.649 183.075,162.396 		"/>
	</g>
	<g>
		<polygon fill="#58595B" points="122.026,163.433 122.026,154.659 93.567,170.92 104.249,172.348 		"/>
	</g>
	<g>
		<polygon fill="#6D6E71" points="122.026,154.659 122.026,163.433 172.924,169.648 183.075,162.396 		"/>
	</g>
	<g>
		<path d="M187.54,34.788L153.917,54.57l-8.07-4.134l-7.821,4.033l-0.812,4.595l-11.396,10.849c0,0,18.979,9.447,23.84,27.909
			l10.487-7.624l3.224,0.908l7.424-4.442l1.219-6.893l-1.9-2.647l28.914-23.042C199.024,54.081,203.082,42.612,187.54,34.788z"/>
	</g>
	<g>
		<path fill="#808285" d="M125.817,69.913c0,0,18.811,7.048,23.84,27.909C149.657,97.822,125.835,93.272,125.817,69.913z"/>
	</g>
	<g>
		<path fill="#6D6E71" d="M132.047,80.153L84.363,110.06c0,0,7.718,0.856,7.557,8.952l47.694-30.404
			C139.614,88.608,139.876,80.861,132.047,80.153z"/>
	</g>
	<g>
		<path fill="#58595B" d="M91.92,119.012c0,0,1.237-7.482-7.557-8.952C84.363,110.06,82.464,117.933,91.92,119.012z"/>
	</g>
	<g>
		<path fill="#414042" d="M86.491,113.57l-22.347,17.036l24.499-14.118C88.643,116.487,89.697,113.629,86.491,113.57"/>
	</g>
	<g>
		<path d="M242.913,3.31c0,0,9.022,4.102,5.982,9.958c0,0,4.406-4.134,7.96-1.939c3.948,2.438,9.382,7.243,9.382,7.243
			s4.723-1.577,4.644-6.16C270.881,12.411,261.382-7.738,242.913,3.31z"/>
	</g>
	<g>
		<path d="M266.995,10.417"/>
	</g>
	<g>
		<path fill="none" stroke="#000000" stroke-miterlimit="10" d="M266.995,10.417"/>
	</g>
	<g>
		<g>
			<path d="M223.385,210.686c-2.857,0-6.098-0.247-9.908-0.567c-6.328-0.53-14.199-1.188-24.769-1.035
				c-56.769,0.831-65.807-9.137-66.65-10.277l3.217-2.377c0.033,0.03,8.856,9.463,63.375,8.654
				c10.763-0.154,18.747,0.512,25.161,1.05c11.541,0.967,16.805,1.41,22.643-4.316c6.274-6.153,13.324-19.329,27.368-45.579
				l1.41-2.636c27.017-50.485,0.123-141.694-0.152-142.609l3.832-1.15c0.069,0.232,7.02,23.591,10.465,52.982
				c3.194,27.252,3.946,65.451-10.617,92.664l-1.41,2.636C243.293,203.086,239.226,210.686,223.385,210.686z"/>
		</g>
	</g>
	<g>
		<path fill="#414042" d="M138.814,78.708c-6.125-5.75-12.833-9-12.833-9l11.232-10.644l0.812-4.595l7.821-4.033l8.07,4.134
			l33.623-19.782c4.045,2.036,6.762,4.319,8.568,6.583L138.814,78.708z"/>
	</g>
	<g>
		<g enable-background="new    ">
			<g enable-background="new    ">
				<defs>
					<path id="SVGID_1_" enable-background="new    " d="M41.313,189.469c-0.062,0.055-0.133,0.1-0.209,0.138
						c-2.425,1.189-10.875-5.722-18.875-15.442c-7.743-9.408-12.227-18.002-10.304-19.619L148.571,39.603
						c-1.923,1.618,2.561,10.211,10.303,19.619c8.001,9.722,16.451,16.634,18.875,15.442c0.076-0.038,0.147-0.083,0.211-0.137
						C132.409,112.843,86.86,151.151,41.313,189.469z"/>
				</defs>
				<clipPath id="SVGID_2_">
					<use xlink:href="#SVGID_1_"  overflow="visible"/>
				</clipPath>
				<g clip-path="url(#SVGID_2_)">
					<g enable-background="new    ">
						<defs>
							<path id="SVGID_3_" enable-background="new    " d="M113.454,69.142l4.434-3.729c-3.726,4.614,21.439,35.499,28.645,35.156
								c0.498-0.024,0.73-0.214,0.79-0.271l-4.432,3.729c-5.182,2.882-31.385-27.136-29.829-34.17
								C113.088,69.739,113.168,69.378,113.454,69.142 M104.587,76.6l4.434-3.729c-3.727,4.614,21.439,35.499,28.645,35.156
								c0.499-0.024,0.731-0.214,0.792-0.271l-4.433,3.729c-5.182,2.883-31.386-27.136-29.829-34.17
								C104.222,77.198,104.301,76.837,104.587,76.6 M95.72,84.058l4.434-3.729c-3.726,4.615,21.439,35.5,28.646,35.156
								c0.228-0.011,0.522-0.052,0.791-0.271l-4.436,3.73c-5.181,2.882-31.383-27.137-29.826-34.171
								C95.423,84.348,95.582,84.194,95.72,84.058 M86.851,91.519l4.433-3.729c-3.726,4.615,21.439,35.5,28.645,35.156
								c0.228-0.011,0.523-0.051,0.792-0.271l-4.434,3.729c-5.181,2.883-31.385-27.135-29.827-34.169
								C86.485,92.117,86.564,91.757,86.851,91.519 M77.984,98.978l4.433-3.729c-3.727,4.614,21.438,35.5,28.645,35.156
								c0.446-0.021,0.629-0.154,0.791-0.271l-4.434,3.729c-5.181,2.883-31.384-27.135-29.827-34.17
								C77.618,99.574,77.698,99.215,77.984,98.978 M69.119,106.436l4.432-3.729c-3.726,4.615,21.438,35.5,28.645,35.157
								c0.446-0.021,0.629-0.154,0.791-0.271l-4.433,3.729c-5.181,2.883-31.385-27.136-29.828-34.17
								C68.817,106.742,68.99,106.536,69.119,106.436 M60.251,113.894l4.433-3.729c-3.726,4.614,21.439,35.5,28.645,35.157
								c0.228-0.011,0.523-0.052,0.792-0.271l-4.433,3.729c-5.182,2.882-31.386-27.136-29.829-34.169
								C59.953,114.184,60.112,114.03,60.251,113.894 M51.381,121.355l4.438-3.732c-3.727,4.614,21.437,35.5,28.643,35.158
								c0.445-0.021,0.628-0.154,0.79-0.271l-4.436,3.73c-5.18,2.883-31.384-27.134-29.827-34.169
								C51.015,121.953,51.095,121.593,51.381,121.355 M42.514,128.814l4.434-3.729c-3.727,4.615,21.438,35.5,28.645,35.156
								c0.498-0.023,0.731-0.214,0.791-0.271l-4.433,3.729c-5.182,2.882-31.385-27.135-29.828-34.168
								C42.21,129.131,42.362,128.95,42.514,128.814"/>
						</defs>
						<clipPath id="SVGID_4_">
							<use xlink:href="#SVGID_3_"  overflow="visible"/>
						</clipPath>
						<g clip-path="url(#SVGID_4_)">
							<g>
								<path fill="#58595B" d="M41.313,189.469L177.96,74.527c-0.057,0.048-0.119,0.089-0.188,0.125L41.127,189.595
									C41.195,189.56,41.256,189.517,41.313,189.469"/>
							</g>
							<g>
								<path fill="#58595B" d="M41.127,189.595L177.772,74.652c-0.008,0.004-0.016,0.008-0.023,0.012
									c-0.127,0.063-0.271,0.102-0.43,0.121L40.672,189.728c0.16-0.019,0.304-0.06,0.432-0.121
									C41.11,189.602,41.119,189.598,41.127,189.595"/>
							</g>
							<g>
								<path fill="#58595B" d="M40.672,189.728L177.319,74.785c-0.133,0.016-0.277,0.018-0.432,0.002L40.241,189.73
									C40.396,189.745,40.539,189.744,40.672,189.728"/>
							</g>
							<g>
								<path fill="#58595B" d="M40.241,189.73L176.888,74.787c-0.133-0.012-0.273-0.034-0.42-0.067L39.821,189.663
									C39.969,189.696,40.108,189.719,40.241,189.73"/>
							</g>
							<g>
								<path fill="#58595B" d="M39.821,189.663L176.468,74.72c-0.137-0.03-0.279-0.071-0.429-0.119L39.393,189.543
									C39.542,189.591,39.685,189.631,39.821,189.663"/>
							</g>
							<g>
								<path fill="#58595B" d="M39.393,189.543L176.039,74.601c-0.14-0.046-0.286-0.1-0.437-0.161L38.956,189.382
									C39.107,189.444,39.252,189.498,39.393,189.543"/>
							</g>
							<g>
								<path fill="#58595B" d="M38.956,189.382L175.603,74.44c-0.141-0.057-0.286-0.121-0.435-0.19L38.521,189.193
									C38.671,189.262,38.815,189.326,38.956,189.382"/>
							</g>
							<g>
								<path fill="#58595B" d="M38.521,189.193L175.168,74.25c-0.146-0.069-0.298-0.144-0.451-0.225L38.071,188.968
									C38.225,189.049,38.375,189.124,38.521,189.193"/>
							</g>
							<g>
								<path fill="#58595B" d="M38.071,188.968L174.717,74.025c-0.15-0.079-0.304-0.163-0.46-0.252L37.609,188.714
									C37.767,188.805,37.92,188.889,38.071,188.968"/>
							</g>
							<g>
								<path fill="#58595B" d="M37.609,188.714L174.257,73.773c-0.156-0.089-0.314-0.184-0.477-0.283L37.133,188.432
									C37.296,188.532,37.454,188.625,37.609,188.714"/>
							</g>
							<g>
								<path fill="#58595B" d="M37.133,188.432L173.78,73.49c-0.16-0.099-0.324-0.203-0.492-0.312L36.642,188.12
									C36.81,188.229,36.974,188.333,37.133,188.432"/>
							</g>
							<g>
								<path fill="#58595B" d="M36.642,188.12L173.288,73.178c-0.168-0.109-0.337-0.224-0.51-0.343L36.131,187.777
									C36.305,187.897,36.476,188.011,36.642,188.12"/>
							</g>
							<g>
								<path fill="#58595B" d="M36.131,187.777L172.778,72.835c-0.176-0.121-0.353-0.246-0.532-0.376L35.6,187.401
									C35.779,187.532,35.957,187.657,36.131,187.777"/>
							</g>
							<g>
								<path fill="#58595B" d="M35.6,187.401L172.246,72.459c-0.184-0.132-0.369-0.27-0.558-0.412L35.042,186.991
									C35.231,187.132,35.417,187.269,35.6,187.401"/>
							</g>
							<g>
								<path fill="#58595B" d="M35.042,186.991L171.688,72.047c-0.191-0.145-0.386-0.293-0.582-0.448L34.46,186.541
									C34.657,186.696,34.851,186.844,35.042,186.991"/>
							</g>
							<g>
								<path fill="#58595B" d="M34.46,186.541L171.106,71.599c-0.199-0.157-0.402-0.318-0.606-0.485L33.854,186.056
									C34.058,186.223,34.26,186.383,34.46,186.541"/>
							</g>
							<g>
								<path fill="#58595B" d="M33.854,186.056L170.5,71.114c-0.204-0.167-0.411-0.338-0.621-0.514L33.233,185.543
									C33.442,185.719,33.649,185.89,33.854,186.056"/>
							</g>
							<g>
								<path fill="#58595B" d="M33.233,185.543L169.879,70.6c-0.205-0.172-0.413-0.35-0.622-0.532L32.61,185.01
									C32.819,185.192,33.028,185.37,33.233,185.543"/>
							</g>
							<g>
								<path fill="#58595B" d="M32.61,185.01L169.257,70.068c-0.193-0.167-0.387-0.337-0.582-0.51L32.028,184.5
									C32.224,184.672,32.417,184.844,32.61,185.01"/>
							</g>
							<g>
								<path fill="#58595B" d="M32.028,184.5L168.675,69.558c-0.181-0.161-0.361-0.323-0.546-0.49L31.483,184.009
									C31.666,184.176,31.848,184.339,32.028,184.5"/>
							</g>
							<g>
								<path fill="#58595B" d="M31.483,184.009L168.129,69.067c-0.151-0.138-0.302-0.278-0.456-0.42L31.027,183.59
									C31.18,183.731,31.333,183.871,31.483,184.009"/>
							</g>
							<g>
								<path fill="#58595B" d="M31.027,183.59L167.673,68.647c-0.152-0.141-0.307-0.285-0.461-0.431L30.566,183.159
									C30.721,183.303,30.874,183.448,31.027,183.59"/>
							</g>
							<g>
								<path fill="#58595B" d="M30.566,183.159L167.212,68.216c-0.111-0.105-0.223-0.211-0.336-0.318L30.23,182.84
									C30.342,182.948,30.455,183.053,30.566,183.159"/>
							</g>
							<g>
								<path fill="#58595B" d="M30.23,182.84L166.876,67.898c-0.106-0.103-0.215-0.206-0.322-0.311L29.908,182.532
									C30.016,182.635,30.123,182.739,30.23,182.84"/>
							</g>
							<g>
								<path fill="#58595B" d="M29.908,182.532L166.554,67.588c-0.107-0.104-0.216-0.208-0.324-0.314L29.583,182.215
									C29.692,182.322,29.799,182.426,29.908,182.532"/>
							</g>
							<g>
								<path fill="#58595B" d="M29.583,182.215L166.229,67.273c-0.098-0.095-0.195-0.191-0.293-0.288L29.291,181.928
									C29.388,182.024,29.485,182.121,29.583,182.215"/>
							</g>
							<g>
								<path fill="#7D879A" d="M29.291,181.928L165.937,66.986c-0.078-0.077-0.156-0.155-0.235-0.233L29.055,181.695
									C29.133,181.773,29.212,181.85,29.291,181.928"/>
							</g>
							<g>
								<path fill="#818B9D" d="M29.055,181.695L165.701,66.753c-0.079-0.078-0.157-0.157-0.235-0.236L28.819,181.459
									C28.897,181.54,28.977,181.618,29.055,181.695"/>
							</g>
							<g>
								<path fill="#858FA0" d="M28.819,181.459L165.466,66.517c-0.08-0.079-0.159-0.158-0.237-0.238L28.582,181.221
									C28.661,181.3,28.74,181.38,28.819,181.459"/>
							</g>
							<g>
								<path fill="#8992A3" d="M28.582,181.221L165.229,66.279c-0.079-0.08-0.159-0.16-0.238-0.24L28.344,180.981
									C28.423,181.061,28.503,181.14,28.582,181.221"/>
							</g>
							<g>
								<path fill="#8C94A5" d="M28.344,180.981L164.99,66.039c-0.073-0.076-0.147-0.151-0.222-0.227L28.122,180.754
									C28.195,180.83,28.27,180.905,28.344,180.981"/>
							</g>
							<g>
								<path fill="#8F97A7" d="M28.122,180.754L164.769,65.812c-0.066-0.069-0.134-0.138-0.201-0.207L27.921,180.547
									C27.989,180.617,28.056,180.685,28.122,180.754"/>
							</g>
							<g>
								<path fill="#9299A9" d="M27.921,180.547L164.567,65.605c-0.066-0.069-0.134-0.138-0.201-0.208L27.72,180.338
									C27.788,180.409,27.854,180.479,27.921,180.547"/>
							</g>
							<g>
								<path fill="#959CAB" d="M27.72,180.338L164.366,65.397c-0.067-0.07-0.135-0.139-0.202-0.21L27.517,180.129
									C27.585,180.2,27.653,180.27,27.72,180.338"/>
							</g>
							<g>
								<path fill="#979EAD" d="M27.517,180.129L164.164,65.187c-0.067-0.07-0.134-0.141-0.202-0.211L27.315,179.917
									C27.383,179.989,27.451,180.059,27.517,180.129"/>
							</g>
							<g>
								<path fill="#9AA0AF" d="M27.315,179.917L163.962,64.976c-0.067-0.071-0.135-0.143-0.203-0.214L27.112,179.705
									C27.18,179.774,27.248,179.846,27.315,179.917"/>
							</g>
							<g>
								<path fill="#9CA2B0" d="M27.112,179.705L163.759,64.761c-0.072-0.076-0.143-0.151-0.215-0.228L26.897,179.475
									C26.969,179.552,27.041,179.629,27.112,179.705"/>
							</g>
							<g>
								<path fill="#9EA4B2" d="M26.897,179.475L163.544,64.533c-0.075-0.079-0.148-0.158-0.223-0.238L26.674,179.238
									C26.749,179.317,26.824,179.397,26.897,179.475"/>
							</g>
							<g>
								<path fill="#A0A6B4" d="M26.674,179.238L163.321,64.295c-0.075-0.08-0.15-0.161-0.225-0.24L26.451,178.997
									C26.525,179.077,26.599,179.159,26.674,179.238"/>
							</g>
							<g>
								<path fill="#A3A8B5" d="M26.451,178.997L163.097,64.056c-0.075-0.081-0.149-0.161-0.225-0.243L26.227,178.754
									C26.301,178.836,26.376,178.917,26.451,178.997"/>
							</g>
							<g>
								<path fill="#A5AAB7" d="M26.227,178.754L162.872,63.812c-0.074-0.081-0.149-0.162-0.225-0.244L26.002,178.51
									C26.076,178.592,26.151,178.674,26.227,178.754"/>
							</g>
							<g>
								<path fill="#A7ACB8" d="M26.002,178.51L162.647,63.568c-0.094-0.103-0.189-0.207-0.283-0.312L25.718,178.2
									C25.812,178.303,25.907,178.408,26.002,178.51"/>
							</g>
							<g>
								<path fill="#A9ADBA" d="M25.718,178.2L162.364,63.257c-0.15-0.164-0.301-0.33-0.451-0.497L25.268,177.702
									C25.418,177.87,25.568,178.036,25.718,178.2"/>
							</g>
							<g>
								<path fill="#ABAFBB" d="M25.268,177.702L161.913,62.76c-0.148-0.167-0.299-0.335-0.449-0.505L24.818,177.198
									C24.968,177.367,25.119,177.535,25.268,177.702"/>
							</g>
							<g>
								<path fill="#ACB1BD" d="M24.818,177.198L161.464,62.255c-0.198-0.225-0.398-0.452-0.598-0.682L24.219,176.516
									C24.419,176.745,24.619,176.973,24.818,177.198"/>
							</g>
							<g>
								<path fill="#ABAFBB" d="M24.219,176.516L160.866,61.573c-0.283-0.324-0.565-0.653-0.848-0.985L23.372,175.532
									C23.655,175.864,23.937,176.192,24.219,176.516"/>
							</g>
							<g>
								<path fill="#A9ADBA" d="M23.372,175.532L160.019,60.588c-0.086-0.099-0.17-0.199-0.255-0.299L23.118,175.231
									C23.203,175.331,23.288,175.43,23.372,175.532"/>
							</g>
							<g>
								<path fill="#A7ACB8" d="M23.118,175.231L159.764,60.289c-0.085-0.1-0.169-0.201-0.253-0.302L22.864,174.928
									C22.948,175.031,23.033,175.131,23.118,175.231"/>
							</g>
							<g>
								<path fill="#A5AAB7" d="M22.864,174.928L159.511,59.987c-0.085-0.101-0.17-0.202-0.254-0.304L22.61,174.625
									C22.694,174.727,22.779,174.829,22.864,174.928"/>
							</g>
							<g>
								<path fill="#A3A8B5" d="M22.61,174.625L159.257,59.684c-0.085-0.102-0.169-0.204-0.253-0.306L22.357,174.32
									C22.441,174.422,22.526,174.524,22.61,174.625"/>
							</g>
							<g>
								<path fill="#A0A6B4" d="M22.357,174.32L159.004,59.378c-0.044-0.052-0.087-0.105-0.13-0.156
									c-0.029-0.037-0.061-0.074-0.09-0.111L22.137,174.053c0.03,0.037,0.061,0.074,0.091,0.111
									C22.271,174.217,22.314,174.268,22.357,174.32"/>
							</g>
							<g>
								<path fill="#9EA4B2" d="M22.137,174.053L158.784,59.111c-0.062-0.074-0.123-0.149-0.184-0.225L21.955,173.83
									C22.015,173.903,22.076,173.979,22.137,174.053"/>
							</g>
							<g>
								<path fill="#9CA2B0" d="M21.955,173.83L158.601,58.886c-0.062-0.075-0.122-0.149-0.184-0.224L21.771,173.604
									C21.832,173.679,21.893,173.754,21.955,173.83"/>
							</g>
							<g>
								<path fill="#9AA0AF" d="M21.771,173.604L158.417,58.663c-0.061-0.074-0.12-0.148-0.181-0.223L21.59,173.381
									C21.65,173.456,21.711,173.531,21.771,173.604"/>
							</g>
							<g>
								<path fill="#979EAD" d="M21.59,173.381L158.236,58.439c-0.06-0.075-0.12-0.149-0.179-0.224L21.411,173.159
									C21.47,173.232,21.531,173.307,21.59,173.381"/>
							</g>
							<g>
								<path fill="#959CAB" d="M21.411,173.159L158.056,58.216c-0.059-0.074-0.118-0.149-0.178-0.223L21.231,172.935
									C21.292,173.01,21.351,173.084,21.411,173.159"/>
							</g>
							<g>
								<path fill="#9299A9" d="M21.231,172.935L157.878,57.993c-0.059-0.074-0.118-0.148-0.177-0.223L21.054,172.713
									C21.114,172.788,21.172,172.861,21.231,172.935"/>
							</g>
							<g>
								<path fill="#8F97A7" d="M21.054,172.713L157.701,57.771c-0.063-0.078-0.124-0.156-0.187-0.234L20.869,172.479
									C20.931,172.555,20.993,172.635,21.054,172.713"/>
							</g>
							<g>
								<path fill="#8C94A5" d="M20.869,172.479L157.515,57.536c-0.061-0.078-0.123-0.156-0.184-0.233L20.685,172.245
									C20.746,172.323,20.807,172.401,20.869,172.479"/>
							</g>
							<g>
								<path fill="#8992A3" d="M20.685,172.245L157.331,57.303c-0.062-0.079-0.123-0.157-0.183-0.235L20.502,172.01
									C20.562,172.089,20.623,172.167,20.685,172.245"/>
							</g>
							<g>
								<path fill="#858FA0" d="M20.502,172.01L157.148,57.068c-0.062-0.077-0.122-0.155-0.182-0.232L20.32,171.778
									C20.38,171.856,20.44,171.933,20.502,172.01"/>
							</g>
							<g>
								<path fill="#818B9D" d="M20.32,171.778L156.967,56.835c-0.062-0.078-0.12-0.155-0.181-0.232L20.14,171.545
									C20.2,171.624,20.26,171.7,20.32,171.778"/>
							</g>
							<g>
								<path fill="#7D879A" d="M20.14,171.545L156.786,56.603c-0.06-0.077-0.119-0.154-0.178-0.231L19.961,171.314
									C20.021,171.391,20.081,171.469,20.14,171.545"/>
							</g>
							<g>
								<path fill="#778396" d="M19.961,171.314L156.608,56.372c-0.075-0.097-0.148-0.194-0.223-0.29L19.74,171.022
									C19.812,171.12,19.888,171.217,19.961,171.314"/>
							</g>
							<g>
								<path fill="#6D6E71" d="M19.74,171.022l136.646-114.94c-0.076-0.101-0.151-0.2-0.227-0.3L19.513,170.724
									C19.587,170.823,19.664,170.922,19.74,171.022"/>
							</g>
							<g>
								<path fill="#6D6E71" d="M19.513,170.724L156.159,55.781c-0.076-0.099-0.15-0.199-0.225-0.298L19.288,170.426
									C19.362,170.524,19.438,170.624,19.513,170.724"/>
							</g>
							<g>
								<path fill="#6D6E71" d="M19.288,170.426L155.935,55.483c-0.075-0.1-0.148-0.199-0.223-0.297L19.066,170.128
									C19.14,170.227,19.214,170.327,19.288,170.426"/>
							</g>
							<g>
								<path fill="#6D6E71" d="M19.066,170.128L155.712,55.186c-0.078-0.104-0.155-0.208-0.232-0.312L18.833,169.815
									C18.912,169.918,18.988,170.024,19.066,170.128"/>
							</g>
							<g>
								<path fill="#6D6E71" d="M18.833,169.815L155.479,54.874c-0.104-0.143-0.206-0.283-0.309-0.422L18.525,169.393
									C18.626,169.535,18.73,169.674,18.833,169.815"/>
							</g>
							<g>
								<path fill="#6D6E71" d="M18.525,169.393L155.171,54.452c-0.103-0.141-0.205-0.28-0.305-0.42L18.22,168.973
									C18.321,169.114,18.422,169.253,18.525,169.393"/>
							</g>
							<g>
								<path fill="#6D6E71" d="M18.22,168.973L154.866,54.031c-0.1-0.138-0.199-0.277-0.299-0.416L17.922,168.558
									C18.021,168.697,18.12,168.835,18.22,168.973"/>
							</g>
							<g>
								<path fill="#6D6E71" d="M17.922,168.558L154.567,53.616c-0.129-0.183-0.258-0.365-0.385-0.546L17.535,168.012
									C17.663,168.192,17.792,168.375,17.922,168.558"/>
							</g>
							<g>
								<path fill="#6D6E71" d="M17.535,168.012L154.183,53.069c-0.134-0.189-0.264-0.378-0.393-0.565L17.142,167.446
									C17.272,167.633,17.403,167.822,17.535,168.012"/>
							</g>
							<g>
								<path fill="#6D6E71" d="M17.142,167.446L153.79,52.504c-0.144-0.207-0.282-0.411-0.42-0.614L16.725,166.833
									C16.861,167.035,17.001,167.239,17.142,167.446"/>
							</g>
							<g>
								<path fill="#6D6E71" d="M16.725,166.833L153.37,51.89c-0.15-0.224-0.301-0.447-0.445-0.669L16.278,166.163
									C16.424,166.385,16.573,166.608,16.725,166.833"/>
							</g>
							<g>
								<path fill="#6D6E71" d="M16.278,166.163L152.925,51.221c-0.152-0.229-0.301-0.458-0.446-0.683L15.832,165.479
									C15.978,165.706,16.126,165.932,16.278,166.163"/>
							</g>
							<g>
								<path fill="#6D6E71" d="M15.832,165.479L152.479,50.538c-0.151-0.235-0.299-0.467-0.442-0.698L15.389,164.783
									C15.533,165.012,15.681,165.245,15.832,165.479"/>
							</g>
							<g>
								<path fill="#6D6E71" d="M15.389,164.783L152.036,49.84c-0.147-0.235-0.291-0.467-0.43-0.697L14.959,164.084
									C15.099,164.315,15.242,164.547,15.389,164.783"/>
							</g>
							<g>
								<path fill="#6D6E71" d="M14.959,164.084L151.606,49.143c-0.142-0.232-0.277-0.459-0.411-0.687L14.548,163.399
									C14.682,163.624,14.819,163.854,14.959,164.084"/>
							</g>
							<g>
								<path fill="#6D6E71" d="M14.548,163.399L151.195,48.457c-0.138-0.233-0.271-0.463-0.399-0.69L14.149,162.708
									C14.278,162.935,14.411,163.166,14.548,163.399"/>
							</g>
							<g>
								<path fill="#6D6E71" d="M14.149,162.708L150.796,47.766c-0.131-0.23-0.257-0.457-0.379-0.679L13.771,162.03
									C13.893,162.252,14.019,162.479,14.149,162.708"/>
							</g>
							<g>
								<path fill="#6D6E71" d="M13.771,162.03L150.417,47.087c-0.125-0.231-0.246-0.459-0.363-0.681L13.408,161.348
									C13.524,161.571,13.645,161.798,13.771,162.03"/>
							</g>
							<g>
								<path fill="#6D6E71" d="M13.408,161.348L150.054,46.406c-0.121-0.234-0.238-0.463-0.348-0.687L13.059,160.661
									C13.171,160.886,13.287,161.115,13.408,161.348"/>
							</g>
							<g>
								<path fill="#6D6E71" d="M13.059,160.661L149.706,45.719c-0.115-0.233-0.225-0.461-0.326-0.683L12.733,159.979
									C12.835,160.202,12.944,160.428,13.059,160.661"/>
							</g>
							<g>
								<path fill="#6D6E71" d="M12.733,159.979L149.38,45.037c-0.113-0.245-0.219-0.481-0.316-0.712L12.417,159.266
									C12.515,159.497,12.62,159.735,12.733,159.979"/>
							</g>
							<g>
								<path fill="#6D6E71" d="M12.417,159.266L149.063,44.325c-0.109-0.255-0.209-0.501-0.298-0.741L12.119,158.526
									C12.208,158.764,12.309,159.012,12.417,159.266"/>
							</g>
							<g>
								<path fill="#6D6E71" d="M12.119,158.526L148.766,43.584c-0.103-0.274-0.195-0.537-0.274-0.788L11.846,157.739
									C11.924,157.99,12.016,158.252,12.119,158.526"/>
							</g>
							<g>
								<path fill="#6D6E71" d="M11.846,157.739L148.491,42.796c-0.099-0.316-0.178-0.613-0.237-0.892L11.607,156.846
									C11.667,157.125,11.746,157.422,11.846,157.739"/>
							</g>
							<g>
								<path fill="#6D6E71" d="M11.607,156.846L148.254,41.904c-0.237-1.116-0.147-1.912,0.317-2.302L11.925,154.545
									C11.461,154.934,11.37,155.731,11.607,156.846"/>
							</g>
						</g>
					</g>
				</g>
			</g>
			<g enable-background="new    ">
				<defs>
					<path id="SVGID_5_" enable-background="new    " d="M11.925,154.545L148.571,39.603c0.062-0.054,0.133-0.099,0.211-0.137
						L12.136,154.408C12.058,154.446,11.988,154.491,11.925,154.545z"/>
				</defs>
				<clipPath id="SVGID_6_">
					<use xlink:href="#SVGID_5_"  overflow="visible"/>
				</clipPath>
				<g clip-path="url(#SVGID_6_)">
					<g enable-background="new    ">
						<defs>
							<path id="SVGID_7_" enable-background="new    " d="M113.663,69.006l4.433-3.729l-0.209,0.136l-4.434,3.729L113.663,69.006
								 M104.797,76.464l4.433-3.729l-0.209,0.136l-4.434,3.729L104.797,76.464 M95.931,83.922l4.433-3.729l-0.21,0.136
								l-4.434,3.729L95.931,83.922 M87.059,91.383l4.435-3.729l-0.21,0.136l-4.433,3.729L87.059,91.383 M78.193,98.842l4.433-3.729
								l-0.209,0.136l-4.433,3.729L78.193,98.842 M69.328,106.3l4.433-3.729l-0.21,0.136l-4.432,3.729L69.328,106.3 M60.46,113.757
								l4.434-3.729l-0.21,0.137l-4.433,3.729L60.46,113.757 M51.59,121.22l4.438-3.732l-0.209,0.136l-4.438,3.732L51.59,121.22
								 M42.723,128.678l4.434-3.729l-0.209,0.136l-4.434,3.729L42.723,128.678"/>
						</defs>
						<clipPath id="SVGID_8_">
							<use xlink:href="#SVGID_7_"  overflow="visible"/>
						</clipPath>
						<g clip-path="url(#SVGID_8_)">
							<g>
								<path fill="#404C5A" d="M11.925,154.545L148.571,39.603c0.057-0.048,0.119-0.09,0.186-0.125L12.111,154.42
									C12.044,154.456,11.982,154.497,11.925,154.545"/>
							</g>
							<g>
								<path fill="#424D5C" d="M12.111,154.42L148.757,39.478c0.009-0.004,0.017-0.008,0.025-0.012L12.136,154.408
									C12.127,154.412,12.119,154.417,12.111,154.42"/>
							</g>
						</g>
					</g>
				</g>
			</g>
			<g enable-background="new    ">
				<defs>
					<path id="SVGID_9_" enable-background="new    " d="M177.96,74.527c-45.551,38.316-91.096,76.627-136.647,114.942
						c1.924-1.618-2.557-10.207-10.303-19.619c-7.998-9.717-16.449-16.633-18.874-15.442L148.782,39.466
						c2.424-1.191,10.877,5.725,18.874,15.443C175.401,64.32,179.884,72.909,177.96,74.527z"/>
				</defs>
				<clipPath id="SVGID_10_">
					<use xlink:href="#SVGID_9_"  overflow="visible"/>
				</clipPath>
				<g clip-path="url(#SVGID_10_)">
					<g enable-background="new    ">
						<defs>
							<path id="SVGID_11_" enable-background="new    " d="M113.758,68.926c6.082-1.757,31.951,28.689,29.447,34.657
								c-0.063,0.151-0.198,0.331-0.314,0.445l4.432-3.729c3.724-4.596-21.361-35.548-28.554-35.233
								c-0.177,0.008-0.413,0.063-0.576,0.131L113.758,68.926 M104.893,76.384c6.082-1.757,31.948,28.69,29.445,34.657
								c-0.064,0.15-0.197,0.331-0.314,0.444l4.433-3.729c3.725-4.595-21.361-35.547-28.555-35.231
								c-0.177,0.007-0.413,0.063-0.576,0.13L104.893,76.384 M96.022,83.845c6.081-1.757,31.951,28.688,29.446,34.655
								c-0.062,0.151-0.195,0.332-0.313,0.445l4.436-3.73c3.724-4.597-21.362-35.548-28.555-35.232
								c-0.177,0.007-0.413,0.063-0.576,0.131L96.022,83.845 M87.155,91.304c6.082-1.757,31.949,28.689,29.444,34.656
								c-0.062,0.151-0.196,0.331-0.313,0.445l4.434-3.729c3.723-4.597-21.362-35.548-28.554-35.233
								c-0.178,0.009-0.413,0.064-0.578,0.131L87.155,91.304 M78.289,98.762c6.082-1.757,31.949,28.689,29.444,34.657
								c-0.063,0.15-0.196,0.332-0.314,0.445l4.434-3.729c3.725-4.596-21.361-35.548-28.554-35.232
								c-0.178,0.008-0.413,0.064-0.577,0.131L78.289,98.762 M69.422,106.22c6.082-1.757,31.95,28.689,29.445,34.656
								c-0.062,0.15-0.196,0.331-0.313,0.445l4.433-3.729c3.724-4.596-21.362-35.548-28.554-35.232
								c-0.178,0.008-0.413,0.063-0.577,0.13L69.422,106.22 M60.556,113.678c6.083-1.757,31.95,28.689,29.445,34.656
								c-0.063,0.15-0.197,0.332-0.313,0.445l4.433-3.729c3.724-4.598-21.362-35.549-28.555-35.233
								c-0.177,0.008-0.412,0.064-0.577,0.131L60.556,113.678 M51.686,121.14c6.082-1.757,31.949,28.688,29.445,34.655
								c-0.064,0.152-0.197,0.332-0.315,0.445l4.436-3.73c3.725-4.597-21.363-35.547-28.557-35.231
								c-0.177,0.008-0.412,0.064-0.576,0.132L51.686,121.14 M42.819,128.598c6.082-1.756,31.949,28.69,29.445,34.657
								c-0.063,0.15-0.197,0.331-0.314,0.444l4.433-3.729c3.724-4.597-21.362-35.548-28.555-35.233
								c-0.177,0.008-0.412,0.064-0.577,0.132L42.819,128.598"/>
						</defs>
						<clipPath id="SVGID_12_">
							<use xlink:href="#SVGID_11_"  overflow="visible"/>
						</clipPath>
						<g clip-path="url(#SVGID_12_)">
							<g>
								<path fill="#6D6E71" d="M12.136,154.408L148.782,39.466c0.127-0.063,0.27-0.103,0.43-0.122L12.565,154.286
									C12.406,154.305,12.263,154.346,12.136,154.408"/>
							</g>
							<g>
								<path fill="#6D6E71" d="M12.565,154.286L149.212,39.344c0.133-0.016,0.277-0.016,0.432-0.002L12.996,154.286
									C12.843,154.27,12.698,154.272,12.565,154.286"/>
							</g>
							<g>
								<path fill="#6D6E71" d="M12.996,154.286L149.644,39.342c0.132,0.012,0.271,0.035,0.42,0.067L13.417,154.352
									C13.269,154.319,13.129,154.296,12.996,154.286"/>
							</g>
							<g>
								<path fill="#6D6E71" d="M13.417,154.352L150.063,39.41c0.137,0.032,0.279,0.071,0.428,0.119L13.845,154.471
									C13.696,154.423,13.554,154.383,13.417,154.352"/>
							</g>
							<g>
								<path fill="#6D6E71" d="M13.845,154.471L150.491,39.528c0.141,0.047,0.287,0.1,0.438,0.162L14.282,154.631
									C14.131,154.571,13.985,154.518,13.845,154.471"/>
							</g>
							<g>
								<path fill="#6D6E71" d="M14.282,154.631L150.929,39.69c0.141,0.057,0.285,0.12,0.435,0.19L14.716,154.823
									C14.568,154.752,14.423,154.688,14.282,154.631"/>
							</g>
							<g>
								<path fill="#6D6E71" d="M14.716,154.823L151.363,39.88c0.146,0.068,0.296,0.144,0.45,0.224L15.167,155.046
									C15.013,154.966,14.863,154.891,14.716,154.823"/>
							</g>
							<g>
								<path fill="#6D6E71" d="M15.167,155.046L151.813,40.104c0.15,0.079,0.305,0.163,0.461,0.252L15.628,155.299
									C15.472,155.209,15.317,155.125,15.167,155.046"/>
							</g>
							<g>
								<path fill="#6D6E71" d="M15.628,155.299L152.274,40.357c0.155,0.089,0.314,0.184,0.476,0.283L16.104,155.582
									C15.942,155.483,15.784,155.388,15.628,155.299"/>
							</g>
							<g>
								<path fill="#6D6E71" d="M16.104,155.582L152.75,40.64c0.161,0.099,0.324,0.203,0.491,0.312L16.596,155.894
									C16.428,155.785,16.264,155.68,16.104,155.582"/>
							</g>
							<g>
								<path fill="#6D6E71" d="M16.596,155.894L153.241,40.952c0.168,0.109,0.339,0.224,0.512,0.344L17.106,156.237
									C16.933,156.118,16.763,156.003,16.596,155.894"/>
							</g>
							<g>
								<path fill="#6D6E71" d="M17.106,156.237L153.753,41.295c0.174,0.12,0.352,0.246,0.531,0.375L17.638,156.614
									C17.458,156.483,17.281,156.358,17.106,156.237"/>
							</g>
							<g>
								<path fill="#6D6E71" d="M17.638,156.613L154.284,41.67c0.183,0.133,0.369,0.27,0.558,0.412L18.196,157.024
									C18.007,156.883,17.821,156.746,17.638,156.613"/>
							</g>
							<g>
								<path fill="#6D6E71" d="M18.196,157.024L154.842,42.082c0.192,0.145,0.385,0.294,0.583,0.448L18.777,157.473
									C18.581,157.319,18.387,157.169,18.196,157.024"/>
							</g>
							<g>
								<path fill="#6D6E71" d="M18.777,157.473L155.425,42.53c0.199,0.156,0.4,0.318,0.605,0.486L19.383,157.958
									C19.18,157.792,18.977,157.629,18.777,157.473"/>
							</g>
							<g>
								<path fill="#6D6E71" d="M19.383,157.958L156.03,43.016c0.205,0.166,0.412,0.337,0.621,0.513L20.005,158.471
									C19.795,158.295,19.588,158.124,19.383,157.958"/>
							</g>
							<g>
								<path fill="#6D6E71" d="M20.005,158.471L156.651,43.529c0.205,0.173,0.414,0.35,0.623,0.532L20.628,159.004
									C20.418,158.822,20.21,158.645,20.005,158.471"/>
							</g>
							<g>
								<path fill="#6D6E71" d="M20.628,159.004L157.274,44.062c0.192,0.167,0.386,0.337,0.581,0.51L21.209,159.514
									C21.014,159.342,20.82,159.17,20.628,159.004"/>
							</g>
							<g>
								<path fill="#6D6E71" d="M21.209,159.514L157.855,44.572c0.18,0.161,0.362,0.325,0.546,0.491L21.755,160.004
									C21.571,159.838,21.389,159.674,21.209,159.514"/>
							</g>
							<g>
								<path fill="#6D6E71" d="M21.755,160.004L158.401,45.063c0.15,0.138,0.303,0.278,0.456,0.419L22.211,160.425
									C22.059,160.284,21.905,160.143,21.755,160.004"/>
							</g>
							<g>
								<path fill="#6D6E71" d="M22.211,160.425L158.857,45.482c0.152,0.142,0.307,0.286,0.462,0.432L22.673,160.857
									C22.519,160.71,22.364,160.567,22.211,160.425"/>
							</g>
							<g>
								<path fill="#6D6E71" d="M22.673,160.857L159.319,45.915c0.111,0.105,0.224,0.211,0.336,0.318L23.009,161.175
									C22.896,161.068,22.785,160.962,22.673,160.857"/>
							</g>
							<g>
								<path fill="#67768A" d="M23.009,161.175L159.655,46.233c0.107,0.104,0.215,0.206,0.322,0.31L23.332,161.485
									C23.223,161.381,23.116,161.278,23.009,161.175"/>
							</g>
							<g>
								<path fill="#68788C" d="M23.332,161.485L159.978,46.543c0.108,0.104,0.217,0.209,0.324,0.315L23.656,161.801
									C23.548,161.694,23.439,161.588,23.332,161.485"/>
							</g>
							<g>
								<path fill="#778396" d="M23.656,161.801L160.302,46.858c0.099,0.094,0.196,0.191,0.293,0.287L23.949,162.088
									C23.851,161.991,23.753,161.895,23.656,161.801"/>
							</g>
							<g>
								<path fill="#7D879A" d="M23.949,162.088L160.595,47.146c0.079,0.078,0.158,0.155,0.236,0.233L24.185,162.321
									C24.105,162.244,24.027,162.166,23.949,162.088"/>
							</g>
							<g>
								<path fill="#818B9D" d="M24.185,162.321L160.831,47.379c0.078,0.078,0.156,0.156,0.235,0.235L24.421,162.557
									C24.341,162.478,24.263,162.399,24.185,162.321"/>
							</g>
							<g>
								<path fill="#858FA0" d="M24.421,162.557L161.066,47.614c0.079,0.079,0.158,0.159,0.237,0.239L24.657,162.795
									C24.578,162.715,24.5,162.635,24.421,162.557"/>
							</g>
							<g>
								<path fill="#8992A3" d="M24.657,162.795L161.304,47.853c0.079,0.08,0.159,0.16,0.238,0.24L24.896,163.036
									C24.815,162.955,24.737,162.875,24.657,162.795"/>
							</g>
							<g>
								<path fill="#8C94A5" d="M24.896,163.036L161.542,48.093c0.074,0.076,0.147,0.151,0.222,0.227L25.117,163.262
									C25.043,163.186,24.969,163.111,24.896,163.036"/>
							</g>
							<g>
								<path fill="#8F97A7" d="M25.117,163.262L161.764,48.32c0.067,0.068,0.134,0.137,0.2,0.207L25.318,163.469
									C25.251,163.399,25.184,163.331,25.117,163.262"/>
							</g>
							<g>
								<path fill="#9299A9" d="M25.318,163.469L161.964,48.526c0.068,0.069,0.135,0.138,0.201,0.208L25.52,163.676
									C25.452,163.607,25.386,163.538,25.318,163.469"/>
							</g>
							<g>
								<path fill="#959CAB" d="M25.52,163.676L162.165,48.735c0.068,0.069,0.136,0.139,0.203,0.209L25.721,163.887
									C25.655,163.817,25.587,163.747,25.52,163.676"/>
							</g>
							<g>
								<path fill="#979EAD" d="M25.721,163.887L162.368,48.944c0.067,0.07,0.135,0.141,0.202,0.212L25.924,164.098
									C25.856,164.028,25.789,163.958,25.721,163.887"/>
							</g>
							<g>
								<path fill="#9AA0AF" d="M25.924,164.098L162.57,49.156c0.067,0.071,0.135,0.143,0.203,0.214L26.126,164.312
									C26.059,164.241,25.992,164.168,25.924,164.098"/>
							</g>
							<g>
								<path fill="#9CA2B0" d="M26.126,164.312L162.773,49.37c0.071,0.076,0.143,0.151,0.215,0.228L26.342,164.54
									C26.27,164.463,26.198,164.387,26.126,164.312"/>
							</g>
							<g>
								<path fill="#9EA4B2" d="M26.342,164.54L162.988,49.598c0.073,0.079,0.148,0.158,0.224,0.238L26.565,164.778
									C26.491,164.699,26.417,164.62,26.342,164.54"/>
							</g>
							<g>
								<path fill="#A0A6B4" d="M26.565,164.778L163.212,49.836c0.074,0.08,0.148,0.16,0.223,0.24L26.789,165.018
									C26.714,164.938,26.639,164.858,26.565,164.778"/>
							</g>
							<g>
								<path fill="#A3A8B5" d="M26.789,165.018L163.435,50.077c0.075,0.08,0.15,0.161,0.225,0.242L27.013,165.26
									C26.938,165.18,26.864,165.098,26.789,165.018"/>
							</g>
							<g>
								<path fill="#A5AAB7" d="M27.013,165.26L163.659,50.318c0.075,0.082,0.15,0.162,0.225,0.244L27.238,165.505
									C27.163,165.422,27.088,165.342,27.013,165.26"/>
							</g>
							<g>
								<path fill="#A7ACB8" d="M27.238,165.505L163.884,50.562c0.095,0.104,0.189,0.208,0.284,0.312L27.522,165.817
									C27.427,165.711,27.331,165.608,27.238,165.505"/>
							</g>
							<g>
								<path fill="#A9ADBA" d="M27.522,165.817L164.168,50.874c0.149,0.165,0.3,0.331,0.45,0.498L27.971,166.314
									C27.821,166.147,27.671,165.981,27.522,165.817"/>
							</g>
							<g>
								<path fill="#ABAFBB" d="M27.971,166.314L164.618,51.372c0.148,0.167,0.299,0.336,0.449,0.504L28.421,166.818
									C28.271,166.649,28.121,166.481,27.971,166.314"/>
							</g>
							<g>
								<path fill="#ACB1BD" d="M28.421,166.818L165.067,51.876c0.199,0.225,0.398,0.453,0.599,0.682L29.02,167.499
									C28.819,167.271,28.62,167.043,28.421,166.818"/>
							</g>
							<g>
								<path fill="#ABAFBB" d="M29.02,167.499L165.666,52.558c0.282,0.323,0.563,0.652,0.847,0.984L29.867,168.485
									C29.583,168.153,29.302,167.825,29.02,167.499"/>
							</g>
							<g>
								<path fill="#A9ADBA" d="M29.867,168.485L166.513,53.542c0.084,0.099,0.169,0.2,0.254,0.3L30.12,168.784
									C30.036,168.683,29.951,168.584,29.867,168.485"/>
							</g>
							<g>
								<path fill="#A7ACB8" d="M30.12,168.784L166.767,53.842c0.085,0.1,0.17,0.201,0.254,0.301L30.374,169.085
									C30.29,168.985,30.206,168.883,30.12,168.784"/>
							</g>
							<g>
								<path fill="#A5AAB7" d="M30.374,169.085L167.021,54.143c0.084,0.101,0.169,0.202,0.254,0.304L30.627,169.389
									C30.543,169.288,30.459,169.187,30.374,169.085"/>
							</g>
							<g>
								<path fill="#A3A8B5" d="M30.627,169.389L167.274,54.447c0.084,0.102,0.169,0.203,0.253,0.305L30.881,169.695
									C30.796,169.592,30.711,169.491,30.627,169.389"/>
							</g>
							<g>
								<path fill="#A0A6B4" d="M30.881,169.695L167.527,54.752c0.043,0.051,0.085,0.104,0.129,0.156
									c0.03,0.037,0.061,0.073,0.091,0.11L31.1,169.961c-0.03-0.037-0.06-0.073-0.089-0.111
									C30.967,169.799,30.923,169.747,30.881,169.695"/>
							</g>
							<g>
								<path fill="#9EA4B2" d="M31.1,169.961L167.747,55.019c0.061,0.075,0.123,0.149,0.184,0.224L31.284,170.186
									C31.223,170.111,31.162,170.036,31.1,169.961"/>
							</g>
							<g>
								<path fill="#9CA2B0" d="M31.284,170.186L167.931,55.243c0.062,0.075,0.122,0.15,0.183,0.224L31.467,170.411
									C31.407,170.335,31.345,170.26,31.284,170.186"/>
							</g>
							<g>
								<path fill="#9AA0AF" d="M31.467,170.411L168.113,55.467c0.062,0.075,0.122,0.149,0.181,0.224L31.648,170.633
									C31.588,170.559,31.527,170.485,31.467,170.411"/>
							</g>
							<g>
								<path fill="#979EAD" d="M31.648,170.633L168.294,55.691c0.061,0.075,0.121,0.15,0.18,0.224L31.828,170.857
									C31.769,170.783,31.708,170.708,31.648,170.633"/>
							</g>
							<g>
								<path fill="#959CAB" d="M31.828,170.857L168.474,55.916c0.061,0.074,0.12,0.148,0.18,0.222L32.006,171.081
									C31.947,171.005,31.888,170.931,31.828,170.857"/>
							</g>
							<g>
								<path fill="#9299A9" d="M32.006,171.081L168.653,56.138c0.059,0.075,0.118,0.148,0.178,0.222L32.184,171.303
									C32.125,171.228,32.066,171.155,32.006,171.081"/>
							</g>
							<g>
								<path fill="#8F97A7" d="M32.184,171.303L168.831,56.36c0.061,0.079,0.123,0.157,0.186,0.235L32.37,171.538
									C32.308,171.459,32.247,171.381,32.184,171.303"/>
							</g>
							<g>
								<path fill="#8C94A5" d="M32.37,171.538L169.017,56.595c0.062,0.078,0.123,0.156,0.184,0.233L32.554,171.771
									C32.493,171.694,32.432,171.616,32.37,171.538"/>
							</g>
							<g>
								<path fill="#8992A3" d="M32.554,171.771L169.2,56.829c0.062,0.079,0.123,0.156,0.184,0.234L32.737,172.005
									C32.676,171.926,32.616,171.849,32.554,171.771"/>
							</g>
							<g>
								<path fill="#858FA0" d="M32.737,172.005L169.384,57.062c0.061,0.078,0.121,0.156,0.182,0.233L32.919,172.237
									C32.859,172.161,32.798,172.083,32.737,172.005"/>
							</g>
							<g>
								<path fill="#818B9D" d="M32.919,172.237L169.565,57.295c0.061,0.078,0.12,0.155,0.18,0.233L33.099,172.47
									C33.04,172.394,32.979,172.316,32.919,172.237"/>
							</g>
							<g>
								<path fill="#7D879A" d="M33.099,172.47L169.745,57.528c0.06,0.077,0.119,0.155,0.179,0.231L33.277,172.703
									C33.218,172.625,33.158,172.547,33.099,172.47"/>
							</g>
							<g>
								<path fill="#778396" d="M33.277,172.703L169.924,57.759c0.074,0.098,0.149,0.195,0.223,0.292L33.5,172.994
									C33.426,172.897,33.352,172.799,33.277,172.703"/>
							</g>
							<g>
								<path fill="#68788C" d="M33.5,172.994L170.146,58.051c0.075,0.1,0.151,0.2,0.228,0.3L33.727,173.293
									C33.651,173.193,33.576,173.092,33.5,172.994"/>
							</g>
							<g>
								<path fill="#67768A" d="M33.727,173.293L170.374,58.351c0.074,0.1,0.149,0.199,0.224,0.298L33.952,173.591
									C33.878,173.492,33.803,173.392,33.727,173.293"/>
							</g>
							<g>
								<path fill="#6D6E71" d="M33.952,173.591L170.598,58.648c0.075,0.1,0.148,0.198,0.223,0.298L34.174,173.888
									C34.1,173.79,34.027,173.69,33.952,173.591"/>
							</g>
							<g>
								<path fill="#6D6E71" d="M34.174,173.888L170.82,58.946c0.077,0.104,0.155,0.209,0.231,0.313L34.406,174.202
									C34.33,174.098,34.252,173.993,34.174,173.888"/>
							</g>
							<g>
								<path fill="#6D6E71" d="M34.406,174.202L171.052,59.259c0.104,0.142,0.208,0.282,0.311,0.422L34.716,174.624
									C34.613,174.483,34.51,174.342,34.406,174.202"/>
							</g>
							<g>
								<path fill="#6D6E71" d="M34.716,174.624L171.362,59.681c0.102,0.14,0.203,0.28,0.305,0.42L35.021,175.043
									C34.92,174.903,34.818,174.764,34.716,174.624"/>
							</g>
							<g>
								<path fill="#6D6E71" d="M35.021,175.043L171.667,60.101c0.1,0.139,0.199,0.278,0.298,0.417L35.318,175.459
									C35.22,175.321,35.12,175.183,35.021,175.043"/>
							</g>
							<g>
								<path fill="#6D6E71" d="M35.318,175.459L171.965,60.518c0.13,0.183,0.259,0.365,0.386,0.546L35.705,176.006
									C35.577,175.825,35.448,175.642,35.318,175.459"/>
							</g>
							<g>
								<path fill="#6D6E71" d="M35.705,176.006L172.351,61.064c0.134,0.19,0.264,0.378,0.394,0.566L36.098,176.572
									C35.969,176.385,35.837,176.196,35.705,176.006"/>
							</g>
							<g>
								<path fill="#6D6E71" d="M36.098,176.572L172.744,61.63c0.142,0.206,0.282,0.411,0.419,0.615L36.518,177.188
									C36.379,176.984,36.24,176.778,36.098,176.572"/>
							</g>
							<g>
								<path fill="#6D6E71" d="M36.518,177.188L173.163,62.245c0.152,0.224,0.301,0.448,0.445,0.668L36.963,177.855
									C36.817,177.634,36.668,177.412,36.518,177.188"/>
							</g>
							<g>
								<path fill="#6D6E71" d="M36.963,177.855L173.608,62.913c0.153,0.23,0.301,0.458,0.447,0.685L37.409,178.54
									C37.264,178.313,37.115,178.085,36.963,177.855"/>
							</g>
							<g>
								<path fill="#6D6E71" d="M37.409,178.54L174.056,63.597c0.15,0.235,0.299,0.466,0.442,0.697L37.852,179.236
									C37.708,179.006,37.561,178.774,37.409,178.54"/>
							</g>
							<g>
								<path fill="#6D6E71" d="M37.852,179.236L174.498,64.294c0.147,0.234,0.29,0.467,0.429,0.696L38.281,179.932
									C38.141,179.704,37.999,179.471,37.852,179.236"/>
							</g>
							<g>
								<path fill="#6D6E71" d="M38.281,179.932L174.927,64.99c0.142,0.231,0.279,0.46,0.412,0.687L38.692,180.619
									C38.559,180.392,38.422,180.165,38.281,179.932"/>
							</g>
							<g>
								<path fill="#6D6E71" d="M38.692,180.619L175.339,65.677c0.137,0.233,0.27,0.463,0.398,0.69L39.091,181.308
									C38.961,181.083,38.829,180.852,38.692,180.619"/>
							</g>
							<g>
								<path fill="#6D6E71" d="M39.091,181.308L175.737,66.367c0.131,0.229,0.256,0.455,0.377,0.678L39.47,181.987
									C39.348,181.766,39.221,181.539,39.091,181.308"/>
							</g>
							<g>
								<path fill="#6D6E71" d="M39.47,181.987L176.114,67.045c0.127,0.231,0.248,0.459,0.363,0.681L39.832,182.668
									C39.717,182.445,39.594,182.218,39.47,181.987"/>
							</g>
							<g>
								<path fill="#6D6E71" d="M39.832,182.668L176.478,67.726c0.122,0.234,0.238,0.462,0.35,0.686L40.18,183.354
									C40.07,183.13,39.953,182.901,39.832,182.668"/>
							</g>
							<g>
								<path fill="#6D6E71" d="M40.18,183.354L176.827,68.412c0.114,0.232,0.223,0.46,0.326,0.682L40.507,184.036
									C40.404,183.815,40.295,183.586,40.18,183.354"/>
							</g>
							<g>
								<path fill="#6D6E71" d="M40.507,184.036L177.153,69.094c0.113,0.244,0.217,0.48,0.315,0.712L40.823,184.749
									C40.725,184.518,40.619,184.28,40.507,184.036"/>
							</g>
							<g>
								<path fill="#6D6E71" d="M40.823,184.748L177.469,69.807c0.107,0.254,0.208,0.501,0.298,0.739L41.119,185.489
									C41.03,185.25,40.93,185.002,40.823,184.748"/>
							</g>
							<g>
								<path fill="#6D6E71" d="M41.119,185.489L177.767,70.546c0.104,0.273,0.193,0.536,0.272,0.787L41.393,186.275
									C41.314,186.024,41.222,185.762,41.119,185.489"/>
							</g>
							<g>
								<path fill="#6D6E71" d="M41.393,186.275L178.039,71.333c0.101,0.316,0.18,0.614,0.238,0.892L41.631,187.167
									C41.572,186.889,41.492,186.591,41.393,186.275"/>
							</g>
							<g>
								<path fill="#6D6E71" d="M41.631,187.167L178.277,72.225c0.237,1.116,0.146,1.913-0.317,2.303L41.313,189.469
									C41.777,189.079,41.869,188.284,41.631,187.167"/>
							</g>
						</g>
					</g>
				</g>
			</g>
		</g>
	</g>
	<g>
		<g>
			<polygon fill="#A7A9AC" points="70.761,162.641 57.175,182.429 61.638,182.993 75.079,163.187 			"/>
		</g>
		<g>
			<polygon points="130.755,191.726 126.238,199.553 124.984,209.476 129.41,202.376 			"/>
		</g>
		<g>
			<path fill="#BCBEC0" d="M44.17,168.352c0,0-5.293-1.986-7.602,1.657c-2.309,3.643,5.773,4.832,7.716,5.414
				c1.942,0.581,15.171,3.684,15.171,3.684l3.921-5.71L44.17,168.352z M43.577,172.865c-1.996-0.343-3.504-1.257-3.369-2.041
				c0.135-0.783,1.862-1.139,3.858-0.793c1.996,0.344,3.504,1.257,3.369,2.041C47.3,172.855,45.573,173.209,43.577,172.865z"/>
		</g>
		<g>
			<path fill="#BCBEC0" d="M43.027,182.381c0,0-5.293-1.985-7.601,1.656c-2.309,3.644,5.773,4.833,7.716,5.414
				c1.942,0.581,15.17,3.686,15.17,3.686l3.921-5.711L43.027,182.381z M42.435,186.893c-1.996-0.343-3.504-1.256-3.369-2.04
				c0.135-0.784,1.862-1.139,3.858-0.794c1.996,0.344,3.504,1.257,3.369,2.042C46.157,186.884,44.431,187.239,42.435,186.893z"/>
		</g>
		<g>
			
				<rect x="55.13" y="182.583" transform="matrix(-0.9921 -0.1252 0.1252 -0.9921 89.4168 403.1203)" fill="#58595B" width="4.499" height="32.332"/>
		</g>
		<g>
			<polygon points="75.079,163.187 61.638,182.993 57.585,215.07 70.734,198.756 			"/>
		</g>
		<g>
			<path fill="#414042" d="M64.449,183.348l0.285,19.019c0,0,10.847,4.563,24.472,3.092c13.625-1.47,20.422,1.909,20.422,1.909
				s2.405-5.744,4.721-5.451c2.315,0.293,0.55,6.285,0.55,6.285l10.086,1.274l1.254-9.923l-26.928-6.258c0,0-3.49,3.706-9.451,3.006
				c-4.304-0.507-2.49-8.211-2.49-8.211L64.449,183.348z"/>
		</g>
		<g>
			<path fill="#939598" d="M64.449,183.348l22.92,4.742c0,0-2.259,7.688,2.036,8.611c5.156,1.111,9.905-3.406,9.905-3.406
				l26.928,6.258l4.517-7.827l-22.649-5.551c0,0-1.18,1.361-2.647,1.01c-1.467-0.354-0.183-2.543-0.183-2.543l-31.117-14.18
				L64.449,183.348z"/>
		</g>
	</g>
</g>
</svg>
