<?xml version="1.0" encoding="utf-8"?>
<!-- Generator: Adobe Illustrator 15.0.0, SVG Export Plug-In . SVG Version: 6.00 Build 0)  -->
<!DOCTYPE svg PUBLIC "-//W3C//DTD SVG 1.1//EN" "http://www.w3.org/Graphics/SVG/1.1/DTD/svg11.dtd">
<svg version="1.1" xmlns="http://www.w3.org/2000/svg" xmlns:xlink="http://www.w3.org/1999/xlink" x="0px" y="0px"
	 width="489.616px" height="483.5px" viewBox="0 0 489.616 483.5" enable-background="new 0 0 489.616 483.5" xml:space="preserve">
<g id="base">
</g>
<g id="main_components">
</g>
<g id="display">
</g>
<g id="Text">
	<g>
		<rect fill="#009444" width="489.616" height="483.5"/>
		<rect y="230.766" fill="#006838" width="489.616" height="252.734"/>
		<circle fill="#484748" cx="217.282" cy="396.312" r="18.75"/>
		<polygon fill="#DCDBDB" points="13.427,478.223 8.136,469.058 13.427,459.893 24.011,459.893 29.302,469.058 24.011,478.223 		"/>
		<polyline fill="#FFFFFF" points="8.136,469.058 13.427,459.893 24.011,459.893 29.302,469.058 		"/>
		<line fill="none" stroke="#808285" stroke-miterlimit="10" x1="130.816" y1="340.625" x2="176.616" y2="340.625"/>
		<rect x="113.912" y="465.513" width="17.658" height="17.987"/>
		<rect x="101.616" y="422.687" fill="#DCDBDB" width="4.625" height="15.563"/>
		<rect x="120.178" y="422.687" fill="#DCDBDB" width="4.625" height="15.563"/>
		<rect x="139.116" y="422.687" fill="#DCDBDB" width="4.625" height="15.563"/>
		<rect x="95.366" y="437.249" fill="#ED1C24" width="54.25" height="25.51"/>
		<circle fill="#CFCECE" cx="204.902" cy="342.063" r="10.375"/>
		<circle fill="#514D4E" cx="28.616" cy="350" r="23"/>
		<g>
			<path fill="#FFFFFF" d="M17.949,259.529c3.492,0,6.333,2.842,6.333,6.334s-2.841,6.333-6.333,6.333s-6.333-2.841-6.333-6.333
				S14.457,259.529,17.949,259.529 M17.949,257.529c-4.602,0-8.333,3.731-8.333,8.334s3.731,8.333,8.333,8.333
				s8.333-3.73,8.333-8.333S22.551,257.529,17.949,257.529L17.949,257.529z"/>
		</g>
		<g>
			<path fill="#FFFFFF" d="M437.116,458.724c3.492,0,6.333,2.842,6.333,6.334s-2.841,6.333-6.333,6.333s-6.334-2.841-6.334-6.333
				S433.624,458.724,437.116,458.724 M437.116,456.724c-4.603,0-8.334,3.731-8.334,8.334s3.731,8.333,8.334,8.333
				c4.602,0,8.333-3.73,8.333-8.333S441.717,456.724,437.116,456.724L437.116,456.724z"/>
		</g>
		<rect x="394.866" y="288.5" fill="#FFFFFF" width="7" height="5.25"/>
		<rect x="405.366" y="288.5" fill="#FFFFFF" width="7" height="5.25"/>
		<rect x="416.366" y="288.5" fill="#FFFFFF" width="7" height="5.25"/>
		<rect x="426.866" y="288.5" fill="#FFFFFF" width="7" height="5.25"/>
		<rect x="437.366" y="288.5" fill="#FFFFFF" width="7" height="5.25"/>
		<rect x="447.866" y="288.5" fill="#FFFFFF" width="7" height="5.25"/>
		<rect x="458.616" y="288.5" fill="#FFFFFF" width="7" height="5.25"/>
		<rect x="396.741" y="317.798" transform="matrix(1 -0.0015 0.0015 1 -0.4912 0.6146)" fill="#FFFFFF" width="7" height="5.25"/>
		<rect x="407.241" y="317.783" transform="matrix(1 -0.0015 0.0015 1 -0.4912 0.6307)" fill="#FFFFFF" width="7" height="5.25"/>
		<rect x="418.241" y="317.766" transform="matrix(1 -0.0015 0.0015 1 -0.4912 0.6476)" fill="#FFFFFF" width="7" height="5.25"/>
		<rect x="428.741" y="317.75" transform="matrix(1 -0.0015 0.0015 1 -0.4911 0.6637)" fill="#FFFFFF" width="7" height="5.25"/>
		<rect x="439.241" y="317.734" transform="matrix(1 -0.0015 0.0015 1 -0.4911 0.6798)" fill="#FFFFFF" width="7" height="5.25"/>
		<rect x="449.741" y="317.718" transform="matrix(1 -0.0015 0.0015 1 -0.4911 0.696)" fill="#FFFFFF" width="7" height="5.25"/>
		<rect x="460.491" y="317.702" transform="matrix(1 -0.0015 0.0015 1 -0.491 0.7124)" fill="#FFFFFF" width="7" height="5.25"/>
		<rect x="392.116" y="293.75" width="80" height="24"/>
		<rect x="280.866" y="259.196" fill="#FFFFFF" width="7" height="5.25"/>
		<rect x="291.366" y="259.196" fill="#FFFFFF" width="7" height="5.25"/>
		<rect x="301.366" y="259.196" fill="#FFFFFF" width="7" height="5.25"/>
		<rect x="249.616" y="259.196" fill="#FFFFFF" width="7" height="5.25"/>
		<rect x="260.116" y="259.196" fill="#FFFFFF" width="7" height="5.25"/>
		<rect x="270.116" y="259.196" fill="#FFFFFF" width="7" height="5.25"/>
		<rect x="249.866" y="288.5" fill="#FFFFFF" width="7" height="5.25"/>
		<rect x="260.366" y="288.5" fill="#FFFFFF" width="7" height="5.25"/>
		<rect x="270.366" y="288.5" fill="#FFFFFF" width="7" height="5.25"/>
		<rect x="312.866" y="259.196" fill="#FFFFFF" width="7" height="5.25"/>
		<rect x="323.366" y="259.196" fill="#FFFFFF" width="7" height="5.25"/>
		<rect x="333.866" y="259.196" fill="#FFFFFF" width="7" height="5.25"/>
		<rect x="344.616" y="259.196" fill="#FFFFFF" width="7" height="5.25"/>
		<rect x="280.741" y="288.495" transform="matrix(1 -0.0015 0.0015 1 -0.4464 0.4365)" fill="#FFFFFF" width="7" height="5.25"/>
		<rect x="291.241" y="288.479" transform="matrix(1 -0.0015 0.0015 1 -0.4464 0.4526)" fill="#FFFFFF" width="7" height="5.25"/>
		<rect x="302.241" y="288.462" transform="matrix(1 -0.0015 0.0015 1 -0.4464 0.4695)" fill="#FFFFFF" width="7" height="5.25"/>
		<rect x="312.741" y="288.446" transform="matrix(1 -0.0015 0.0015 1 -0.4463 0.4856)" fill="#FFFFFF" width="7" height="5.25"/>
		<rect x="323.241" y="288.43" transform="matrix(1 -0.0015 0.0015 1 -0.4463 0.5017)" fill="#FFFFFF" width="7" height="5.25"/>
		<rect x="333.741" y="288.415" transform="matrix(1 -0.0015 0.0015 1 -0.4462 0.5179)" fill="#FFFFFF" width="7" height="5.25"/>
		<rect x="344.491" y="288.398" transform="matrix(1 -0.0015 0.0015 1 -0.4462 0.5344)" fill="#FFFFFF" width="7" height="5.25"/>
		<rect x="245.616" y="264.446" width="110.5" height="24"/>
		<rect x="357.782" y="274.584" width="16.001" height="6.917"/>
		<rect x="168.616" y="259.196" fill="#FFFFFF" width="7" height="5.25"/>
		<rect x="179.116" y="259.196" fill="#FFFFFF" width="7" height="5.25"/>
		<rect x="189.116" y="259.196" fill="#FFFFFF" width="7" height="5.25"/>
		<rect x="137.366" y="259.196" fill="#FFFFFF" width="7" height="5.25"/>
		<rect x="147.866" y="259.196" fill="#FFFFFF" width="7" height="5.25"/>
		<rect x="157.866" y="259.196" fill="#FFFFFF" width="7" height="5.25"/>
		<rect x="137.616" y="288.5" fill="#FFFFFF" width="7" height="5.25"/>
		<rect x="148.116" y="288.5" fill="#FFFFFF" width="7" height="5.25"/>
		<rect x="158.116" y="288.5" fill="#FFFFFF" width="7" height="5.25"/>
		<rect x="200.616" y="259.196" fill="#FFFFFF" width="7" height="5.25"/>
		<rect x="211.116" y="259.196" fill="#FFFFFF" width="7" height="5.25"/>
		<rect x="221.616" y="259.196" fill="#FFFFFF" width="7" height="5.25"/>
		<rect x="232.366" y="259.196" fill="#FFFFFF" width="7" height="5.25"/>
		<rect x="168.491" y="288.495" transform="matrix(1 -0.0015 0.0015 1 -0.4465 0.2643)" fill="#FFFFFF" width="7" height="5.25"/>
		<rect x="178.991" y="288.479" transform="matrix(1 -0.0015 0.0015 1 -0.4465 0.2804)" fill="#FFFFFF" width="7" height="5.25"/>
		<rect x="189.991" y="288.462" transform="matrix(1 -0.0015 0.0015 1 -0.4465 0.2973)" fill="#FFFFFF" width="7" height="5.25"/>
		<rect x="200.491" y="288.446" transform="matrix(1 -0.0015 0.0015 1 -0.4464 0.3134)" fill="#FFFFFF" width="7" height="5.25"/>
		<rect x="210.991" y="288.43" transform="matrix(1 -0.0015 0.0015 1 -0.4464 0.3295)" fill="#FFFFFF" width="7" height="5.25"/>
		<rect x="221.491" y="288.415" transform="matrix(1 -0.0015 0.0015 1 -0.4464 0.3456)" fill="#FFFFFF" width="7" height="5.25"/>
		<rect x="232.241" y="288.398" transform="matrix(1 -0.0015 0.0015 1 -0.4463 0.3621)" fill="#FFFFFF" width="7" height="5.25"/>
		<rect x="133.366" y="264.446" width="110.5" height="24"/>
		<rect x="89.616" y="58.875" width="104.75" height="5.5"/>
		<rect x="199.241" y="58.875" width="104.75" height="5.5"/>
		<rect x="307.491" y="58.875" width="104.75" height="5.5"/>
		<rect x="384.116" y="340.5" fill="#FFFFFF" width="7" height="5.25"/>
		<rect x="394.616" y="340.5" fill="#FFFFFF" width="7" height="5.25"/>
		<rect x="405.616" y="340.5" fill="#FFFFFF" width="7" height="5.25"/>
		<rect x="416.116" y="340.5" fill="#FFFFFF" width="7" height="5.25"/>
		<rect x="426.616" y="340.5" fill="#FFFFFF" width="7" height="5.25"/>
		<rect x="437.116" y="340.5" fill="#FFFFFF" width="7" height="5.25"/>
		<rect x="447.866" y="340.5" fill="#FFFFFF" width="7" height="5.25"/>
		<rect x="458.616" y="340.5" fill="#FFFFFF" width="7" height="5.25"/>
		<rect x="385.991" y="369.798" transform="matrix(1 -0.0015 0.0015 1 -0.5711 0.5982)" fill="#FFFFFF" width="7" height="5.25"/>
		<rect x="396.491" y="369.783" transform="matrix(1 -0.0015 0.0015 1 -0.571 0.6143)" fill="#FFFFFF" width="7" height="5.25"/>
		<rect x="407.491" y="369.766" transform="matrix(1 -0.0015 0.0015 1 -0.571 0.6312)" fill="#FFFFFF" width="7" height="5.25"/>
		<rect x="417.991" y="369.75" transform="matrix(1 -0.0015 0.0015 1 -0.571 0.6473)" fill="#FFFFFF" width="7" height="5.25"/>
		<rect x="428.491" y="369.734" transform="matrix(1 -0.0015 0.0015 1 -0.5709 0.6634)" fill="#FFFFFF" width="7" height="5.25"/>
		<rect x="438.991" y="369.718" transform="matrix(1 -0.0015 0.0015 1 -0.5709 0.6795)" fill="#FFFFFF" width="7" height="5.25"/>
		<rect x="448.741" y="369.702" transform="matrix(1 -0.0015 0.0015 1 -0.5708 0.6945)" fill="#FFFFFF" width="7" height="5.25"/>
		<rect x="458.616" y="369.702" transform="matrix(1 -0.0015 0.0015 1 -0.5708 0.7096)" fill="#FFFFFF" width="7" height="5.25"/>
		<rect x="381.366" y="345.75" width="86.129" height="24"/>
		<rect x="386.301" y="407.25" fill="#FFFFFF" width="7" height="5.25"/>
		<rect x="396.801" y="407.25" fill="#FFFFFF" width="7" height="5.25"/>
		<rect x="407.801" y="407.25" fill="#FFFFFF" width="7" height="5.25"/>
		<rect x="418.301" y="407.25" fill="#FFFFFF" width="7" height="5.25"/>
		<rect x="428.801" y="407.25" fill="#FFFFFF" width="7" height="5.25"/>
		<rect x="439.301" y="407.25" fill="#FFFFFF" width="7" height="5.25"/>
		<rect x="450.051" y="407.25" fill="#FFFFFF" width="7" height="5.25"/>
		<rect x="460.801" y="407.25" fill="#FFFFFF" width="7" height="5.25"/>
		<rect x="388.176" y="436.548" transform="matrix(1 -0.0015 0.0015 1 -0.6735 0.6016)" fill="#FFFFFF" width="7" height="5.25"/>
		<rect x="398.676" y="436.533" transform="matrix(1 -0.0015 0.0015 1 -0.6734 0.6177)" fill="#FFFFFF" width="7" height="5.25"/>
		<rect x="409.676" y="436.516" transform="matrix(1 -0.0015 0.0015 1 -0.6734 0.6346)" fill="#FFFFFF" width="7" height="5.25"/>
		<rect x="420.176" y="436.5" transform="matrix(1 -0.0015 0.0015 1 -0.6734 0.6507)" fill="#FFFFFF" width="7" height="5.25"/>
		<rect x="430.676" y="436.484" transform="matrix(1 -0.0015 0.0015 1 -0.6733 0.6668)" fill="#FFFFFF" width="7" height="5.25"/>
		<rect x="441.176" y="436.468" transform="matrix(1 -0.0015 0.0015 1 -0.6733 0.6829)" fill="#FFFFFF" width="7" height="5.25"/>
		<rect x="450.926" y="436.452" transform="matrix(1 -0.0015 0.0015 1 -0.6732 0.6979)" fill="#FFFFFF" width="7" height="5.25"/>
		<rect x="460.801" y="436.452" transform="matrix(1 -0.0015 0.0015 1 -0.6732 0.713)" fill="#FFFFFF" width="7" height="5.25"/>
		<rect x="383.551" y="412.5" width="86.129" height="24"/>
		<rect x="417.866" y="59.25" fill="#6D6D6D" width="47.5" height="8.75"/>
		<rect x="423.116" y="60.7" width="5.75" height="5.75"/>
		<rect x="433.699" y="60.775" width="5.5" height="5.5"/>
		<rect x="444.033" y="60.625" width="5.75" height="5.75"/>
		<rect x="454.616" y="60.8" width="5.5" height="5.5"/>
		<g>
			<rect x="325.116" y="6.617" fill="#6D6D6D" width="85" height="8.75"/>
			<rect x="329.366" y="8.067" width="5.75" height="5.75"/>
			<rect x="339.616" y="8.192" width="5.5" height="5.5"/>
			<rect x="349.616" y="7.992" width="5.75" height="5.75"/>
			<rect x="359.866" y="8.167" width="5.5" height="5.5"/>
			<rect x="369.866" y="8.142" width="5.5" height="5.5"/>
			<rect x="379.866" y="8.117" width="5.5" height="5.5"/>
			<rect x="389.866" y="8.217" width="5.5" height="5.5"/>
			<rect x="399.866" y="8.092" width="5.5" height="5.5"/>
		</g>
		<g>
			<rect x="325.116" y="17.225" fill="#6D6D6D" width="85" height="8.75"/>
			<rect x="329.366" y="18.675" width="5.75" height="5.75"/>
			<rect x="339.616" y="18.8" width="5.5" height="5.5"/>
			<rect x="349.616" y="18.6" width="5.75" height="5.75"/>
			<rect x="359.866" y="18.775" width="5.5" height="5.5"/>
			<rect x="369.866" y="18.75" width="5.5" height="5.5"/>
			<rect x="379.866" y="18.725" width="5.5" height="5.5"/>
			<rect x="389.866" y="18.825" width="5.5" height="5.5"/>
			<rect x="399.866" y="18.7" width="5.5" height="5.5"/>
		</g>
		<g>
			<rect x="325.116" y="38.975" fill="#6D6D6D" width="85" height="8.75"/>
			<rect x="329.366" y="40.425" width="5.75" height="5.75"/>
			<rect x="339.616" y="40.55" width="5.5" height="5.5"/>
			<rect x="349.616" y="40.35" width="5.75" height="5.75"/>
			<rect x="359.866" y="40.525" width="5.5" height="5.5"/>
			<rect x="369.866" y="40.5" width="5.5" height="5.5"/>
			<rect x="379.866" y="40.475" width="5.5" height="5.5"/>
			<rect x="389.866" y="40.575" width="5.5" height="5.5"/>
			<rect x="399.866" y="40.45" width="5.5" height="5.5"/>
		</g>
		<g>
			<rect x="217.616" y="6.617" fill="#6D6D6D" width="85" height="8.75"/>
			<rect x="221.866" y="8.067" width="5.75" height="5.75"/>
			<rect x="232.116" y="8.192" width="5.5" height="5.5"/>
			<rect x="242.116" y="7.992" width="5.75" height="5.75"/>
			<rect x="252.366" y="8.167" width="5.5" height="5.5"/>
			<rect x="262.366" y="8.142" width="5.5" height="5.5"/>
			<rect x="272.366" y="8.117" width="5.5" height="5.5"/>
			<rect x="282.366" y="8.217" width="5.5" height="5.5"/>
			<rect x="292.366" y="8.092" width="5.5" height="5.5"/>
		</g>
		<g>
			<rect x="217.616" y="17.225" fill="#6D6D6D" width="85" height="8.75"/>
			<rect x="221.866" y="18.675" width="5.75" height="5.75"/>
			<rect x="232.116" y="18.8" width="5.5" height="5.5"/>
			<rect x="242.116" y="18.6" width="5.75" height="5.75"/>
			<rect x="252.366" y="18.775" width="5.5" height="5.5"/>
			<rect x="262.366" y="18.75" width="5.5" height="5.5"/>
			<rect x="272.366" y="18.725" width="5.5" height="5.5"/>
			<rect x="282.366" y="18.825" width="5.5" height="5.5"/>
			<rect x="292.366" y="18.7" width="5.5" height="5.5"/>
		</g>
		<g>
			<rect x="217.616" y="38.975" fill="#6D6D6D" width="85" height="8.75"/>
			<rect x="221.866" y="40.425" width="5.75" height="5.75"/>
			<rect x="232.116" y="40.55" width="5.5" height="5.5"/>
			<rect x="242.116" y="40.35" width="5.75" height="5.75"/>
			<rect x="252.366" y="40.525" width="5.5" height="5.5"/>
			<rect x="262.366" y="40.5" width="5.5" height="5.5"/>
			<rect x="272.366" y="40.475" width="5.5" height="5.5"/>
			<rect x="282.366" y="40.575" width="5.5" height="5.5"/>
			<rect x="292.366" y="40.45" width="5.5" height="5.5"/>
		</g>
		<g>
			<rect x="109.366" y="7.992" fill="#6D6D6D" width="85" height="8.75"/>
			<rect x="113.616" y="9.442" width="5.75" height="5.75"/>
			<rect x="123.866" y="9.567" width="5.5" height="5.5"/>
			<rect x="133.866" y="9.367" width="5.75" height="5.75"/>
			<rect x="144.116" y="9.542" width="5.5" height="5.5"/>
			<rect x="154.116" y="9.517" width="5.5" height="5.5"/>
			<rect x="164.116" y="9.492" width="5.5" height="5.5"/>
			<rect x="174.116" y="9.592" width="5.5" height="5.5"/>
			<rect x="184.116" y="9.467" width="5.5" height="5.5"/>
		</g>
		<g>
			<rect x="109.366" y="18.6" fill="#6D6D6D" width="85" height="8.75"/>
			<rect x="113.616" y="20.05" width="5.75" height="5.75"/>
			<rect x="123.866" y="20.175" width="5.5" height="5.5"/>
			<rect x="133.866" y="19.975" width="5.75" height="5.75"/>
			<rect x="144.116" y="20.15" width="5.5" height="5.5"/>
			<rect x="154.116" y="20.125" width="5.5" height="5.5"/>
			<rect x="164.116" y="20.1" width="5.5" height="5.5"/>
			<rect x="174.116" y="20.2" width="5.5" height="5.5"/>
			<rect x="184.116" y="20.075" width="5.5" height="5.5"/>
		</g>
		<g>
			<rect x="109.366" y="40.35" fill="#6D6D6D" width="85" height="8.75"/>
			<rect x="113.616" y="41.8" width="5.75" height="5.75"/>
			<rect x="123.866" y="41.925" width="5.5" height="5.5"/>
			<rect x="133.866" y="41.725" width="5.75" height="5.75"/>
			<rect x="144.116" y="41.9" width="5.5" height="5.5"/>
			<rect x="154.116" y="41.875" width="5.5" height="5.5"/>
			<rect x="164.116" y="41.85" width="5.5" height="5.5"/>
			<rect x="174.116" y="41.95" width="5.5" height="5.5"/>
			<rect x="184.116" y="41.825" width="5.5" height="5.5"/>
		</g>
		<g>
			<rect x="34.367" y="40.55" fill="#6D6D6D" width="65" height="8.75"/>
			<rect x="38.867" y="41.925" width="5.75" height="5.75"/>
			<rect x="49.117" y="42.101" width="5.5" height="5.5"/>
			<rect x="59.117" y="42.075" width="5.5" height="5.5"/>
			<rect x="69.117" y="42.05" width="5.5" height="5.5"/>
			<rect x="79.117" y="42.15" width="5.5" height="5.5"/>
			<rect x="89.117" y="42.025" width="5.5" height="5.5"/>
		</g>
		<g>
			<rect x="348.116" y="130.167" fill="#6D6D6D" width="8.75" height="30.417"/>
			<rect x="349.866" y="132.417" width="5.5" height="5.5"/>
			<rect x="349.765" y="142.417" width="5.5" height="5.5"/>
			<rect x="349.89" y="152.417" width="5.5" height="5.5"/>
		</g>
		<g>
			<rect x="348.265" y="170.251" fill="#6D6D6D" width="8.75" height="30.417"/>
			<rect x="350.015" y="172.501" width="5.5" height="5.5"/>
			<rect x="349.915" y="182.501" width="5.5" height="5.5"/>
			<rect x="350.04" y="192.501" width="5.5" height="5.5"/>
		</g>
		<g>
			<rect x="348.116" y="206.792" fill="#6D6D6D" width="8.75" height="30.417"/>
			<rect x="349.866" y="209.042" width="5.5" height="5.5"/>
			<rect x="349.765" y="219.042" width="5.5" height="5.5"/>
			<rect x="349.89" y="229.042" width="5.5" height="5.5"/>
		</g>
		<g>
			<rect x="34.367" y="7.992" fill="#6D6D6D" width="65" height="8.75"/>
			<rect x="38.867" y="9.367" width="5.75" height="5.75"/>
			<rect x="49.117" y="9.542" width="5.5" height="5.5"/>
			<rect x="59.117" y="9.517" width="5.5" height="5.5"/>
			<rect x="69.117" y="9.492" width="5.5" height="5.5"/>
			<rect x="79.117" y="9.592" width="5.5" height="5.5"/>
			<rect x="89.117" y="9.467" width="5.5" height="5.5"/>
		</g>
		<g>
			<rect x="34.367" y="18.6" fill="#6D6D6D" width="65" height="8.75"/>
			<rect x="38.867" y="19.975" width="5.75" height="5.75"/>
			<rect x="49.117" y="20.15" width="5.5" height="5.5"/>
			<rect x="59.117" y="20.125" width="5.5" height="5.5"/>
			<rect x="69.117" y="20.1" width="5.5" height="5.5"/>
			<rect x="79.117" y="20.2" width="5.5" height="5.5"/>
			<rect x="89.117" y="20.075" width="5.5" height="5.5"/>
		</g>
		<rect x="417.616" y="77.375" fill="#6D6D6D" width="47.5" height="8.75"/>
		<rect x="422.866" y="78.825" width="5.75" height="5.75"/>
		<rect x="433.449" y="78.9" width="5.5" height="5.5"/>
		<rect x="443.783" y="78.75" width="5.75" height="5.75"/>
		<rect x="454.366" y="78.925" width="5.5" height="5.5"/>
		<rect x="417.616" y="100.375" fill="#6D6D6D" width="47.5" height="8.75"/>
		<rect x="422.866" y="101.825" width="5.75" height="5.75"/>
		<rect x="433.449" y="101.9" width="5.5" height="5.5"/>
		<rect x="443.783" y="101.75" width="5.75" height="5.75"/>
		<rect x="454.366" y="101.925" width="5.5" height="5.5"/>
		<rect x="417.366" y="118.5" fill="#6D6D6D" width="47.5" height="8.75"/>
		<rect x="422.616" y="119.95" width="5.75" height="5.75"/>
		<rect x="433.199" y="120.025" width="5.5" height="5.5"/>
		<rect x="443.533" y="119.875" width="5.75" height="5.75"/>
		<rect x="454.116" y="120.05" width="5.5" height="5.5"/>
		<rect x="15.282" y="293.75" fill="#FFF200" width="85.333" height="12"/>
		<rect x="57.949" y="276.446" opacity="0.8" fill="#12381C" width="42.667" height="17.207"/>
		<rect x="397.366" y="147.917" fill="#ED1C24" width="20" height="6.333"/>
		<rect x="199.241" y="5.942" fill="#00AEEF" width="10.375" height="20"/>
		<rect x="309.241" y="6.742" fill="#00AEEF" width="10.375" height="20"/>
		<rect x="397.366" y="164.405" fill="#8DC63F" width="20" height="6.333"/>
		<rect x="397.366" y="197.381" fill="#8DC63F" width="20" height="6.333"/>
		<rect x="397.366" y="230.357" fill="#8DC63F" width="20" height="6.333"/>
		<rect x="397.366" y="263.334" fill="#8DC63F" width="20" height="6.333"/>
		<rect x="397.366" y="180.893" fill="#ED1C24" width="20" height="6.333"/>
		<rect x="397.366" y="213.869" fill="#ED1C24" width="20" height="6.333"/>
		<rect x="397.366" y="246.845" fill="#ED1C24" width="20" height="6.333"/>
		<g>
			<rect x="422.991" y="146.1" fill="#6D6D6D" width="8.75" height="123.9"/>
			<rect x="424.541" y="150.35" width="5.75" height="5.75"/>
			<rect x="424.666" y="160.6" width="5.5" height="5.5"/>
			<rect x="424.616" y="170.6" width="5.75" height="5.75"/>
			<rect x="424.69" y="180.85" width="5.5" height="5.5"/>
			<rect x="424.715" y="190.85" width="5.5" height="5.5"/>
			<rect x="424.741" y="200.85" width="5.5" height="5.5"/>
			<rect x="424.64" y="210.85" width="5.501" height="5.5"/>
			<rect x="424.765" y="220.85" width="5.501" height="5.5"/>
			<rect x="424.778" y="230.321" width="5.5" height="5.5"/>
			<rect x="424.803" y="240.321" width="5.5" height="5.5"/>
			<rect x="424.703" y="250.321" width="5.501" height="5.5"/>
			<rect x="424.828" y="260.321" width="5.501" height="5.5"/>
		</g>
		<rect x="440.408" y="148" width="17.75" height="122.083"/>
		<rect x="457.616" y="148" fill="#666766" width="5" height="122.083"/>
		<circle fill="#FFFFFF" cx="447.991" cy="156.875" r="5.812"/>
		<circle fill="#FFFFFF" cx="361.947" cy="278.042" r="0.938"/>
		<circle fill="#FFFFFF" cx="369.553" cy="278.043" r="0.938"/>
		<circle fill="#FFFFFF" cx="361.489" cy="246.845" r="0.938"/>
		<circle fill="#FFFFFF" cx="361.489" cy="256.833" r="0.938"/>
		<circle fill="#FFFFFF" cx="361.489" cy="268.167" r="0.938"/>
		<circle fill="#FFFFFF" cx="370.989" cy="246.845" r="0.938"/>
		<circle fill="#FFFFFF" cx="370.989" cy="256.833" r="0.938"/>
		<circle fill="#FFFFFF" cx="370.989" cy="268.167" r="0.938"/>
		<rect x="357.782" y="284.934" width="16.001" height="6.917"/>
		<circle fill="#FFFFFF" cx="361.947" cy="288.392" r="0.938"/>
		<circle fill="#FFFFFF" cx="369.553" cy="288.393" r="0.938"/>
		<rect x="357.782" y="295.309" width="16.001" height="6.917"/>
		<circle fill="#FFFFFF" cx="361.947" cy="298.767" r="0.938"/>
		<circle fill="#FFFFFF" cx="369.553" cy="298.768" r="0.938"/>
		<circle fill="#FFFFFF" cx="447.991" cy="260.321" r="5.812"/>
		<circle fill="#FFFFFF" cx="447.991" cy="245.543" r="5.812"/>
		<circle fill="#FFFFFF" cx="447.991" cy="230.765" r="5.812"/>
		<circle fill="#FFFFFF" cx="447.991" cy="215.987" r="5.812"/>
		<circle fill="#FFFFFF" cx="447.991" cy="201.209" r="5.812"/>
		<circle fill="#FFFFFF" cx="447.991" cy="186.431" r="5.812"/>
		<circle fill="#FFFFFF" cx="447.991" cy="171.653" r="5.812"/>
		<line fill="#FFFFFF" stroke="#898989" stroke-miterlimit="10" x1="447.991" y1="153.15" x2="447.991" y2="160.6"/>
		<line fill="#FFFFFF" stroke="#898989" stroke-miterlimit="10" x1="451.715" y1="171.501" x2="444.266" y2="171.501"/>
		<line fill="#FFFFFF" stroke="#898989" stroke-miterlimit="10" x1="451.715" y1="201.057" x2="444.266" y2="201.057"/>
		<line fill="#FFFFFF" stroke="#898989" stroke-miterlimit="10" x1="450.624" y1="189.065" x2="445.357" y2="183.798"/>
		<line fill="#FFFFFF" stroke="#898989" stroke-miterlimit="10" x1="445.358" y1="218.621" x2="450.625" y2="213.354"/>
		<line fill="#FFFFFF" stroke="#898989" stroke-miterlimit="10" x1="445.358" y1="233.399" x2="450.625" y2="228.132"/>
		<line fill="#FFFFFF" stroke="#898989" stroke-miterlimit="10" x1="447.866" y1="249.546" x2="447.866" y2="242.097"/>
		<line fill="#FFFFFF" stroke="#898989" stroke-miterlimit="10" x1="447.866" y1="264.324" x2="447.866" y2="256.875"/>
		<rect x="18.949" y="40.55" fill="#ED1C24" width="6.334" height="20"/>
		<rect x="381.991" y="84.079" width="28.125" height="57.841"/>
		<rect x="381.991" y="77.375" fill="#00AEEF" width="22.124" height="10.375"/>
		<rect x="381.991" y="98.959" fill="#00AEEF" width="22.124" height="10.375"/>
		<rect x="310.532" y="335.312" fill="#00AEEF" width="22.124" height="10.375"/>
		<rect x="306.032" y="450.812" fill="#00AEEF" width="22.124" height="10.375"/>
		<rect x="62.428" y="336.813" fill="#00AEEF" width="10.375" height="22.124"/>
		<rect x="62.428" y="382.188" fill="#00AEEF" width="10.375" height="22.124"/>
		<rect x="381.991" y="122.062" fill="#00AEEF" width="22.124" height="10.375"/>
		<rect x="199.241" y="25.942" width="10.375" height="9.392"/>
		<circle fill="#FFFFFF" cx="204.428" cy="30.638" r="1.029"/>
		<rect x="309.241" y="26.742" width="10.375" height="9.392"/>
		<circle fill="#FFFFFF" cx="314.428" cy="31.438" r="1.029"/>
		<g>
			<path fill="#FFFFFF" d="M471.617,39.529c3.492,0,6.333,2.841,6.333,6.334c0,3.492-2.841,6.333-6.333,6.333
				s-6.334-2.841-6.334-6.333C465.283,42.371,468.125,39.529,471.617,39.529 M471.617,37.529c-4.603,0-8.334,3.731-8.334,8.334
				s3.731,8.333,8.334,8.333c4.602,0,8.333-3.73,8.333-8.333S476.218,37.529,471.617,37.529L471.617,37.529z"/>
		</g>
		<polygon fill="#EAEAEA" points="465.844,24.723 460.553,15.558 465.844,6.393 476.428,6.393 481.719,15.558 476.428,24.723 		"/>
		<g>
			<circle fill="#D6D6D6" cx="471.136" cy="15.558" r="3.696"/>
		</g>
		<polygon fill="#EAEAEA" points="11.469,26.322 6.178,17.157 11.469,7.992 22.053,7.992 27.344,17.157 22.053,26.322 		"/>
		<g>
			<circle fill="#D6D6D6" cx="16.761" cy="17.157" r="3.696"/>
		</g>
		<g>
			<circle fill="#999999" cx="18.719" cy="469.058" r="3.696"/>
		</g>
		<g>
			<circle fill="#D6D6D6" cx="474.38" cy="465.058" r="3.696"/>
		</g>
		<g>
			<line fill="none" stroke="#ABABAB" stroke-miterlimit="10" x1="10.866" y1="67.312" x2="57.241" y2="67.312"/>
			<path fill="#E7B17A" d="M46.366,67.562c0,1.657-1.212,3-2.708,3H24.7c-1.496,0-2.708-1.343-2.708-3v-0.5c0-1.657,1.212-3,2.708-3
				h18.958c1.496,0,2.708,1.343,2.708,3V67.562z"/>
			<rect x="35.241" y="64.062" width="0.875" height="6.5"/>
			<rect x="30.366" y="64.062" fill="#603913" width="0.875" height="6.5"/>
			<rect x="26.866" y="64.062" fill="#603913" width="0.875" height="6.5"/>
			<rect x="39.116" y="64.062" fill="#D3D3D3" width="0.875" height="6.5"/>
		</g>
		<line fill="none" stroke="#ABABAB" stroke-miterlimit="10" x1="10.866" y1="78.375" x2="57.241" y2="78.375"/>
		<path fill="#E7B17A" d="M46.366,78.625c0,1.657-1.212,3-2.708,3H24.7c-1.496,0-2.708-1.343-2.708-3v-0.5c0-1.657,1.212-3,2.708-3
			h18.958c1.496,0,2.708,1.343,2.708,3V78.625z"/>
		<rect x="35.241" y="75.125" width="0.875" height="6.5"/>
		<rect x="30.366" y="75.125" fill="#603913" width="0.875" height="6.5"/>
		<rect x="26.866" y="75.125" fill="#603913" width="0.875" height="6.5"/>
		<rect x="39.116" y="75.125" fill="#D3D3D3" width="0.875" height="6.5"/>
		<circle cx="431.886" cy="38.035" r="1.812"/>
		<circle cx="450.761" cy="37.925" r="1.812"/>
		<g>
			<path fill="#A5A4A4" d="M239.386,470.137c0,1.656-1.343,3-3,3h-19.625c-1.657,0-3-1.344-3-3v-17.9c0-1.656,1.343-3,3-3h19.625
				c1.657,0,3,1.344,3,3V470.137z"/>
			<path fill="#BCBCBC" d="M213.761,461.334v-9.098c0-1.656,1.343-3,3-3h19.625c1.657,0,3,1.344,3,3v9.098H213.761z"/>
			<circle fill="#FFFFFF" cx="226.574" cy="461.187" r="6"/>
			<circle cx="217.282" cy="452.547" r="1.812"/>
			<circle cx="217.282" cy="470.047" r="1.812"/>
			<circle cx="236.157" cy="452.437" r="1.812"/>
			<circle cx="236.157" cy="469.937" r="1.812"/>
		</g>
		<g>
			<path fill="#A5A4A4" d="M281.542,469.313c0,1.656-1.343,3-3,3h-19.625c-1.657,0-3-1.344-3-3v-17.9c0-1.656,1.343-3,3-3h19.625
				c1.657,0,3,1.344,3,3V469.313z"/>
			<path fill="#BCBCBC" d="M255.917,460.511v-9.098c0-1.656,1.343-3,3-3h19.625c1.657,0,3,1.344,3,3v9.098H255.917z"/>
			<circle fill="#FFFFFF" cx="268.73" cy="460.363" r="6"/>
			<circle cx="259.438" cy="451.724" r="1.812"/>
			<circle cx="259.438" cy="469.224" r="1.812"/>
			<circle cx="278.313" cy="451.613" r="1.812"/>
			<circle cx="278.313" cy="469.113" r="1.812"/>
		</g>
		<circle fill="#BCBCBC" cx="365.866" cy="141.92" r="3.246"/>
		<circle fill="#BCBCBC" cx="365.866" cy="152.417" r="3.246"/>
		<circle fill="#BCBCBC" cx="365.866" cy="162.688" r="3.246"/>
		<circle fill="#BCBCBC" cx="365.866" cy="173.104" r="3.246"/>
		<circle fill="#BCBCBC" cx="371.533" cy="195.251" r="3.246"/>
		<circle fill="#BCBCBC" cx="371.533" cy="205.246" r="3.246"/>
		<path fill="#BCBCBC" d="M33.116,317.375c0,1.588-1.287,2.875-2.875,2.875l0,0c-1.588,0-2.875-1.287-2.875-2.875v-3.75
			c0-1.588,1.287-2.875,2.875-2.875l0,0c1.588,0,2.875,1.287,2.875,2.875V317.375z"/>
		<path fill="#BCBCBC" d="M87.366,317.375c0,1.588-1.287,2.875-2.875,2.875l0,0c-1.588,0-2.875-1.287-2.875-2.875v-3.75
			c0-1.588,1.287-2.875,2.875-2.875l0,0c1.588,0,2.875,1.287,2.875,2.875V317.375z"/>
		<path fill="#BCBCBC" d="M76.516,317.375c0,1.588-1.287,2.875-2.875,2.875l0,0c-1.588,0-2.875-1.287-2.875-2.875v-3.75
			c0-1.588,1.287-2.875,2.875-2.875l0,0c1.588,0,2.875,1.287,2.875,2.875V317.375z"/>
		<path fill="#BCBCBC" d="M65.666,317.375c0,1.588-1.287,2.875-2.875,2.875l0,0c-1.588,0-2.875-1.287-2.875-2.875v-3.75
			c0-1.588,1.287-2.875,2.875-2.875l0,0c1.588,0,2.875,1.287,2.875,2.875V317.375z"/>
		<path fill="#BCBCBC" d="M54.816,317.375c0,1.588-1.287,2.875-2.875,2.875l0,0c-1.588,0-2.875-1.287-2.875-2.875v-3.75
			c0-1.588,1.287-2.875,2.875-2.875l0,0c1.588,0,2.875,1.287,2.875,2.875V317.375z"/>
		<path fill="#BCBCBC" d="M43.966,317.375c0,1.588-1.287,2.875-2.875,2.875l0,0c-1.588,0-2.875-1.287-2.875-2.875v-3.75
			c0-1.588,1.287-2.875,2.875-2.875l0,0c1.588,0,2.875,1.287,2.875,2.875V317.375z"/>
		<path fill="#BCBCBC" d="M109.116,316.375c0,1.588-1.287,2.875-2.875,2.875l0,0c-1.588,0-2.875-1.287-2.875-2.875v-3.75
			c0-1.588,1.287-2.875,2.875-2.875l0,0c1.588,0,2.875,1.287,2.875,2.875V316.375z"/>
		<path fill="#BCBCBC" d="M163.366,316.375c0,1.588-1.287,2.875-2.875,2.875l0,0c-1.588,0-2.875-1.287-2.875-2.875v-3.75
			c0-1.588,1.287-2.875,2.875-2.875l0,0c1.588,0,2.875,1.287,2.875,2.875V316.375z"/>
		<path fill="#BCBCBC" d="M152.516,316.375c0,1.588-1.287,2.875-2.875,2.875l0,0c-1.588,0-2.875-1.287-2.875-2.875v-3.75
			c0-1.588,1.287-2.875,2.875-2.875l0,0c1.588,0,2.875,1.287,2.875,2.875V316.375z"/>
		<path fill="#BCBCBC" d="M183.794,316.375c0,1.588-1.287,2.875-2.875,2.875l0,0c-1.588,0-2.875-1.287-2.875-2.875v-3.75
			c0-1.588,1.287-2.875,2.875-2.875l0,0c1.588,0,2.875,1.287,2.875,2.875V316.375z"/>
		<path fill="#BCBCBC" d="M172.944,316.375c0,1.588-1.287,2.875-2.875,2.875l0,0c-1.588,0-2.875-1.287-2.875-2.875v-3.75
			c0-1.588,1.287-2.875,2.875-2.875l0,0c1.588,0,2.875,1.287,2.875,2.875V316.375z"/>
		<path fill="#BCBCBC" d="M141.666,316.375c0,1.588-1.287,2.875-2.875,2.875l0,0c-1.588,0-2.875-1.287-2.875-2.875v-3.75
			c0-1.588,1.287-2.875,2.875-2.875l0,0c1.588,0,2.875,1.287,2.875,2.875V316.375z"/>
		<path fill="#BCBCBC" d="M130.816,316.375c0,1.588-1.287,2.875-2.875,2.875l0,0c-1.588,0-2.875-1.287-2.875-2.875v-3.75
			c0-1.588,1.287-2.875,2.875-2.875l0,0c1.588,0,2.875,1.287,2.875,2.875V316.375z"/>
		<path fill="#BCBCBC" d="M119.966,316.375c0,1.588-1.287,2.875-2.875,2.875l0,0c-1.588,0-2.875-1.287-2.875-2.875v-3.75
			c0-1.588,1.287-2.875,2.875-2.875l0,0c1.588,0,2.875,1.287,2.875,2.875V316.375z"/>
		<path fill="#BCBCBC" d="M204.902,316.375c0,1.588-1.287,2.875-2.875,2.875l0,0c-1.588,0-2.875-1.287-2.875-2.875v-3.75
			c0-1.588,1.287-2.875,2.875-2.875l0,0c1.588,0,2.875,1.287,2.875,2.875V316.375z"/>
		<path fill="#BCBCBC" d="M259.152,316.375c0,1.588-1.287,2.875-2.875,2.875l0,0c-1.588,0-2.875-1.287-2.875-2.875v-3.75
			c0-1.588,1.287-2.875,2.875-2.875l0,0c1.588,0,2.875,1.287,2.875,2.875V316.375z"/>
		<path fill="#BCBCBC" d="M248.301,316.375c0,1.588-1.287,2.875-2.875,2.875l0,0c-1.588,0-2.875-1.287-2.875-2.875v-3.75
			c0-1.588,1.287-2.875,2.875-2.875l0,0c1.587,0,2.875,1.287,2.875,2.875V316.375z"/>
		<path fill="#BCBCBC" d="M279.581,316.375c0,1.588-1.287,2.875-2.875,2.875l0,0c-1.588,0-2.875-1.287-2.875-2.875v-3.75
			c0-1.588,1.287-2.875,2.875-2.875l0,0c1.588,0,2.875,1.287,2.875,2.875V316.375z"/>
		<path fill="#BCBCBC" d="M268.731,316.375c0,1.588-1.287,2.875-2.875,2.875l0,0c-1.588,0-2.875-1.287-2.875-2.875v-3.75
			c0-1.588,1.287-2.875,2.875-2.875l0,0c1.588,0,2.875,1.287,2.875,2.875V316.375z"/>
		<path fill="#BCBCBC" d="M257.695,343.938c0,1.588-1.287,2.875-2.875,2.875l0,0c-1.588,0-2.875-1.287-2.875-2.875v-3.75
			c0-1.588,1.287-2.875,2.875-2.875l0,0c1.588,0,2.875,1.287,2.875,2.875V343.938z"/>
		<path fill="#BCBCBC" d="M278.124,343.938c0,1.588-1.287,2.875-2.875,2.875l0,0c-1.588,0-2.875-1.287-2.875-2.875v-3.75
			c0-1.588,1.287-2.875,2.875-2.875l0,0c1.588,0,2.875,1.287,2.875,2.875V343.938z"/>
		<path fill="#BCBCBC" d="M267.274,343.938c0,1.588-1.287,2.875-2.875,2.875l0,0c-1.588,0-2.875-1.287-2.875-2.875v-3.75
			c0-1.588,1.287-2.875,2.875-2.875l0,0c1.588,0,2.875,1.287,2.875,2.875V343.938z"/>
		<path fill="#BCBCBC" d="M237.452,316.375c0,1.588-1.287,2.875-2.875,2.875l0,0c-1.588,0-2.875-1.287-2.875-2.875v-3.75
			c0-1.588,1.287-2.875,2.875-2.875l0,0c1.588,0,2.875,1.287,2.875,2.875V316.375z"/>
		<path fill="#BCBCBC" d="M226.602,316.375c0,1.588-1.287,2.875-2.875,2.875l0,0c-1.588,0-2.875-1.287-2.875-2.875v-3.75
			c0-1.588,1.287-2.875,2.875-2.875l0,0c1.588,0,2.875,1.287,2.875,2.875V316.375z"/>
		<path fill="#BCBCBC" d="M215.752,316.375c0,1.588-1.287,2.875-2.875,2.875l0,0c-1.588,0-2.875-1.287-2.875-2.875v-3.75
			c0-1.588,1.287-2.875,2.875-2.875l0,0c1.588,0,2.875,1.287,2.875,2.875V316.375z"/>
		<path fill="#BCBCBC" d="M300.536,314.918c0,1.588-1.287,2.875-2.875,2.875l0,0c-1.588,0-2.875-1.287-2.875-2.875v-3.75
			c0-1.588,1.287-2.875,2.875-2.875l0,0c1.588,0,2.875,1.287,2.875,2.875V314.918z"/>
		<path fill="#BCBCBC" d="M354.786,314.918c0,1.588-1.287,2.875-2.875,2.875l0,0c-1.588,0-2.875-1.287-2.875-2.875v-3.75
			c0-1.588,1.287-2.875,2.875-2.875l0,0c1.588,0,2.875,1.287,2.875,2.875V314.918z"/>
		<path fill="#BCBCBC" d="M343.935,314.918c0,1.588-1.287,2.875-2.874,2.875l0,0c-1.588,0-2.875-1.287-2.875-2.875v-3.75
			c0-1.588,1.287-2.875,2.875-2.875l0,0c1.587,0,2.874,1.287,2.874,2.875V314.918z"/>
		<path fill="#BCBCBC" d="M375.214,314.918c0,1.588-1.287,2.875-2.875,2.875l0,0c-1.588,0-2.875-1.287-2.875-2.875v-3.75
			c0-1.588,1.287-2.875,2.875-2.875l0,0c1.588,0,2.875,1.287,2.875,2.875V314.918z"/>
		<path fill="#BCBCBC" d="M364.365,314.918c0,1.588-1.287,2.875-2.875,2.875l0,0c-1.588,0-2.875-1.287-2.875-2.875v-3.75
			c0-1.588,1.287-2.875,2.875-2.875l0,0c1.588,0,2.875,1.287,2.875,2.875V314.918z"/>
		<path fill="#BCBCBC" d="M333.085,314.918c0,1.588-1.287,2.875-2.875,2.875l0,0c-1.588,0-2.875-1.287-2.875-2.875v-3.75
			c0-1.588,1.287-2.875,2.875-2.875l0,0c1.588,0,2.875,1.287,2.875,2.875V314.918z"/>
		<path fill="#BCBCBC" d="M322.236,314.918c0,1.588-1.287,2.875-2.875,2.875l0,0c-1.588,0-2.875-1.287-2.875-2.875v-3.75
			c0-1.588,1.287-2.875,2.875-2.875l0,0c1.588,0,2.875,1.287,2.875,2.875V314.918z"/>
		<path fill="#BCBCBC" d="M311.385,314.918c0,1.588-1.287,2.875-2.875,2.875l0,0c-1.588,0-2.875-1.287-2.875-2.875v-3.75
			c0-1.588,1.287-2.875,2.875-2.875l0,0c1.588,0,2.875,1.287,2.875,2.875V314.918z"/>
		<line fill="none" stroke="#ABABAB" stroke-miterlimit="10" x1="170.116" y1="407.438" x2="170.116" y2="361.062"/>
		<path fill="#E7B17A" d="M170.366,371.938c1.656,0,3,1.212,3,2.708v18.957c0,1.496-1.344,2.709-3,2.709h-0.5
			c-1.656,0-3-1.213-3-2.709v-18.957c0-1.496,1.344-2.708,3-2.708H170.366z"/>
		<rect x="166.866" y="382.188" fill="#603913" width="6.5" height="0.875"/>
		<rect x="166.866" y="387.062" fill="#603913" width="6.5" height="0.875"/>
		<rect x="166.866" y="390.562" fill="#ED1C24" width="6.5" height="0.875"/>
		<rect x="166.866" y="378.312" fill="#FFF200" width="6.5" height="0.875"/>
		<line fill="none" stroke="#ABABAB" stroke-miterlimit="10" x1="205.218" y1="437.249" x2="251.593" y2="437.249"/>
		<path fill="#E7B17A" d="M240.718,437.499c0,1.656-1.212,3-2.708,3h-18.957c-1.496,0-2.709-1.344-2.709-3v-0.5
			c0-1.656,1.213-3,2.709-3h18.957c1.496,0,2.708,1.344,2.708,3V437.499z"/>
		<rect x="229.593" y="433.999" fill="#C49A6C" width="0.875" height="6.5"/>
		<rect x="224.718" y="433.999" fill="#603913" width="0.875" height="6.5"/>
		<rect x="221.218" y="433.999" fill="#603913" width="0.875" height="6.5"/>
		<rect x="233.468" y="433.999" fill="#FFF200" width="0.875" height="6.5"/>
		<line fill="none" stroke="#ABABAB" stroke-miterlimit="10" x1="251.719" y1="427" x2="205.343" y2="427"/>
		<path fill="#E7B17A" d="M216.218,426.75c0-1.656,1.212-3,2.708-3h18.957c1.496,0,2.709,1.344,2.709,3v0.5c0,1.656-1.213,3-2.709,3
			h-18.957c-1.496,0-2.708-1.344-2.708-3V426.75z"/>
		<rect x="226.468" y="423.75" fill="#C49A6C" width="0.875" height="6.5"/>
		<rect x="231.343" y="423.75" fill="#603913" width="0.875" height="6.5"/>
		<rect x="234.843" y="423.75" fill="#603913" width="0.875" height="6.5"/>
		<rect x="222.593" y="423.75" fill="#FFF200" width="0.875" height="6.5"/>
		<path d="M198.532,396.312c0,10.354,8.395,18.75,18.75,18.75c10.355,0,18.75-8.396,18.75-18.75H198.532z"/>
		<circle fill="#FFFFFF" cx="217.282" cy="396.312" r="13.5"/>
		<circle cx="265.856" cy="404.312" r="18.75"/>
		<circle fill="#FFFFFF" cx="265.856" cy="404.312" r="13.5"/>
		<circle cx="317.094" cy="424.5" r="18.75"/>
		<circle fill="#FFFFFF" cx="317.094" cy="424.5" r="13.5"/>
		<circle cx="319.866" cy="373" r="18.75"/>
		<circle fill="#FFFFFF" cx="319.866" cy="373" r="13.5"/>
		<g>
			<line fill="none" stroke="#B7B7B7" stroke-miterlimit="10" x1="87.366" y1="367.281" x2="158.116" y2="367.281"/>
			<rect x="106.241" y="357.001" width="31.375" height="20.561"/>
			<rect x="137.616" y="357.001" fill="#939393" width="5.667" height="20.561"/>
		</g>
		<g>
			<line fill="none" stroke="#B7B7B7" stroke-miterlimit="10" x1="87.366" y1="394.53" x2="158.116" y2="394.53"/>
			<rect x="106.241" y="384.25" width="31.375" height="20.561"/>
			<rect x="137.616" y="384.25" fill="#939393" width="5.667" height="20.561"/>
		</g>
		<rect x="62.428" y="372.865" width="10.375" height="9.393"/>
		<circle fill="#FFFFFF" cx="67.615" cy="377.562" r="1.029"/>
		<circle fill="#939393" cx="204.902" cy="342.063" r="5.25"/>
		<circle fill="#939393" cx="71.836" cy="417.437" r="5.25"/>
		<circle fill="#939393" cx="71.836" cy="437.249" r="5.25"/>
		<rect x="49.45" y="473.833" width="31.167" height="6"/>
		<rect x="49.45" y="453.999" width="31.167" height="2.668"/>
		<rect x="49.45" y="456.667" fill="#51504F" width="31.167" height="17.166"/>
		<circle fill="#FFFFFF" cx="58.002" cy="465.361" r="5.25"/>
		<circle fill="#FFFFFF" cx="71.836" cy="465.361" r="5.25"/>
		<line fill="#FFFFFF" stroke="#898989" stroke-miterlimit="10" x1="55.338" y1="468.025" x2="60.605" y2="462.759"/>
		<line fill="#FFFFFF" stroke="#898989" stroke-miterlimit="10" x1="71.835" y1="468.975" x2="71.836" y2="461.525"/>
		<rect x="158.116" y="468.025" width="40.416" height="10.197"/>
		<rect x="163.366" y="424.5" fill="#353535" width="31.161" height="43.525"/>
		<g>
			<path fill="#FFFFFF" d="M291.783,325.771v50.334c0,0.827-0.673,1.5-1.5,1.5h-4.334v-12.772c-7.834-1-7.368-12.395-7.368-12.395
				h-27.965c-0.333,13.938-6.189,12.062-6.189,12.062v13.105h-4.641c-0.827,0-1.5-0.673-1.5-1.5v-50.167h-3v50.167
				c0,2.481,2.019,4.5,4.5,4.5h4.641v0.062h41.522v-0.062h4.334c2.481,0,4.5-2.019,4.5-4.5v-50.334H291.783z"/>
			<circle fill="#939393" cx="265.034" cy="362.75" r="2.281"/>
		</g>
		<g>
			<path fill="#FFFFFF" d="M397.939,384.139h-50.334c-0.827,0-1.5-0.651-1.5-1.451v-4.192h12.772c1-7.579,12.395-7.129,12.395-7.129
				v-27.054c-13.938-0.322-12.062-5.988-12.062-5.988h-13.105v-4.489c0-0.8,0.673-1.451,1.5-1.451h50.167v-2.902h-50.167
				c-2.481,0-4.5,1.953-4.5,4.354v4.489h-0.062v40.171h0.062v4.192c0,2.4,2.019,4.354,4.5,4.354h50.334V384.139z"/>
			<ellipse fill="#939393" cx="360.96" cy="358.261" rx="2.281" ry="2.207"/>
		</g>
		<g>
			<path fill="#FFFFFF" d="M399.787,452.878h-50.334c-0.827,0-1.5-0.651-1.5-1.451v-4.192h12.772c1-7.579,12.395-7.129,12.395-7.129
				v-27.054c-13.938-0.322-12.062-5.988-12.062-5.988h-13.105v-4.489c0-0.8,0.673-1.451,1.5-1.451h50.167v-2.902h-50.167
				c-2.481,0-4.5,1.953-4.5,4.354v4.489h-0.062v40.171h0.062v4.192c0,2.4,2.019,4.354,4.5,4.354h50.334V452.878z"/>
			<ellipse fill="#939393" cx="362.808" cy="427" rx="2.281" ry="2.207"/>
		</g>
		<path fill="#DCDBDB" d="M126.116,446v6.696c0,1.657-1.343,3-3,3h-0.75c-1.657,0-3-1.343-3-3V446h-24v19.393h54.25V446H126.116z"/>
		<rect x="100.116" y="449.237" fill="#ED1C24" width="12.25" height="4.562"/>
		<rect x="131.491" y="449.237" fill="#ED1C24" width="12.25" height="4.562"/>
		<rect x="140.449" y="336.813" width="28.038" height="7.623"/>
		<rect x="146.766" y="335.5" fill="#CA7F3F" width="16.6" height="10.25"/>
		<g>
			<g>
				<path fill="#BCBCBC" d="M105.984,84.438c0,1.588-1.287,2.875-2.875,2.875l0,0c-1.588,0-2.875-1.287-2.875-2.875v-3.75
					c0-1.588,1.287-2.875,2.875-2.875l0,0c1.588,0,2.875,1.287,2.875,2.875V84.438z"/>
				<path fill="#BCBCBC" d="M160.234,84.438c0,1.588-1.287,2.875-2.875,2.875l0,0c-1.588,0-2.875-1.287-2.875-2.875v-3.75
					c0-1.588,1.287-2.875,2.875-2.875l0,0c1.588,0,2.875,1.287,2.875,2.875V84.438z"/>
				<path fill="#BCBCBC" d="M149.384,84.438c0,1.588-1.287,2.875-2.875,2.875l0,0c-1.588,0-2.875-1.287-2.875-2.875v-3.75
					c0-1.588,1.287-2.875,2.875-2.875l0,0c1.588,0,2.875,1.287,2.875,2.875V84.438z"/>
				<path fill="#BCBCBC" d="M180.663,84.438c0,1.588-1.287,2.875-2.875,2.875l0,0c-1.588,0-2.875-1.287-2.875-2.875v-3.75
					c0-1.588,1.287-2.875,2.875-2.875l0,0c1.588,0,2.875,1.287,2.875,2.875V84.438z"/>
				<path fill="#BCBCBC" d="M169.813,84.438c0,1.588-1.287,2.875-2.875,2.875l0,0c-1.588,0-2.875-1.287-2.875-2.875v-3.75
					c0-1.588,1.287-2.875,2.875-2.875l0,0c1.588,0,2.875,1.287,2.875,2.875V84.438z"/>
				<path fill="#BCBCBC" d="M138.534,84.438c0,1.588-1.287,2.875-2.875,2.875l0,0c-1.588,0-2.875-1.287-2.875-2.875v-3.75
					c0-1.588,1.287-2.875,2.875-2.875l0,0c1.588,0,2.875,1.287,2.875,2.875V84.438z"/>
				<path fill="#BCBCBC" d="M127.685,84.438c0,1.588-1.287,2.875-2.875,2.875l0,0c-1.588,0-2.875-1.287-2.875-2.875v-3.75
					c0-1.588,1.287-2.875,2.875-2.875l0,0c1.588,0,2.875,1.287,2.875,2.875V84.438z"/>
				<path fill="#BCBCBC" d="M116.834,84.438c0,1.588-1.287,2.875-2.875,2.875l0,0c-1.588,0-2.875-1.287-2.875-2.875v-3.75
					c0-1.588,1.287-2.875,2.875-2.875l0,0c1.588,0,2.875,1.287,2.875,2.875V84.438z"/>
			</g>
			<g>
				<path fill="#BCBCBC" d="M200.113,84.438c0,1.588-1.287,2.875-2.875,2.875l0,0c-1.588,0-2.875-1.287-2.875-2.875v-3.75
					c0-1.588,1.287-2.875,2.875-2.875l0,0c1.588,0,2.875,1.287,2.875,2.875V84.438z"/>
				<path fill="#BCBCBC" d="M254.363,84.438c0,1.588-1.287,2.875-2.875,2.875l0,0c-1.588,0-2.875-1.287-2.875-2.875v-3.75
					c0-1.588,1.287-2.875,2.875-2.875l0,0c1.588,0,2.875,1.287,2.875,2.875V84.438z"/>
				<path fill="#BCBCBC" d="M243.513,84.438c0,1.588-1.287,2.875-2.875,2.875l0,0c-1.588,0-2.875-1.287-2.875-2.875v-3.75
					c0-1.588,1.287-2.875,2.875-2.875l0,0c1.588,0,2.875,1.287,2.875,2.875V84.438z"/>
				<path fill="#BCBCBC" d="M274.792,84.438c0,1.588-1.287,2.875-2.875,2.875l0,0c-1.588,0-2.875-1.287-2.875-2.875v-3.75
					c0-1.588,1.287-2.875,2.875-2.875l0,0c1.588,0,2.875,1.287,2.875,2.875V84.438z"/>
				<path fill="#BCBCBC" d="M263.942,84.438c0,1.588-1.287,2.875-2.875,2.875l0,0c-1.588,0-2.875-1.287-2.875-2.875v-3.75
					c0-1.588,1.287-2.875,2.875-2.875l0,0c1.588,0,2.875,1.287,2.875,2.875V84.438z"/>
				<path fill="#BCBCBC" d="M232.663,84.438c0,1.588-1.287,2.875-2.875,2.875l0,0c-1.588,0-2.875-1.287-2.875-2.875v-3.75
					c0-1.588,1.287-2.875,2.875-2.875l0,0c1.588,0,2.875,1.287,2.875,2.875V84.438z"/>
				<path fill="#BCBCBC" d="M221.813,84.438c0,1.588-1.287,2.875-2.875,2.875l0,0c-1.588,0-2.875-1.287-2.875-2.875v-3.75
					c0-1.588,1.287-2.875,2.875-2.875l0,0c1.588,0,2.875,1.287,2.875,2.875V84.438z"/>
				<path fill="#BCBCBC" d="M210.963,84.438c0,1.588-1.287,2.875-2.875,2.875l0,0c-1.588,0-2.875-1.287-2.875-2.875v-3.75
					c0-1.588,1.287-2.875,2.875-2.875l0,0c1.588,0,2.875,1.287,2.875,2.875V84.438z"/>
			</g>
			<g>
				<path fill="#BCBCBC" d="M299.402,83.5c0,1.588-1.287,2.875-2.875,2.875l0,0c-1.588,0-2.875-1.287-2.875-2.875v-3.75
					c0-1.588,1.287-2.875,2.875-2.875l0,0c1.588,0,2.875,1.287,2.875,2.875V83.5z"/>
				<path fill="#BCBCBC" d="M353.652,83.5c0,1.588-1.287,2.875-2.875,2.875l0,0c-1.588,0-2.875-1.287-2.875-2.875v-3.75
					c0-1.588,1.287-2.875,2.875-2.875l0,0c1.588,0,2.875,1.287,2.875,2.875V83.5z"/>
				<path fill="#BCBCBC" d="M342.801,83.5c0,1.588-1.287,2.875-2.875,2.875l0,0c-1.588,0-2.875-1.287-2.875-2.875v-3.75
					c0-1.588,1.287-2.875,2.875-2.875l0,0c1.588,0,2.875,1.287,2.875,2.875V83.5z"/>
				<path fill="#BCBCBC" d="M374.081,83.5c0,1.588-1.287,2.875-2.875,2.875l0,0c-1.588,0-2.875-1.287-2.875-2.875v-3.75
					c0-1.588,1.287-2.875,2.875-2.875l0,0c1.588,0,2.875,1.287,2.875,2.875V83.5z"/>
				<path fill="#BCBCBC" d="M363.231,83.5c0,1.588-1.287,2.875-2.875,2.875l0,0c-1.588,0-2.875-1.287-2.875-2.875v-3.75
					c0-1.588,1.287-2.875,2.875-2.875l0,0c1.588,0,2.875,1.287,2.875,2.875V83.5z"/>
				<path fill="#BCBCBC" d="M331.952,83.5c0,1.588-1.287,2.875-2.875,2.875l0,0c-1.588,0-2.875-1.287-2.875-2.875v-3.75
					c0-1.588,1.287-2.875,2.875-2.875l0,0c1.588,0,2.875,1.287,2.875,2.875V83.5z"/>
				<path fill="#BCBCBC" d="M321.102,83.5c0,1.588-1.287,2.875-2.875,2.875l0,0c-1.588,0-2.875-1.287-2.875-2.875v-3.75
					c0-1.588,1.287-2.875,2.875-2.875l0,0c1.588,0,2.875,1.287,2.875,2.875V83.5z"/>
				<path fill="#BCBCBC" d="M310.252,83.5c0,1.588-1.287,2.875-2.875,2.875l0,0c-1.588,0-2.875-1.287-2.875-2.875v-3.75
					c0-1.588,1.287-2.875,2.875-2.875l0,0c1.588,0,2.875,1.287,2.875,2.875V83.5z"/>
			</g>
		</g>
		<path fill="#C8702C" d="M226.405,368.937c0,1.657-1.343,3-3,3h-0.75c-1.657,0-3-1.343-3-3v-16.938c0-1.657,1.343-3,3-3h0.75
			c1.657,0,3,1.343,3,3V368.937z"/>
		<path fill="#FBB040" d="M89.178,345.219c-1.657,0-3-1.344-3-3v-0.75c0-1.656,1.343-3,3-3h16.938c1.657,0,3,1.344,3,3v0.75
			c0,1.656-1.343,3-3,3H89.178z"/>
		<path fill="#C8702C" d="M297.661,405.5c0,1.657-1.343,3-3,3h-0.749c-1.657,0-3-1.343-3-3v-16.938c0-1.657,1.343-3,3-3h0.749
			c1.657,0,3,1.343,3,3V405.5z"/>
		<path fill="#C8702C" d="M294.286,440.25c0,1.657-1.343,3-3,3h-0.749c-1.657,0-3-1.343-3-3v-16.938c0-1.657,1.343-3,3-3h0.749
			c1.657,0,3,1.343,3,3V440.25z"/>
		<path fill="#C8702C" d="M306.969,349.532c0,1.657-1.343,3-3,3h-0.749c-1.657,0-3-1.343-3-3v-16.938c0-1.657,1.343-3,3-3h0.749
			c1.657,0,3,1.343,3,3V349.532z"/>
		<path d="M51.616,350c0,12.702-10.297,23-23,23s-23-10.298-23-23H51.616z"/>
		<g>
			<path fill="#FFFFFF" d="M28.616,346.437c1.965,0,3.564,1.599,3.564,3.563s-1.599,3.563-3.564,3.563s-3.564-1.599-3.564-3.563
				S26.65,346.437,28.616,346.437 M28.616,344.437c-3.073,0-5.564,2.49-5.564,5.563s2.491,5.563,5.564,5.563s5.564-2.49,5.564-5.563
				S31.689,344.437,28.616,344.437L28.616,344.437z"/>
		</g>
		<circle fill="#514D4E" cx="28.616" cy="412.187" r="23"/>
		<path d="M51.616,412.187c0,12.702-10.297,23-23,23s-23-10.298-23-23H51.616z"/>
		<g>
			<path fill="#FFFFFF" d="M28.616,408.623c1.965,0,3.564,1.599,3.564,3.563s-1.599,3.563-3.564,3.563s-3.564-1.599-3.564-3.563
				S26.65,408.623,28.616,408.623 M28.616,406.623c-3.073,0-5.564,2.49-5.564,5.563s2.491,5.563,5.564,5.563s5.564-2.49,5.564-5.563
				S31.689,406.623,28.616,406.623L28.616,406.623z"/>
		</g>
		<polygon fill="#DCDBDB" points="466.221,474.11 460.93,464.945 466.221,455.78 476.805,455.78 482.096,464.945 476.805,474.11 		
			"/>
		<polyline fill="#FFFFFF" points="460.93,464.945 466.221,455.78 476.805,455.78 482.096,464.945 		"/>
		<g>
			<circle fill="#999999" cx="471.513" cy="464.945" r="3.696"/>
		</g>
		<polygon fill="#DCDBDB" points="465.844,24.532 460.553,15.367 465.844,6.202 476.428,6.202 481.719,15.367 476.428,24.532 		"/>
		<polyline fill="#FFFFFF" points="460.553,15.367 465.844,6.202 476.428,6.202 481.719,15.367 		"/>
		<g>
			<circle fill="#999999" cx="471.136" cy="15.367" r="3.696"/>
		</g>
		<polygon fill="#DCDBDB" points="11.469,26.388 6.178,17.223 11.469,8.058 22.053,8.058 27.344,17.223 22.053,26.388 		"/>
		<polyline fill="#FFFFFF" points="6.178,17.223 11.469,8.058 22.053,8.058 27.344,17.223 		"/>
		<g>
			<circle fill="#999999" cx="16.761" cy="17.223" r="3.696"/>
		</g>
		<rect x="381.991" y="82.562" fill="#096BB5" width="22.124" height="5.188"/>
		<rect x="309.242" y="16.743" fill="#096BB5" width="10.375" height="10"/>
		<rect x="199.241" y="15.942" fill="#096BB5" width="10.375" height="10"/>
		<rect x="62.428" y="350.563" fill="#3953A4" width="10.375" height="10"/>
		<rect x="306.11" y="455.779" fill="#3953A4" width="22.021" height="5.406"/>
		<rect x="310.583" y="340.422" fill="#3953A4" width="22.021" height="5.406"/>
		<rect x="62.428" y="394.53" fill="#3953A4" width="10.375" height="10"/>
		<rect x="381.991" y="104.146" fill="#096BB5" width="22.124" height="5.188"/>
		<rect x="381.991" y="127.573" fill="#096BB5" width="22.124" height="5.188"/>
		<g>
			<path fill="#A5A4A4" d="M454.178,37.738c0,1.656-1.343,3-3,3h-19.625c-1.657,0-3-1.344-3-3v-17.9c0-1.656,1.343-3,3-3h19.625
				c1.657,0,3,1.344,3,3V37.738z"/>
			<path fill="#BCBCBC" d="M428.553,28.935v-9.098c0-1.656,1.343-3,3-3h19.625c1.657,0,3,1.344,3,3v9.098H428.553z"/>
			<circle fill="#FFFFFF" cx="441.366" cy="28.788" r="6"/>
			<circle cx="432.074" cy="20.148" r="1.812"/>
			<circle cx="432.074" cy="37.648" r="1.812"/>
			<circle cx="450.949" cy="20.038" r="1.812"/>
			<circle cx="450.949" cy="37.538" r="1.812"/>
		</g>
		<rect x="15.282" y="299.75" fill="#FBB040" width="85.333" height="6"/>
		<rect x="133.366" y="264.584" fill="#484748" width="110.5" height="11.862"/>
		<rect x="245.616" y="264.584" fill="#484748" width="110.5" height="11.862"/>
		<rect x="392.116" y="293.888" fill="#484748" width="80" height="11.862"/>
		<rect x="381.366" y="345.688" fill="#484748" width="86.129" height="11.862"/>
		<rect x="383.551" y="412.5" fill="#484748" width="86.129" height="11.862"/>
		<path fill="#E6E7E8" d="M203.782,396.312c0,7.456,6.044,13.5,13.5,13.5s13.5-6.044,13.5-13.5H203.782z"/>
		<circle fill="#484748" cx="317.122" cy="424.793" r="18.75"/>
		<path d="M298.372,424.793c0,10.354,8.395,18.75,18.75,18.75c10.354,0,18.75-8.396,18.75-18.75H298.372z"/>
		<circle fill="#FFFFFF" cx="317.122" cy="424.793" r="13.5"/>
		<path fill="#E6E7E8" d="M303.622,424.793c0,7.456,6.043,13.5,13.5,13.5c7.455,0,13.5-6.044,13.5-13.5H303.622z"/>
		<circle fill="#484748" cx="319.866" cy="373" r="18.75"/>
		<path d="M301.116,373c0,10.354,8.395,18.75,18.75,18.75c10.354,0,18.75-8.396,18.75-18.75H301.116z"/>
		<circle fill="#FFFFFF" cx="319.866" cy="373" r="13.5"/>
		<path fill="#E6E7E8" d="M306.366,373c0,7.456,6.043,13.5,13.5,13.5c7.455,0,13.5-6.044,13.5-13.5H306.366z"/>
		<circle fill="#484748" cx="265.854" cy="404.53" r="18.75"/>
		<path d="M247.104,404.53c0,10.354,8.395,18.75,18.75,18.75s18.75-8.396,18.75-18.75H247.104z"/>
		<circle fill="#FFFFFF" cx="265.854" cy="404.53" r="13.5"/>
		<path fill="#E6E7E8" d="M252.354,404.53c0,7.456,6.045,13.5,13.5,13.5c7.457,0,13.5-6.044,13.5-13.5H252.354z"/>
		<rect x="95.366" y="456.667" fill="#999898" width="54.25" height="8.846"/>
		<rect y="92" fill="#006838" width="339" height="154"/>
		<rect y="167.5" opacity="0.8" fill="#12381C" width="339" height="78.5"/>
		<g>
			<path fill="#FFFFFF" d="M12.283,99c2.573,0,4.667,2.093,4.667,4.667s-2.093,4.667-4.667,4.667s-4.667-2.093-4.667-4.667
				S9.709,99,12.283,99 M12.283,97c-3.682,0-6.667,2.985-6.667,6.667s2.985,6.667,6.667,6.667s6.667-2.985,6.667-6.667
				S15.964,97,12.283,97L12.283,97z"/>
		</g>
		<g>
			<path fill="#FFFFFF" d="M11.283,228.667c2.573,0,4.667,2.093,4.667,4.667S13.856,238,11.283,238s-4.667-2.093-4.667-4.667
				S8.709,228.667,11.283,228.667 M11.283,226.667c-3.682,0-6.667,2.985-6.667,6.667S7.601,240,11.283,240s6.667-2.985,6.667-6.667
				S14.964,226.667,11.283,226.667L11.283,226.667z"/>
		</g>
		<g>
			<path fill="#FFFFFF" d="M328.333,98c2.573,0,4.667,2.093,4.667,4.667s-2.094,4.667-4.667,4.667s-4.667-2.094-4.667-4.667
				S325.76,98,328.333,98 M328.333,96c-3.682,0-6.667,2.985-6.667,6.667s2.985,6.667,6.667,6.667s6.667-2.985,6.667-6.667
				S332.015,96,328.333,96L328.333,96z"/>
		</g>
		<g>
			<path fill="#FFFFFF" d="M328.333,227.667c2.573,0,4.667,2.093,4.667,4.667S330.906,237,328.333,237s-4.666-2.094-4.666-4.667
				S325.759,227.667,328.333,227.667 M328.333,225.667c-3.682,0-6.666,2.985-6.666,6.667s2.984,6.667,6.666,6.667
				s6.667-2.985,6.667-6.667S332.014,225.667,328.333,225.667L328.333,225.667z"/>
		</g>
		<rect x="19.616" y="113" width="297.668" height="109"/>
		<rect x="34.303" y="134" fill="#00AEEF" width="272.209" height="68"/>
		<rect x="34.303" y="167.5" fill="#096BB5" width="272.209" height="34.5"/>
		<g>
			<path fill="#FFFEFE" d="M47.066,178.139v-26.205h13.822v3.744H49.831v3.744h5.529v3.743h-5.529v14.974H47.066z"/>
			<path fill="#FFFEFE" d="M63.653,155.678v-3.744h2.765v3.744H63.653z M63.653,178.139v-18.717h2.765v18.717H63.653z"/>
			<path fill="#FFFEFE" d="M77.476,166.908v-3.744h-8.293v-3.743h13.822v3.743H80.24v3.744H77.476z M69.182,178.139v-3.744h2.765
				v-3.744h2.764v3.744h8.293v3.744H69.182z M74.711,170.651v-3.743h2.765v3.743H74.711z"/>
			<path fill="#FFFEFE" d="M94.062,166.908v-3.744h-8.293v-3.743h13.822v3.743h-2.765v3.744H94.062z M85.769,178.139v-3.744h2.765
				v-3.744h2.764v3.744h8.293v3.744H85.769z M91.297,170.651v-3.743h2.765v3.743H91.297z"/>
			<path fill="#FFFEFE" d="M107.884,178.139v-26.205h11.058v3.744h-8.293v3.744h8.293v3.743h-8.293v14.974H107.884z
				 M118.942,159.421v-3.744h2.765v3.744H118.942z M118.942,178.139v-14.974h2.765v14.974H118.942z"/>
			<path fill="#FFFEFE" d="M124.471,174.395v-11.23h2.765v11.23H124.471z M127.235,163.165v-3.743h8.293v3.743H127.235z
				 M127.235,178.139v-3.744h8.293v3.744H127.235z M135.528,174.395v-11.23h2.765v11.23H135.528z"/>
			<path fill="#FFFEFE" d="M141.058,178.139v-26.205h2.765v11.23h2.764v3.744h-2.764v7.487h8.293v3.744H141.058z M146.586,163.165
				v-3.743h5.529v3.743H146.586z M152.115,174.395v-11.23h2.765v11.23H152.115z"/>
			<path fill="#FFFEFE" d="M157.644,174.395v-11.23h2.765v11.23H157.644z M160.409,163.165v-3.743h8.293v3.743H160.409z
				 M160.409,178.139v-3.744h8.293v3.744H160.409z M168.702,174.395v-11.23h2.765v11.23H168.702z"/>
			<path fill="#FFFEFE" d="M176.996,174.395v-14.974h-2.765v-3.744h2.765v-3.744h2.764v3.744h2.765v3.744h-2.765v14.974H176.996z
				 M179.76,178.139v-3.744h2.765v3.744H179.76z"/>
			<path fill="#FFFEFE" d="M190.818,159.421v-3.744h2.765v3.744H190.818z M190.818,174.395v-3.744h2.765v3.744H190.818z
				 M193.583,155.678v-3.744h11.058v3.744H193.583z M193.583,163.165v-3.743h8.293v3.743H193.583z M193.583,178.139v-3.744h8.293
				v3.744H193.583z M201.875,174.395v-11.23h2.765v11.23H201.875z"/>
			<path fill="#FFFEFE" d="M207.404,174.395v-14.974h2.765v14.974H207.404z M210.169,178.139v-3.744h8.293v-14.974h2.765v18.717
				H210.169z"/>
			<path fill="#FFFEFE" d="M223.991,178.139v-18.717h5.529v3.743h-2.764v14.974H223.991z M229.52,170.651v-7.487h2.765v7.487H229.52
				z M232.285,163.165v-3.743h2.764v3.743H232.285z M235.049,178.139v-14.974h2.765v14.974H235.049z"/>
			<path fill="#FFFEFE" d="M240.578,178.139v-18.717h5.529v3.743h-2.764v14.974H240.578z M246.106,170.651v-7.487h2.764v7.487
				H246.106z M248.871,163.165v-3.743h2.765v3.743H248.871z M251.635,178.139v-14.974h2.765v14.974H251.635z"/>
			<path fill="#FFFEFE" d="M257.165,174.395v-11.23h2.765v3.744h8.293v-3.744h2.765v7.487h-11.058v3.744H257.165z M259.929,163.165
				v-3.743h8.293v3.743H259.929z M259.929,178.139v-3.744h11.058v3.744H259.929z"/>
			<path fill="#FFFEFE" d="M273.751,178.139v-18.717h2.765v3.743h2.765v3.744h-2.765v11.23H273.751z M279.281,163.165v-3.743h5.528
				v3.743H279.281z M284.809,166.908v-3.744h2.765v3.744H284.809z"/>
		</g>
	</g>
</g>
</svg>
