<?xml version="1.0" encoding="utf-8"?>
<!-- Generator: Adobe Illustrator 15.0.0, SVG Export Plug-In . SVG Version: 6.00 Build 0)  -->
<!DOCTYPE svg PUBLIC "-//W3C//DTD SVG 1.1//EN" "http://www.w3.org/Graphics/SVG/1.1/DTD/svg11.dtd">
<svg version="1.1" id="Layer_1" xmlns="http://www.w3.org/2000/svg" xmlns:xlink="http://www.w3.org/1999/xlink" x="0px" y="0px"
	 width="198.802px" height="107.65px" viewBox="0 0 198.802 107.65" enable-background="new 0 0 198.802 107.65"
	 xml:space="preserve">
<g>
	<path fill="#F15A29" d="M198.802,82.057c0,1.369-1.779,2.479-3.975,2.479H3.974C1.78,84.537,0,83.426,0,82.057V2.479
		C0,1.11,1.78,0,3.974,0h190.853c2.195,0,3.975,1.11,3.975,2.479V82.057z"/>
</g>
<g>
	<polygon fill="#F15A29" points="59.249,81.779 47.893,107.65 36.538,81.779 	"/>
</g>
<g>
	<path fill="#FFFFFF" d="M13.818,35.082V18.687h5.191c1.562,0,2.809,0.422,3.738,1.266s1.395,1.977,1.395,3.398
		c0,0.953-0.238,1.797-0.715,2.531s-1.129,1.268-1.957,1.6s-2.016,0.498-3.562,0.498h-1.734v7.102H13.818z M18.6,20.773h-2.426
		v5.121h2.566c0.953,0,1.688-0.225,2.203-0.674s0.773-1.092,0.773-1.928C21.717,21.613,20.678,20.773,18.6,20.773z"/>
	<path fill="#FFFFFF" d="M25.936,18.71h2.133v16.371h-2.133V18.71z"/>
	<path fill="#FFFFFF" d="M40.338,29.878h-7.582c0.055,1.031,0.4,1.852,1.037,2.461s1.459,0.914,2.467,0.914
		c1.406,0,2.703-0.438,3.891-1.312v2.086c-0.656,0.438-1.307,0.75-1.951,0.938s-1.4,0.281-2.268,0.281
		c-1.188,0-2.148-0.246-2.883-0.738s-1.322-1.154-1.764-1.986s-0.662-1.795-0.662-2.889c0-1.641,0.465-2.975,1.395-4.002
		s2.137-1.541,3.621-1.541c1.43,0,2.57,0.5,3.422,1.5s1.277,2.34,1.277,4.02V29.878z M32.803,28.601h5.426
		c-0.055-0.852-0.309-1.508-0.762-1.969s-1.062-0.691-1.828-0.691s-1.393,0.23-1.881,0.691S32.951,27.75,32.803,28.601z"/>
	<path fill="#FFFFFF" d="M49.42,28.601v4.582c0,0.367,0.125,0.551,0.375,0.551c0.258,0,0.66-0.191,1.207-0.574v1.301
		c-0.484,0.312-0.873,0.525-1.166,0.639s-0.6,0.17-0.92,0.17c-0.914,0-1.453-0.359-1.617-1.078
		c-0.906,0.703-1.871,1.055-2.895,1.055c-0.75,0-1.375-0.248-1.875-0.744s-0.75-1.119-0.75-1.869c0-0.68,0.244-1.287,0.732-1.822
		s1.182-0.959,2.08-1.271l2.73-0.938v-0.574c0-1.297-0.648-1.945-1.945-1.945c-1.164,0-2.297,0.602-3.398,1.805v-2.332
		c0.828-0.977,2.02-1.465,3.574-1.465c1.164,0,2.098,0.305,2.801,0.914c0.234,0.195,0.445,0.455,0.633,0.779
		s0.307,0.648,0.357,0.973S49.42,27.695,49.42,28.601z M47.322,32.949V29.75l-1.43,0.551c-0.727,0.289-1.24,0.58-1.541,0.873
		S43.9,31.832,43.9,32.269c0,0.445,0.143,0.809,0.428,1.09s0.654,0.422,1.107,0.422C46.115,33.781,46.744,33.503,47.322,32.949z"/>
	<path fill="#FFFFFF" d="M52.361,34.308v-2.297c0.602,0.422,1.217,0.764,1.846,1.025s1.158,0.393,1.588,0.393
		c0.445,0,0.828-0.109,1.148-0.328s0.48-0.48,0.48-0.785c0-0.312-0.104-0.572-0.311-0.779s-0.654-0.506-1.342-0.896
		c-1.375-0.766-2.275-1.42-2.701-1.963s-0.639-1.135-0.639-1.775c0-0.828,0.322-1.504,0.967-2.027s1.475-0.785,2.49-0.785
		c1.055,0,2.137,0.297,3.246,0.891v2.109c-1.266-0.766-2.301-1.148-3.105-1.148c-0.414,0-0.748,0.088-1.002,0.264
		c-0.254,0.176-0.381,0.409-0.381,0.698c0,0.25,0.115,0.489,0.345,0.716c0.23,0.227,0.635,0.5,1.213,0.82l0.762,0.434
		c1.797,1.016,2.696,2.14,2.696,3.374c0,0.882-0.346,1.607-1.037,2.173c-0.691,0.566-1.58,0.849-2.666,0.849
		c-0.641,0-1.211-0.068-1.711-0.205S53.119,34.675,52.361,34.308z"/>
	<path fill="#FFFFFF" d="M71.311,29.878h-7.582c0.055,1.031,0.4,1.852,1.037,2.461s1.459,0.914,2.467,0.914
		c1.406,0,2.703-0.438,3.891-1.312v2.086c-0.656,0.438-1.307,0.75-1.951,0.938s-1.4,0.281-2.268,0.281
		c-1.188,0-2.148-0.246-2.883-0.738s-1.322-1.154-1.764-1.986s-0.662-1.795-0.662-2.889c0-1.641,0.465-2.975,1.395-4.002
		s2.137-1.541,3.621-1.541c1.43,0,2.57,0.5,3.422,1.5s1.277,2.34,1.277,4.02V29.878z M63.775,28.601h5.426
		c-0.055-0.852-0.309-1.508-0.762-1.969s-1.062-0.691-1.828-0.691s-1.393,0.23-1.881,0.691S63.924,27.75,63.775,28.601z"/>
	<path fill="#FFFFFF" d="M87.482,18.71h2.145v16.371h-4.559c-1.594,0-2.865-0.504-3.814-1.512s-1.424-2.359-1.424-4.055
		c0-1.586,0.498-2.891,1.494-3.914s2.268-1.535,3.814-1.535c0.719,0,1.5,0.152,2.344,0.457V18.71z M87.482,33.253v-6.832
		c-0.664-0.336-1.336-0.504-2.016-0.504c-1.062,0-1.908,0.348-2.537,1.043s-0.943,1.633-0.943,2.812c0,1.109,0.273,1.965,0.82,2.566
		c0.328,0.359,0.676,0.602,1.043,0.727s1.027,0.188,1.98,0.188H87.482z"/>
	<path fill="#FFFFFF" d="M93.623,19.765c0.352,0,0.652,0.121,0.902,0.363s0.375,0.539,0.375,0.891c0,0.344-0.125,0.641-0.375,0.891
		s-0.551,0.375-0.902,0.375c-0.328,0-0.617-0.127-0.867-0.381s-0.375-0.549-0.375-0.885c0-0.328,0.125-0.619,0.375-0.873
		S93.295,19.765,93.623,19.765z M92.568,24.3h2.133v10.781h-2.133V24.3z"/>
	<path fill="#FFFFFF" d="M104.979,18.71h2.145v16.371h-4.559c-1.594,0-2.865-0.504-3.814-1.512s-1.424-2.359-1.424-4.055
		c0-1.586,0.498-2.891,1.494-3.914s2.268-1.535,3.814-1.535c0.719,0,1.5,0.152,2.344,0.457V18.71z M104.979,33.253v-6.832
		c-0.664-0.336-1.336-0.504-2.016-0.504c-1.062,0-1.908,0.348-2.537,1.043s-0.943,1.633-0.943,2.812c0,1.109,0.273,1.965,0.82,2.566
		c0.328,0.359,0.676,0.602,1.043,0.727s1.027,0.188,1.98,0.188H104.979z"/>
	<path fill="#FFFFFF" d="M117.787,19.765c0.352,0,0.652,0.121,0.902,0.363s0.375,0.539,0.375,0.891c0,0.344-0.125,0.641-0.375,0.891
		s-0.551,0.375-0.902,0.375c-0.328,0-0.617-0.127-0.867-0.381s-0.375-0.549-0.375-0.885c0-0.328,0.125-0.619,0.375-0.873
		S117.459,19.765,117.787,19.765z M116.732,24.3h2.133v10.781h-2.133V24.3z"/>
	<path fill="#FFFFFF" d="M120.436,26.011l4.008-3.938V24.3h3.41v1.922h-3.41v5.276c0,1.232,0.512,1.849,1.535,1.849
		c0.766,0,1.574-0.254,2.426-0.762v1.992c-0.82,0.461-1.715,0.691-2.684,0.691c-0.977,0-1.789-0.285-2.438-0.855
		c-0.203-0.172-0.371-0.365-0.504-0.58s-0.244-0.496-0.334-0.844s-0.135-1.01-0.135-1.986v-4.781h-1.875V26.011z"/>
	<path fill="#FFFFFF" d="M21.74,61.362v2.109c-1.07,0.398-2.117,0.598-3.141,0.598c-1.688,0-3.033-0.5-4.037-1.5
		s-1.506-2.34-1.506-4.02c0-1.695,0.488-3.062,1.465-4.102s2.262-1.559,3.855-1.559c0.555,0,1.053,0.053,1.494,0.158
		s0.986,0.303,1.635,0.592v2.273c-1.078-0.688-2.078-1.031-3-1.031c-0.961,0-1.75,0.338-2.367,1.014s-0.926,1.537-0.926,2.584
		c0,1.102,0.334,1.977,1.002,2.625s1.568,0.973,2.701,0.973C19.736,62.077,20.678,61.838,21.74,61.362z"/>
	<path fill="#FFFFFF" d="M29.322,53.077c1.641,0,3.004,0.529,4.09,1.588s1.629,2.389,1.629,3.99c0,1.555-0.551,2.846-1.652,3.873
		s-2.488,1.541-4.16,1.541c-1.617,0-2.969-0.521-4.055-1.564s-1.629-2.346-1.629-3.908c0-1.578,0.549-2.893,1.646-3.943
		S27.666,53.077,29.322,53.077z M29.205,54.999c-1.023,0-1.863,0.336-2.52,1.008s-0.984,1.527-0.984,2.566
		c0,1.031,0.336,1.873,1.008,2.525s1.535,0.979,2.59,0.979c1.047,0,1.904-0.33,2.572-0.99s1.002-1.506,1.002-2.537
		c0-1.023-0.348-1.871-1.043-2.543S30.26,54.999,29.205,54.999z"/>
	<path fill="#FFFFFF" d="M46.244,56.053v7.828H44.1v-6c0-1.195-0.16-2.029-0.48-2.502s-0.879-0.709-1.676-0.709
		c-0.445,0-0.854,0.102-1.225,0.305s-0.795,0.562-1.271,1.078v7.828h-2.133V53.1h2.133v1.418c1.086-1.086,2.148-1.629,3.188-1.629
		c1.367,0,2.426,0.648,3.176,1.945c1.141-1.312,2.332-1.969,3.574-1.969c1.047,0,1.908,0.383,2.584,1.148s1.014,1.934,1.014,3.504
		v6.363H50.85v-6.387c0-0.898-0.184-1.586-0.551-2.062s-0.895-0.715-1.582-0.715C47.834,54.717,47.01,55.163,46.244,56.053z"/>
	<path fill="#FFFFFF" d="M55.771,69.377V53.1h3.734c1.912,0,3.4,0.477,4.465,1.43c1.065,0.953,1.598,2.285,1.598,3.996
		c0,1.617-0.501,2.945-1.504,3.984c-1.002,1.039-2.279,1.559-3.832,1.559c-0.687,0-1.447-0.152-2.282-0.457v5.766H55.771z
		 M59.459,55.092h-1.508v6.633c0.655,0.336,1.341,0.504,2.058,0.504c0.998,0,1.814-0.348,2.45-1.043s0.953-1.59,0.953-2.684
		c0-0.703-0.15-1.324-0.45-1.863c-0.3-0.539-0.709-0.932-1.228-1.178C61.216,55.215,60.458,55.092,59.459,55.092z"/>
	<path fill="#FFFFFF" d="M69.014,48.565c0.352,0,0.652,0.121,0.902,0.363s0.375,0.539,0.375,0.891c0,0.344-0.125,0.641-0.375,0.891
		s-0.551,0.375-0.902,0.375c-0.328,0-0.617-0.127-0.867-0.381s-0.375-0.549-0.375-0.885c0-0.328,0.125-0.619,0.375-0.873
		S68.686,48.565,69.014,48.565z M67.959,53.1h2.133v10.781h-2.133V53.1z"/>
	<path fill="#FFFFFF" d="M73.221,47.51h2.133v16.371h-2.133V47.51z"/>
	<path fill="#FFFFFF" d="M87.623,58.678h-7.582c0.055,1.031,0.4,1.852,1.037,2.461s1.459,0.914,2.467,0.914
		c1.406,0,2.703-0.438,3.891-1.312v2.086c-0.656,0.438-1.307,0.75-1.951,0.938s-1.4,0.281-2.268,0.281
		c-1.188,0-2.148-0.246-2.883-0.738s-1.322-1.154-1.764-1.986s-0.662-1.795-0.662-2.889c0-1.641,0.465-2.975,1.395-4.002
		s2.137-1.541,3.621-1.541c1.43,0,2.57,0.5,3.422,1.5s1.277,2.34,1.277,4.02V58.678z M80.088,57.401h5.426
		c-0.055-0.852-0.309-1.508-0.762-1.969s-1.062-0.691-1.828-0.691s-1.393,0.23-1.881,0.691S80.236,56.549,80.088,57.401z"/>
	<path fill="#FFFFFF" d="M95.088,54.811l4.008-3.938V53.1h3.41v1.922h-3.41v5.276c0,1.232,0.512,1.849,1.535,1.849
		c0.766,0,1.574-0.254,2.426-0.762v1.992c-0.82,0.461-1.715,0.691-2.684,0.691c-0.977,0-1.789-0.285-2.438-0.855
		c-0.203-0.172-0.371-0.365-0.504-0.58s-0.244-0.496-0.334-0.844s-0.135-1.01-0.135-1.986v-4.781h-1.875V54.811z"/>
	<path fill="#FFFFFF" d="M104.545,47.51h2.133v7.008c0.891-1.086,1.996-1.629,3.316-1.629c0.719,0,1.363,0.18,1.934,0.539
		s0.994,0.855,1.271,1.488s0.416,1.574,0.416,2.824v6.141h-2.133v-6.668c0-0.789-0.193-1.424-0.58-1.904s-0.896-0.721-1.529-0.721
		c-0.469,0-0.91,0.121-1.324,0.363s-0.871,0.645-1.371,1.207v7.723h-2.133V47.51z"/>
	<path fill="#FFFFFF" d="M117.693,48.565c0.352,0,0.652,0.121,0.902,0.363s0.375,0.539,0.375,0.891c0,0.344-0.125,0.641-0.375,0.891
		s-0.551,0.375-0.902,0.375c-0.328,0-0.617-0.127-0.867-0.381s-0.375-0.549-0.375-0.885c0-0.328,0.125-0.619,0.375-0.873
		S117.365,48.565,117.693,48.565z M116.639,53.1h2.133v10.781h-2.133V53.1z"/>
	<path fill="#FFFFFF" d="M121.326,63.108v-2.297c0.602,0.422,1.217,0.764,1.846,1.025s1.158,0.393,1.588,0.393
		c0.445,0,0.828-0.109,1.148-0.328s0.48-0.48,0.48-0.785c0-0.312-0.104-0.572-0.311-0.779s-0.654-0.506-1.342-0.896
		c-1.375-0.766-2.275-1.42-2.701-1.963s-0.639-1.135-0.639-1.775c0-0.828,0.322-1.504,0.967-2.027s1.475-0.785,2.49-0.785
		c1.055,0,2.137,0.297,3.246,0.891v2.109c-1.266-0.766-2.301-1.148-3.105-1.148c-0.414,0-0.748,0.088-1.002,0.265
		c-0.254,0.176-0.381,0.408-0.381,0.697c0,0.25,0.115,0.489,0.345,0.716c0.23,0.228,0.635,0.501,1.213,0.82l0.762,0.434
		c1.797,1.016,2.696,2.14,2.696,3.374c0,0.883-0.346,1.607-1.037,2.174c-0.691,0.565-1.58,0.849-2.666,0.849
		c-0.641,0-1.211-0.068-1.711-0.205S122.084,63.475,121.326,63.108z"/>
	<path fill="#FFFFFF" d="M136.244,54.811l4.008-3.938V53.1h3.41v1.922h-3.41v5.276c0,1.232,0.512,1.849,1.535,1.849
		c0.766,0,1.574-0.254,2.426-0.762v1.992c-0.82,0.461-1.715,0.691-2.684,0.691c-0.977,0-1.789-0.285-2.438-0.855
		c-0.203-0.172-0.371-0.365-0.504-0.58s-0.244-0.496-0.334-0.844s-0.135-1.01-0.135-1.986v-4.781h-1.875V54.811z"/>
	<path fill="#FFFFFF" d="M146.85,48.565c0.352,0,0.652,0.121,0.902,0.363s0.375,0.539,0.375,0.891c0,0.344-0.125,0.641-0.375,0.891
		s-0.551,0.375-0.902,0.375c-0.328,0-0.617-0.127-0.867-0.381s-0.375-0.549-0.375-0.885c0-0.328,0.125-0.619,0.375-0.873
		S146.521,48.565,146.85,48.565z M145.795,53.1h2.133v10.781h-2.133V53.1z"/>
	<path fill="#FFFFFF" d="M159.846,56.053v7.828h-2.145v-6c0-1.195-0.16-2.029-0.48-2.502s-0.879-0.709-1.676-0.709
		c-0.445,0-0.854,0.102-1.225,0.305s-0.795,0.562-1.271,1.078v7.828h-2.133V53.1h2.133v1.418c1.086-1.086,2.148-1.629,3.188-1.629
		c1.367,0,2.426,0.648,3.176,1.945c1.141-1.312,2.332-1.969,3.574-1.969c1.047,0,1.908,0.383,2.584,1.148s1.014,1.934,1.014,3.504
		v6.363h-2.133v-6.387c0-0.898-0.184-1.586-0.551-2.062s-0.895-0.715-1.582-0.715C161.436,54.717,160.611,55.163,159.846,56.053z"/>
	<path fill="#FFFFFF" d="M178.701,58.678h-7.582c0.055,1.031,0.4,1.852,1.037,2.461s1.459,0.914,2.467,0.914
		c1.406,0,2.703-0.438,3.891-1.312v2.086c-0.656,0.438-1.307,0.75-1.951,0.938s-1.4,0.281-2.268,0.281
		c-1.188,0-2.148-0.246-2.883-0.738s-1.322-1.154-1.764-1.986s-0.662-1.795-0.662-2.889c0-1.641,0.465-2.975,1.395-4.002
		s2.137-1.541,3.621-1.541c1.43,0,2.57,0.5,3.422,1.5s1.277,2.34,1.277,4.02V58.678z M171.166,57.401h5.426
		c-0.055-0.852-0.309-1.508-0.762-1.969s-1.062-0.691-1.828-0.691s-1.393,0.23-1.881,0.691S171.314,56.549,171.166,57.401z"/>
</g>
</svg>
