<?xml version="1.0" encoding="utf-8"?>
<!-- Generator: Adobe Illustrator 15.0.0, SVG Export Plug-In . SVG Version: 6.00 Build 0)  -->
<!DOCTYPE svg PUBLIC "-//W3C//DTD SVG 1.1//EN" "http://www.w3.org/Graphics/SVG/1.1/DTD/svg11.dtd">
<svg version="1.1" id="Layer_1" xmlns="http://www.w3.org/2000/svg" xmlns:xlink="http://www.w3.org/1999/xlink" x="0px" y="0px"
	 width="134.011px" height="143.618px" viewBox="0 0 134.011 143.618" enable-background="new 0 0 134.011 143.618"
	 xml:space="preserve">
<g>
	<path fill="#262262" d="M110.686,140.618c0,1.657-1.427,3-3.188,3H3.187c-1.76,0-3.187-1.343-3.187-3V3c0-1.657,1.427-3,3.187-3
		h104.311c1.761,0,3.188,1.343,3.188,3V140.618z"/>
</g>
<g>
	<polygon fill="#262262" points="108.141,37.809 134.011,49.165 108.141,60.519 	"/>
</g>
<g>
	<path fill="#FFFFFF" d="M16.397,35.994V19.6h5.191c1.562,0,2.809,0.422,3.738,1.266s1.395,1.977,1.395,3.398
		c0,0.953-0.238,1.797-0.715,2.531s-1.129,1.268-1.957,1.6s-2.016,0.498-3.562,0.498h-1.734v7.102H16.397z M21.179,21.686h-2.426
		v5.121h2.566c0.953,0,1.688-0.225,2.203-0.674s0.773-1.092,0.773-1.928C24.296,22.525,23.257,21.686,21.179,21.686z"/>
	<path fill="#FFFFFF" d="M30.753,25.213v2.473l0.117-0.188c1.031-1.664,2.062-2.496,3.094-2.496c0.805,0,1.645,0.406,2.52,1.219
		l-1.125,1.875c-0.742-0.703-1.43-1.055-2.062-1.055c-0.688,0-1.283,0.328-1.787,0.984s-0.756,1.434-0.756,2.332v5.637h-2.145
		V25.213H30.753z"/>
	<path fill="#FFFFFF" d="M42.53,25.189c1.641,0,3.004,0.529,4.09,1.588s1.629,2.389,1.629,3.99c0,1.555-0.551,2.846-1.652,3.873
		s-2.488,1.541-4.16,1.541c-1.617,0-2.969-0.521-4.055-1.564s-1.629-2.346-1.629-3.908c0-1.578,0.549-2.893,1.646-3.943
		S40.874,25.189,42.53,25.189z M42.413,27.111c-1.023,0-1.863,0.336-2.52,1.008s-0.984,1.527-0.984,2.566
		c0,1.031,0.336,1.873,1.008,2.525s1.535,0.979,2.59,0.979c1.047,0,1.904-0.33,2.572-0.99s1.002-1.506,1.002-2.537
		c0-1.023-0.348-1.871-1.043-2.543S43.468,27.111,42.413,27.111z"/>
	<path fill="#FFFFFF" d="M50.522,19.623h2.133v6.363c0.922-0.672,1.906-1.008,2.953-1.008c1.367,0,2.484,0.516,3.352,1.547
		s1.301,2.355,1.301,3.973c0,1.734-0.518,3.115-1.553,4.143s-2.42,1.541-4.154,1.541c-0.695,0-1.428-0.074-2.197-0.223
		s-1.381-0.336-1.834-0.562V19.623z M52.655,28.025v5.836c0.727,0.219,1.473,0.328,2.238,0.328c0.945,0,1.717-0.336,2.314-1.008
		s0.896-1.535,0.896-2.59c0-1.07-0.279-1.941-0.838-2.613s-1.287-1.008-2.186-1.008C54.284,26.971,53.476,27.322,52.655,28.025z"/>
	<path fill="#FFFFFF" d="M69.39,29.514v4.582c0,0.367,0.125,0.551,0.375,0.551c0.258,0,0.66-0.191,1.207-0.574v1.301
		c-0.484,0.312-0.873,0.525-1.166,0.639s-0.6,0.17-0.92,0.17c-0.914,0-1.453-0.359-1.617-1.078
		c-0.906,0.703-1.871,1.055-2.895,1.055c-0.75,0-1.375-0.248-1.875-0.744s-0.75-1.119-0.75-1.869c0-0.68,0.244-1.287,0.732-1.822
		s1.182-0.959,2.08-1.271l2.73-0.938v-0.574c0-1.297-0.648-1.945-1.945-1.945c-1.164,0-2.297,0.602-3.398,1.805v-2.332
		c0.828-0.977,2.02-1.465,3.574-1.465c1.164,0,2.098,0.305,2.801,0.914c0.234,0.195,0.445,0.455,0.633,0.779
		s0.307,0.648,0.357,0.973S69.39,28.607,69.39,29.514z M67.292,33.861v-3.199l-1.43,0.551c-0.727,0.289-1.24,0.58-1.541,0.873
		s-0.451,0.658-0.451,1.096c0,0.445,0.143,0.809,0.428,1.09s0.654,0.422,1.107,0.422C66.085,34.693,66.714,34.416,67.292,33.861z"/>
	<path fill="#FFFFFF" d="M72.765,19.623h2.133v6.363c0.922-0.672,1.906-1.008,2.953-1.008c1.367,0,2.484,0.516,3.352,1.547
		s1.301,2.355,1.301,3.973c0,1.734-0.518,3.115-1.553,4.143s-2.42,1.541-4.154,1.541c-0.695,0-1.428-0.074-2.197-0.223
		s-1.381-0.336-1.834-0.562V19.623z M74.897,28.025v5.836c0.727,0.219,1.473,0.328,2.238,0.328c0.945,0,1.717-0.336,2.314-1.008
		s0.896-1.535,0.896-2.59c0-1.07-0.279-1.941-0.838-2.613s-1.287-1.008-2.186-1.008C76.526,26.971,75.718,27.322,74.897,28.025z"/>
	<path fill="#FFFFFF" d="M84.905,19.623h2.133v16.371h-2.133V19.623z"/>
	<path fill="#FFFFFF" d="M96.504,25.213h2.394l-7.64,16.277h-2.38l3.659-7.812l-4.163-8.466h2.431l2.911,6.09L96.504,25.213z"/>
	<path fill="#FFFFFF" d="M25.421,59.591h-7.582c0.055,1.031,0.4,1.852,1.037,2.461s1.459,0.914,2.467,0.914
		c1.406,0,2.703-0.438,3.891-1.312v2.086c-0.656,0.438-1.307,0.75-1.951,0.938s-1.4,0.281-2.268,0.281
		c-1.188,0-2.148-0.246-2.883-0.738s-1.322-1.154-1.764-1.986s-0.662-1.795-0.662-2.889c0-1.641,0.465-2.975,1.395-4.002
		s2.137-1.541,3.621-1.541c1.43,0,2.57,0.5,3.422,1.5s1.277,2.34,1.277,4.02V59.591z M17.886,58.313h5.426
		c-0.055-0.852-0.309-1.508-0.762-1.969s-1.062-0.691-1.828-0.691s-1.393,0.23-1.881,0.691S18.034,57.462,17.886,58.313z"/>
	<path fill="#FFFFFF" d="M29.862,54.013v1.371c0.953-1.055,2.035-1.582,3.246-1.582c0.672,0,1.297,0.174,1.875,0.521
		s1.018,0.824,1.318,1.43s0.451,1.564,0.451,2.877v6.164H34.62v-6.141c0-1.102-0.168-1.889-0.504-2.361s-0.898-0.709-1.688-0.709
		c-1.008,0-1.863,0.504-2.566,1.512v7.699h-2.18V54.013H29.862z"/>
	<path fill="#FFFFFF" d="M44.886,53.989c1.641,0,3.004,0.529,4.09,1.588s1.629,2.389,1.629,3.99c0,1.555-0.551,2.846-1.652,3.873
		s-2.488,1.541-4.16,1.541c-1.617,0-2.969-0.521-4.055-1.564s-1.629-2.346-1.629-3.908c0-1.578,0.549-2.893,1.646-3.943
		S43.229,53.989,44.886,53.989z M44.769,55.911c-1.023,0-1.863,0.336-2.52,1.008s-0.984,1.527-0.984,2.566
		c0,1.031,0.336,1.873,1.008,2.525s1.535,0.979,2.59,0.979c1.047,0,1.904-0.33,2.572-0.99s1.002-1.506,1.002-2.537
		c0-1.023-0.348-1.871-1.043-2.543S45.823,55.911,44.769,55.911z"/>
	<path fill="#FFFFFF" d="M59.839,64.794v-1.383c-0.453,0.496-0.971,0.882-1.553,1.157s-1.162,0.413-1.74,0.413
		c-0.68,0-1.307-0.17-1.881-0.51s-1.008-0.801-1.301-1.383s-0.439-1.549-0.439-2.9v-6.176h2.133v6.145
		c0,1.131,0.162,1.921,0.486,2.37s0.893,0.673,1.705,0.673c1.016,0,1.879-0.496,2.59-1.488v-7.699h2.133v10.781H59.839z"/>
	<path fill="#FFFFFF" d="M64.421,57.739c0-1.148,0.42-2.057,1.26-2.725s1.986-1.002,3.439-1.002h4.441v1.664h-2.18
		c0.422,0.43,0.715,0.82,0.879,1.172s0.246,0.754,0.246,1.207c0,0.562-0.16,1.115-0.48,1.658s-0.732,0.959-1.236,1.248
		s-1.33,0.52-2.479,0.691c-0.805,0.117-1.207,0.395-1.207,0.832c0,0.25,0.15,0.455,0.451,0.615s0.846,0.326,1.635,0.498
		c1.32,0.289,2.17,0.516,2.549,0.68s0.721,0.398,1.025,0.703c0.516,0.516,0.773,1.164,0.773,1.945c0,1.023-0.455,1.84-1.365,2.449
		s-2.127,0.914-3.65,0.914c-1.539,0-2.768-0.307-3.686-0.92s-1.377-1.436-1.377-2.467c0-1.461,0.902-2.402,2.707-2.824
		c-0.719-0.461-1.078-0.918-1.078-1.371c0-0.344,0.154-0.656,0.463-0.938s0.725-0.488,1.248-0.621
		C65.214,60.446,64.421,59.31,64.421,57.739z M67.925,65.298c-0.719,0-1.307,0.152-1.764,0.457s-0.686,0.695-0.686,1.172
		c0,1.109,1,1.664,3,1.664c0.945,0,1.678-0.139,2.197-0.416s0.779-0.67,0.779-1.178c0-0.5-0.328-0.908-0.984-1.225
		S68.964,65.298,67.925,65.298z M68.429,55.864c-0.578,0-1.07,0.195-1.477,0.586s-0.609,0.859-0.609,1.406
		c0,0.555,0.199,1.014,0.598,1.377s0.902,0.545,1.512,0.545c0.602,0,1.104-0.186,1.506-0.557s0.604-0.834,0.604-1.389
		c0-0.562-0.203-1.031-0.609-1.406S69.038,55.864,68.429,55.864z"/>
	<path fill="#FFFFFF" d="M75.167,48.423H77.3v7.008c0.891-1.086,1.996-1.629,3.316-1.629c0.719,0,1.363,0.18,1.934,0.539
		s0.994,0.855,1.271,1.488s0.416,1.574,0.416,2.824v6.141h-2.133v-6.668c0-0.789-0.193-1.424-0.58-1.904s-0.896-0.721-1.529-0.721
		c-0.469,0-0.91,0.121-1.324,0.363S77.8,56.509,77.3,57.071v7.723h-2.133V48.423z"/>
	<path fill="#FFFFFF" d="M14.722,84.524l4.008-3.938v2.227h3.41v1.922h-3.41v5.275c0,1.232,0.512,1.85,1.535,1.85
		c0.766,0,1.574-0.254,2.426-0.762v1.992c-0.82,0.461-1.715,0.691-2.684,0.691c-0.977,0-1.789-0.285-2.438-0.855
		c-0.203-0.172-0.371-0.365-0.504-0.58s-0.244-0.496-0.334-0.844s-0.135-1.01-0.135-1.986v-4.781h-1.875V84.524z"/>
	<path fill="#FFFFFF" d="M29.382,82.79c1.641,0,3.004,0.529,4.09,1.588s1.629,2.389,1.629,3.99c0,1.555-0.551,2.846-1.652,3.873
		s-2.488,1.541-4.16,1.541c-1.617,0-2.969-0.521-4.055-1.564s-1.629-2.346-1.629-3.908c0-1.578,0.549-2.893,1.646-3.943
		S27.726,82.79,29.382,82.79z M29.265,84.712c-1.023,0-1.863,0.336-2.52,1.008s-0.984,1.527-0.984,2.566
		c0,1.031,0.336,1.873,1.008,2.525s1.535,0.979,2.59,0.979c1.047,0,1.904-0.33,2.572-0.99s1.002-1.506,1.002-2.537
		c0-1.023-0.348-1.871-1.043-2.543S30.319,84.712,29.265,84.712z"/>
	<path fill="#FFFFFF" d="M39.753,82.813v2.473l0.117-0.188c1.031-1.664,2.062-2.496,3.094-2.496c0.805,0,1.645,0.406,2.52,1.219
		l-1.125,1.875c-0.742-0.703-1.43-1.055-2.062-1.055c-0.688,0-1.283,0.328-1.787,0.984s-0.756,1.434-0.756,2.332v5.637h-2.145
		V82.813H39.753z"/>
	<path fill="#FFFFFF" d="M51.467,82.813h4.036v16.277H53.37v-5.684c-0.931,0.25-1.718,0.375-2.359,0.375
		c-1.533,0-2.801-0.516-3.803-1.547c-1.001-1.031-1.502-2.34-1.502-3.926c0-1.68,0.52-3.016,1.561-4.008
		C48.307,83.31,49.707,82.813,51.467,82.813z M53.37,91.556v-6.75H52.02c-0.924,0-1.541,0.041-1.85,0.123
		c-0.31,0.082-0.578,0.194-0.805,0.338c-0.227,0.145-0.435,0.322-0.622,0.533c-0.587,0.662-0.881,1.482-0.881,2.457
		c0,1.1,0.331,1.998,0.992,2.697c0.662,0.697,1.517,1.047,2.566,1.047c0.243,0,0.442-0.016,0.599-0.046s0.501-0.134,1.033-0.309
		l0.165-0.046L53.37,91.556z"/>
	<path fill="#FFFFFF" d="M65.241,93.595v-1.383c-0.453,0.496-0.971,0.881-1.553,1.156s-1.162,0.414-1.74,0.414
		c-0.68,0-1.307-0.17-1.881-0.51s-1.008-0.801-1.301-1.383s-0.439-1.549-0.439-2.9v-6.176h2.133v6.145
		c0,1.131,0.162,1.921,0.486,2.369c0.324,0.449,0.893,0.674,1.705,0.674c1.016,0,1.879-0.496,2.59-1.488v-7.699h2.133v10.781H65.241
		z"/>
	<path fill="#FFFFFF" d="M79.562,88.392h-7.582c0.055,1.031,0.4,1.852,1.037,2.461s1.459,0.914,2.467,0.914
		c1.406,0,2.703-0.438,3.891-1.312v2.086c-0.656,0.438-1.307,0.75-1.951,0.938s-1.4,0.281-2.268,0.281
		c-1.188,0-2.148-0.246-2.883-0.738s-1.322-1.154-1.764-1.986s-0.662-1.795-0.662-2.889c0-1.641,0.465-2.975,1.395-4.002
		s2.137-1.541,3.621-1.541c1.43,0,2.57,0.5,3.422,1.5s1.277,2.34,1.277,4.02V88.392z M72.026,87.114h5.426
		c-0.055-0.852-0.309-1.508-0.762-1.969s-1.062-0.691-1.828-0.691s-1.393,0.23-1.881,0.691S72.175,86.263,72.026,87.114z"/>
	<path fill="#FFFFFF" d="M82.011,96.431v-0.434c0.352-0.336,0.598-0.674,0.738-1.014s0.223-0.803,0.246-1.389
		c-0.828-0.242-1.242-0.754-1.242-1.535c0-0.422,0.143-0.787,0.428-1.096s0.623-0.463,1.014-0.463c0.477,0,0.867,0.211,1.172,0.633
		s0.457,0.961,0.457,1.617c0,0.867-0.25,1.629-0.75,2.285S82.886,96.157,82.011,96.431z"/>
	<path fill="#FFFFFF" d="M18.519,111.612v2.473l0.117-0.188c1.031-1.664,2.062-2.496,3.094-2.496c0.805,0,1.645,0.406,2.52,1.219
		l-1.125,1.875c-0.742-0.703-1.43-1.055-2.062-1.055c-0.688,0-1.283,0.328-1.787,0.984s-0.756,1.434-0.756,2.332v5.637h-2.145
		v-10.781H18.519z"/>
	<path fill="#FFFFFF" d="M26.839,107.077c0.352,0,0.652,0.121,0.902,0.363s0.375,0.539,0.375,0.891c0,0.344-0.125,0.641-0.375,0.891
		s-0.551,0.375-0.902,0.375c-0.328,0-0.617-0.127-0.867-0.381s-0.375-0.549-0.375-0.885c0-0.328,0.125-0.619,0.375-0.873
		S26.511,107.077,26.839,107.077z M25.784,111.612h2.133v10.781h-2.133V111.612z"/>
	<path fill="#FFFFFF" d="M30.448,115.339c0-1.148,0.42-2.057,1.26-2.725s1.986-1.002,3.439-1.002h4.441v1.664h-2.18
		c0.422,0.43,0.715,0.82,0.879,1.172s0.246,0.754,0.246,1.207c0,0.562-0.16,1.115-0.48,1.658s-0.732,0.959-1.236,1.248
		s-1.33,0.52-2.479,0.691c-0.805,0.117-1.207,0.395-1.207,0.832c0,0.25,0.15,0.455,0.451,0.615s0.846,0.326,1.635,0.498
		c1.32,0.289,2.17,0.516,2.549,0.68s0.721,0.398,1.025,0.703c0.516,0.516,0.773,1.164,0.773,1.945c0,1.023-0.455,1.84-1.365,2.449
		s-2.127,0.914-3.65,0.914c-1.539,0-2.768-0.307-3.686-0.92s-1.377-1.436-1.377-2.467c0-1.461,0.902-2.402,2.707-2.824
		c-0.719-0.461-1.078-0.918-1.078-1.371c0-0.344,0.154-0.656,0.463-0.938s0.725-0.488,1.248-0.621
		C31.241,118.046,30.448,116.909,30.448,115.339z M33.952,122.897c-0.719,0-1.307,0.152-1.764,0.457s-0.686,0.695-0.686,1.172
		c0,1.109,1,1.664,3,1.664c0.945,0,1.678-0.139,2.197-0.416s0.779-0.67,0.779-1.178c0-0.5-0.328-0.908-0.984-1.225
		S34.991,122.897,33.952,122.897z M34.456,113.464c-0.578,0-1.07,0.195-1.477,0.586s-0.609,0.859-0.609,1.406
		c0,0.555,0.199,1.014,0.598,1.377s0.902,0.545,1.512,0.545c0.602,0,1.104-0.186,1.506-0.557s0.604-0.834,0.604-1.389
		c0-0.562-0.203-1.031-0.609-1.406S35.065,113.464,34.456,113.464z"/>
	<path fill="#FFFFFF" d="M41.194,106.022h2.133v7.008c0.891-1.086,1.996-1.629,3.316-1.629c0.719,0,1.363,0.18,1.934,0.539
		s0.994,0.855,1.271,1.488s0.416,1.574,0.416,2.824v6.141h-2.133v-6.668c0-0.789-0.193-1.424-0.58-1.904s-0.896-0.721-1.529-0.721
		c-0.469,0-0.91,0.121-1.324,0.363s-0.871,0.645-1.371,1.207v7.723h-2.133V106.022z"/>
	<path fill="#FFFFFF" d="M51.729,113.323l4.008-3.938v2.227h3.41v1.922h-3.41v5.277c0,1.232,0.512,1.848,1.535,1.848
		c0.766,0,1.574-0.254,2.426-0.762v1.992c-0.82,0.461-1.715,0.691-2.684,0.691c-0.977,0-1.789-0.285-2.438-0.855
		c-0.203-0.172-0.371-0.365-0.504-0.58s-0.244-0.496-0.334-0.844s-0.135-1.01-0.135-1.986v-4.781h-1.875V113.323z"/>
</g>
</svg>
