<?xml version="1.0" encoding="utf-8"?>
<!-- Generator: Adobe Illustrator 15.0.0, SVG Export Plug-In . SVG Version: 6.00 Build 0)  -->
<!DOCTYPE svg PUBLIC "-//W3C//DTD SVG 1.1//EN" "http://www.w3.org/Graphics/SVG/1.1/DTD/svg11.dtd">
<svg version="1.1" id="Layer_1" xmlns="http://www.w3.org/2000/svg" xmlns:xlink="http://www.w3.org/1999/xlink" x="0px" y="0px"
	 width="304.441px" height="70.301px" viewBox="0 0 304.441 70.301" enable-background="new 0 0 304.441 70.301"
	 xml:space="preserve">
<g>
	<polygon fill="#F15A29" points="74.587,25.871 85.942,0 97.297,25.871 	"/>
</g>
<g>
</g>
<g>
	<path fill="#F15A29" d="M304.441,67.941c0,1.304-1.343,2.36-3,2.36H3c-1.657,0-3-1.057-3-2.36V25.447c0-1.304,1.343-2.36,3-2.36
		h298.441c1.657,0,3,1.056,3,2.36V67.941z"/>
</g>
<g>
	<path fill="#FFFFFF" d="M27.745,37.891h1.647l7.34,16.465h-2.399l-2.182-4.852h-6.985l-2.045,4.852h-2.409L27.745,37.891z
		 M31.188,47.418l-2.641-5.93l-2.449,5.93H31.188z"/>
	<path fill="#FFFFFF" d="M45.428,37.984h2.145v16.372h-4.559c-1.594,0-2.865-0.504-3.814-1.512s-1.424-2.359-1.424-4.055
		c0-1.586,0.498-2.891,1.494-3.914s2.268-1.535,3.814-1.535c0.719,0,1.5,0.152,2.344,0.457V37.984z M45.428,52.528v-6.832
		c-0.664-0.336-1.336-0.504-2.016-0.504c-1.062,0-1.908,0.348-2.537,1.043s-0.943,1.633-0.943,2.812c0,1.109,0.273,1.965,0.82,2.566
		c0.328,0.359,0.676,0.602,1.043,0.727s1.027,0.188,1.98,0.188H45.428z"/>
	<path fill="#FFFFFF" d="M57.241,47.875v4.582c0,0.367,0.125,0.551,0.375,0.551c0.258,0,0.66-0.191,1.207-0.574v1.301
		c-0.484,0.312-0.873,0.525-1.166,0.639s-0.6,0.17-0.92,0.17c-0.914,0-1.453-0.359-1.617-1.078
		c-0.906,0.703-1.871,1.055-2.895,1.055c-0.75,0-1.375-0.248-1.875-0.744s-0.75-1.119-0.75-1.869c0-0.68,0.244-1.287,0.732-1.822
		s1.182-0.959,2.08-1.271l2.73-0.938v-0.574c0-1.297-0.648-1.945-1.945-1.945c-1.164,0-2.297,0.602-3.398,1.805v-2.332
		c0.828-0.977,2.02-1.465,3.574-1.465c1.164,0,2.098,0.305,2.801,0.914c0.234,0.195,0.445,0.455,0.633,0.779
		s0.307,0.648,0.357,0.973S57.241,46.969,57.241,47.875z M55.143,52.223v-3.199l-1.43,0.551c-0.727,0.289-1.24,0.58-1.541,0.873
		s-0.451,0.658-0.451,1.096c0,0.445,0.143,0.809,0.428,1.09s0.654,0.422,1.107,0.422C53.936,53.055,54.565,52.778,55.143,52.223z"/>
	<path fill="#FFFFFF" d="M60.334,59.852V43.575h3.734c1.912,0,3.4,0.477,4.465,1.43c1.065,0.953,1.598,2.285,1.598,3.996
		c0,1.617-0.501,2.945-1.504,3.984c-1.002,1.039-2.279,1.559-3.832,1.559c-0.687,0-1.447-0.152-2.282-0.457v5.766H60.334z
		 M64.022,45.567h-1.508V52.2c0.655,0.336,1.341,0.504,2.058,0.504c0.998,0,1.814-0.348,2.45-1.043s0.953-1.59,0.953-2.684
		c0-0.703-0.15-1.324-0.45-1.863c-0.3-0.539-0.709-0.932-1.228-1.178C65.779,45.69,65.021,45.567,64.022,45.567z"/>
	<path fill="#FFFFFF" d="M70.963,45.286l4.008-3.938v2.227h3.41v1.922h-3.41v5.275c0,1.232,0.512,1.85,1.535,1.85
		c0.766,0,1.574-0.254,2.426-0.762v1.992c-0.82,0.461-1.715,0.691-2.684,0.691c-0.977,0-1.789-0.285-2.438-0.855
		c-0.203-0.172-0.371-0.365-0.504-0.58s-0.244-0.496-0.334-0.844s-0.135-1.01-0.135-1.986v-4.781h-1.875V45.286z"/>
	<path fill="#FFFFFF" d="M81.569,39.039c0.352,0,0.652,0.121,0.902,0.363s0.375,0.539,0.375,0.891c0,0.344-0.125,0.641-0.375,0.891
		s-0.551,0.375-0.902,0.375c-0.328,0-0.617-0.127-0.867-0.381s-0.375-0.549-0.375-0.885c0-0.328,0.125-0.619,0.375-0.873
		S81.241,39.039,81.569,39.039z M80.514,43.575h2.133v10.781h-2.133V43.575z"/>
	<path fill="#FFFFFF" d="M92.334,43.575h2.312l-4.762,10.969h-0.722l-4.876-10.969h2.334l2.91,6.633L92.334,43.575z"/>
	<path fill="#FFFFFF" d="M104.948,49.153h-7.582c0.055,1.031,0.4,1.852,1.037,2.461s1.459,0.914,2.467,0.914
		c1.406,0,2.703-0.438,3.891-1.312v2.086c-0.656,0.438-1.307,0.75-1.951,0.938s-1.4,0.281-2.268,0.281
		c-1.188,0-2.148-0.246-2.883-0.738s-1.322-1.154-1.764-1.986S95.233,50,95.233,48.907c0-1.641,0.465-2.975,1.395-4.002
		s2.137-1.541,3.621-1.541c1.43,0,2.57,0.5,3.422,1.5s1.277,2.34,1.277,4.02V49.153z M97.413,47.875h5.426
		c-0.055-0.852-0.309-1.508-0.762-1.969s-1.062-0.691-1.828-0.691s-1.393,0.23-1.881,0.691S97.561,47.024,97.413,47.875z"/>
	<path fill="#FFFFFF" d="M114.17,43.575V42.93c0-1.734,0.369-3.027,1.107-3.879s1.623-1.277,2.654-1.277
		c0.445,0,0.973,0.07,1.582,0.211v2.086c-0.344-0.125-0.672-0.188-0.984-0.188c-0.836,0-1.416,0.223-1.74,0.668
		s-0.486,1.238-0.486,2.379v0.645h1.922v1.922h-1.922v8.859h-2.133v-8.859h-1.547v-1.922H114.17z"/>
	<path fill="#FFFFFF" d="M124.846,43.551c1.641,0,3.004,0.529,4.09,1.588s1.629,2.389,1.629,3.99c0,1.555-0.551,2.846-1.652,3.873
		s-2.488,1.541-4.16,1.541c-1.617,0-2.969-0.521-4.055-1.564s-1.629-2.346-1.629-3.908c0-1.578,0.549-2.893,1.646-3.943
		S123.19,43.551,124.846,43.551z M124.729,45.473c-1.023,0-1.863,0.336-2.52,1.008s-0.984,1.527-0.984,2.566
		c0,1.031,0.336,1.873,1.008,2.525s1.535,0.979,2.59,0.979c1.047,0,1.904-0.33,2.572-0.99s1.002-1.506,1.002-2.537
		c0-1.023-0.348-1.871-1.043-2.543S125.784,45.473,124.729,45.473z"/>
	<path fill="#FFFFFF" d="M132.979,37.984h2.133v16.372h-2.133V37.984z"/>
	<path fill="#FFFFFF" d="M138.241,37.984h2.133v16.372h-2.133V37.984z"/>
	<path fill="#FFFFFF" d="M148.612,43.551c1.641,0,3.004,0.529,4.09,1.588c1.085,1.059,1.628,2.389,1.628,3.99
		c0,1.555-0.551,2.846-1.652,3.873c-1.102,1.027-2.488,1.541-4.16,1.541c-1.617,0-2.969-0.521-4.055-1.564s-1.629-2.346-1.629-3.908
		c0-1.578,0.549-2.893,1.646-3.943S146.956,43.551,148.612,43.551z M148.495,45.473c-1.023,0-1.863,0.336-2.52,1.008
		s-0.984,1.527-0.984,2.566c0,1.031,0.336,1.873,1.008,2.525s1.535,0.979,2.59,0.979c1.047,0,1.904-0.33,2.572-0.99
		s1.002-1.506,1.002-2.537c0-1.023-0.348-1.871-1.043-2.543S149.549,45.473,148.495,45.473z"/>
	<path fill="#FFFFFF" d="M169.938,43.575h2.287l-4.762,10.969h-0.682l-3.188-7.512l-3.148,7.512h-0.691l-4.803-10.969h2.291
		l2.824,6.539l2.754-6.539h1.582l2.719,6.539L169.938,43.575z"/>
	<path fill="#FFFFFF" d="M173.174,47.899h5.836v2.285h-5.836V47.899z"/>
	<path fill="#FFFFFF" d="M188.35,54.356v-1.383c-0.453,0.496-0.971,0.881-1.553,1.156s-1.162,0.414-1.74,0.414
		c-0.68,0-1.307-0.17-1.881-0.51s-1.008-0.801-1.301-1.383s-0.439-1.549-0.439-2.9v-6.176h2.133v6.145
		c0,1.131,0.162,1.921,0.486,2.369c0.324,0.449,0.893,0.674,1.705,0.674c1.016,0,1.879-0.496,2.59-1.488v-7.699h2.133v10.781H188.35
		z"/>
	<path fill="#FFFFFF" d="M193.342,59.852V43.575h3.734c1.912,0,3.4,0.477,4.465,1.43c1.065,0.953,1.598,2.285,1.598,3.996
		c0,1.617-0.501,2.945-1.504,3.984c-1.002,1.039-2.279,1.559-3.831,1.559c-0.687,0-1.447-0.152-2.282-0.457v5.766H193.342z
		 M197.03,45.567h-1.509V52.2c0.655,0.336,1.342,0.504,2.059,0.504c0.998,0,1.814-0.348,2.449-1.043
		c0.636-0.695,0.953-1.59,0.953-2.684c0-0.703-0.15-1.324-0.449-1.863c-0.301-0.539-0.71-0.932-1.229-1.178
		C198.787,45.69,198.028,45.567,197.03,45.567z"/>
	<path fill="#FFFFFF" d="M221.338,49.153h-7.582c0.055,1.031,0.4,1.852,1.037,2.461s1.459,0.914,2.467,0.914
		c1.406,0,2.703-0.438,3.891-1.312v2.086c-0.656,0.438-1.307,0.75-1.951,0.938s-1.4,0.281-2.268,0.281
		c-1.188,0-2.148-0.246-2.883-0.738s-1.322-1.154-1.764-1.986s-0.662-1.795-0.662-2.889c0-1.641,0.465-2.975,1.395-4.002
		s2.137-1.541,3.621-1.541c1.43,0,2.57,0.5,3.422,1.5s1.277,2.34,1.277,4.02V49.153z M213.803,47.875h5.426
		c-0.055-0.852-0.309-1.508-0.762-1.969s-1.062-0.691-1.828-0.691s-1.393,0.23-1.881,0.691S213.951,47.024,213.803,47.875z"/>
	<path fill="#FFFFFF" d="M229.889,43.575h2.312l-4.762,10.969h-0.721l-4.877-10.969h2.335l2.909,6.633L229.889,43.575z"/>
	<path fill="#FFFFFF" d="M240.568,47.875v4.582c0,0.367,0.125,0.551,0.375,0.551c0.258,0,0.66-0.191,1.207-0.574v1.301
		c-0.484,0.312-0.873,0.525-1.166,0.639s-0.6,0.17-0.92,0.17c-0.914,0-1.453-0.359-1.617-1.078
		c-0.906,0.703-1.871,1.055-2.895,1.055c-0.75,0-1.375-0.248-1.875-0.744s-0.75-1.119-0.75-1.869c0-0.68,0.244-1.287,0.732-1.822
		s1.182-0.959,2.08-1.271l2.73-0.938v-0.574c0-1.297-0.648-1.945-1.945-1.945c-1.164,0-2.297,0.602-3.398,1.805v-2.332
		c0.828-0.977,2.02-1.465,3.574-1.465c1.164,0,2.098,0.305,2.801,0.914c0.234,0.195,0.445,0.455,0.633,0.779
		s0.307,0.648,0.357,0.973S240.568,46.969,240.568,47.875z M238.471,52.223v-3.199l-1.43,0.551c-0.727,0.289-1.24,0.58-1.541,0.873
		s-0.451,0.658-0.451,1.096c0,0.445,0.143,0.809,0.428,1.09s0.654,0.422,1.107,0.422C237.264,53.055,237.893,52.778,238.471,52.223z
		"/>
	<path fill="#FFFFFF" d="M243.51,53.583v-2.297c0.602,0.422,1.217,0.764,1.846,1.025s1.158,0.393,1.588,0.393
		c0.445,0,0.828-0.109,1.148-0.328s0.48-0.48,0.48-0.785c0-0.312-0.104-0.572-0.311-0.779s-0.654-0.506-1.342-0.896
		c-1.375-0.766-2.275-1.42-2.701-1.963s-0.639-1.135-0.639-1.775c0-0.828,0.322-1.504,0.967-2.027s1.475-0.785,2.49-0.785
		c1.055,0,2.137,0.297,3.246,0.891v2.109c-1.266-0.766-2.301-1.148-3.105-1.148c-0.414,0-0.748,0.088-1.002,0.264
		s-0.381,0.408-0.381,0.697c0,0.251,0.115,0.49,0.346,0.717s0.635,0.5,1.213,0.82l0.762,0.434c1.797,1.016,2.695,2.14,2.695,3.373
		c0,0.883-0.346,1.607-1.037,2.174s-1.58,0.85-2.666,0.85c-0.641,0-1.211-0.068-1.711-0.205S244.268,53.95,243.51,53.583z"/>
	<path fill="#FFFFFF" d="M254.373,39.039c0.352,0,0.652,0.121,0.902,0.363s0.375,0.539,0.375,0.891c0,0.344-0.125,0.641-0.375,0.891
		s-0.551,0.375-0.902,0.375c-0.328,0-0.617-0.127-0.867-0.381s-0.375-0.549-0.375-0.885c0-0.328,0.125-0.619,0.375-0.873
		S254.045,39.039,254.373,39.039z M253.318,43.575h2.133v10.781h-2.133V43.575z"/>
	<path fill="#FFFFFF" d="M263.689,43.551c1.641,0,3.004,0.529,4.09,1.588s1.629,2.389,1.629,3.99c0,1.555-0.551,2.846-1.652,3.873
		s-2.488,1.541-4.16,1.541c-1.617,0-2.969-0.521-4.055-1.564s-1.629-2.346-1.629-3.908c0-1.578,0.549-2.893,1.646-3.943
		S262.033,43.551,263.689,43.551z M263.572,45.473c-1.023,0-1.863,0.336-2.52,1.008s-0.984,1.527-0.984,2.566
		c0,1.031,0.336,1.873,1.008,2.525s1.535,0.979,2.59,0.979c1.047,0,1.904-0.33,2.572-0.99s1.002-1.506,1.002-2.537
		c0-1.023-0.348-1.871-1.043-2.543S264.627,45.473,263.572,45.473z"/>
	<path fill="#FFFFFF" d="M273.908,43.575v1.371c0.953-1.055,2.035-1.582,3.246-1.582c0.672,0,1.297,0.174,1.875,0.521
		s1.018,0.824,1.318,1.43s0.451,1.564,0.451,2.877v6.164h-2.133v-6.141c0-1.102-0.168-1.889-0.504-2.361s-0.898-0.709-1.688-0.709
		c-1.008,0-1.863,0.504-2.566,1.512v7.699h-2.18V43.575H273.908z"/>
</g>
</svg>
