<?xml version="1.0" encoding="utf-8"?>
<!-- Generator: Adobe Illustrator 15.0.0, SVG Export Plug-In . SVG Version: 6.00 Build 0)  -->
<!DOCTYPE svg PUBLIC "-//W3C//DTD SVG 1.1//EN" "http://www.w3.org/Graphics/SVG/1.1/DTD/svg11.dtd">
<svg version="1.1" id="Layer_1" xmlns="http://www.w3.org/2000/svg" xmlns:xlink="http://www.w3.org/1999/xlink" x="0px" y="0px"
	 width="111.489px" height="171.155px" viewBox="0 0 111.489 171.155" enable-background="new 0 0 111.489 171.155"
	 xml:space="preserve">
<g>
	<path fill="#F15A29" d="M92.54,168.155c0,1.657-1.344,3-3,3H3c-1.657,0-3-1.343-3-3V3c0-1.657,1.343-3,3-3h86.54
		c1.656,0,3,1.343,3,3V168.155z"/>
</g>
<g>
	<polygon fill="#F15A29" points="85.618,27.358 111.489,38.713 85.618,50.068 	"/>
</g>
<g>
	<path fill="#FFFFFF" d="M26.588,20.996h2.344v16.371h-2.344v-7.125h-9.199v7.125h-2.344V20.996h2.344v7.078h9.199V20.996z"/>
	<path fill="#FFFFFF" d="M41.436,32.164h-7.582c0.055,1.031,0.4,1.852,1.037,2.461s1.459,0.914,2.467,0.914
		c1.406,0,2.703-0.438,3.891-1.312v2.086c-0.656,0.438-1.307,0.75-1.951,0.938s-1.4,0.281-2.268,0.281
		c-1.188,0-2.148-0.246-2.883-0.738s-1.322-1.154-1.764-1.986s-0.662-1.795-0.662-2.889c0-1.641,0.465-2.975,1.395-4.002
		s2.137-1.541,3.621-1.541c1.43,0,2.57,0.5,3.422,1.5s1.277,2.34,1.277,4.02V32.164z M33.901,30.887h5.426
		c-0.055-0.852-0.309-1.508-0.762-1.969s-1.062-0.691-1.828-0.691s-1.393,0.23-1.881,0.691S34.049,30.035,33.901,30.887z"/>
	<path fill="#FFFFFF" d="M50,26.586h2.393l-7.639,16.277h-2.38l3.66-7.812l-4.164-8.466h2.43l2.912,6.09L50,26.586z"/>
	<path fill="#FFFFFF" d="M61.663,22.051c0.352,0,0.652,0.121,0.902,0.363s0.375,0.539,0.375,0.891c0,0.344-0.125,0.641-0.375,0.891
		s-0.551,0.375-0.902,0.375c-0.328,0-0.617-0.127-0.867-0.381s-0.375-0.549-0.375-0.885c0-0.328,0.125-0.619,0.375-0.873
		S61.335,22.051,61.663,22.051z M60.608,26.586h2.133v10.781h-2.133V26.586z"/>
	<path fill="#FFFFFF" d="M65.296,36.594v-2.297c0.602,0.422,1.217,0.764,1.846,1.025s1.158,0.393,1.588,0.393
		c0.445,0,0.828-0.109,1.148-0.328s0.48-0.48,0.48-0.785c0-0.312-0.104-0.572-0.311-0.779s-0.654-0.506-1.342-0.896
		c-1.375-0.766-2.275-1.42-2.701-1.963s-0.639-1.135-0.639-1.775c0-0.828,0.322-1.504,0.967-2.027s1.475-0.785,2.49-0.785
		c1.055,0,2.137,0.297,3.246,0.891v2.109c-1.266-0.766-2.301-1.148-3.105-1.148c-0.414,0-0.748,0.088-1.002,0.264
		c-0.254,0.176-0.381,0.409-0.381,0.698c0,0.25,0.115,0.489,0.344,0.716c0.23,0.227,0.635,0.5,1.213,0.82l0.762,0.434
		c1.798,1.016,2.697,2.14,2.697,3.374c0,0.882-0.346,1.607-1.037,2.173c-0.691,0.566-1.58,0.849-2.666,0.849
		c-0.641,0-1.211-0.068-1.711-0.205S66.054,36.961,65.296,36.594z"/>
	<path fill="#FFFFFF" d="M21.371,55.386h2.393l-7.639,16.277h-2.38l3.66-7.812l-4.164-8.466h2.43l2.912,6.09L21.371,55.386z"/>
	<path fill="#FFFFFF" d="M29.94,55.362c1.641,0,3.004,0.529,4.09,1.588s1.629,2.389,1.629,3.99c0,1.555-0.551,2.846-1.652,3.873
		s-2.488,1.541-4.16,1.541c-1.617,0-2.969-0.521-4.055-1.564s-1.629-2.346-1.629-3.908c0-1.578,0.549-2.893,1.646-3.943
		S28.284,55.362,29.94,55.362z M29.823,57.284c-1.023,0-1.863,0.336-2.52,1.008s-0.984,1.527-0.984,2.566
		c0,1.031,0.336,1.873,1.008,2.525s1.535,0.979,2.59,0.979c1.047,0,1.904-0.33,2.572-0.99s1.002-1.506,1.002-2.537
		c0-1.023-0.348-1.871-1.043-2.543S30.877,57.284,29.823,57.284z"/>
	<path fill="#FFFFFF" d="M44.893,66.167v-1.383c-0.453,0.496-0.971,0.882-1.553,1.157s-1.162,0.413-1.74,0.413
		c-0.68,0-1.307-0.17-1.881-0.51s-1.008-0.801-1.301-1.383s-0.439-1.549-0.439-2.9v-6.176h2.133v6.145
		c0,1.131,0.162,1.921,0.486,2.37s0.893,0.673,1.705,0.673c1.016,0,1.879-0.496,2.59-1.488v-7.699h2.133v10.781H44.893z"/>
	<path fill="#FFFFFF" d="M52.311,55.386v2.473l0.117-0.188c1.031-1.664,2.062-2.496,3.094-2.496c0.805,0,1.645,0.406,2.52,1.219
		l-1.125,1.875c-0.742-0.703-1.43-1.055-2.062-1.055c-0.688,0-1.283,0.328-1.787,0.984s-0.756,1.434-0.756,2.332v5.637h-2.145
		V55.386H52.311z"/>
	<path fill="#FFFFFF" d="M21.526,88.486v4.582c0,0.367,0.125,0.551,0.375,0.551c0.258,0,0.66-0.191,1.207-0.574v1.301
		c-0.484,0.312-0.873,0.525-1.166,0.639s-0.6,0.17-0.92,0.17c-0.914,0-1.453-0.359-1.617-1.078
		c-0.906,0.703-1.871,1.055-2.895,1.055c-0.75,0-1.375-0.248-1.875-0.744s-0.75-1.119-0.75-1.869c0-0.68,0.244-1.287,0.732-1.822
		s1.182-0.959,2.08-1.271l2.73-0.938v-0.574c0-1.296-0.648-1.945-1.945-1.945c-1.164,0-2.297,0.602-3.398,1.804V85.44
		c0.828-0.977,2.02-1.465,3.574-1.465c1.164,0,2.098,0.305,2.801,0.914c0.234,0.195,0.445,0.455,0.633,0.779
		s0.307,0.648,0.357,0.973C21.5,86.965,21.526,87.58,21.526,88.486z M19.428,92.834v-3.199l-1.43,0.551
		c-0.727,0.289-1.24,0.58-1.541,0.873s-0.451,0.658-0.451,1.096c0,0.445,0.143,0.809,0.428,1.09s0.654,0.422,1.107,0.422
		C18.221,93.666,18.85,93.389,19.428,92.834z"/>
	<path fill="#FFFFFF" d="M25.042,78.596h2.133v16.371h-2.133V78.596z"/>
	<path fill="#FFFFFF" d="M37.03,88.486v4.582c0,0.367,0.125,0.551,0.375,0.551c0.258,0,0.66-0.191,1.207-0.574v1.301
		c-0.484,0.312-0.873,0.525-1.166,0.639s-0.6,0.17-0.92,0.17c-0.914,0-1.453-0.359-1.617-1.078
		c-0.906,0.703-1.871,1.055-2.895,1.055c-0.75,0-1.375-0.248-1.875-0.744s-0.75-1.119-0.75-1.869c0-0.68,0.244-1.287,0.732-1.822
		s1.182-0.959,2.08-1.271l2.73-0.938v-0.574c0-1.296-0.648-1.945-1.945-1.945c-1.164,0-2.297,0.602-3.398,1.804V85.44
		c0.828-0.977,2.02-1.465,3.574-1.465c1.164,0,2.098,0.305,2.801,0.914c0.234,0.195,0.445,0.455,0.633,0.779
		s0.307,0.648,0.357,0.973C37.004,86.965,37.03,87.58,37.03,88.486z M34.932,92.834v-3.199l-1.43,0.551
		c-0.727,0.289-1.24,0.58-1.541,0.873s-0.451,0.658-0.451,1.096c0,0.445,0.143,0.809,0.428,1.09s0.654,0.422,1.107,0.422
		C33.725,93.666,34.354,93.389,34.932,92.834z"/>
	<path fill="#FFFFFF" d="M42.784,84.186v2.473l0.117-0.188c1.031-1.664,2.062-2.496,3.094-2.496c0.805,0,1.645,0.406,2.52,1.219
		l-1.125,1.875c-0.742-0.703-1.43-1.054-2.062-1.054c-0.688,0-1.283,0.328-1.787,0.984c-0.504,0.656-0.756,1.434-0.756,2.332v5.637
		h-2.145V84.186H42.784z"/>
	<path fill="#FFFFFF" d="M58.839,87.139v7.828h-2.145v-6c0-1.195-0.16-2.029-0.48-2.501c-0.32-0.473-0.879-0.709-1.676-0.709
		c-0.445,0-0.854,0.102-1.225,0.305s-0.795,0.562-1.271,1.078v7.828h-2.133V84.186h2.133v1.418c1.086-1.086,2.148-1.629,3.188-1.629
		c1.367,0,2.426,0.648,3.176,1.945c1.141-1.312,2.332-1.969,3.574-1.969c1.047,0,1.908,0.383,2.584,1.148s1.014,1.933,1.014,3.503
		v6.363h-2.133V88.58c0-0.898-0.184-1.586-0.551-2.062c-0.367-0.477-0.895-0.715-1.582-0.715
		C60.429,85.803,59.604,86.249,58.839,87.139z"/>
	<path fill="#FFFFFF" d="M14.202,116.713c0-1.148,0.42-2.057,1.26-2.725s1.986-1.002,3.439-1.002h4.441v1.664h-2.18
		c0.422,0.43,0.715,0.82,0.879,1.172s0.246,0.754,0.246,1.207c0,0.562-0.16,1.115-0.48,1.658s-0.732,0.959-1.236,1.248
		s-1.33,0.52-2.479,0.691c-0.805,0.117-1.207,0.395-1.207,0.832c0,0.25,0.15,0.455,0.451,0.615s0.846,0.326,1.635,0.498
		c1.32,0.289,2.17,0.516,2.549,0.68s0.721,0.398,1.025,0.703c0.516,0.516,0.773,1.164,0.773,1.945c0,1.023-0.455,1.84-1.365,2.449
		s-2.127,0.914-3.65,0.914c-1.539,0-2.768-0.307-3.686-0.92s-1.377-1.436-1.377-2.467c0-1.461,0.902-2.402,2.707-2.824
		c-0.719-0.461-1.078-0.918-1.078-1.371c0-0.344,0.154-0.656,0.463-0.938s0.725-0.488,1.248-0.621
		C14.995,119.42,14.202,118.283,14.202,116.713z M17.706,124.271c-0.719,0-1.307,0.152-1.764,0.457s-0.686,0.695-0.686,1.172
		c0,1.109,1,1.664,3,1.664c0.945,0,1.678-0.139,2.197-0.416s0.779-0.67,0.779-1.178c0-0.5-0.328-0.908-0.984-1.225
		S18.745,124.271,17.706,124.271z M18.209,114.838c-0.578,0-1.07,0.195-1.477,0.586s-0.609,0.859-0.609,1.406
		c0,0.555,0.199,1.014,0.598,1.377s0.902,0.545,1.512,0.545c0.602,0,1.104-0.186,1.506-0.557s0.604-0.834,0.604-1.389
		c0-0.562-0.203-1.031-0.609-1.406S18.819,114.838,18.209,114.838z"/>
	<path fill="#FFFFFF" d="M29.917,112.963c1.641,0,3.004,0.529,4.09,1.588s1.629,2.389,1.629,3.99c0,1.555-0.551,2.846-1.652,3.873
		s-2.488,1.541-4.16,1.541c-1.617,0-2.969-0.521-4.055-1.564s-1.629-2.346-1.629-3.908c0-1.578,0.549-2.893,1.646-3.943
		S28.26,112.963,29.917,112.963z M29.799,114.885c-1.023,0-1.863,0.336-2.52,1.008s-0.984,1.527-0.984,2.566
		c0,1.031,0.336,1.873,1.008,2.525s1.535,0.979,2.59,0.979c1.047,0,1.904-0.33,2.572-0.99s1.002-1.506,1.002-2.537
		c0-1.023-0.348-1.871-1.043-2.543S30.854,114.885,29.799,114.885z"/>
	<path fill="#FFFFFF" d="M39.104,108.451c0.352,0,0.652,0.121,0.902,0.363s0.375,0.539,0.375,0.891c0,0.344-0.125,0.641-0.375,0.891
		s-0.551,0.375-0.902,0.375c-0.328,0-0.617-0.127-0.867-0.381s-0.375-0.549-0.375-0.885c0-0.328,0.125-0.619,0.375-0.873
		S38.776,108.451,39.104,108.451z M38.049,112.986h2.133v10.781h-2.133V112.986z"/>
	<path fill="#FFFFFF" d="M45.397,112.986v1.371c0.953-1.055,2.035-1.582,3.246-1.582c0.672,0,1.297,0.174,1.875,0.521
		s1.018,0.824,1.318,1.43s0.451,1.564,0.451,2.877v6.164h-2.133v-6.141c0-1.102-0.168-1.889-0.504-2.361s-0.898-0.709-1.688-0.709
		c-1.008,0-1.863,0.504-2.566,1.512v7.699h-2.18v-10.781H45.397z"/>
	<path fill="#FFFFFF" d="M54.713,116.713c0-1.148,0.42-2.057,1.26-2.725s1.987-1.002,3.44-1.002h4.441v1.664h-2.18
		c0.422,0.43,0.715,0.82,0.879,1.172s0.246,0.754,0.246,1.207c0,0.562-0.16,1.115-0.48,1.658s-0.732,0.959-1.236,1.248
		s-1.33,0.52-2.479,0.691c-0.805,0.117-1.207,0.395-1.207,0.832c0,0.25,0.15,0.455,0.451,0.615s0.846,0.326,1.635,0.498
		c1.32,0.289,2.17,0.516,2.549,0.68s0.721,0.398,1.025,0.703c0.516,0.516,0.773,1.164,0.773,1.945c0,1.023-0.455,1.84-1.365,2.449
		s-2.127,0.914-3.65,0.914c-1.539,0-2.768-0.307-3.686-0.92s-1.377-1.436-1.377-2.467c0-1.461,0.902-2.402,2.707-2.824
		c-0.719-0.461-1.078-0.918-1.078-1.371c0-0.344,0.154-0.656,0.463-0.938s0.725-0.488,1.249-0.621
		C55.506,119.42,54.713,118.283,54.713,116.713z M58.218,124.271c-0.719,0-1.307,0.152-1.764,0.457s-0.686,0.695-0.686,1.172
		c0,1.109,1,1.664,3,1.664c0.945,0,1.678-0.139,2.197-0.416s0.779-0.67,0.779-1.178c0-0.5-0.328-0.908-0.984-1.225
		S59.257,124.271,58.218,124.271z M58.722,114.838c-0.578,0-1.07,0.195-1.477,0.586c-0.407,0.391-0.61,0.859-0.61,1.406
		c0,0.555,0.199,1.014,0.598,1.377c0.398,0.363,0.902,0.545,1.512,0.545c0.602,0,1.104-0.186,1.506-0.557s0.604-0.834,0.604-1.389
		c0-0.562-0.203-1.031-0.609-1.406S59.331,114.838,58.722,114.838z"/>
	<path fill="#FFFFFF" d="M19.909,141.763c1.641,0,3.004,0.529,4.09,1.588s1.629,2.389,1.629,3.99c0,1.555-0.551,2.846-1.652,3.873
		s-2.488,1.541-4.16,1.541c-1.617,0-2.969-0.521-4.055-1.564s-1.629-2.346-1.629-3.908c0-1.578,0.549-2.893,1.646-3.943
		S18.252,141.763,19.909,141.763z M19.792,143.685c-1.023,0-1.863,0.336-2.52,1.008s-0.984,1.527-0.984,2.566
		c0,1.031,0.336,1.873,1.008,2.525s1.535,0.979,2.59,0.979c1.047,0,1.904-0.33,2.572-0.99s1.002-1.506,1.002-2.537
		c0-1.023-0.348-1.871-1.043-2.543S20.846,143.685,19.792,143.685z"/>
	<path fill="#FFFFFF" d="M28.241,141.786v-0.645c0-1.734,0.369-3.027,1.107-3.879s1.623-1.277,2.654-1.277
		c0.445,0,0.973,0.07,1.582,0.211v2.086c-0.344-0.125-0.672-0.188-0.984-0.188c-0.836,0-1.416,0.223-1.74,0.668
		s-0.486,1.238-0.486,2.379v0.645h1.922v1.922h-1.922v8.859h-2.133v-8.859h-1.547v-1.922H28.241z"/>
	<path fill="#FFFFFF" d="M34.241,141.786v-0.645c0-1.734,0.369-3.027,1.107-3.879s1.623-1.277,2.654-1.277
		c0.445,0,0.973,0.07,1.582,0.211v2.086c-0.344-0.125-0.672-0.188-0.984-0.188c-0.836,0-1.416,0.223-1.74,0.668
		s-0.486,1.238-0.486,2.379v0.645h1.922v1.922h-1.922v8.859h-2.133v-8.859h-1.547v-1.922H34.241z"/>
</g>
</svg>
