<?xml version="1.0" encoding="utf-8"?>
<!-- Generator: Adobe Illustrator 15.0.0, SVG Export Plug-In . SVG Version: 6.00 Build 0)  -->
<!DOCTYPE svg PUBLIC "-//W3C//DTD SVG 1.1//EN" "http://www.w3.org/Graphics/SVG/1.1/DTD/svg11.dtd">
<svg version="1.1" id="Layer_1" xmlns="http://www.w3.org/2000/svg" xmlns:xlink="http://www.w3.org/1999/xlink" x="0px" y="0px"
	 width="154.552px" height="133.477px" viewBox="0 0 154.552 133.477" enable-background="new 0 0 154.552 133.477"
	 xml:space="preserve">
<g>
	<path fill="#F15A29" d="M154.552,130.248c0,1.782-1.383,3.229-3.089,3.229H3.089c-1.706,0-3.089-1.447-3.089-3.229V26.584
		c0-1.783,1.383-3.229,3.089-3.229h148.374c1.706,0,3.089,1.446,3.089,3.229V130.248z"/>
</g>
<g>
	<polygon fill="#F15A29" points="89.84,25.871 101.195,0 112.55,25.871 	"/>
</g>
<g>
	<path fill="#FFFFFF" d="M16.885,39.624h2.344v16.371h-2.344V39.624z"/>
	<path fill="#FFFFFF" d="M22.041,55.222v-2.297c0.602,0.422,1.217,0.764,1.846,1.025s1.158,0.393,1.588,0.393
		c0.445,0,0.828-0.109,1.148-0.328s0.48-0.48,0.48-0.785c0-0.312-0.104-0.572-0.311-0.779s-0.654-0.506-1.342-0.896
		c-1.375-0.766-2.275-1.42-2.701-1.963s-0.639-1.135-0.639-1.775c0-0.828,0.322-1.504,0.967-2.027s1.475-0.785,2.49-0.785
		c1.055,0,2.137,0.297,3.246,0.891v2.109c-1.266-0.766-2.301-1.148-3.105-1.148c-0.414,0-0.748,0.088-1.002,0.264
		c-0.254,0.176-0.381,0.409-0.381,0.698c0,0.25,0.115,0.489,0.345,0.716c0.23,0.227,0.635,0.5,1.213,0.82l0.762,0.434
		c1.797,1.016,2.696,2.14,2.696,3.374c0,0.882-0.346,1.607-1.037,2.173c-0.691,0.566-1.58,0.849-2.666,0.849
		c-0.641,0-1.211-0.068-1.711-0.205S22.799,55.589,22.041,55.222z"/>
	<path fill="#FFFFFF" d="M39.572,40.679c0.352,0,0.652,0.121,0.902,0.363s0.375,0.539,0.375,0.891c0,0.344-0.125,0.641-0.375,0.891
		s-0.551,0.375-0.902,0.375c-0.328,0-0.617-0.127-0.867-0.381s-0.375-0.549-0.375-0.885c0-0.328,0.125-0.619,0.375-0.873
		S39.244,40.679,39.572,40.679z M38.518,45.214h2.133v10.781h-2.133V45.214z"/>
	<path fill="#FFFFFF" d="M42.221,46.925l4.008-3.938v2.227h3.41v1.922h-3.41v5.276c0,1.232,0.512,1.849,1.535,1.849
		c0.766,0,1.574-0.254,2.426-0.762v1.992c-0.82,0.461-1.715,0.691-2.684,0.691c-0.977,0-1.789-0.285-2.438-0.855
		c-0.203-0.172-0.371-0.365-0.504-0.58s-0.244-0.496-0.334-0.844s-0.135-1.01-0.135-1.986v-4.781h-1.875V46.925z"/>
	<path fill="#FFFFFF" d="M63.549,45.19c1.641,0,3.004,0.529,4.09,1.588s1.629,2.389,1.629,3.99c0,1.555-0.551,2.846-1.652,3.873
		s-2.488,1.541-4.16,1.541c-1.617,0-2.969-0.521-4.055-1.564s-1.629-2.346-1.629-3.908c0-1.578,0.549-2.893,1.646-3.943
		S61.893,45.19,63.549,45.19z M63.432,47.112c-1.023,0-1.863,0.336-2.52,1.008s-0.984,1.527-0.984,2.566
		c0,1.031,0.336,1.873,1.008,2.525s1.535,0.979,2.59,0.979c1.047,0,1.904-0.33,2.572-0.99s1.002-1.506,1.002-2.537
		c0-1.023-0.348-1.871-1.043-2.543S64.486,47.112,63.432,47.112z"/>
	<path fill="#FFFFFF" d="M78.502,55.995v-1.383c-0.453,0.496-0.971,0.882-1.553,1.157s-1.162,0.413-1.74,0.413
		c-0.68,0-1.307-0.17-1.881-0.51s-1.008-0.801-1.301-1.383s-0.439-1.549-0.439-2.9v-6.176h2.133v6.145
		c0,1.131,0.162,1.921,0.486,2.37s0.893,0.673,1.705,0.673c1.016,0,1.879-0.496,2.59-1.488v-7.699h2.133v10.781H78.502z"/>
	<path fill="#FFFFFF" d="M85.92,45.214v2.473l0.117-0.188c1.031-1.664,2.062-2.496,3.094-2.496c0.805,0,1.645,0.406,2.52,1.219
		l-1.125,1.875c-0.742-0.703-1.43-1.055-2.062-1.055c-0.688,0-1.283,0.328-1.787,0.984s-0.756,1.434-0.756,2.332v5.637h-2.145
		V45.214H85.92z"/>
	<path fill="#FFFFFF" d="M98.295,46.925l4.008-3.938v2.227h3.41v1.922h-3.41v5.276c0,1.232,0.512,1.849,1.535,1.849
		c0.766,0,1.574-0.254,2.426-0.762v1.992c-0.82,0.461-1.715,0.691-2.684,0.691c-0.977,0-1.789-0.285-2.438-0.855
		c-0.203-0.172-0.371-0.365-0.504-0.58s-0.244-0.496-0.334-0.844s-0.135-1.01-0.135-1.986v-4.781h-1.875V46.925z"/>
	<path fill="#FFFFFF" d="M114.666,55.995v-1.383c-0.453,0.496-0.971,0.882-1.553,1.157s-1.162,0.413-1.74,0.413
		c-0.68,0-1.307-0.17-1.881-0.51s-1.008-0.801-1.301-1.383s-0.439-1.549-0.439-2.9v-6.176h2.133v6.145
		c0,1.131,0.162,1.921,0.486,2.37s0.893,0.673,1.705,0.673c1.016,0,1.879-0.496,2.59-1.488v-7.699h2.133v10.781H114.666z"/>
	<path fill="#FFFFFF" d="M122.084,45.214v2.473l0.117-0.188c1.031-1.664,2.062-2.496,3.094-2.496c0.805,0,1.645,0.406,2.52,1.219
		l-1.125,1.875c-0.742-0.703-1.43-1.055-2.062-1.055c-0.688,0-1.283,0.328-1.787,0.984s-0.756,1.434-0.756,2.332v5.637h-2.145
		V45.214H122.084z"/>
	<path fill="#FFFFFF" d="M131.436,45.214v1.371c0.953-1.055,2.035-1.582,3.246-1.582c0.672,0,1.297,0.174,1.875,0.521
		s1.018,0.824,1.318,1.43s0.451,1.564,0.451,2.877v6.164h-2.133v-6.141c0-1.102-0.168-1.889-0.504-2.361s-0.898-0.709-1.688-0.709
		c-1.008,0-1.863,0.504-2.566,1.512v7.699h-2.18V45.214H131.436z"/>
	<path fill="#FFFFFF" d="M21.725,73.991c1.641,0,3.004,0.529,4.09,1.588s1.629,2.389,1.629,3.99c0,1.555-0.551,2.846-1.652,3.873
		s-2.488,1.541-4.16,1.541c-1.617,0-2.969-0.521-4.055-1.564s-1.629-2.346-1.629-3.908c0-1.578,0.549-2.893,1.646-3.943
		S20.068,73.991,21.725,73.991z M21.607,75.913c-1.023,0-1.863,0.336-2.52,1.008s-0.984,1.527-0.984,2.566
		c0,1.031,0.336,1.873,1.008,2.525s1.535,0.979,2.59,0.979c1.047,0,1.904-0.33,2.572-0.99s1.002-1.506,1.002-2.537
		c0-1.023-0.348-1.871-1.043-2.543S22.662,75.913,21.607,75.913z"/>
	<path fill="#FFFFFF" d="M31.943,74.014v1.371c0.953-1.055,2.035-1.582,3.246-1.582c0.672,0,1.297,0.174,1.875,0.521
		s1.018,0.824,1.318,1.43s0.451,1.564,0.451,2.877v6.164h-2.133v-6.141c0-1.102-0.168-1.889-0.504-2.361s-0.898-0.709-1.688-0.709
		c-1.008,0-1.863,0.504-2.566,1.512v7.699h-2.18V74.014H31.943z"/>
	<path fill="#FFFFFF" d="M46.967,75.725l4.008-3.938v2.227h3.41v1.922h-3.41v5.275c0,1.232,0.512,1.85,1.535,1.85
		c0.766,0,1.574-0.254,2.426-0.762v1.992c-0.82,0.461-1.715,0.691-2.684,0.691c-0.977,0-1.789-0.285-2.438-0.855
		c-0.203-0.172-0.371-0.365-0.504-0.58s-0.244-0.496-0.334-0.844s-0.135-1.01-0.135-1.986v-4.781h-1.875V75.725z"/>
	<path fill="#FFFFFF" d="M56.424,68.424h2.133v7.008c0.891-1.086,1.996-1.629,3.316-1.629c0.719,0,1.363,0.18,1.934,0.539
		s0.994,0.855,1.271,1.488s0.416,1.574,0.416,2.824v6.141h-2.133v-6.668c0-0.789-0.193-1.424-0.58-1.904s-0.896-0.721-1.529-0.721
		c-0.469,0-0.91,0.121-1.324,0.363s-0.871,0.645-1.371,1.207v7.723h-2.133V68.424z"/>
	<path fill="#FFFFFF" d="M77.658,79.592h-7.582c0.055,1.031,0.4,1.852,1.037,2.461s1.459,0.914,2.467,0.914
		c1.406,0,2.703-0.438,3.891-1.312v2.086c-0.656,0.438-1.307,0.75-1.951,0.938s-1.4,0.281-2.268,0.281
		c-1.188,0-2.148-0.246-2.883-0.738s-1.322-1.154-1.764-1.986s-0.662-1.795-0.662-2.889c0-1.641,0.465-2.975,1.395-4.002
		s2.137-1.541,3.621-1.541c1.43,0,2.57,0.5,3.422,1.5s1.277,2.34,1.277,4.02V79.592z M70.123,78.315h5.426
		c-0.055-0.852-0.309-1.508-0.762-1.969s-1.062-0.691-1.828-0.691s-1.393,0.23-1.881,0.691S70.271,77.463,70.123,78.315z"/>
	<path fill="#FFFFFF" d="M86.682,68.424h2.133v16.371h-2.133V68.424z"/>
	<path fill="#FFFFFF" d="M98.67,78.315v4.582c0,0.367,0.125,0.551,0.375,0.551c0.258,0,0.66-0.191,1.207-0.574v1.301
		c-0.484,0.312-0.873,0.525-1.166,0.639s-0.6,0.17-0.92,0.17c-0.914,0-1.453-0.359-1.617-1.078
		c-0.906,0.703-1.871,1.055-2.895,1.055c-0.75,0-1.375-0.248-1.875-0.744s-0.75-1.119-0.75-1.869c0-0.68,0.244-1.287,0.732-1.822
		s1.182-0.959,2.08-1.271l2.73-0.938v-0.574c0-1.297-0.648-1.945-1.945-1.945c-1.164,0-2.297,0.602-3.398,1.805v-2.332
		c0.828-0.977,2.02-1.465,3.574-1.465c1.164,0,2.098,0.305,2.801,0.914c0.234,0.195,0.445,0.455,0.633,0.779
		s0.307,0.648,0.357,0.973S98.67,77.409,98.67,78.315z M96.572,82.663v-3.199l-1.43,0.551c-0.727,0.289-1.24,0.58-1.541,0.873
		s-0.451,0.658-0.451,1.096c0,0.445,0.143,0.809,0.428,1.09s0.654,0.422,1.107,0.422C95.365,83.495,95.994,83.217,96.572,82.663z"/>
	<path fill="#FFFFFF" d="M101.611,84.022v-2.297c0.602,0.422,1.217,0.764,1.846,1.025s1.158,0.393,1.588,0.393
		c0.445,0,0.828-0.109,1.148-0.328s0.48-0.48,0.48-0.785c0-0.312-0.104-0.572-0.311-0.779s-0.654-0.506-1.342-0.896
		c-1.375-0.766-2.275-1.42-2.701-1.963s-0.639-1.135-0.639-1.775c0-0.828,0.322-1.504,0.967-2.027s1.475-0.785,2.49-0.785
		c1.055,0,2.137,0.297,3.246,0.891v2.109c-1.266-0.766-2.301-1.148-3.105-1.148c-0.414,0-0.748,0.088-1.002,0.264
		s-0.381,0.408-0.381,0.697c0,0.251,0.115,0.49,0.345,0.717c0.23,0.227,0.635,0.5,1.213,0.82l0.762,0.434
		c1.797,1.016,2.696,2.14,2.696,3.373c0,0.883-0.346,1.607-1.037,2.174s-1.58,0.85-2.666,0.85c-0.641,0-1.211-0.068-1.711-0.205
		S102.369,84.389,101.611,84.022z"/>
	<path fill="#FFFFFF" d="M120.561,79.592h-7.582c0.055,1.031,0.4,1.852,1.037,2.461s1.459,0.914,2.467,0.914
		c1.406,0,2.703-0.438,3.891-1.312v2.086c-0.656,0.438-1.307,0.75-1.951,0.938s-1.4,0.281-2.268,0.281
		c-1.188,0-2.148-0.246-2.883-0.738s-1.322-1.154-1.764-1.986s-0.662-1.795-0.662-2.889c0-1.641,0.465-2.975,1.395-4.002
		s2.137-1.541,3.621-1.541c1.43,0,2.57,0.5,3.422,1.5s1.277,2.34,1.277,4.02V79.592z M113.025,78.315h5.426
		c-0.055-0.852-0.309-1.508-0.762-1.969s-1.062-0.691-1.828-0.691s-1.393,0.23-1.881,0.691S113.174,77.463,113.025,78.315z"/>
	<path fill="#FFFFFF" d="M125.154,74.014v2.473l0.117-0.188c1.031-1.664,2.062-2.496,3.094-2.496c0.805,0,1.645,0.406,2.52,1.219
		l-1.125,1.875c-0.742-0.703-1.43-1.055-2.062-1.055c-0.688,0-1.283,0.328-1.787,0.984s-0.756,1.434-0.756,2.332v5.637h-2.145
		V74.014H125.154z"/>
	<path fill="#FFFFFF" d="M24.654,111.076v2.109c-1.07,0.398-2.117,0.598-3.141,0.598c-1.688,0-3.033-0.5-4.037-1.5
		s-1.506-2.34-1.506-4.02c0-1.695,0.488-3.062,1.465-4.102s2.262-1.559,3.855-1.559c0.555,0,1.053,0.053,1.494,0.158
		s0.986,0.303,1.635,0.592v2.273c-1.078-0.688-2.078-1.031-3-1.031c-0.961,0-1.75,0.338-2.367,1.014s-0.926,1.537-0.926,2.584
		c0,1.102,0.334,1.977,1.002,2.625s1.568,0.973,2.701,0.973C22.65,111.791,23.592,111.552,24.654,111.076z"/>
	<path fill="#FFFFFF" d="M33.947,113.595v-1.383c-0.453,0.496-0.971,0.882-1.553,1.157s-1.162,0.413-1.74,0.413
		c-0.68,0-1.307-0.17-1.881-0.51s-1.008-0.801-1.301-1.383s-0.439-1.549-0.439-2.9v-6.176h2.133v6.145
		c0,1.132,0.162,1.921,0.486,2.37s0.893,0.673,1.705,0.673c1.016,0,1.879-0.496,2.59-1.488v-7.699h2.133v10.781H33.947z"/>
	<path fill="#FFFFFF" d="M37.568,104.525l4.008-3.938v2.227h3.41v1.922h-3.41v5.276c0,1.232,0.512,1.849,1.535,1.849
		c0.766,0,1.574-0.254,2.426-0.762v1.992c-0.82,0.461-1.715,0.691-2.684,0.691c-0.977,0-1.789-0.285-2.438-0.855
		c-0.203-0.172-0.371-0.365-0.504-0.58s-0.244-0.496-0.334-0.844s-0.135-1.01-0.135-1.986v-4.781h-1.875V104.525z"/>
	<path fill="#FFFFFF" d="M45.561,104.525l4.008-3.938v2.227h3.41v1.922h-3.41v5.276c0,1.232,0.512,1.849,1.535,1.849
		c0.766,0,1.574-0.254,2.426-0.762v1.992c-0.82,0.461-1.715,0.691-2.684,0.691c-0.977,0-1.789-0.285-2.438-0.855
		c-0.203-0.172-0.371-0.365-0.504-0.58s-0.244-0.496-0.334-0.844s-0.135-1.01-0.135-1.986v-4.781h-1.875V104.525z"/>
	<path fill="#FFFFFF" d="M64.252,108.392H56.67c0.055,1.031,0.4,1.852,1.037,2.461s1.459,0.914,2.467,0.914
		c1.406,0,2.703-0.438,3.891-1.312v2.086c-0.656,0.438-1.307,0.75-1.951,0.938s-1.4,0.281-2.268,0.281
		c-1.188,0-2.148-0.246-2.883-0.738s-1.322-1.154-1.764-1.986s-0.662-1.795-0.662-2.889c0-1.641,0.465-2.975,1.395-4.002
		s2.137-1.541,3.621-1.541c1.43,0,2.57,0.5,3.422,1.5s1.277,2.34,1.277,4.02V108.392z M56.717,107.115h5.426
		c-0.055-0.852-0.309-1.508-0.762-1.969s-1.062-0.691-1.828-0.691s-1.393,0.23-1.881,0.691S56.865,106.263,56.717,107.115z"/>
	<path fill="#FFFFFF" d="M68.846,102.814v2.473l0.117-0.188c1.031-1.664,2.062-2.496,3.094-2.496c0.805,0,1.645,0.406,2.52,1.219
		l-1.125,1.875c-0.742-0.703-1.43-1.055-2.062-1.055c-0.688,0-1.283,0.328-1.787,0.984s-0.756,1.434-0.756,2.332v5.637h-2.145
		v-10.781H68.846z"/>
	<path fill="#FFFFFF" d="M89.351,102.814h2.394l-7.64,16.277h-2.38l3.659-7.812l-4.163-8.466h2.431l2.911,6.09L89.351,102.814z"/>
	<path fill="#FFFFFF" d="M101.951,108.392h-7.582c0.055,1.031,0.4,1.852,1.037,2.461s1.459,0.914,2.467,0.914
		c1.406,0,2.703-0.438,3.891-1.312v2.086c-0.656,0.438-1.307,0.75-1.951,0.938s-1.4,0.281-2.268,0.281
		c-1.188,0-2.148-0.246-2.883-0.738s-1.322-1.154-1.764-1.986s-0.662-1.795-0.662-2.889c0-1.641,0.465-2.975,1.395-4.002
		s2.137-1.541,3.621-1.541c1.43,0,2.57,0.5,3.422,1.5s1.277,2.34,1.277,4.02V108.392z M94.416,107.115h5.426
		c-0.055-0.852-0.309-1.508-0.762-1.969s-1.062-0.691-1.828-0.691s-1.393,0.23-1.881,0.691S94.564,106.263,94.416,107.115z"/>
	<path fill="#FFFFFF" d="M102.748,104.525l4.008-3.938v2.227h3.41v1.922h-3.41v5.276c0,1.232,0.512,1.849,1.535,1.849
		c0.766,0,1.574-0.254,2.426-0.762v1.992c-0.82,0.461-1.715,0.691-2.684,0.691c-0.977,0-1.789-0.285-2.438-0.855
		c-0.203-0.172-0.371-0.365-0.504-0.58s-0.244-0.496-0.334-0.844s-0.135-1.01-0.135-1.986v-4.781h-1.875V104.525z"/>
</g>
</svg>
