<?xml version="1.0" encoding="utf-8"?>
<!-- Generator: Adobe Illustrator 15.0.0, SVG Export Plug-In . SVG Version: 6.00 Build 0)  -->
<!DOCTYPE svg PUBLIC "-//W3C//DTD SVG 1.1//EN" "http://www.w3.org/Graphics/SVG/1.1/DTD/svg11.dtd">
<svg version="1.1" id="Layer_1" xmlns="http://www.w3.org/2000/svg" xmlns:xlink="http://www.w3.org/1999/xlink" x="0px" y="0px"
	 width="452.138px" height="74.975px" viewBox="0 0 452.138 74.975" enable-background="new 0 0 452.138 74.975"
	 xml:space="preserve">
<g>
	<path fill="#262262" d="M452.138,48.871c0,1.765-1.514,3.196-3.377,3.196H3.377C1.513,52.067,0,50.636,0,48.871V3.196
		C0,1.431,1.513,0,3.377,0h445.384c1.863,0,3.377,1.431,3.377,3.196V48.871z"/>
</g>
<g>
	<polygon fill="#262262" points="237.163,49.104 225.808,74.975 214.452,49.104 	"/>
</g>
<g>
	<path fill="#FFFFFF" d="M29.614,16.579h2.355v9.293c0,1.258-0.092,2.207-0.275,2.848s-0.41,1.174-0.68,1.6s-0.6,0.807-0.99,1.143
		c-1.297,1.117-2.992,1.676-5.086,1.676c-2.133,0-3.844-0.555-5.133-1.664c-0.391-0.344-0.721-0.729-0.99-1.154
		s-0.492-0.947-0.668-1.564s-0.264-1.586-0.264-2.906v-9.27h2.355v9.293c0,1.539,0.176,2.609,0.527,3.211s0.887,1.084,1.605,1.447
		s1.566,0.545,2.543,0.545c1.391,0,2.523-0.363,3.398-1.09c0.461-0.391,0.793-0.852,0.996-1.383s0.305-1.441,0.305-2.73V16.579z"/>
	<path fill="#FFFFFF" d="M34.876,16.579h2.133v7.008c0.891-1.086,1.996-1.629,3.316-1.629c0.719,0,1.363,0.18,1.934,0.539
		s0.994,0.855,1.271,1.488s0.416,1.574,0.416,2.824v6.141h-2.133v-6.668c0-0.789-0.193-1.424-0.58-1.904s-0.896-0.721-1.529-0.721
		c-0.469,0-0.91,0.121-1.324,0.363s-0.871,0.645-1.371,1.207v7.723h-2.133V16.579z"/>
	<path fill="#FFFFFF" d="M46.876,16.579h2.133v7.008c0.891-1.086,1.996-1.629,3.316-1.629c0.719,0,1.363,0.18,1.934,0.539
		s0.994,0.855,1.271,1.488s0.416,1.574,0.416,2.824v6.141h-2.133v-6.668c0-0.789-0.193-1.424-0.58-1.904s-0.896-0.721-1.529-0.721
		c-0.469,0-0.91,0.121-1.324,0.363s-0.871,0.645-1.371,1.207v7.723h-2.133V16.579z"/>
	<path fill="#FFFFFF" d="M73.677,30.431v2.109c-1.07,0.398-2.117,0.598-3.141,0.598c-1.688,0-3.033-0.5-4.037-1.5
		s-1.506-2.34-1.506-4.02c0-1.695,0.488-3.062,1.465-4.102s2.262-1.559,3.855-1.559c0.555,0,1.053,0.053,1.494,0.158
		s0.986,0.303,1.635,0.592v2.273c-1.078-0.688-2.078-1.031-3-1.031c-0.961,0-1.75,0.338-2.367,1.014s-0.926,1.537-0.926,2.584
		c0,1.102,0.334,1.977,1.002,2.625s1.568,0.973,2.701,0.973C71.673,31.146,72.614,30.907,73.677,30.431z"/>
	<path fill="#FFFFFF" d="M81.259,22.146c1.641,0,3.004,0.529,4.09,1.588s1.629,2.389,1.629,3.99c0,1.555-0.551,2.846-1.652,3.873
		s-2.488,1.541-4.16,1.541c-1.617,0-2.969-0.521-4.055-1.564s-1.629-2.346-1.629-3.908c0-1.578,0.549-2.893,1.646-3.943
		S79.603,22.146,81.259,22.146z M81.142,24.067c-1.023,0-1.863,0.336-2.52,1.008s-0.984,1.527-0.984,2.566
		c0,1.031,0.336,1.873,1.008,2.525s1.535,0.979,2.59,0.979c1.047,0,1.904-0.33,2.572-0.99s1.002-1.506,1.002-2.537
		c0-1.023-0.348-1.871-1.043-2.543S82.196,24.067,81.142,24.067z"/>
	<path fill="#FFFFFF" d="M96.212,32.95v-1.383c-0.453,0.496-0.971,0.882-1.553,1.157s-1.162,0.413-1.74,0.413
		c-0.68,0-1.307-0.17-1.881-0.51s-1.008-0.801-1.301-1.383s-0.439-1.549-0.439-2.9v-6.176h2.133v6.145
		c0,1.131,0.162,1.921,0.486,2.37s0.893,0.673,1.705,0.673c1.016,0,1.879-0.496,2.59-1.488v-7.699h2.133V32.95H96.212z"/>
	<path fill="#FFFFFF" d="M101.392,16.579h2.133V32.95h-2.133V16.579z"/>
	<path fill="#FFFFFF" d="M113.802,16.579h2.145V32.95h-4.559c-1.594,0-2.865-0.504-3.814-1.512s-1.424-2.359-1.424-4.055
		c0-1.586,0.498-2.891,1.494-3.914s2.268-1.535,3.814-1.535c0.719,0,1.5,0.152,2.344,0.457V16.579z M113.802,31.122V24.29
		c-0.664-0.336-1.336-0.504-2.016-0.504c-1.062,0-1.908,0.348-2.537,1.043s-0.943,1.633-0.943,2.812c0,1.109,0.273,1.965,0.82,2.566
		c0.328,0.359,0.676,0.602,1.043,0.727s1.027,0.188,1.98,0.188H113.802z"/>
	<path fill="#FFFFFF" d="M132.127,22.169h2.393l-7.639,16.277h-2.38l3.66-7.812l-4.164-8.466h2.43l2.912,6.09L132.127,22.169z"/>
	<path fill="#FFFFFF" d="M140.696,22.146c1.641,0,3.004,0.529,4.09,1.588s1.629,2.389,1.629,3.99c0,1.555-0.551,2.846-1.652,3.873
		s-2.488,1.541-4.16,1.541c-1.617,0-2.969-0.521-4.055-1.564s-1.629-2.346-1.629-3.908c0-1.578,0.549-2.893,1.646-3.943
		S139.04,22.146,140.696,22.146z M140.579,24.067c-1.023,0-1.863,0.336-2.52,1.008s-0.984,1.527-0.984,2.566
		c0,1.031,0.336,1.873,1.008,2.525s1.535,0.979,2.59,0.979c1.047,0,1.904-0.33,2.572-0.99s1.002-1.506,1.002-2.537
		c0-1.023-0.348-1.871-1.043-2.543S141.634,24.067,140.579,24.067z"/>
	<path fill="#FFFFFF" d="M155.649,32.95v-1.383c-0.453,0.496-0.971,0.882-1.553,1.157s-1.162,0.413-1.74,0.413
		c-0.68,0-1.307-0.17-1.881-0.51s-1.008-0.801-1.301-1.383s-0.439-1.549-0.439-2.9v-6.176h2.133v6.145
		c0,1.131,0.162,1.921,0.486,2.37s0.893,0.673,1.705,0.673c1.016,0,1.879-0.496,2.59-1.488v-7.699h2.133V32.95H155.649z"/>
	<path fill="#FFFFFF" d="M167.497,16.579h2.133V32.95h-2.133V16.579z"/>
	<path fill="#FFFFFF" d="M177.868,22.146c1.641,0,3.004,0.529,4.09,1.588s1.629,2.389,1.629,3.99c0,1.555-0.551,2.846-1.652,3.873
		s-2.488,1.541-4.16,1.541c-1.617,0-2.969-0.521-4.055-1.564s-1.629-2.346-1.629-3.908c0-1.578,0.549-2.893,1.646-3.943
		S176.212,22.146,177.868,22.146z M177.751,24.067c-1.023,0-1.863,0.336-2.52,1.008s-0.984,1.527-0.984,2.566
		c0,1.031,0.336,1.873,1.008,2.525s1.535,0.979,2.59,0.979c1.047,0,1.904-0.33,2.572-0.99s1.002-1.506,1.002-2.537
		c0-1.023-0.348-1.871-1.043-2.543S178.806,24.067,177.751,24.067z"/>
	<path fill="#FFFFFF" d="M191.11,22.146c1.641,0,3.004,0.529,4.09,1.588s1.629,2.389,1.629,3.99c0,1.555-0.551,2.846-1.652,3.873
		s-2.488,1.541-4.16,1.541c-1.617,0-2.969-0.521-4.055-1.564s-1.629-2.346-1.629-3.908c0-1.578,0.549-2.893,1.646-3.943
		S189.454,22.146,191.11,22.146z M190.993,24.067c-1.023,0-1.863,0.336-2.52,1.008s-0.984,1.527-0.984,2.566
		c0,1.031,0.336,1.873,1.008,2.525s1.535,0.979,2.59,0.979c1.047,0,1.904-0.33,2.572-0.99s1.002-1.506,1.002-2.537
		c0-1.023-0.348-1.871-1.043-2.543S192.048,24.067,190.993,24.067z"/>
	<path fill="#FFFFFF" d="M199.196,16.579h2.133V32.95h-2.133V16.579z M206.214,22.169h2.533l-4.6,5.273l5.538,5.508h-2.861
		l-5.4-5.502L206.214,22.169z"/>
	<path fill="#FFFFFF" d="M224.228,32.95v-1.383c-0.453,0.496-0.971,0.882-1.553,1.157s-1.162,0.413-1.74,0.413
		c-0.68,0-1.307-0.17-1.881-0.51s-1.008-0.801-1.301-1.383s-0.439-1.549-0.439-2.9v-6.176h2.133v6.145
		c0,1.131,0.162,1.921,0.486,2.37s0.893,0.673,1.705,0.673c1.016,0,1.879-0.496,2.59-1.488v-7.699h2.133V32.95H224.228z"/>
	<path fill="#FFFFFF" d="M229.22,38.446V22.169h3.734c1.911,0,3.399,0.477,4.465,1.43c1.064,0.953,1.598,2.285,1.598,3.996
		c0,1.617-0.502,2.945-1.504,3.984s-2.279,1.559-3.832,1.559c-0.686,0-1.447-0.152-2.281-0.457v5.766H229.22z M232.907,24.161
		h-1.508v6.633c0.654,0.336,1.341,0.504,2.059,0.504c0.997,0,1.814-0.348,2.449-1.043s0.953-1.59,0.953-2.684
		c0-0.703-0.15-1.324-0.45-1.863s-0.71-0.932-1.228-1.178C234.664,24.284,233.905,24.161,232.907,24.161z"/>
	<path fill="#FFFFFF" d="M246.517,23.88l4.008-3.938v2.227h3.41v1.922h-3.41v5.276c0,1.232,0.512,1.849,1.535,1.849
		c0.766,0,1.574-0.254,2.426-0.762v1.992c-0.82,0.461-1.715,0.691-2.684,0.691c-0.977,0-1.789-0.285-2.438-0.855
		c-0.203-0.172-0.371-0.365-0.504-0.58s-0.244-0.496-0.334-0.844s-0.135-1.01-0.135-1.986v-4.781h-1.875V23.88z"/>
	<path fill="#FFFFFF" d="M255.974,16.579h2.133v7.008c0.891-1.086,1.996-1.629,3.316-1.629c0.719,0,1.363,0.18,1.934,0.539
		s0.994,0.855,1.271,1.488s0.416,1.574,0.416,2.824v6.141h-2.133v-6.668c0-0.789-0.193-1.424-0.58-1.904s-0.896-0.721-1.529-0.721
		c-0.469,0-0.91,0.121-1.324,0.363s-0.871,0.645-1.371,1.207v7.723h-2.133V16.579z"/>
	<path fill="#FFFFFF" d="M277.208,27.747h-7.582c0.055,1.031,0.4,1.852,1.037,2.461s1.459,0.914,2.467,0.914
		c1.406,0,2.703-0.438,3.891-1.312v2.086c-0.656,0.438-1.307,0.75-1.951,0.938s-1.4,0.281-2.268,0.281
		c-1.188,0-2.148-0.246-2.883-0.738s-1.322-1.154-1.764-1.986s-0.662-1.795-0.662-2.889c0-1.641,0.465-2.975,1.395-4.002
		s2.137-1.541,3.621-1.541c1.43,0,2.57,0.5,3.422,1.5s1.277,2.34,1.277,4.02V27.747z M269.673,26.47h5.426
		c-0.055-0.852-0.309-1.508-0.762-1.969s-1.062-0.691-1.828-0.691s-1.393,0.23-1.881,0.691S269.821,25.618,269.673,26.47z"/>
	<path fill="#FFFFFF" d="M293.38,16.579h2.145V32.95h-4.559c-1.594,0-2.865-0.504-3.814-1.512s-1.424-2.359-1.424-4.055
		c0-1.586,0.498-2.891,1.494-3.914s2.268-1.535,3.814-1.535c0.719,0,1.5,0.152,2.344,0.457V16.579z M293.38,31.122V24.29
		c-0.664-0.336-1.336-0.504-2.016-0.504c-1.062,0-1.908,0.348-2.537,1.043s-0.943,1.633-0.943,2.812c0,1.109,0.273,1.965,0.82,2.566
		c0.328,0.359,0.676,0.602,1.043,0.727s1.027,0.188,1.98,0.188H293.38z"/>
	<path fill="#FFFFFF" d="M305.192,26.47v4.582c0,0.367,0.125,0.551,0.375,0.551c0.258,0,0.66-0.191,1.207-0.574v1.301
		c-0.484,0.312-0.873,0.525-1.166,0.639s-0.6,0.17-0.92,0.17c-0.914,0-1.453-0.359-1.617-1.078
		c-0.906,0.703-1.871,1.055-2.895,1.055c-0.75,0-1.375-0.248-1.875-0.744s-0.75-1.119-0.75-1.869c0-0.68,0.244-1.287,0.732-1.822
		s1.182-0.959,2.08-1.271l2.73-0.938v-0.574c0-1.297-0.648-1.945-1.945-1.945c-1.164,0-2.297,0.602-3.398,1.805v-2.332
		c0.828-0.977,2.02-1.465,3.574-1.465c1.164,0,2.098,0.305,2.801,0.914c0.234,0.195,0.445,0.455,0.633,0.779
		s0.307,0.648,0.357,0.973S305.192,25.563,305.192,26.47z M303.095,30.817v-3.199l-1.43,0.551c-0.727,0.289-1.24,0.58-1.541,0.873
		s-0.451,0.658-0.451,1.096c0,0.445,0.143,0.809,0.428,1.09s0.654,0.422,1.107,0.422C301.888,31.649,302.517,31.372,303.095,30.817z
		"/>
	<path fill="#FFFFFF" d="M307.149,23.88l4.008-3.938v2.227h3.41v1.922h-3.41v5.276c0,1.232,0.512,1.849,1.535,1.849
		c0.766,0,1.574-0.254,2.426-0.762v1.992c-0.82,0.461-1.715,0.691-2.684,0.691c-0.977,0-1.789-0.285-2.438-0.855
		c-0.203-0.172-0.371-0.365-0.504-0.58s-0.244-0.496-0.334-0.844s-0.135-1.01-0.135-1.986v-4.781h-1.875V23.88z"/>
	<path fill="#FFFFFF" d="M323.427,26.47v4.582c0,0.367,0.125,0.551,0.375,0.551c0.258,0,0.66-0.191,1.207-0.574v1.301
		c-0.484,0.312-0.873,0.525-1.166,0.639s-0.6,0.17-0.92,0.17c-0.914,0-1.453-0.359-1.617-1.078
		c-0.906,0.703-1.871,1.055-2.895,1.055c-0.75,0-1.375-0.248-1.875-0.744s-0.75-1.119-0.75-1.869c0-0.68,0.244-1.287,0.732-1.822
		s1.182-0.959,2.08-1.271l2.73-0.938v-0.574c0-1.297-0.648-1.945-1.945-1.945c-1.164,0-2.297,0.602-3.398,1.805v-2.332
		c0.828-0.977,2.02-1.465,3.574-1.465c1.164,0,2.098,0.305,2.801,0.914c0.234,0.195,0.445,0.455,0.633,0.779
		s0.307,0.648,0.357,0.973S323.427,25.563,323.427,26.47z M321.329,30.817v-3.199l-1.43,0.551c-0.727,0.289-1.24,0.58-1.541,0.873
		s-0.451,0.658-0.451,1.096c0,0.445,0.143,0.809,0.428,1.09s0.654,0.422,1.107,0.422C320.122,31.649,320.751,31.372,321.329,30.817z
		"/>
	<path fill="#FFFFFF" d="M326.368,32.177V29.88c0.602,0.422,1.217,0.764,1.846,1.025s1.158,0.393,1.588,0.393
		c0.445,0,0.828-0.109,1.148-0.328s0.48-0.48,0.48-0.785c0-0.312-0.104-0.572-0.311-0.779s-0.654-0.506-1.342-0.896
		c-1.375-0.766-2.275-1.42-2.701-1.963s-0.639-1.135-0.639-1.775c0-0.828,0.322-1.504,0.967-2.027s1.475-0.785,2.49-0.785
		c1.055,0,2.137,0.297,3.246,0.891v2.109c-1.266-0.766-2.301-1.148-3.105-1.148c-0.414,0-0.748,0.088-1.002,0.264
		c-0.254,0.176-0.381,0.409-0.381,0.698c0,0.25,0.115,0.489,0.345,0.716c0.23,0.227,0.635,0.5,1.213,0.82l0.762,0.434
		c1.798,1.016,2.696,2.14,2.696,3.374c0,0.882-0.346,1.607-1.037,2.173c-0.691,0.566-1.58,0.849-2.666,0.849
		c-0.641,0-1.211-0.068-1.711-0.205S327.126,32.544,326.368,32.177z"/>
	<path fill="#FFFFFF" d="M336.083,16.579h2.133v7.008c0.891-1.086,1.996-1.629,3.316-1.629c0.719,0,1.363,0.18,1.934,0.539
		s0.994,0.855,1.271,1.488s0.416,1.574,0.416,2.824v6.141h-2.133v-6.668c0-0.789-0.193-1.424-0.58-1.904s-0.896-0.721-1.529-0.721
		c-0.469,0-0.91,0.121-1.324,0.363s-0.871,0.645-1.371,1.207v7.723h-2.133V16.579z"/>
	<path fill="#FFFFFF" d="M357.317,27.747h-7.582c0.055,1.031,0.4,1.852,1.037,2.461s1.459,0.914,2.467,0.914
		c1.406,0,2.703-0.438,3.891-1.312v2.086c-0.656,0.438-1.307,0.75-1.951,0.938s-1.4,0.281-2.268,0.281
		c-1.188,0-2.148-0.246-2.883-0.738s-1.322-1.154-1.764-1.986s-0.662-1.795-0.662-2.889c0-1.641,0.465-2.975,1.395-4.002
		s2.137-1.541,3.621-1.541c1.43,0,2.57,0.5,3.422,1.5s1.277,2.34,1.277,4.02V27.747z M349.782,26.47h5.426
		c-0.055-0.852-0.309-1.508-0.762-1.969s-1.062-0.691-1.828-0.691s-1.393,0.23-1.881,0.691S349.931,25.618,349.782,26.47z"/>
	<path fill="#FFFFFF" d="M368.813,27.747h-7.582c0.055,1.031,0.4,1.852,1.037,2.461s1.459,0.914,2.467,0.914
		c1.406,0,2.703-0.438,3.891-1.312v2.086c-0.656,0.438-1.307,0.75-1.951,0.938s-1.4,0.281-2.268,0.281
		c-1.188,0-2.148-0.246-2.883-0.738s-1.322-1.154-1.764-1.986s-0.662-1.795-0.662-2.889c0-1.641,0.465-2.975,1.395-4.002
		s2.137-1.541,3.621-1.541c1.43,0,2.57,0.5,3.422,1.5s1.277,2.34,1.277,4.02V27.747z M361.278,26.47h5.426
		c-0.055-0.852-0.309-1.508-0.762-1.969s-1.062-0.691-1.828-0.691s-1.393,0.23-1.881,0.691S361.427,25.618,361.278,26.47z"/>
	<path fill="#FFFFFF" d="M369.61,23.88l4.008-3.938v2.227h3.41v1.922h-3.41v5.276c0,1.232,0.512,1.849,1.535,1.849
		c0.766,0,1.574-0.254,2.426-0.762v1.992c-0.82,0.461-1.715,0.691-2.684,0.691c-0.977,0-1.789-0.285-2.438-0.855
		c-0.203-0.172-0.371-0.365-0.504-0.58s-0.244-0.496-0.334-0.844s-0.135-1.01-0.135-1.986v-4.781h-1.875V23.88z"/>
	<path fill="#FFFFFF" d="M392.556,26.47v4.582c0,0.367,0.125,0.551,0.375,0.551c0.258,0,0.66-0.191,1.207-0.574v1.301
		c-0.484,0.312-0.873,0.525-1.166,0.639s-0.6,0.17-0.92,0.17c-0.914,0-1.453-0.359-1.617-1.078
		c-0.906,0.703-1.871,1.055-2.895,1.055c-0.75,0-1.375-0.248-1.875-0.744s-0.75-1.119-0.75-1.869c0-0.68,0.244-1.287,0.732-1.822
		s1.182-0.959,2.08-1.271l2.73-0.938v-0.574c0-1.297-0.648-1.945-1.945-1.945c-1.164,0-2.297,0.602-3.398,1.805v-2.332
		c0.828-0.977,2.02-1.465,3.574-1.465c1.164,0,2.098,0.305,2.801,0.914c0.234,0.195,0.445,0.455,0.633,0.779
		s0.307,0.648,0.357,0.973S392.556,25.563,392.556,26.47z M390.458,30.817v-3.199l-1.43,0.551c-0.727,0.289-1.24,0.58-1.541,0.873
		s-0.451,0.658-0.451,1.096c0,0.445,0.143,0.809,0.428,1.09s0.654,0.422,1.107,0.422C389.251,31.649,389.88,31.372,390.458,30.817z"
		/>
	<path fill="#FFFFFF" d="M395.474,25.896c0-1.148,0.42-2.057,1.26-2.725s1.986-1.002,3.439-1.002h4.441v1.664h-2.18
		c0.422,0.43,0.715,0.82,0.879,1.172s0.246,0.754,0.246,1.207c0,0.562-0.16,1.115-0.48,1.658s-0.732,0.959-1.236,1.248
		s-1.33,0.52-2.479,0.691c-0.805,0.117-1.207,0.395-1.207,0.832c0,0.25,0.15,0.455,0.451,0.615s0.846,0.326,1.635,0.498
		c1.32,0.289,2.17,0.516,2.549,0.68s0.721,0.398,1.025,0.703c0.516,0.516,0.773,1.164,0.773,1.945c0,1.023-0.455,1.84-1.365,2.449
		s-2.127,0.914-3.65,0.914c-1.539,0-2.768-0.307-3.686-0.92s-1.377-1.436-1.377-2.467c0-1.461,0.902-2.402,2.707-2.824
		c-0.719-0.461-1.078-0.918-1.078-1.371c0-0.344,0.154-0.656,0.463-0.938s0.725-0.488,1.248-0.621
		C396.267,28.603,395.474,27.466,395.474,25.896z M398.978,33.454c-0.719,0-1.307,0.152-1.764,0.457s-0.686,0.695-0.686,1.172
		c0,1.109,1,1.664,3,1.664c0.945,0,1.678-0.139,2.197-0.416s0.779-0.67,0.779-1.178c0-0.5-0.328-0.908-0.984-1.225
		S400.017,33.454,398.978,33.454z M399.481,24.021c-0.578,0-1.07,0.195-1.477,0.586s-0.609,0.859-0.609,1.406
		c0,0.555,0.199,1.014,0.598,1.377s0.902,0.545,1.512,0.545c0.602,0,1.104-0.186,1.506-0.557s0.604-0.834,0.604-1.389
		c0-0.562-0.203-1.031-0.609-1.406S400.091,24.021,399.481,24.021z"/>
	<path fill="#FFFFFF" d="M413.04,26.47v4.582c0,0.367,0.125,0.551,0.375,0.551c0.258,0,0.66-0.191,1.207-0.574v1.301
		c-0.484,0.312-0.873,0.525-1.166,0.639s-0.6,0.17-0.92,0.17c-0.914,0-1.453-0.359-1.617-1.078
		c-0.906,0.703-1.871,1.055-2.895,1.055c-0.75,0-1.375-0.248-1.875-0.744s-0.75-1.119-0.75-1.869c0-0.68,0.244-1.287,0.732-1.822
		s1.182-0.959,2.08-1.271l2.73-0.938v-0.574c0-1.297-0.648-1.945-1.945-1.945c-1.164,0-2.297,0.602-3.398,1.805v-2.332
		c0.828-0.977,2.02-1.465,3.574-1.465c1.164,0,2.098,0.305,2.801,0.914c0.234,0.195,0.445,0.455,0.633,0.779
		s0.307,0.648,0.357,0.973S413.04,25.563,413.04,26.47z M410.942,30.817v-3.199l-1.43,0.551c-0.727,0.289-1.24,0.58-1.541,0.873
		s-0.451,0.658-0.451,1.096c0,0.445,0.143,0.809,0.428,1.09s0.654,0.422,1.107,0.422C409.735,31.649,410.364,31.372,410.942,30.817z
		"/>
	<path fill="#FFFFFF" d="M417.61,17.634c0.352,0,0.652,0.121,0.902,0.363s0.375,0.539,0.375,0.891c0,0.344-0.125,0.641-0.375,0.891
		s-0.551,0.375-0.902,0.375c-0.328,0-0.617-0.127-0.867-0.381s-0.375-0.549-0.375-0.885c0-0.328,0.125-0.619,0.375-0.873
		S417.282,17.634,417.61,17.634z M416.556,22.169h2.133V32.95h-2.133V22.169z"/>
	<path fill="#FFFFFF" d="M423.903,22.169v1.371c0.953-1.055,2.035-1.582,3.246-1.582c0.672,0,1.297,0.174,1.875,0.521
		s1.018,0.824,1.318,1.43s0.451,1.564,0.451,2.877v6.164h-2.133V26.81c0-1.102-0.168-1.889-0.504-2.361s-0.898-0.709-1.688-0.709
		c-1.008,0-1.863,0.504-2.566,1.512v7.699h-2.18V22.169H423.903z"/>
</g>
</svg>
