<?xml version="1.0" encoding="utf-8"?>
<!-- Generator: Adobe Illustrator 15.0.0, SVG Export Plug-In . SVG Version: 6.00 Build 0)  -->
<!DOCTYPE svg PUBLIC "-//W3C//DTD SVG 1.1//EN" "http://www.w3.org/Graphics/SVG/1.1/DTD/svg11.dtd">
<svg version="1.1" id="Layer_1" xmlns="http://www.w3.org/2000/svg" xmlns:xlink="http://www.w3.org/1999/xlink" x="0px" y="0px"
	 width="186.333px" height="65.671px" viewBox="0 0 186.333 65.671" enable-background="new 0 0 186.333 65.671"
	 xml:space="preserve">
<g>
	<path fill="#F15A29" d="M186.333,62.319c0,1.853-2.684,3.353-5.994,3.353H5.995C2.684,65.671,0,64.169,0,62.319V23.556
		c0-1.852,2.684-3.353,5.995-3.353H180.34c3.311,0,5.994,1.501,5.994,3.353v38.763H186.333z"/>
</g>
<g>
	<polygon fill="#F15A29" points="118.118,25.871 129.472,0 140.829,25.871 	"/>
</g>
<g>
	<path fill="#FFFFFF" d="M32.681,50.298h-5.543V33.929h4.289c1.352,0,2.406,0.181,3.164,0.544c0.758,0.362,1.336,0.862,1.734,1.5
		c0.398,0.637,0.598,1.373,0.598,2.209c0,1.608-0.832,2.762-2.496,3.457c1.195,0.228,2.146,0.719,2.854,1.478
		c0.708,0.758,1.061,1.664,1.061,2.719c0,0.836-0.215,1.582-0.645,2.238c-0.43,0.655-1.061,1.19-1.893,1.604
		C34.972,50.091,33.931,50.298,32.681,50.298z M31.498,36.014h-2.016v4.922h1.559c1.25,0,2.139-0.237,2.666-0.715
		s0.791-1.095,0.791-1.853C34.498,36.798,33.498,36.014,31.498,36.014z M31.673,43.022h-2.191v5.19h2.309
		c1.281,0,2.15-0.1,2.607-0.299s0.824-0.51,1.102-0.932s0.416-0.875,0.416-1.359c0-0.5-0.146-0.957-0.439-1.371
		s-0.709-0.723-1.248-0.926S32.837,43.022,31.673,43.022z"/>
	<path fill="#FFFFFF" d="M45.513,39.496c1.641,0,3.004,0.528,4.09,1.588c1.086,1.059,1.629,2.389,1.629,3.99
		c0,1.555-0.551,2.846-1.652,3.872c-1.101,1.027-2.488,1.541-4.16,1.541c-1.617,0-2.969-0.521-4.055-1.563
		c-1.086-1.043-1.629-2.346-1.629-3.908c0-1.578,0.549-2.893,1.646-3.943C42.479,40.022,43.857,39.496,45.513,39.496z
		 M45.396,41.417c-1.023,0-1.863,0.336-2.52,1.008c-0.657,0.672-0.984,1.527-0.984,2.566c0,1.03,0.336,1.873,1.008,2.524
		s1.535,0.979,2.59,0.979c1.047,0,1.904-0.33,2.572-0.99s1.002-1.506,1.002-2.537c0-1.023-0.348-1.871-1.043-2.543
		S46.451,41.417,45.396,41.417z"/>
	<path fill="#FFFFFF" d="M55.884,39.518v2.474l0.117-0.189c1.031-1.663,2.062-2.495,3.094-2.495c0.805,0,1.645,0.405,2.52,1.219
		l-1.125,1.875c-0.742-0.702-1.43-1.055-2.062-1.055c-0.688,0-1.283,0.327-1.787,0.983s-0.756,1.435-0.756,2.332v5.637H53.74v-10.78
		H55.884z"/>
	<path fill="#FFFFFF" d="M69.935,33.929h2.145V50.3h-4.559c-1.594,0-2.865-0.504-3.814-1.512c-0.949-1.008-1.424-2.359-1.424-4.056
		c0-1.586,0.498-2.892,1.494-3.914s2.268-1.534,3.814-1.534c0.719,0,1.5,0.151,2.344,0.457V33.929z M69.935,48.471v-6.832
		c-0.664-0.337-1.336-0.505-2.016-0.505c-1.062,0-1.908,0.349-2.537,1.043c-0.629,0.695-0.943,1.634-0.943,2.812
		c0,1.109,0.273,1.965,0.82,2.566c0.328,0.359,0.676,0.602,1.043,0.727c0.367,0.125,1.027,0.188,1.98,0.188H69.935z"/>
	<path fill="#FFFFFF" d="M84.162,45.096H76.58c0.055,1.03,0.4,1.853,1.037,2.461c0.637,0.608,1.459,0.914,2.467,0.914
		c1.406,0,2.703-0.438,3.891-1.312v2.086c-0.656,0.438-1.307,0.75-1.951,0.938s-1.4,0.281-2.268,0.281
		c-1.188,0-2.148-0.246-2.883-0.738s-1.322-1.154-1.764-1.986s-0.662-1.795-0.662-2.889c0-1.641,0.465-2.975,1.395-4.002
		c0.93-1.027,2.137-1.541,3.621-1.541c1.43,0,2.57,0.5,3.422,1.5c0.852,1,1.277,2.34,1.277,4.02V45.096z M76.626,43.819h5.426
		c-0.055-0.853-0.309-1.508-0.762-1.969s-1.062-0.69-1.828-0.69s-1.393,0.229-1.881,0.69C77.093,42.311,76.775,42.966,76.626,43.819
		z"/>
	<path fill="#FFFFFF" d="M88.755,39.518v2.474l0.117-0.189c1.031-1.663,2.062-2.495,3.094-2.495c0.805,0,1.645,0.405,2.52,1.219
		l-1.125,1.875c-0.742-0.702-1.43-1.055-2.062-1.055c-0.688,0-1.283,0.327-1.787,0.983c-0.504,0.656-0.756,1.435-0.756,2.332v5.637
		h-2.145v-10.78H88.755z"/>
	<path fill="#FFFFFF" d="M102.5,55.794V39.518h3.734c1.911,0,3.398,0.478,4.465,1.431c1.064,0.952,1.598,2.284,1.598,3.995
		c0,1.617-0.502,2.945-1.504,3.983c-1.002,1.039-2.278,1.56-3.832,1.56c-0.686,0-1.446-0.151-2.28-0.456v5.766H102.5V55.794z
		 M106.189,41.509h-1.508v6.634c0.653,0.336,1.341,0.504,2.06,0.504c0.996,0,1.813-0.349,2.448-1.043
		c0.636-0.694,0.953-1.59,0.953-2.685c0-0.703-0.149-1.323-0.45-1.862c-0.3-0.539-0.71-0.933-1.229-1.179
		C107.946,41.632,107.187,41.509,106.189,41.509z"/>
	<path fill="#FFFFFF" d="M121.417,43.819v4.582c0,0.367,0.125,0.552,0.375,0.552c0.258,0,0.66-0.191,1.207-0.574v1.301
		c-0.484,0.312-0.873,0.525-1.166,0.639c-0.293,0.114-0.601,0.17-0.92,0.17c-0.914,0-1.453-0.359-1.617-1.078
		c-0.906,0.703-1.871,1.055-2.896,1.055c-0.75,0-1.375-0.248-1.875-0.743c-0.5-0.496-0.75-1.119-0.75-1.869
		c0-0.681,0.244-1.287,0.731-1.821c0.488-0.535,1.183-0.96,2.08-1.271l2.73-0.938v-0.573c0-1.297-0.648-1.945-1.945-1.945
		c-1.164,0-2.297,0.602-3.397,1.805v-2.332c0.828-0.977,2.021-1.465,3.573-1.465c1.164,0,2.099,0.305,2.802,0.914
		c0.233,0.195,0.444,0.455,0.633,0.779s0.308,0.647,0.356,0.973C121.389,42.3,121.417,42.914,121.417,43.819z M119.318,48.167
		v-3.199l-1.43,0.551c-0.728,0.289-1.24,0.58-1.541,0.873c-0.302,0.293-0.451,0.658-0.451,1.096c0,0.445,0.144,0.809,0.429,1.09
		c0.284,0.281,0.653,0.422,1.106,0.422C118.111,49,118.741,48.721,119.318,48.167z"/>
	<path fill="#FFFFFF" d="M123.374,41.229l4.008-3.938v2.228h3.41v1.922h-3.41v5.276c0,1.232,0.512,1.849,1.535,1.849
		c0.766,0,1.574-0.254,2.426-0.763v1.992c-0.82,0.461-1.715,0.691-2.684,0.691c-0.978,0-1.789-0.285-2.438-0.855
		c-0.203-0.172-0.371-0.364-0.505-0.58c-0.133-0.215-0.243-0.495-0.334-0.844c-0.09-0.348-0.135-1.01-0.135-1.985V41.44h-1.875
		v-0.211H123.374z"/>
	<path fill="#FFFFFF" d="M135.163,39.518v2.474l0.116-0.189c1.031-1.663,2.062-2.495,3.095-2.495c0.805,0,1.645,0.405,2.52,1.219
		l-1.125,1.875c-0.742-0.702-1.43-1.055-2.062-1.055c-0.688,0-1.283,0.327-1.787,0.983s-0.756,1.435-0.756,2.332v5.637h-2.145
		v-10.78H135.163z"/>
	<path fill="#FFFFFF" d="M146.939,39.496c1.642,0,3.004,0.528,4.09,1.588c1.087,1.059,1.63,2.389,1.63,3.99
		c0,1.555-0.552,2.846-1.652,3.872c-1.102,1.027-2.488,1.541-4.16,1.541c-1.617,0-2.969-0.521-4.055-1.563s-1.629-2.346-1.629-3.908
		c0-1.578,0.549-2.893,1.646-3.943C143.905,40.022,145.284,39.496,146.939,39.496z M146.822,41.417
		c-1.022,0-1.862,0.336-2.521,1.008c-0.656,0.672-0.983,1.527-0.983,2.566c0,1.03,0.336,1.873,1.009,2.524
		c0.672,0.651,1.534,0.979,2.59,0.979c1.047,0,1.903-0.33,2.571-0.99c0.669-0.66,1.003-1.506,1.003-2.537
		c0-1.023-0.349-1.871-1.044-2.543C148.752,41.753,147.875,41.417,146.822,41.417z"/>
	<path fill="#FFFFFF" d="M155.072,33.929h2.134V50.3h-2.134V33.929z"/>
</g>
</svg>
