<?xml version="1.0" encoding="utf-8"?>
<!-- Generator: Adobe Illustrator 15.0.0, SVG Export Plug-In . SVG Version: 6.00 Build 0)  -->
<!DOCTYPE svg PUBLIC "-//W3C//DTD SVG 1.1//EN" "http://www.w3.org/Graphics/SVG/1.1/DTD/svg11.dtd">
<svg version="1.1" id="Layer_1" xmlns="http://www.w3.org/2000/svg" xmlns:xlink="http://www.w3.org/1999/xlink" x="0px" y="0px"
	 width="171.344px" height="114.799px" viewBox="0 0 171.344 114.799" enable-background="new 0 0 171.344 114.799"
	 xml:space="preserve">
<g>
	<polygon fill="#262262" points="145.473,18.241 171.344,29.597 145.473,40.951 	"/>
</g>
<g>
	<path fill="#262262" d="M146.284,106.333c0,4.676-2.107,8.467-4.705,8.467H4.706c-2.598,0-4.706-3.791-4.706-8.467V8.466
		C0,3.791,2.107,0,4.706,0h136.873c2.598,0,4.705,3.791,4.705,8.466V106.333z"/>
</g>
<g>
	<path fill="#FFFFFF" d="M14.648,21.288h2.344v16.371h-2.344V21.288z"/>
	<path fill="#FFFFFF" d="M18.82,28.588l4.008-3.938v2.227h3.41v1.922h-3.41v5.276c0,1.232,0.512,1.849,1.535,1.849
		c0.766,0,1.574-0.254,2.426-0.762v1.992c-0.82,0.461-1.715,0.691-2.684,0.691c-0.977,0-1.789-0.285-2.438-0.855
		c-0.203-0.172-0.371-0.365-0.504-0.58s-0.244-0.496-0.334-0.844s-0.135-1.01-0.135-1.986v-4.781H18.82V28.588z"/>
	<path fill="#FFFFFF" d="M27.984,27.03v-0.457c0.352-0.344,0.598-0.684,0.738-1.02s0.223-0.797,0.246-1.383
		c-0.828-0.266-1.242-0.777-1.242-1.535c0-0.43,0.143-0.797,0.428-1.102s0.623-0.457,1.014-0.457c0.477,0,0.867,0.211,1.172,0.633
		s0.457,0.961,0.457,1.617c0,0.875-0.25,1.643-0.75,2.303S28.859,26.756,27.984,27.03z"/>
	<path fill="#FFFFFF" d="M31.136,36.885v-2.297c0.602,0.422,1.217,0.764,1.846,1.025s1.158,0.393,1.588,0.393
		c0.445,0,0.828-0.109,1.148-0.328s0.48-0.48,0.48-0.785c0-0.312-0.104-0.572-0.311-0.779s-0.654-0.506-1.342-0.896
		c-1.375-0.766-2.275-1.42-2.701-1.963s-0.639-1.135-0.639-1.775c0-0.828,0.322-1.504,0.967-2.027s1.475-0.785,2.49-0.785
		c1.055,0,2.137,0.297,3.246,0.891v2.109c-1.266-0.766-2.301-1.148-3.105-1.148c-0.414,0-0.748,0.088-1.002,0.264
		c-0.254,0.176-0.381,0.409-0.381,0.698c0,0.25,0.115,0.489,0.345,0.716c0.23,0.227,0.635,0.5,1.213,0.82l0.762,0.434
		c1.797,1.016,2.696,2.14,2.696,3.374c0,0.882-0.346,1.607-1.037,2.173c-0.691,0.566-1.58,0.849-2.666,0.849
		c-0.641,0-1.211-0.068-1.711-0.205S31.894,37.252,31.136,36.885z"/>
	<path fill="#FFFFFF" d="M54.761,21.288h2.145v16.371h-4.559c-1.594,0-2.865-0.504-3.814-1.512s-1.424-2.359-1.424-4.055
		c0-1.586,0.498-2.891,1.494-3.914s2.268-1.535,3.814-1.535c0.719,0,1.5,0.152,2.344,0.457V21.288z M54.761,35.831v-6.832
		c-0.664-0.336-1.336-0.504-2.016-0.504c-1.062,0-1.908,0.348-2.537,1.043s-0.943,1.633-0.943,2.812c0,1.109,0.273,1.965,0.82,2.566
		c0.328,0.359,0.676,0.602,1.043,0.727s1.027,0.188,1.98,0.188H54.761z"/>
	<path fill="#FFFFFF" d="M68.988,32.456h-7.582c0.055,1.031,0.4,1.852,1.037,2.461s1.459,0.914,2.467,0.914
		c1.406,0,2.703-0.438,3.891-1.312v2.086c-0.656,0.438-1.307,0.75-1.951,0.938s-1.4,0.281-2.268,0.281
		c-1.188,0-2.148-0.246-2.883-0.738s-1.322-1.154-1.764-1.986s-0.662-1.795-0.662-2.889c0-1.641,0.465-2.975,1.395-4.002
		s2.137-1.541,3.621-1.541c1.43,0,2.57,0.5,3.422,1.5s1.277,2.34,1.277,4.02V32.456z M61.453,31.178h5.426
		c-0.055-0.852-0.309-1.508-0.762-1.969s-1.062-0.691-1.828-0.691s-1.393,0.23-1.881,0.691S61.601,30.327,61.453,31.178z"/>
	<path fill="#FFFFFF" d="M71.542,26.877v-0.645c0-1.734,0.369-3.027,1.107-3.879s1.623-1.277,2.654-1.277
		c0.445,0,0.973,0.07,1.582,0.211v2.086c-0.344-0.125-0.672-0.188-0.984-0.188c-0.836,0-1.416,0.223-1.74,0.668
		s-0.486,1.238-0.486,2.379v0.645h1.922v1.922h-1.922v8.859h-2.133v-8.859h-1.547v-1.922H71.542z"/>
	<path fill="#FFFFFF" d="M78.398,22.342c0.352,0,0.652,0.121,0.902,0.363s0.375,0.539,0.375,0.891c0,0.344-0.125,0.641-0.375,0.891
		s-0.551,0.375-0.902,0.375c-0.328,0-0.617-0.127-0.867-0.381s-0.375-0.549-0.375-0.885c0-0.328,0.125-0.619,0.375-0.873
		S78.07,22.342,78.398,22.342z M77.343,26.877h2.133v10.781h-2.133V26.877z"/>
	<path fill="#FFFFFF" d="M84.691,26.877v1.371c0.953-1.055,2.035-1.582,3.246-1.582c0.672,0,1.297,0.174,1.875,0.521
		s1.018,0.824,1.318,1.43s0.451,1.564,0.451,2.877v6.164h-2.133v-6.141c0-1.102-0.168-1.889-0.504-2.361s-0.898-0.709-1.688-0.709
		c-1.008,0-1.863,0.504-2.566,1.512v7.699h-2.18V26.877H84.691z"/>
	<path fill="#FFFFFF" d="M95.66,22.342c0.352,0,0.652,0.121,0.902,0.363s0.375,0.539,0.375,0.891c0,0.344-0.125,0.641-0.375,0.891
		s-0.551,0.375-0.902,0.375c-0.328,0-0.617-0.127-0.867-0.381s-0.375-0.549-0.375-0.885c0-0.328,0.125-0.619,0.375-0.873
		S95.332,22.342,95.66,22.342z M94.605,26.877h2.133v10.781h-2.133V26.877z"/>
	<path fill="#FFFFFF" d="M98.308,28.588l4.008-3.938v2.227h3.41v1.922h-3.41v5.276c0,1.232,0.512,1.849,1.535,1.849
		c0.766,0,1.574-0.254,2.426-0.762v1.992c-0.82,0.461-1.715,0.691-2.684,0.691c-0.977,0-1.789-0.285-2.438-0.855
		c-0.203-0.172-0.371-0.365-0.504-0.58s-0.244-0.496-0.334-0.844s-0.135-1.01-0.135-1.986v-4.781h-1.875V28.588z"/>
	<path fill="#FFFFFF" d="M117,32.456h-7.582c0.055,1.031,0.4,1.852,1.037,2.461s1.459,0.914,2.467,0.914
		c1.406,0,2.703-0.438,3.891-1.312v2.086c-0.656,0.438-1.307,0.75-1.951,0.938s-1.4,0.281-2.268,0.281
		c-1.188,0-2.148-0.246-2.883-0.738s-1.322-1.154-1.764-1.986s-0.662-1.795-0.662-2.889c0-1.641,0.465-2.975,1.395-4.002
		s2.137-1.541,3.621-1.541c1.43,0,2.57,0.5,3.422,1.5s1.277,2.34,1.277,4.02V32.456z M109.464,31.178h5.426
		c-0.055-0.852-0.309-1.508-0.762-1.969s-1.062-0.691-1.828-0.691s-1.393,0.23-1.881,0.691S109.613,30.327,109.464,31.178z"/>
	<path fill="#FFFFFF" d="M119.355,21.288h2.133v16.371h-2.133V21.288z"/>
	<path fill="#FFFFFF" d="M130.954,26.877h2.394l-7.64,16.277h-2.38l3.659-7.812l-4.163-8.466h2.431l2.911,6.09L130.954,26.877z"/>
	<path fill="#FFFFFF" d="M15.433,51.142c0.352,0,0.652,0.121,0.902,0.363s0.375,0.539,0.375,0.891c0,0.344-0.125,0.641-0.375,0.891
		s-0.551,0.375-0.902,0.375c-0.328,0-0.617-0.127-0.867-0.381s-0.375-0.549-0.375-0.885c0-0.328,0.125-0.619,0.375-0.873
		S15.105,51.142,15.433,51.142z M14.378,55.677h2.133v10.781h-2.133V55.677z"/>
	<path fill="#FFFFFF" d="M21.726,55.677v1.371c0.953-1.055,2.035-1.582,3.246-1.582c0.672,0,1.297,0.174,1.875,0.521
		s1.018,0.824,1.318,1.43s0.451,1.564,0.451,2.877v6.164h-2.133v-6.141c0-1.102-0.168-1.889-0.504-2.361s-0.898-0.709-1.688-0.709
		c-1.008,0-1.863,0.504-2.566,1.512v7.699h-2.18V55.677H21.726z"/>
	<path fill="#FFFFFF" d="M38.214,50.087h2.133v7.008c0.891-1.086,1.996-1.629,3.316-1.629c0.719,0,1.363,0.18,1.934,0.539
		s0.994,0.855,1.271,1.488s0.416,1.574,0.416,2.824v6.141h-2.133v-6.668c0-0.789-0.193-1.424-0.58-1.904s-0.896-0.721-1.529-0.721
		c-0.469,0-0.91,0.121-1.324,0.363s-0.871,0.645-1.371,1.207v7.723h-2.133V50.087z"/>
	<path fill="#FFFFFF" d="M59.449,61.255h-7.582c0.055,1.031,0.4,1.852,1.037,2.461s1.459,0.914,2.467,0.914
		c1.406,0,2.703-0.438,3.891-1.312v2.086c-0.656,0.438-1.307,0.75-1.951,0.938s-1.4,0.281-2.268,0.281
		c-1.188,0-2.148-0.246-2.883-0.738s-1.322-1.154-1.764-1.986s-0.662-1.795-0.662-2.889c0-1.641,0.465-2.975,1.395-4.002
		s2.137-1.541,3.621-1.541c1.43,0,2.57,0.5,3.422,1.5s1.277,2.34,1.277,4.02V61.255z M51.914,59.978h5.426
		c-0.055-0.852-0.309-1.508-0.762-1.969s-1.062-0.691-1.828-0.691s-1.393,0.23-1.881,0.691S52.062,59.126,51.914,59.978z"/>
	<path fill="#FFFFFF" d="M64.042,55.677v2.473l0.117-0.188c1.031-1.664,2.062-2.496,3.094-2.496c0.805,0,1.645,0.406,2.52,1.219
		l-1.125,1.875c-0.742-0.703-1.43-1.055-2.062-1.055c-0.688,0-1.283,0.328-1.787,0.984s-0.756,1.434-0.756,2.332v5.637h-2.145
		V55.677H64.042z"/>
	<path fill="#FFFFFF" d="M79.968,61.255h-7.582c0.055,1.031,0.4,1.852,1.037,2.461s1.459,0.914,2.467,0.914
		c1.406,0,2.703-0.438,3.891-1.312v2.086c-0.656,0.438-1.307,0.75-1.951,0.938s-1.4,0.281-2.268,0.281
		c-1.188,0-2.148-0.246-2.883-0.738s-1.322-1.154-1.764-1.986s-0.662-1.795-0.662-2.889c0-1.641,0.465-2.975,1.395-4.002
		s2.137-1.541,3.621-1.541c1.43,0,2.57,0.5,3.422,1.5s1.277,2.34,1.277,4.02V61.255z M72.433,59.978h5.426
		c-0.055-0.852-0.309-1.508-0.762-1.969s-1.062-0.691-1.828-0.691s-1.393,0.23-1.881,0.691S72.582,59.126,72.433,59.978z"/>
	<path fill="#FFFFFF" d="M13.804,94.485v-2.297c0.602,0.422,1.217,0.764,1.846,1.025s1.158,0.393,1.588,0.393
		c0.445,0,0.828-0.109,1.148-0.328s0.48-0.48,0.48-0.785c0-0.312-0.104-0.572-0.311-0.779s-0.654-0.506-1.342-0.896
		c-1.375-0.766-2.275-1.42-2.701-1.963s-0.639-1.135-0.639-1.775c0-0.828,0.322-1.504,0.967-2.027s1.475-0.785,2.49-0.785
		c1.055,0,2.137,0.297,3.246,0.891v2.109c-1.266-0.766-2.301-1.148-3.105-1.148c-0.414,0-0.748,0.088-1.002,0.265
		c-0.254,0.176-0.381,0.409-0.381,0.698c0,0.25,0.115,0.488,0.345,0.715c0.23,0.228,0.635,0.501,1.213,0.82l0.762,0.434
		c1.797,1.016,2.696,2.141,2.696,3.375c0,0.882-0.346,1.606-1.037,2.173c-0.691,0.565-1.58,0.849-2.666,0.849
		c-0.641,0-1.211-0.068-1.711-0.205S14.562,94.852,13.804,94.485z"/>
	<path fill="#FFFFFF" d="M28.722,84.454c1.641,0,3.004,0.529,4.09,1.588s1.629,2.389,1.629,3.99c0,1.555-0.551,2.846-1.652,3.873
		s-2.488,1.541-4.16,1.541c-1.617,0-2.969-0.521-4.055-1.564s-1.629-2.346-1.629-3.908c0-1.578,0.549-2.893,1.646-3.943
		S27.066,84.454,28.722,84.454z M28.605,86.375c-1.023,0-1.863,0.336-2.52,1.008s-0.984,1.527-0.984,2.566
		c0,1.031,0.336,1.873,1.008,2.525s1.535,0.979,2.59,0.979c1.047,0,1.904-0.33,2.572-0.99s1.002-1.506,1.002-2.537
		c0-1.023-0.348-1.871-1.043-2.543S29.66,86.375,28.605,86.375z"/>
	<path fill="#FFFFFF" d="M45.644,87.43v7.828H43.5v-6c0-1.195-0.16-2.029-0.48-2.502s-0.879-0.709-1.676-0.709
		c-0.445,0-0.854,0.102-1.225,0.305s-0.795,0.562-1.271,1.078v7.828h-2.133V84.477h2.133v1.418c1.086-1.086,2.148-1.629,3.188-1.629
		c1.367,0,2.426,0.648,3.176,1.945c1.141-1.312,2.332-1.969,3.574-1.969c1.047,0,1.908,0.383,2.584,1.148s1.014,1.934,1.014,3.504
		v6.363H50.25v-6.387c0-0.898-0.184-1.586-0.551-2.062s-0.895-0.715-1.582-0.715C47.234,86.094,46.41,86.54,45.644,87.43z"/>
	<path fill="#FFFFFF" d="M64.5,90.055h-7.582c0.055,1.031,0.4,1.852,1.037,2.461s1.459,0.914,2.467,0.914
		c1.406,0,2.703-0.438,3.891-1.312v2.086c-0.656,0.438-1.307,0.75-1.951,0.938s-1.4,0.281-2.268,0.281
		c-1.188,0-2.148-0.246-2.883-0.738s-1.322-1.154-1.764-1.986s-0.662-1.795-0.662-2.889c0-1.641,0.465-2.975,1.395-4.002
		s2.137-1.541,3.621-1.541c1.43,0,2.57,0.5,3.422,1.5s1.277,2.34,1.277,4.02V90.055z M56.964,88.778h5.426
		c-0.055-0.852-0.309-1.508-0.762-1.969s-1.062-0.691-1.828-0.691s-1.393,0.23-1.881,0.691S57.113,87.926,56.964,88.778z"/>
	<path fill="#FFFFFF" d="M79.919,84.477h2.287l-4.762,10.969h-0.681l-3.188-7.512l-3.148,7.512h-0.692l-4.802-10.969h2.291
		l2.825,6.539l2.753-6.539h1.582l2.72,6.539L79.919,84.477z"/>
	<path fill="#FFFFFF" d="M83.66,78.887h2.133v7.008c0.891-1.086,1.996-1.629,3.316-1.629c0.719,0,1.363,0.18,1.934,0.539
		s0.994,0.855,1.271,1.488s0.416,1.574,0.416,2.824v6.141h-2.133V88.59c0-0.789-0.193-1.424-0.58-1.904s-0.896-0.721-1.529-0.721
		c-0.469,0-0.91,0.121-1.324,0.363s-0.871,0.645-1.371,1.207v7.723H83.66V78.887z"/>
	<path fill="#FFFFFF" d="M104.894,90.055h-7.582c0.055,1.031,0.4,1.852,1.037,2.461s1.459,0.914,2.467,0.914
		c1.406,0,2.703-0.438,3.891-1.312v2.086c-0.656,0.438-1.307,0.75-1.951,0.938s-1.4,0.281-2.268,0.281
		c-1.188,0-2.148-0.246-2.883-0.738s-1.322-1.154-1.764-1.986s-0.662-1.795-0.662-2.889c0-1.641,0.465-2.975,1.395-4.002
		s2.137-1.541,3.621-1.541c1.43,0,2.57,0.5,3.422,1.5s1.277,2.34,1.277,4.02V90.055z M97.359,88.778h5.426
		c-0.055-0.852-0.309-1.508-0.762-1.969s-1.062-0.691-1.828-0.691s-1.393,0.23-1.881,0.691S97.507,87.926,97.359,88.778z"/>
	<path fill="#FFFFFF" d="M109.488,84.477v2.473l0.117-0.188c1.031-1.664,2.062-2.496,3.094-2.496c0.805,0,1.645,0.406,2.52,1.219
		l-1.125,1.875c-0.742-0.703-1.43-1.055-2.062-1.055c-0.688,0-1.283,0.328-1.787,0.984s-0.756,1.434-0.756,2.332v5.637h-2.145
		V84.477H109.488z"/>
	<path fill="#FFFFFF" d="M125.414,90.055h-7.582c0.055,1.031,0.4,1.852,1.037,2.461s1.459,0.914,2.467,0.914
		c1.406,0,2.703-0.438,3.891-1.312v2.086c-0.656,0.438-1.307,0.75-1.951,0.938s-1.4,0.281-2.268,0.281
		c-1.188,0-2.148-0.246-2.883-0.738s-1.322-1.154-1.764-1.986s-0.662-1.795-0.662-2.889c0-1.641,0.465-2.975,1.395-4.002
		s2.137-1.541,3.621-1.541c1.43,0,2.57,0.5,3.422,1.5s1.277,2.34,1.277,4.02V90.055z M117.878,88.778h5.426
		c-0.055-0.852-0.309-1.508-0.762-1.969s-1.062-0.691-1.828-0.691s-1.393,0.23-1.881,0.691S118.027,87.926,117.878,88.778z"/>
</g>
</svg>
