<?xml version="1.0" encoding="utf-8"?>
<!-- Generator: Adobe Illustrator 15.0.0, SVG Export Plug-In . SVG Version: 6.00 Build 0)  -->
<!DOCTYPE svg PUBLIC "-//W3C//DTD SVG 1.1//EN" "http://www.w3.org/Graphics/SVG/1.1/DTD/svg11.dtd">
<svg version="1.1" id="Layer_1" xmlns="http://www.w3.org/2000/svg" xmlns:xlink="http://www.w3.org/1999/xlink" x="0px" y="0px"
	 width="215.276px" height="64.383px" viewBox="0 0 215.276 64.383" enable-background="new 0 0 215.276 64.383"
	 xml:space="preserve">
<g>
	<path fill="#262262" d="M215.276,43.854c0,1.928-3.102,3.492-6.926,3.492H6.925C3.101,47.346,0,45.782,0,43.854V3.491
		C0,1.563,3.101,0,6.925,0h201.425c3.824,0,6.926,1.563,6.926,3.491V43.854z"/>
</g>
<g>
	<polygon fill="#262262" points="65.782,38.513 54.427,64.383 43.072,38.513 	"/>
</g>
<g>
	<path fill="#FFFFFF" d="M16.733,15.008h13.676v2.086h-5.707v14.309h-2.355V17.094h-5.613V15.008z"/>
	<path fill="#FFFFFF" d="M33.889,20.598c1.641,0,3.004,0.529,4.09,1.588s1.629,2.389,1.629,3.99c0,1.555-0.551,2.846-1.652,3.873
		s-2.488,1.541-4.16,1.541c-1.617,0-2.969-0.521-4.055-1.564s-1.629-2.346-1.629-3.908c0-1.578,0.549-2.893,1.646-3.943
		S32.233,20.598,33.889,20.598z M33.772,22.52c-1.023,0-1.863,0.336-2.52,1.008s-0.984,1.527-0.984,2.566
		c0,1.031,0.336,1.873,1.008,2.525s1.535,0.979,2.59,0.979c1.047,0,1.904-0.33,2.572-0.99s1.002-1.506,1.002-2.537
		c0-1.023-0.348-1.871-1.043-2.543S34.827,22.52,33.772,22.52z"/>
	<path fill="#FFFFFF" d="M48.092,24.348c0-1.148,0.42-2.057,1.26-2.725s1.986-1.002,3.439-1.002h4.441v1.664h-2.18
		c0.422,0.43,0.715,0.82,0.879,1.172s0.246,0.754,0.246,1.207c0,0.562-0.16,1.115-0.48,1.658s-0.732,0.959-1.236,1.248
		s-1.33,0.52-2.479,0.691c-0.805,0.117-1.207,0.395-1.207,0.832c0,0.25,0.15,0.455,0.451,0.615s0.846,0.326,1.635,0.498
		c1.32,0.289,2.17,0.516,2.549,0.68s0.721,0.398,1.025,0.703c0.516,0.516,0.773,1.164,0.773,1.945c0,1.023-0.455,1.84-1.365,2.449
		s-2.127,0.914-3.65,0.914c-1.539,0-2.768-0.307-3.686-0.92s-1.377-1.436-1.377-2.467c0-1.461,0.902-2.402,2.707-2.824
		c-0.719-0.461-1.078-0.918-1.078-1.371c0-0.344,0.154-0.656,0.463-0.938s0.725-0.488,1.248-0.621
		C48.885,27.055,48.092,25.918,48.092,24.348z M51.596,31.907c-0.719,0-1.307,0.152-1.764,0.457s-0.686,0.695-0.686,1.172
		c0,1.109,1,1.664,3,1.664c0.945,0,1.678-0.139,2.197-0.416s0.779-0.67,0.779-1.178c0-0.5-0.328-0.908-0.984-1.225
		S52.635,31.907,51.596,31.907z M52.1,22.473c-0.578,0-1.07,0.195-1.477,0.586s-0.609,0.859-0.609,1.406
		c0,0.555,0.199,1.014,0.598,1.377s0.902,0.545,1.512,0.545c0.602,0,1.104-0.186,1.506-0.557s0.604-0.834,0.604-1.389
		c0-0.562-0.203-1.031-0.609-1.406S52.709,22.473,52.1,22.473z"/>
	<path fill="#FFFFFF" d="M63.807,20.598c1.641,0,3.004,0.529,4.09,1.588s1.629,2.389,1.629,3.99c0,1.555-0.551,2.846-1.652,3.873
		s-2.488,1.541-4.16,1.541c-1.617,0-2.969-0.521-4.055-1.564s-1.629-2.346-1.629-3.908c0-1.578,0.549-2.893,1.646-3.943
		S62.151,20.598,63.807,20.598z M63.69,22.52c-1.023,0-1.863,0.336-2.52,1.008s-0.984,1.527-0.984,2.566
		c0,1.031,0.336,1.873,1.008,2.525s1.535,0.979,2.59,0.979c1.047,0,1.904-0.33,2.572-0.99s1.002-1.506,1.002-2.537
		c0-1.023-0.348-1.871-1.043-2.543S64.745,22.52,63.69,22.52z"/>
	<path fill="#FFFFFF" d="M83.717,20.598c1.641,0,3.004,0.529,4.09,1.588s1.629,2.389,1.629,3.99c0,1.555-0.551,2.846-1.652,3.873
		s-2.488,1.541-4.16,1.541c-1.617,0-2.969-0.521-4.055-1.564s-1.629-2.346-1.629-3.908c0-1.578,0.549-2.893,1.646-3.943
		S82.061,20.598,83.717,20.598z M83.6,22.52c-1.023,0-1.863,0.336-2.52,1.008s-0.984,1.527-0.984,2.566
		c0,1.031,0.336,1.873,1.008,2.525s1.535,0.979,2.59,0.979c1.047,0,1.904-0.33,2.572-0.99s1.002-1.506,1.002-2.537
		c0-1.023-0.348-1.871-1.043-2.543S84.655,22.52,83.6,22.52z"/>
	<path fill="#FFFFFF" d="M94.088,20.622v2.473l0.117-0.188c1.031-1.664,2.062-2.496,3.094-2.496c0.805,0,1.645,0.406,2.52,1.219
		l-1.125,1.875c-0.742-0.703-1.43-1.055-2.062-1.055c-0.688,0-1.283,0.328-1.787,0.984s-0.756,1.434-0.756,2.332v5.637h-2.145
		V20.622H94.088z"/>
	<path fill="#FFFFFF" d="M110.108,20.622v1.371c0.953-1.055,2.035-1.582,3.246-1.582c0.672,0,1.297,0.174,1.875,0.521
		s1.018,0.824,1.318,1.43s0.451,1.564,0.451,2.877v6.164h-2.133v-6.141c0-1.102-0.168-1.889-0.504-2.361s-0.898-0.709-1.688-0.709
		c-1.008,0-1.863,0.504-2.566,1.512v7.699h-2.18V20.622H110.108z"/>
	<path fill="#FFFFFF" d="M125.132,20.598c1.641,0,3.004,0.529,4.09,1.588s1.629,2.389,1.629,3.99c0,1.555-0.551,2.846-1.652,3.873
		s-2.488,1.541-4.16,1.541c-1.617,0-2.969-0.521-4.055-1.564s-1.629-2.346-1.629-3.908c0-1.578,0.549-2.893,1.646-3.943
		S123.476,20.598,125.132,20.598z M125.015,22.52c-1.023,0-1.863,0.336-2.52,1.008s-0.984,1.527-0.984,2.566
		c0,1.031,0.336,1.873,1.008,2.525s1.535,0.979,2.59,0.979c1.047,0,1.904-0.33,2.572-0.99s1.002-1.506,1.002-2.537
		c0-1.023-0.348-1.871-1.043-2.543S126.069,22.52,125.015,22.52z"/>
	<path fill="#FFFFFF" d="M131.706,22.333l4.008-3.938v2.227h3.41v1.922h-3.41v5.276c0,1.232,0.512,1.849,1.535,1.849
		c0.766,0,1.574-0.254,2.426-0.762v1.992c-0.82,0.461-1.715,0.691-2.684,0.691c-0.977,0-1.789-0.285-2.438-0.855
		c-0.203-0.172-0.371-0.365-0.504-0.58s-0.244-0.496-0.334-0.844s-0.135-1.01-0.135-1.986v-4.781h-1.875V22.333z"/>
	<path fill="#FFFFFF" d="M146.366,22.333l4.008-3.938v2.227h3.41v1.922h-3.41v5.276c0,1.232,0.512,1.849,1.535,1.849
		c0.766,0,1.574-0.254,2.426-0.762v1.992c-0.82,0.461-1.715,0.691-2.684,0.691c-0.977,0-1.789-0.285-2.438-0.855
		c-0.203-0.172-0.371-0.365-0.504-0.58s-0.244-0.496-0.334-0.844s-0.135-1.01-0.135-1.986v-4.781h-1.875V22.333z"/>
	<path fill="#FFFFFF" d="M161.026,20.598c1.641,0,3.004,0.529,4.09,1.588s1.629,2.389,1.629,3.99c0,1.555-0.551,2.846-1.652,3.873
		s-2.488,1.541-4.16,1.541c-1.617,0-2.969-0.521-4.055-1.564s-1.629-2.346-1.629-3.908c0-1.578,0.549-2.893,1.646-3.943
		S159.37,20.598,161.026,20.598z M160.909,22.52c-1.023,0-1.863,0.336-2.52,1.008s-0.984,1.527-0.984,2.566
		c0,1.031,0.336,1.873,1.008,2.525s1.535,0.979,2.59,0.979c1.047,0,1.904-0.33,2.572-0.99s1.002-1.506,1.002-2.537
		c0-1.023-0.348-1.871-1.043-2.543S161.964,22.52,160.909,22.52z"/>
	<path fill="#FFFFFF" d="M175.229,24.348c0-1.148,0.42-2.057,1.26-2.725s1.986-1.002,3.439-1.002h4.441v1.664h-2.18
		c0.422,0.43,0.715,0.82,0.879,1.172s0.246,0.754,0.246,1.207c0,0.562-0.16,1.115-0.48,1.658s-0.732,0.959-1.236,1.248
		s-1.33,0.52-2.479,0.691c-0.805,0.117-1.207,0.395-1.207,0.832c0,0.25,0.15,0.455,0.451,0.615s0.846,0.326,1.635,0.498
		c1.32,0.289,2.17,0.516,2.549,0.68s0.721,0.398,1.025,0.703c0.516,0.516,0.773,1.164,0.773,1.945c0,1.023-0.455,1.84-1.365,2.449
		s-2.127,0.914-3.65,0.914c-1.539,0-2.768-0.307-3.686-0.92s-1.377-1.436-1.377-2.467c0-1.461,0.902-2.402,2.707-2.824
		c-0.719-0.461-1.078-0.918-1.078-1.371c0-0.344,0.154-0.656,0.463-0.938s0.725-0.488,1.248-0.621
		C176.022,27.055,175.229,25.918,175.229,24.348z M178.733,31.907c-0.719,0-1.307,0.152-1.764,0.457s-0.686,0.695-0.686,1.172
		c0,1.109,1,1.664,3,1.664c0.945,0,1.678-0.139,2.197-0.416s0.779-0.67,0.779-1.178c0-0.5-0.328-0.908-0.984-1.225
		S179.772,31.907,178.733,31.907z M179.237,22.473c-0.578,0-1.07,0.195-1.477,0.586s-0.609,0.859-0.609,1.406
		c0,0.555,0.199,1.014,0.598,1.377s0.902,0.545,1.512,0.545c0.602,0,1.104-0.186,1.506-0.557s0.604-0.834,0.604-1.389
		c0-0.562-0.203-1.031-0.609-1.406S179.847,22.473,179.237,22.473z"/>
	<path fill="#FFFFFF" d="M190.944,20.598c1.641,0,3.004,0.529,4.09,1.588s1.629,2.389,1.629,3.99c0,1.555-0.551,2.846-1.652,3.873
		s-2.488,1.541-4.16,1.541c-1.617,0-2.969-0.521-4.055-1.564s-1.629-2.346-1.629-3.908c0-1.578,0.549-2.893,1.646-3.943
		S189.288,20.598,190.944,20.598z M190.827,22.52c-1.023,0-1.863,0.336-2.52,1.008s-0.984,1.527-0.984,2.566
		c0,1.031,0.336,1.873,1.008,2.525s1.535,0.979,2.59,0.979c1.047,0,1.904-0.33,2.572-0.99s1.002-1.506,1.002-2.537
		c0-1.023-0.348-1.871-1.043-2.543S191.882,22.52,190.827,22.52z"/>
</g>
</svg>
