<?xml version="1.0" encoding="utf-8"?>
<!-- Generator: Adobe Illustrator 15.0.0, SVG Export Plug-In . SVG Version: 6.00 Build 0)  -->
<!DOCTYPE svg PUBLIC "-//W3C//DTD SVG 1.1//EN" "http://www.w3.org/Graphics/SVG/1.1/DTD/svg11.dtd">
<svg version="1.1" id="Layer_1" xmlns="http://www.w3.org/2000/svg" xmlns:xlink="http://www.w3.org/1999/xlink" x="0px" y="0px"
	 width="172.088px" height="67.315px" viewBox="0 0 172.088 67.315" enable-background="new 0 0 172.088 67.315"
	 xml:space="preserve">
<g>
	<path fill="#F15A29" d="M172.088,43.699c0,1.922-2.479,3.479-5.535,3.479H5.537C2.479,47.179,0,45.621,0,43.699V3.479
		C0,1.558,2.479,0,5.537,0h161.017c3.057,0,5.535,1.558,5.535,3.479V43.699z"/>
</g>
<g>
	<polygon fill="#F15A29" points="126.567,41.445 115.211,67.315 103.857,41.445 	"/>
</g>
<g>
	<path fill="#FFFFFF" d="M26.703,22.978v7.828h-2.145v-6c0-1.195-0.16-2.029-0.48-2.502s-0.879-0.709-1.676-0.709
		c-0.445,0-0.854,0.102-1.225,0.305s-0.795,0.562-1.271,1.078v7.828h-2.133V20.025h2.133v1.418c1.086-1.086,2.148-1.629,3.188-1.629
		c1.367,0,2.426,0.648,3.176,1.945c1.141-1.312,2.332-1.969,3.574-1.969c1.047,0,1.908,0.383,2.584,1.148s1.014,1.934,1.014,3.504
		v6.363h-2.133v-6.387c0-0.898-0.184-1.586-0.551-2.062s-0.895-0.715-1.582-0.715C28.292,21.642,27.468,22.087,26.703,22.978z"/>
	<path fill="#FFFFFF" d="M45.207,22.978v7.828h-2.145v-6c0-1.195-0.16-2.029-0.48-2.502s-0.879-0.709-1.676-0.709
		c-0.445,0-0.854,0.102-1.225,0.305s-0.795,0.562-1.271,1.078v7.828h-2.133V20.025h2.133v1.418c1.086-1.086,2.148-1.629,3.188-1.629
		c1.367,0,2.426,0.648,3.176,1.945c1.141-1.312,2.332-1.969,3.574-1.969c1.047,0,1.908,0.383,2.584,1.148s1.014,1.934,1.014,3.504
		v6.363h-2.133v-6.387c0-0.898-0.184-1.586-0.551-2.062s-0.895-0.715-1.582-0.715C46.796,21.642,45.972,22.087,45.207,22.978z"/>
	<path fill="#FFFFFF" d="M63.71,22.978v7.828h-2.145v-6c0-1.195-0.16-2.029-0.48-2.502s-0.879-0.709-1.676-0.709
		c-0.445,0-0.854,0.102-1.225,0.305s-0.795,0.562-1.271,1.078v7.828h-2.133V20.025h2.133v1.418c1.086-1.086,2.148-1.629,3.188-1.629
		c1.367,0,2.426,0.648,3.176,1.945c1.141-1.312,2.332-1.969,3.574-1.969c1.047,0,1.908,0.383,2.584,1.148s1.014,1.934,1.014,3.504
		v6.363h-2.133v-6.387c0-0.898-0.184-1.586-0.551-2.062s-0.895-0.715-1.582-0.715C65.3,21.642,64.476,22.087,63.71,22.978z"/>
	<path fill="#FFFFFF" d="M82.214,22.978v7.828H80.07v-6c0-1.195-0.16-2.029-0.48-2.502s-0.879-0.709-1.676-0.709
		c-0.445,0-0.854,0.102-1.225,0.305s-0.795,0.562-1.271,1.078v7.828h-2.133V20.025h2.133v1.418c1.086-1.086,2.148-1.629,3.188-1.629
		c1.367,0,2.426,0.648,3.176,1.945c1.141-1.312,2.332-1.969,3.574-1.969c1.047,0,1.908,0.383,2.584,1.148s1.014,1.934,1.014,3.504
		v6.363H86.82v-6.387c0-0.898-0.184-1.586-0.551-2.062s-0.895-0.715-1.582-0.715C83.804,21.642,82.98,22.087,82.214,22.978z"/>
	<path fill="#FFFFFF" d="M98.796,20.025V19.38c0-1.734,0.369-3.027,1.107-3.879s1.623-1.277,2.654-1.277
		c0.445,0,0.973,0.07,1.582,0.211v2.086c-0.344-0.125-0.672-0.188-0.984-0.188c-0.836,0-1.416,0.223-1.74,0.668
		s-0.486,1.238-0.486,2.379v0.645h1.922v1.922h-1.922v8.859h-2.133v-8.859H97.25v-1.922H98.796z"/>
	<path fill="#FFFFFF" d="M111.417,30.806v-1.383c-0.453,0.496-0.971,0.882-1.553,1.157s-1.162,0.413-1.74,0.413
		c-0.68,0-1.307-0.17-1.881-0.51s-1.008-0.801-1.301-1.383s-0.439-1.549-0.439-2.9v-6.176h2.133v6.145
		c0,1.131,0.162,1.921,0.486,2.37s0.893,0.673,1.705,0.673c1.016,0,1.879-0.496,2.59-1.488v-7.699h2.133v10.781H111.417z"/>
	<path fill="#FFFFFF" d="M125.386,22.978v7.828h-2.145v-6c0-1.195-0.16-2.029-0.48-2.502s-0.879-0.709-1.676-0.709
		c-0.445,0-0.854,0.102-1.225,0.305s-0.795,0.562-1.271,1.078v7.828h-2.133V20.025h2.133v1.418c1.086-1.086,2.148-1.629,3.188-1.629
		c1.367,0,2.426,0.648,3.176,1.945c1.141-1.312,2.332-1.969,3.574-1.969c1.047,0,1.908,0.383,2.584,1.148s1.014,1.934,1.014,3.504
		v6.363h-2.133v-6.387c0-0.898-0.184-1.586-0.551-2.062s-0.895-0.715-1.582-0.715C126.976,21.642,126.152,22.087,125.386,22.978z"/>
	<path fill="#FFFFFF" d="M144.242,25.603h-7.582c0.055,1.031,0.4,1.852,1.037,2.461s1.459,0.914,2.467,0.914
		c1.406,0,2.703-0.438,3.891-1.312v2.086c-0.656,0.438-1.307,0.75-1.951,0.938s-1.4,0.281-2.268,0.281
		c-1.188,0-2.148-0.246-2.883-0.738s-1.322-1.154-1.764-1.986s-0.662-1.795-0.662-2.889c0-1.641,0.465-2.975,1.395-4.002
		s2.137-1.541,3.621-1.541c1.43,0,2.57,0.5,3.422,1.5s1.277,2.34,1.277,4.02V25.603z M136.707,24.326h5.426
		c-0.055-0.852-0.309-1.508-0.762-1.969s-1.062-0.691-1.828-0.691s-1.393,0.23-1.881,0.691S136.855,23.474,136.707,24.326z"/>
	<path fill="#FFFFFF" d="M146.023,30.033v-2.297c0.602,0.422,1.217,0.764,1.846,1.025s1.158,0.393,1.588,0.393
		c0.445,0,0.828-0.109,1.148-0.328s0.48-0.48,0.48-0.785c0-0.312-0.104-0.572-0.311-0.779s-0.654-0.506-1.342-0.896
		c-1.375-0.766-2.275-1.42-2.701-1.963s-0.639-1.135-0.639-1.775c0-0.828,0.322-1.504,0.967-2.027s1.475-0.785,2.49-0.785
		c1.055,0,2.137,0.297,3.246,0.891v2.109c-1.266-0.766-2.301-1.148-3.105-1.148c-0.414,0-0.748,0.088-1.002,0.264
		c-0.254,0.176-0.381,0.409-0.381,0.698c0,0.25,0.115,0.489,0.345,0.716c0.23,0.227,0.635,0.5,1.213,0.82l0.762,0.434
		c1.797,1.016,2.696,2.14,2.696,3.374c0,0.882-0.346,1.607-1.037,2.173c-0.691,0.566-1.58,0.849-2.666,0.849
		c-0.641,0-1.211-0.068-1.711-0.205S146.781,30.4,146.023,30.033z"/>
</g>
</svg>
