<?xml version="1.0" encoding="utf-8"?>
<!-- Generator: Adobe Illustrator 15.0.0, SVG Export Plug-In . SVG Version: 6.00 Build 0)  -->
<!DOCTYPE svg PUBLIC "-//W3C//DTD SVG 1.1//EN" "http://www.w3.org/Graphics/SVG/1.1/DTD/svg11.dtd">
<svg version="1.1" id="Layer_1" xmlns="http://www.w3.org/2000/svg" xmlns:xlink="http://www.w3.org/1999/xlink" x="0px" y="0px"
	 width="228.406px" height="63.622px" viewBox="0 0 228.406 63.622" enable-background="new 0 0 228.406 63.622"
	 xml:space="preserve">
<g>
	<path fill="#F15A29" d="M228.406,60.42c0,1.768-3.29,3.201-7.348,3.201H7.348C3.29,63.622,0,62.188,0,60.42V23.405
		c0-1.769,3.29-3.202,7.348-3.202h213.71c4.058,0,7.348,1.434,7.348,3.202V60.42z"/>
</g>
<g>
	<polygon fill="#F15A29" points="119.65,25.871 131.005,0 142.36,25.871 	"/>
</g>
<g>
	<path fill="#FFFFFF" d="M23.726,42.135l-1.781-1.082c-1.117-0.682-1.912-1.354-2.385-2.014s-0.709-1.42-0.709-2.279
		c0-1.289,0.447-2.336,1.342-3.141s2.057-1.207,3.486-1.207c1.367,0,2.621,0.384,3.762,1.152v2.66
		c-1.18-1.135-2.449-1.703-3.809-1.703c-0.766,0-1.395,0.178-1.887,0.531c-0.492,0.354-0.738,0.808-0.738,1.36
		c0,0.49,0.181,0.949,0.544,1.378c0.362,0.428,0.945,0.877,1.749,1.348l1.79,1.059c1.997,1.193,2.995,2.711,2.995,4.555
		c0,1.312-0.439,2.379-1.318,3.199s-2.021,1.23-3.428,1.23c-1.617,0-3.09-0.496-4.418-1.49v-2.977
		c1.266,1.604,2.73,2.404,4.395,2.404c0.734,0,1.346-0.203,1.834-0.613c0.488-0.408,0.732-0.92,0.732-1.535
		C25.882,43.975,25.163,43.03,23.726,42.135z"/>
	<path fill="#FFFFFF" d="M30.323,32.624h2.133v7.007c0.891-1.086,1.996-1.629,3.316-1.629c0.719,0,1.363,0.18,1.934,0.539
		s0.994,0.855,1.271,1.488s0.416,1.574,0.416,2.824v6.141h-2.133v-6.668c0-0.789-0.193-1.424-0.58-1.904s-0.896-0.721-1.529-0.721
		c-0.469,0-0.91,0.121-1.324,0.363s-0.871,0.645-1.371,1.207v7.723h-2.133V32.624z"/>
	<path fill="#FFFFFF" d="M47.526,38.19c1.641,0,3.004,0.529,4.09,1.588s1.629,2.389,1.629,3.99c0,1.555-0.551,2.846-1.652,3.873
		s-2.488,1.541-4.16,1.541c-1.617,0-2.969-0.521-4.055-1.564s-1.629-2.346-1.629-3.908c0-1.578,0.549-2.893,1.646-3.943
		S45.87,38.19,47.526,38.19z M47.409,40.112c-1.023,0-1.863,0.336-2.52,1.008s-0.984,1.527-0.984,2.566
		c0,1.031,0.336,1.873,1.008,2.525s1.535,0.979,2.59,0.979c1.047,0,1.904-0.33,2.572-0.99s1.002-1.506,1.002-2.537
		c0-1.023-0.348-1.871-1.043-2.543S48.464,40.112,47.409,40.112z"/>
	<path fill="#FFFFFF" d="M57.897,38.213v2.473l0.117-0.188c1.031-1.664,2.062-2.496,3.094-2.496c0.805,0,1.645,0.406,2.52,1.219
		l-1.125,1.875c-0.742-0.703-1.43-1.055-2.062-1.055c-0.688,0-1.283,0.328-1.787,0.984s-0.756,1.434-0.756,2.332v5.637h-2.145
		V38.213H57.897z"/>
	<path fill="#FFFFFF" d="M64.085,39.924l4.008-3.938v2.227h3.41v1.922h-3.41v5.277c0,1.232,0.512,1.848,1.535,1.848
		c0.766,0,1.574-0.254,2.426-0.762v1.992c-0.82,0.461-1.715,0.691-2.684,0.691c-0.977,0-1.789-0.285-2.438-0.855
		c-0.203-0.172-0.371-0.365-0.504-0.58s-0.244-0.496-0.334-0.844s-0.135-1.01-0.135-1.986v-4.781h-1.875V39.924z"/>
	<path fill="#FFFFFF" d="M81.675,46.475v2.109c-1.07,0.398-2.117,0.598-3.141,0.598c-1.688,0-3.033-0.5-4.037-1.5
		s-1.506-2.34-1.506-4.02c0-1.695,0.488-3.062,1.465-4.102s2.262-1.559,3.855-1.559c0.555,0,1.053,0.053,1.494,0.158
		s0.986,0.303,1.635,0.592v2.273c-1.078-0.688-2.078-1.031-3-1.031c-0.961,0-1.75,0.338-2.367,1.014s-0.926,1.537-0.926,2.584
		c0,1.102,0.334,1.977,1.002,2.625s1.568,0.973,2.701,0.973C79.671,47.19,80.612,46.952,81.675,46.475z"/>
	<path fill="#FFFFFF" d="M90.968,48.995v-1.383c-0.453,0.496-0.971,0.883-1.553,1.158s-1.162,0.412-1.74,0.412
		c-0.68,0-1.307-0.17-1.881-0.51s-1.008-0.801-1.301-1.383s-0.439-1.549-0.439-2.9v-6.176h2.133v6.145
		c0,1.132,0.162,1.922,0.486,2.371c0.324,0.448,0.893,0.672,1.705,0.672c1.016,0,1.879-0.496,2.59-1.488v-7.699h2.133v10.781H90.968
		z"/>
	<path fill="#FFFFFF" d="M94.589,39.924l4.008-3.938v2.227h3.41v1.922h-3.41v5.277c0,1.232,0.512,1.848,1.535,1.848
		c0.766,0,1.574-0.254,2.426-0.762v1.992c-0.82,0.461-1.715,0.691-2.684,0.691c-0.977,0-1.789-0.285-2.438-0.855
		c-0.203-0.172-0.371-0.365-0.504-0.58s-0.244-0.496-0.334-0.844s-0.135-1.01-0.135-1.986v-4.781h-1.875V39.924z"/>
	<path fill="#FFFFFF" d="M109.249,39.924l4.008-3.938v2.227h3.411v1.922h-3.411v5.277c0,1.232,0.512,1.848,1.535,1.848
		c0.766,0,1.575-0.254,2.426-0.762v1.992c-0.82,0.461-1.715,0.691-2.684,0.691c-0.977,0-1.789-0.285-2.438-0.855
		c-0.203-0.172-0.371-0.365-0.504-0.58s-0.244-0.496-0.334-0.844s-0.135-1.01-0.135-1.986v-4.781h-1.875V39.924z"/>
	<path fill="#FFFFFF" d="M123.91,38.19c1.641,0,3.004,0.529,4.09,1.588s1.629,2.389,1.629,3.99c0,1.555-0.551,2.846-1.652,3.873
		s-2.488,1.541-4.16,1.541c-1.617,0-2.969-0.521-4.055-1.564s-1.629-2.346-1.629-3.908c0-1.578,0.549-2.893,1.646-3.943
		S122.253,38.19,123.91,38.19z M123.792,40.112c-1.023,0-1.863,0.336-2.52,1.008s-0.984,1.527-0.984,2.566
		c0,1.031,0.336,1.873,1.008,2.525s1.535,0.979,2.59,0.979c1.047,0,1.904-0.33,2.572-0.99s1.002-1.506,1.002-2.537
		c0-1.023-0.348-1.871-1.043-2.543S124.847,40.112,123.792,40.112z"/>
	<path fill="#FFFFFF" d="M138.136,48.221v-2.297c0.602,0.422,1.217,0.764,1.846,1.025s1.158,0.393,1.588,0.393
		c0.445,0,0.828-0.109,1.148-0.328s0.48-0.48,0.48-0.785c0-0.312-0.104-0.572-0.311-0.779s-0.654-0.506-1.342-0.896
		c-1.375-0.766-2.275-1.42-2.701-1.963s-0.639-1.135-0.639-1.775c0-0.828,0.322-1.504,0.967-2.027s1.475-0.785,2.49-0.785
		c1.055,0,2.137,0.297,3.246,0.891v2.109c-1.266-0.766-2.301-1.148-3.105-1.148c-0.414,0-0.748,0.088-1.002,0.265
		c-0.254,0.176-0.381,0.409-0.381,0.698c0,0.25,0.115,0.488,0.344,0.715c0.23,0.228,0.635,0.501,1.213,0.82l0.762,0.434
		c1.798,1.016,2.697,2.141,2.697,3.375c0,0.882-0.346,1.606-1.037,2.173c-0.691,0.565-1.58,0.849-2.666,0.849
		c-0.641,0-1.211-0.068-1.711-0.205S138.894,48.588,138.136,48.221z"/>
	<path fill="#FFFFFF" d="M154.765,48.995v-1.383c-0.453,0.496-0.971,0.883-1.553,1.158s-1.162,0.412-1.74,0.412
		c-0.68,0-1.307-0.17-1.881-0.51s-1.008-0.801-1.301-1.383s-0.439-1.549-0.439-2.9v-6.176h2.133v6.145
		c0,1.132,0.162,1.922,0.486,2.371c0.324,0.448,0.893,0.672,1.705,0.672c1.016,0,1.879-0.496,2.59-1.488v-7.699h2.133v10.781
		H154.765z"/>
	<path fill="#FFFFFF" d="M167.984,46.475v2.109c-1.07,0.398-2.117,0.598-3.141,0.598c-1.688,0-3.033-0.5-4.037-1.5
		s-1.506-2.34-1.506-4.02c0-1.695,0.488-3.062,1.465-4.102s2.262-1.559,3.855-1.559c0.555,0,1.053,0.053,1.494,0.158
		s0.986,0.303,1.635,0.592v2.273c-1.078-0.688-2.078-1.031-3-1.031c-0.961,0-1.75,0.338-2.367,1.014s-0.926,1.537-0.926,2.584
		c0,1.102,0.334,1.977,1.002,2.625s1.568,0.973,2.701,0.973C165.98,47.19,166.921,46.952,167.984,46.475z"/>
	<path fill="#FFFFFF" d="M178.496,46.475v2.109c-1.07,0.398-2.117,0.598-3.141,0.598c-1.688,0-3.033-0.5-4.037-1.5
		s-1.506-2.34-1.506-4.02c0-1.695,0.488-3.062,1.465-4.102s2.262-1.559,3.855-1.559c0.555,0,1.053,0.053,1.494,0.158
		s0.986,0.303,1.635,0.592v2.273c-1.078-0.688-2.078-1.031-3-1.031c-0.961,0-1.75,0.338-2.367,1.014s-0.926,1.537-0.926,2.584
		c0,1.102,0.334,1.977,1.002,2.625s1.568,0.973,2.701,0.973C176.492,47.19,177.433,46.952,178.496,46.475z"/>
	<path fill="#FFFFFF" d="M190.109,43.792h-7.582c0.055,1.031,0.4,1.852,1.037,2.461s1.459,0.914,2.467,0.914
		c1.406,0,2.703-0.438,3.891-1.312v2.086c-0.656,0.438-1.307,0.75-1.951,0.938s-1.4,0.281-2.268,0.281
		c-1.188,0-2.148-0.246-2.883-0.738s-1.322-1.154-1.764-1.986s-0.662-1.795-0.662-2.889c0-1.641,0.465-2.975,1.395-4.002
		s2.137-1.541,3.621-1.541c1.43,0,2.57,0.5,3.422,1.5s1.277,2.34,1.277,4.02V43.792z M182.574,42.514H188
		c-0.055-0.852-0.309-1.508-0.762-1.969s-1.062-0.691-1.828-0.691s-1.393,0.23-1.881,0.691S182.722,41.663,182.574,42.514z"/>
	<path fill="#FFFFFF" d="M191.89,48.221v-2.297c0.602,0.422,1.217,0.764,1.846,1.025s1.158,0.393,1.588,0.393
		c0.445,0,0.828-0.109,1.148-0.328s0.48-0.48,0.48-0.785c0-0.312-0.104-0.572-0.311-0.779s-0.654-0.506-1.342-0.896
		c-1.375-0.766-2.275-1.42-2.701-1.963s-0.639-1.135-0.639-1.775c0-0.828,0.322-1.504,0.967-2.027s1.475-0.785,2.49-0.785
		c1.055,0,2.137,0.297,3.246,0.891v2.109c-1.266-0.766-2.301-1.148-3.105-1.148c-0.414,0-0.748,0.088-1.002,0.265
		c-0.254,0.176-0.381,0.409-0.381,0.698c0,0.25,0.115,0.488,0.344,0.715c0.23,0.228,0.635,0.501,1.213,0.82l0.762,0.434
		c1.798,1.016,2.697,2.141,2.697,3.375c0,0.882-0.346,1.606-1.037,2.173c-0.691,0.565-1.58,0.849-2.666,0.849
		c-0.641,0-1.211-0.068-1.711-0.205S192.648,48.588,191.89,48.221z"/>
	<path fill="#FFFFFF" d="M201.125,48.221v-2.297c0.602,0.422,1.217,0.764,1.846,1.025s1.158,0.393,1.588,0.393
		c0.445,0,0.828-0.109,1.148-0.328s0.48-0.48,0.48-0.785c0-0.312-0.104-0.572-0.311-0.779s-0.654-0.506-1.342-0.896
		c-1.375-0.766-2.275-1.42-2.701-1.963s-0.639-1.135-0.639-1.775c0-0.828,0.322-1.504,0.967-2.027s1.475-0.785,2.49-0.785
		c1.055,0,2.137,0.297,3.246,0.891v2.109c-1.266-0.766-2.301-1.148-3.105-1.148c-0.414,0-0.748,0.088-1.002,0.265
		c-0.254,0.176-0.381,0.409-0.381,0.698c0,0.25,0.115,0.488,0.344,0.715c0.23,0.228,0.635,0.501,1.213,0.82l0.762,0.434
		c1.798,1.016,2.697,2.141,2.697,3.375c0,0.882-0.346,1.606-1.037,2.173c-0.691,0.565-1.58,0.849-2.666,0.849
		c-0.641,0-1.211-0.068-1.711-0.205S201.882,48.588,201.125,48.221z"/>
</g>
</svg>
