<?xml version="1.0" encoding="utf-8"?>
<!-- Generator: Adobe Illustrator 15.0.0, SVG Export Plug-In . SVG Version: 6.00 Build 0)  -->
<!DOCTYPE svg PUBLIC "-//W3C//DTD SVG 1.1//EN" "http://www.w3.org/Graphics/SVG/1.1/DTD/svg11.dtd">
<svg version="1.1" id="Layer_1" xmlns="http://www.w3.org/2000/svg" xmlns:xlink="http://www.w3.org/1999/xlink" x="0px" y="0px"
	 width="186.333px" height="65.671px" viewBox="0 0 186.333 65.671" enable-background="new 0 0 186.333 65.671"
	 xml:space="preserve">
<g>
	<path fill="#262262" d="M186.333,62.319c0,1.852-2.684,3.353-5.994,3.353H5.995C2.684,65.671,0,64.17,0,62.319V23.556
		c0-1.852,2.684-3.353,5.995-3.353h174.345c3.311,0,5.994,1.501,5.994,3.353V62.319z"/>
</g>
<g>
	<polygon fill="#262262" points="118.117,25.871 129.472,0 140.828,25.871 	"/>
</g>
<g>
	<path fill="#FFFFFF" d="M32.681,50.299h-5.543V33.929h4.289c1.352,0,2.406,0.181,3.164,0.544s1.336,0.863,1.734,1.5
		s0.598,1.373,0.598,2.209c0,1.609-0.832,2.762-2.496,3.457c1.195,0.227,2.146,0.719,2.854,1.477s1.061,1.664,1.061,2.719
		c0,0.836-0.215,1.582-0.645,2.238s-1.061,1.191-1.893,1.605S33.931,50.299,32.681,50.299z M31.498,36.014h-2.016v4.922h1.559
		c1.25,0,2.139-0.238,2.666-0.715s0.791-1.094,0.791-1.852C34.498,36.799,33.498,36.014,31.498,36.014z M31.673,43.022h-2.191v5.191
		h2.309c1.281,0,2.15-0.1,2.607-0.299s0.824-0.51,1.102-0.932s0.416-0.875,0.416-1.359c0-0.5-0.146-0.957-0.439-1.371
		s-0.709-0.723-1.248-0.926S32.837,43.022,31.673,43.022z"/>
	<path fill="#FFFFFF" d="M45.513,39.495c1.641,0,3.004,0.529,4.09,1.588s1.629,2.389,1.629,3.99c0,1.555-0.551,2.846-1.652,3.873
		s-2.488,1.541-4.16,1.541c-1.617,0-2.969-0.521-4.055-1.564s-1.629-2.346-1.629-3.908c0-1.578,0.549-2.893,1.646-3.943
		S43.857,39.495,45.513,39.495z M45.396,41.417c-1.023,0-1.863,0.336-2.52,1.008s-0.984,1.527-0.984,2.566
		c0,1.031,0.336,1.873,1.008,2.525s1.535,0.979,2.59,0.979c1.047,0,1.904-0.33,2.572-0.99s1.002-1.506,1.002-2.537
		c0-1.023-0.348-1.871-1.043-2.543S46.451,41.417,45.396,41.417z"/>
	<path fill="#FFFFFF" d="M55.884,39.518v2.473l0.117-0.188c1.031-1.664,2.062-2.496,3.094-2.496c0.805,0,1.645,0.406,2.52,1.219
		l-1.125,1.875c-0.742-0.703-1.43-1.055-2.062-1.055c-0.688,0-1.283,0.328-1.787,0.984s-0.756,1.434-0.756,2.332v5.637H53.74V39.518
		H55.884z"/>
	<path fill="#FFFFFF" d="M69.935,33.929h2.145v16.371h-4.559c-1.594,0-2.865-0.504-3.814-1.512s-1.424-2.359-1.424-4.055
		c0-1.586,0.498-2.891,1.494-3.914s2.268-1.535,3.814-1.535c0.719,0,1.5,0.152,2.344,0.457V33.929z M69.935,48.471v-6.832
		c-0.664-0.336-1.336-0.504-2.016-0.504c-1.062,0-1.908,0.348-2.537,1.043s-0.943,1.633-0.943,2.812c0,1.109,0.273,1.965,0.82,2.566
		c0.328,0.359,0.676,0.602,1.043,0.727s1.027,0.188,1.98,0.188H69.935z"/>
	<path fill="#FFFFFF" d="M84.162,45.096H76.58c0.055,1.031,0.4,1.852,1.037,2.461s1.459,0.914,2.467,0.914
		c1.406,0,2.703-0.438,3.891-1.312v2.086c-0.656,0.438-1.307,0.75-1.951,0.938s-1.4,0.281-2.268,0.281
		c-1.188,0-2.148-0.246-2.883-0.738s-1.322-1.154-1.764-1.986s-0.662-1.795-0.662-2.889c0-1.641,0.465-2.975,1.395-4.002
		s2.137-1.541,3.621-1.541c1.43,0,2.57,0.5,3.422,1.5s1.277,2.34,1.277,4.02V45.096z M76.626,43.819h5.426
		c-0.055-0.852-0.309-1.508-0.762-1.969s-1.062-0.691-1.828-0.691s-1.393,0.23-1.881,0.691S76.775,42.967,76.626,43.819z"/>
	<path fill="#FFFFFF" d="M88.755,39.518v2.473l0.117-0.188c1.031-1.664,2.062-2.496,3.094-2.496c0.805,0,1.645,0.406,2.52,1.219
		l-1.125,1.875c-0.742-0.703-1.43-1.055-2.062-1.055c-0.688,0-1.283,0.328-1.787,0.984s-0.756,1.434-0.756,2.332v5.637h-2.145
		V39.518H88.755z"/>
	<path fill="#FFFFFF" d="M102.501,55.795V39.518h3.734c1.911,0,3.399,0.477,4.465,1.43c1.064,0.953,1.598,2.285,1.598,3.996
		c0,1.617-0.502,2.945-1.504,3.984s-2.279,1.559-3.832,1.559c-0.686,0-1.447-0.152-2.281-0.457v5.766H102.501z M106.189,41.51
		h-1.508v6.633c0.654,0.336,1.341,0.504,2.059,0.504c0.997,0,1.814-0.348,2.449-1.043s0.953-1.59,0.953-2.684
		c0-0.703-0.15-1.324-0.45-1.863s-0.71-0.932-1.228-1.178C107.946,41.633,107.187,41.51,106.189,41.51z"/>
	<path fill="#FFFFFF" d="M121.416,43.819v4.582c0,0.367,0.125,0.551,0.375,0.551c0.258,0,0.66-0.191,1.207-0.574v1.301
		c-0.484,0.312-0.873,0.525-1.166,0.639s-0.6,0.17-0.92,0.17c-0.914,0-1.453-0.359-1.617-1.078
		c-0.906,0.703-1.871,1.055-2.895,1.055c-0.75,0-1.375-0.248-1.875-0.744s-0.75-1.119-0.75-1.869c0-0.68,0.244-1.287,0.732-1.822
		s1.182-0.959,2.08-1.271l2.73-0.938v-0.574c0-1.297-0.648-1.945-1.945-1.945c-1.164,0-2.297,0.602-3.398,1.805v-2.332
		c0.828-0.977,2.02-1.465,3.574-1.465c1.164,0,2.098,0.305,2.801,0.914c0.234,0.195,0.445,0.455,0.633,0.779
		s0.307,0.648,0.357,0.973S121.416,42.913,121.416,43.819z M119.318,48.167v-3.199l-1.43,0.551c-0.727,0.289-1.24,0.58-1.541,0.873
		s-0.451,0.658-0.451,1.096c0,0.445,0.143,0.809,0.428,1.09s0.654,0.422,1.107,0.422C118.111,48.999,118.74,48.721,119.318,48.167z"
		/>
	<path fill="#FFFFFF" d="M123.373,41.229l4.008-3.938v2.227h3.41v1.922h-3.41v5.277c0,1.232,0.512,1.848,1.535,1.848
		c0.766,0,1.574-0.254,2.426-0.762v1.992c-0.82,0.461-1.715,0.691-2.684,0.691c-0.977,0-1.789-0.285-2.438-0.855
		c-0.203-0.172-0.371-0.365-0.504-0.58s-0.244-0.496-0.334-0.844s-0.135-1.01-0.135-1.986V41.44h-1.875V41.229z"/>
	<path fill="#FFFFFF" d="M135.162,39.518v2.473l0.117-0.188c1.031-1.664,2.062-2.496,3.094-2.496c0.805,0,1.645,0.406,2.52,1.219
		l-1.125,1.875c-0.742-0.703-1.43-1.055-2.062-1.055c-0.688,0-1.283,0.328-1.787,0.984s-0.756,1.434-0.756,2.332v5.637h-2.145
		V39.518H135.162z"/>
	<path fill="#FFFFFF" d="M146.939,39.495c1.641,0,3.004,0.529,4.09,1.588s1.629,2.389,1.629,3.99c0,1.555-0.551,2.846-1.652,3.873
		s-2.488,1.541-4.16,1.541c-1.617,0-2.969-0.521-4.055-1.564s-1.629-2.346-1.629-3.908c0-1.578,0.549-2.893,1.646-3.943
		S145.283,39.495,146.939,39.495z M146.822,41.417c-1.023,0-1.863,0.336-2.52,1.008s-0.984,1.527-0.984,2.566
		c0,1.031,0.336,1.873,1.008,2.525s1.535,0.979,2.59,0.979c1.047,0,1.904-0.33,2.572-0.99s1.002-1.506,1.002-2.537
		c0-1.023-0.348-1.871-1.043-2.543S147.876,41.417,146.822,41.417z"/>
	<path fill="#FFFFFF" d="M155.072,33.929h2.133v16.371h-2.133V33.929z"/>
</g>
</svg>
