<?xml version="1.0" encoding="utf-8"?>
<!-- Generator: Adobe Illustrator 15.0.0, SVG Export Plug-In . SVG Version: 6.00 Build 0)  -->
<!DOCTYPE svg PUBLIC "-//W3C//DTD SVG 1.1//EN" "http://www.w3.org/Graphics/SVG/1.1/DTD/svg11.dtd">
<svg version="1.1" id="Layer_1" xmlns="http://www.w3.org/2000/svg" xmlns:xlink="http://www.w3.org/1999/xlink" x="0px" y="0px"
	 width="232.786px" height="67.372px" viewBox="0 0 232.786 67.372" enable-background="new 0 0 232.786 67.372"
	 xml:space="preserve">
<g>
	<path fill="#F15A29" d="M232.786,63.997c0,1.863-3.354,3.375-7.488,3.375H7.489C3.354,67.372,0,65.86,0,63.997V24.971
		c0-1.864,3.354-3.376,7.489-3.376h217.809c4.135,0,7.488,1.512,7.488,3.376V63.997z"/>
</g>
<g>
	<polygon fill="#F15A29" points="90.997,25.871 102.353,0 113.707,25.871 	"/>
</g>
<g>
	<path fill="#FFFFFF" d="M18.288,52.255V35.908h5.52c2.227,0,3.988,0.334,5.285,1.002s2.328,1.65,3.094,2.947
		s1.148,2.711,1.148,4.242c0,1.094-0.211,2.141-0.633,3.141s-1.023,1.879-1.805,2.637c-0.797,0.781-1.723,1.371-2.777,1.77
		c-0.617,0.242-1.184,0.404-1.699,0.486s-1.5,0.123-2.953,0.123H18.288z M23.562,37.994h-2.93v12.176h3
		c1.172,0,2.082-0.08,2.73-0.24s1.189-0.363,1.623-0.609s0.83-0.549,1.189-0.908c1.156-1.172,1.734-2.652,1.734-4.441
		c0-1.758-0.594-3.191-1.781-4.301c-0.438-0.414-0.939-0.754-1.506-1.02s-1.104-0.441-1.611-0.527S24.687,37.994,23.562,37.994z"/>
	<path fill="#FFFFFF" d="M41.128,41.474c1.641,0,3.004,0.529,4.09,1.588s1.629,2.389,1.629,3.99c0,1.555-0.551,2.846-1.652,3.873
		s-2.488,1.541-4.16,1.541c-1.617,0-2.969-0.521-4.055-1.564s-1.629-2.346-1.629-3.908c0-1.578,0.549-2.893,1.646-3.943
		S39.472,41.474,41.128,41.474z M41.011,43.396c-1.023,0-1.863,0.336-2.52,1.008s-0.984,1.527-0.984,2.566
		c0,1.031,0.336,1.873,1.008,2.525s1.535,0.979,2.59,0.979c1.047,0,1.904-0.33,2.572-0.99s1.002-1.506,1.002-2.537
		c0-1.023-0.348-1.871-1.043-2.543S42.065,43.396,41.011,43.396z"/>
	<path fill="#FFFFFF" d="M62.5,41.498h2.393l-7.639,16.277h-2.38l3.66-7.812l-4.164-8.466h2.43l2.912,6.09L62.5,41.498z"/>
	<path fill="#FFFFFF" d="M71.069,41.474c1.641,0,3.004,0.529,4.09,1.588s1.629,2.389,1.629,3.99c0,1.555-0.551,2.846-1.652,3.873
		s-2.488,1.541-4.16,1.541c-1.617,0-2.969-0.521-4.055-1.564s-1.629-2.346-1.629-3.908c0-1.578,0.549-2.893,1.646-3.943
		S69.413,41.474,71.069,41.474z M70.952,43.396c-1.023,0-1.863,0.336-2.52,1.008s-0.984,1.527-0.984,2.566
		c0,1.031,0.336,1.873,1.008,2.525s1.535,0.979,2.59,0.979c1.047,0,1.904-0.33,2.572-0.99s1.002-1.506,1.002-2.537
		c0-1.023-0.348-1.871-1.043-2.543S72.007,43.396,70.952,43.396z"/>
	<path fill="#FFFFFF" d="M86.022,52.279v-1.383c-0.453,0.496-0.971,0.882-1.553,1.157s-1.162,0.413-1.74,0.413
		c-0.68,0-1.307-0.17-1.881-0.51s-1.008-0.801-1.301-1.383s-0.439-1.549-0.439-2.9v-6.176h2.133v6.145
		c0,1.132,0.162,1.921,0.486,2.37s0.893,0.673,1.705,0.673c1.016,0,1.879-0.496,2.59-1.488v-7.699h2.133v10.781H86.022z"/>
	<path fill="#FFFFFF" d="M97.296,51.505v-2.297c0.602,0.422,1.217,0.764,1.846,1.025s1.158,0.393,1.588,0.393
		c0.445,0,0.828-0.109,1.148-0.328s0.48-0.48,0.48-0.785c0-0.312-0.104-0.572-0.311-0.779s-0.654-0.506-1.342-0.896
		c-1.375-0.766-2.275-1.42-2.701-1.963s-0.639-1.135-0.639-1.775c0-0.828,0.322-1.504,0.967-2.027s1.475-0.785,2.49-0.785
		c1.055,0,2.137,0.297,3.246,0.891v2.109c-1.266-0.766-2.301-1.148-3.105-1.148c-0.414,0-0.748,0.088-1.002,0.265
		c-0.254,0.176-0.381,0.408-0.381,0.697c0,0.25,0.115,0.489,0.345,0.716c0.23,0.228,0.635,0.501,1.213,0.82l0.762,0.434
		c1.797,1.016,2.696,2.14,2.696,3.374c0,0.883-0.346,1.607-1.037,2.174c-0.691,0.565-1.58,0.849-2.666,0.849
		c-0.641,0-1.211-0.068-1.711-0.205S98.054,51.873,97.296,51.505z"/>
	<path fill="#FFFFFF" d="M115.894,44.451v7.828h-2.145v-6c0-1.195-0.16-2.029-0.48-2.502s-0.879-0.709-1.676-0.709
		c-0.445,0-0.854,0.102-1.225,0.305s-0.795,0.562-1.271,1.078v7.828h-2.133V41.498h2.133v1.418c1.086-1.086,2.148-1.629,3.188-1.629
		c1.367,0,2.426,0.648,3.176,1.945c1.141-1.312,2.332-1.969,3.574-1.969c1.047,0,1.908,0.383,2.584,1.148s1.014,1.934,1.014,3.504
		v6.363h-2.133v-6.387c0-0.898-0.184-1.586-0.551-2.062s-0.895-0.715-1.582-0.715C117.483,43.115,116.659,43.56,115.894,44.451z"/>
	<path fill="#FFFFFF" d="M134.749,47.076h-7.582c0.055,1.031,0.4,1.852,1.037,2.461s1.459,0.914,2.467,0.914
		c1.406,0,2.703-0.438,3.891-1.312v2.086c-0.656,0.438-1.307,0.75-1.951,0.938s-1.4,0.281-2.268,0.281
		c-1.188,0-2.148-0.246-2.883-0.738s-1.322-1.154-1.764-1.986s-0.662-1.795-0.662-2.889c0-1.641,0.465-2.975,1.395-4.002
		s2.137-1.541,3.621-1.541c1.43,0,2.57,0.5,3.422,1.5s1.277,2.34,1.277,4.02V47.076z M127.214,45.798h5.426
		c-0.055-0.852-0.309-1.508-0.762-1.969s-1.062-0.691-1.828-0.691s-1.393,0.23-1.881,0.691S127.362,44.947,127.214,45.798z"/>
	<path fill="#FFFFFF" d="M137.104,35.908h2.133v16.371h-2.133V35.908z"/>
	<path fill="#FFFFFF" d="M142.366,35.908h2.133v16.371h-2.133V35.908z"/>
	<path fill="#FFFFFF" d="M153.722,51.505v-2.297c0.602,0.422,1.217,0.764,1.846,1.025s1.158,0.393,1.588,0.393
		c0.445,0,0.828-0.109,1.148-0.328s0.48-0.48,0.48-0.785c0-0.312-0.104-0.572-0.311-0.779s-0.654-0.506-1.342-0.896
		c-1.375-0.766-2.275-1.42-2.701-1.963s-0.639-1.135-0.639-1.775c0-0.828,0.322-1.504,0.967-2.027s1.475-0.785,2.49-0.785
		c1.055,0,2.137,0.297,3.246,0.891v2.109c-1.266-0.766-2.301-1.148-3.105-1.148c-0.414,0-0.748,0.088-1.002,0.265
		c-0.254,0.176-0.381,0.408-0.381,0.697c0,0.25,0.115,0.489,0.345,0.716c0.23,0.228,0.635,0.501,1.213,0.82l0.762,0.434
		c1.798,1.016,2.696,2.14,2.696,3.374c0,0.883-0.346,1.607-1.037,2.174c-0.691,0.565-1.58,0.849-2.666,0.849
		c-0.641,0-1.211-0.068-1.711-0.205S154.479,51.873,153.722,51.505z"/>
	<path fill="#FFFFFF" d="M172.319,44.451v7.828h-2.145v-6c0-1.195-0.16-2.029-0.48-2.502s-0.879-0.709-1.676-0.709
		c-0.445,0-0.854,0.102-1.225,0.305s-0.795,0.562-1.271,1.078v7.828h-2.133V41.498h2.133v1.418c1.086-1.086,2.148-1.629,3.188-1.629
		c1.367,0,2.426,0.648,3.176,1.945c1.141-1.312,2.332-1.969,3.574-1.969c1.047,0,1.908,0.383,2.584,1.148s1.014,1.934,1.014,3.504
		v6.363h-2.133v-6.387c0-0.898-0.184-1.586-0.551-2.062s-0.895-0.715-1.582-0.715C173.909,43.115,173.085,43.56,172.319,44.451z"/>
	<path fill="#FFFFFF" d="M187.144,41.474c1.641,0,3.004,0.529,4.09,1.588s1.629,2.389,1.629,3.99c0,1.555-0.551,2.846-1.652,3.873
		s-2.488,1.541-4.16,1.541c-1.617,0-2.969-0.521-4.055-1.564s-1.629-2.346-1.629-3.908c0-1.578,0.549-2.893,1.646-3.943
		S185.487,41.474,187.144,41.474z M187.026,43.396c-1.023,0-1.863,0.336-2.52,1.008s-0.984,1.527-0.984,2.566
		c0,1.031,0.336,1.873,1.008,2.525s1.535,0.979,2.59,0.979c1.047,0,1.904-0.33,2.572-0.99s1.002-1.506,1.002-2.537
		c0-1.023-0.348-1.871-1.043-2.543S188.081,43.396,187.026,43.396z"/>
	<path fill="#FFFFFF" d="M195.229,35.908h2.133v16.371h-2.133V35.908z M202.247,41.498h2.533l-4.6,5.273l5.537,5.508h-2.861
		l-5.4-5.502L202.247,41.498z"/>
	<path fill="#FFFFFF" d="M215.198,47.076h-7.582c0.055,1.031,0.4,1.852,1.037,2.461s1.459,0.914,2.467,0.914
		c1.406,0,2.703-0.438,3.891-1.312v2.086c-0.656,0.438-1.307,0.75-1.951,0.938s-1.4,0.281-2.268,0.281
		c-1.188,0-2.148-0.246-2.883-0.738s-1.322-1.154-1.764-1.986s-0.662-1.795-0.662-2.889c0-1.641,0.465-2.975,1.395-4.002
		s2.137-1.541,3.621-1.541c1.43,0,2.57,0.5,3.422,1.5s1.277,2.34,1.277,4.02V47.076z M207.663,45.798h5.426
		c-0.055-0.852-0.309-1.508-0.762-1.969s-1.062-0.691-1.828-0.691s-1.393,0.23-1.881,0.691S207.812,44.947,207.663,45.798z"/>
</g>
</svg>
