<?xml version="1.0" encoding="utf-8"?>
<!-- Generator: Adobe Illustrator 15.0.0, SVG Export Plug-In . SVG Version: 6.00 Build 0)  -->
<!DOCTYPE svg PUBLIC "-//W3C//DTD SVG 1.1//EN" "http://www.w3.org/Graphics/SVG/1.1/DTD/svg11.dtd">
<svg version="1.1" id="Layer_1" xmlns="http://www.w3.org/2000/svg" xmlns:xlink="http://www.w3.org/1999/xlink" x="0px" y="0px"
	 width="106.85px" height="93.876px" viewBox="0 0 106.85 93.876" enable-background="new 0 0 106.85 93.876" xml:space="preserve">
<g>
	<g>
		<g>
			<circle cx="3.583" cy="73.291" r="3.584"/>
		</g>
	</g>
	<g>
		<polygon points="24.004,45.687 25.658,47.159 5.43,72.098 3.776,70.627 		"/>
	</g>
</g>
<g>
	<g>
		<g>
			<circle cx="103.266" cy="22.112" r="3.584"/>
		</g>
	</g>
	<g>
		<polygon points="85.162,51.288 87.142,52.279 102.841,24.267 100.862,23.275 		"/>
	</g>
</g>
<g>
	<circle fill="#E6E7E8" cx="51.281" cy="38.707" r="38.706"/>
</g>
<g>
	<path fill="#DCDDDE" d="M51.281,0c21.377,0,38.707,17.33,38.707,38.707S72.659,77.413,51.281,77.413"/>
</g>
<g>
	
		<rect x="26.307" y="66.604" transform="matrix(-0.3214 -0.9469 0.9469 -0.3214 -35.3605 126.8902)" width="2.955" height="19.021"/>
</g>
<g>
	<rect x="53.729" y="62.672" transform="matrix(-0.5661 -0.8243 0.8243 -0.5661 20.4428 170.9367)" width="2.956" height="34.833"/>
</g>
<g>
	<g>
		<path fill="#00AEEF" d="M51.281,53.683c-20.209,0-36.792-8.104-38.544-18.438c-0.102,1.142-0.162,2.294-0.162,3.462
			c0,21.377,17.329,38.706,38.706,38.706c21.377,0,38.707-17.329,38.707-38.706c0-1.167-0.061-2.32-0.162-3.462
			C88.074,45.579,71.491,53.683,51.281,53.683z"/>
	</g>
</g>
<g>
	<g>
		<path fill="#1C75BC" d="M51.281,77.413c21.377,0,38.707-17.329,38.707-38.706c0-1.167-0.061-2.32-0.162-3.462
			c-1.752,10.334-18.335,18.438-38.544,18.438"/>
	</g>
</g>
<g>
	<g>
		<path d="M39.591,67.448c0.351,1.847,2.28,2.533,4.378,2.305c1.537-0.167,2.756-0.51,3.927-1.025l0.923,2.979
			c-1.415,0.753-3.185,1.244-5.136,1.457c-4.908,0.534-8.025-1.997-8.519-6.519c-0.399-3.666,1.437-7.964,6.462-8.512
			c4.67-0.51,6.839,2.934,7.23,6.51c0.084,0.77,0.069,1.459,0.045,1.79L39.591,67.448z M44.547,63.797
			c-0.12-1.094-0.792-2.875-2.861-2.649c-1.892,0.206-2.474,2.005-2.46,3.229L44.547,63.797z"/>
	</g>
	<g>
		<path d="M53.939,56.329l0.19,1.74l-4.514,0.492l-0.19-1.74L53.939,56.329z"/>
	</g>
</g>
<g>
	<ellipse transform="matrix(-0.0703 -0.9975 0.9975 -0.0703 -57.6796 99.2258)" cx="17.398" cy="76.491" rx="6.949" ry="4.81"/>
</g>
<g>
	<ellipse transform="matrix(-0.3383 -0.941 0.941 -0.3383 -29.6753 153.4066)" cx="39.098" cy="87.137" rx="6.949" ry="4.81"/>
</g>
<g>
	<path d="M50.42,40.404c-2.124-1.44-8.357-4.755-11.659-2.842l-1.003-1.73c5.064-2.933,13.432,2.677,13.786,2.917L50.42,40.404z"/>
</g>
<g>
	<path d="M55.732,26.306c-0.316,0-0.63-0.027-0.938-0.085c-1.37-0.26-2.47-1.125-3.182-2.503l1.776-0.918
		c0.431,0.834,1.012,1.31,1.777,1.456c2.31,0.433,5.824-2.081,6.98-3.09l1.317,1.505C63.004,23.071,59.202,26.306,55.732,26.306z"/>
</g>
<g>
	<path d="M38.805,25.396c-0.874,0-1.728-0.131-2.497-0.46c-1.412-0.604-2.356-1.751-2.804-3.408l1.931-0.522
		c0.284,1.051,0.827,1.734,1.658,2.091c2.375,1.017,6.599-0.768,8.025-1.542l0.956,1.757C45.879,23.417,42.194,25.396,38.805,25.396
		z"/>
</g>
</svg>
