<?xml version="1.0" encoding="utf-8"?>
<!-- Generator: Adobe Illustrator 15.0.0, SVG Export Plug-In . SVG Version: 6.00 Build 0)  -->
<!DOCTYPE svg PUBLIC "-//W3C//DTD SVG 1.1//EN" "http://www.w3.org/Graphics/SVG/1.1/DTD/svg11.dtd">
<svg version="1.1" id="Layer_1" xmlns="http://www.w3.org/2000/svg" xmlns:xlink="http://www.w3.org/1999/xlink" x="0px" y="0px"
	 width="124.599px" height="93.655px" viewBox="0 0 124.599 93.655" enable-background="new 0 0 124.599 93.655"
	 xml:space="preserve">
<g>
	<g>
		<g>
			<circle cx="121.015" cy="60.603" r="3.584"/>
		</g>
	</g>
	<g>
		<polygon points="86.881,64.328 87.32,66.498 119.055,61.597 118.618,59.427 		"/>
	</g>
</g>
<g>
	<circle fill="#E6E7E8" cx="67.03" cy="38.71" r="38.707"/>
</g>
<g>
	<path fill="#DCDDDE" d="M88.742,6.667c17.697,11.992,22.322,36.06,10.331,53.755c-11.992,17.697-36.06,22.322-53.757,10.33"/>
</g>
<g>
	<rect x="26.645" y="46.551" transform="matrix(-0.1044 0.9945 -0.9945 -0.1044 91.2369 38.8585)" width="2.955" height="27.914"/>
</g>
<g>
	<rect x="42.105" y="56.553" transform="matrix(0.6357 0.772 -0.772 0.6357 72.9818 -6.6942)" width="2.955" height="34.833"/>
</g>
<g>
	<g>
		<path fill="#00AEEF" d="M58.627,51.108C41.898,39.772,32.716,23.761,37.062,14.223c-0.724,0.888-1.421,1.809-2.076,2.775
			c-11.992,17.697-7.367,41.763,10.33,53.755c17.697,11.992,41.765,7.367,53.757-10.33c0.654-0.966,1.251-1.954,1.807-2.956
			C93.631,65.039,75.358,62.445,58.627,51.108z"/>
	</g>
</g>
<g>
	<ellipse transform="matrix(0.9446 0.3281 -0.3281 0.9446 11.4484 -21.098)" cx="68.244" cy="23.376" rx="2.33" ry="3.351"/>
</g>
<g>
	<ellipse transform="matrix(0.9446 0.3281 -0.3281 0.9446 16.1676 -26.0365)" cx="85.238" cy="34.891" rx="2.33" ry="3.352"/>
</g>
<g>
	<g>
		<path fill="#1C75BC" d="M45.316,70.753c17.697,11.992,41.765,7.367,53.757-10.33c0.654-0.966,1.251-1.954,1.807-2.956
			c-7.248,7.572-25.521,4.979-42.252-6.358"/>
	</g>
</g>
<g>
	<g>
		<path d="M53.125,64.523c-0.746,1.726,0.466,3.376,2.332,4.364c1.366,0.725,2.567,1.125,3.826,1.354l-0.908,2.984
			c-1.593-0.17-3.334-0.756-5.069-1.674c-4.363-2.311-5.523-6.155-3.395-10.176c1.726-3.258,5.657-5.787,10.124-3.421
			c4.152,2.198,4.016,6.265,2.333,9.444c-0.362,0.685-0.761,1.246-0.967,1.508L53.125,64.523z M59.275,64.282
			c0.515-0.973,0.958-2.824-0.882-3.799c-1.682-0.891-3.172,0.271-3.848,1.293L59.275,64.282z"/>
	</g>
	<g>
		<path d="M71.241,63.368l-0.819,1.547l-4.013-2.125l0.818-1.547L71.241,63.368z"/>
	</g>
</g>
<g>
	<ellipse transform="matrix(0.1516 0.9884 -0.9884 0.1516 68.5983 40.1625)" cx="10.902" cy="60.043" rx="6.949" ry="4.81"/>
</g>
<g>
	<ellipse transform="matrix(0.8108 0.5853 -0.5853 0.8108 57.6992 -2.486)" cx="32.696" cy="88.021" rx="6.949" ry="4.81"/>
</g>
<g>
	<g>
		<g>
			<circle cx="3.584" cy="23.631" r="3.583"/>
		</g>
	</g>
	<g>
		<polygon points="37.096,31.112 36.42,33.219 5.422,24.836 6.096,22.728 		"/>
	</g>
</g>
<g>
	<path d="M72.743,45.969c-1.535,0-3.196-0.637-4.56-1.747c-1.268-1.032-2.175-2.373-2.554-3.773
		c-0.41-1.519-0.164-2.935,0.692-3.987c0.785-0.964,1.998-1.495,3.415-1.495c1.535,0,3.197,0.637,4.562,1.747
		c2.711,2.209,3.546,5.691,1.86,7.76C75.374,45.438,74.161,45.969,72.743,45.969z M69.737,36.967c-0.804,0-1.466,0.269-1.864,0.758
		c-0.439,0.539-0.55,1.321-0.312,2.202c0.27,1,0.939,1.974,1.886,2.744c1.012,0.825,2.214,1.298,3.296,1.298
		c0.805,0,1.467-0.269,1.865-0.758c0.973-1.194,0.252-3.459-1.573-4.946C72.022,37.44,70.82,36.967,69.737,36.967z"/>
</g>
</svg>
