<?xml version="1.0" encoding="utf-8"?>
<!-- Generator: Adobe Illustrator 15.0.0, SVG Export Plug-In . SVG Version: 6.00 Build 0)  -->
<!DOCTYPE svg PUBLIC "-//W3C//DTD SVG 1.1//EN" "http://www.w3.org/Graphics/SVG/1.1/DTD/svg11.dtd">
<svg version="1.1" id="Layer_1" xmlns="http://www.w3.org/2000/svg" xmlns:xlink="http://www.w3.org/1999/xlink" x="0px" y="0px"
	 width="97.833px" height="111.064px" viewBox="0 0 97.833 111.064" enable-background="new 0 0 97.833 111.064"
	 xml:space="preserve">
<g>
	<g>
		<g>
			<path d="M2.802,10.299c1.934-0.43,3.849,0.786,4.28,2.718c0.429,1.931-0.786,3.847-2.718,4.28
				c-1.932,0.429-3.846-0.786-4.277-2.719C-0.345,12.647,0.872,10.73,2.802,10.299z"/>
		</g>
	</g>
	<g>
		<polygon points="9.314,40.705 11.417,40.024 4.802,15.625 2.695,16.306 		"/>
	</g>
</g>
<g>
	<circle fill="#E6E7E8" cx="44.453" cy="38.708" r="38.706"/>
</g>
<g>
	<path fill="#DCDDDE" d="M46.66,0.064c21.343,1.219,37.655,19.508,36.437,40.852c-1.219,21.342-19.509,37.655-40.851,36.437"/>
</g>
<g>
	
		<rect x="50.347" y="67.744" transform="matrix(-0.9736 0.2283 -0.2283 -0.9736 121.7229 156.2427)" width="2.956" height="34.833"/>
</g>
<g>
	<g>
		<path fill="#00AEEF" d="M43.598,53.659C23.421,52.506,7.33,43.471,6.169,33.054c-0.167,1.133-0.293,2.28-0.359,3.446
			C4.59,57.842,20.903,76.132,42.246,77.352c21.342,1.219,39.632-15.095,40.851-36.437c0.066-1.166,0.072-2.321,0.035-3.465
			C80.793,47.667,63.775,54.812,43.598,53.659z"/>
	</g>
</g>
<g>
	<g>
		<path fill="#1C75BC" d="M42.246,77.352c21.342,1.219,39.632-15.095,40.851-36.437c0.066-1.166,0.072-2.321,0.035-3.465
			c-2.338,10.217-19.356,17.362-39.533,16.209"/>
	</g>
</g>
<g>
	<g>
		<path d="M33.531,66.981c0.245,1.863,2.132,2.659,4.24,2.551c1.545-0.08,2.781-0.352,3.978-0.801l0.753,3.027
			c-1.454,0.67-3.249,1.061-5.21,1.161c-4.931,0.255-7.897-2.45-8.134-6.993c-0.188-3.683,1.889-7.869,6.937-8.129
			c4.692-0.242,6.66,3.318,6.847,6.912c0.041,0.771-0.013,1.459-0.057,1.788L33.531,66.981z M38.687,63.62
			c-0.058-1.1-0.627-2.917-2.705-2.81c-1.9,0.097-2.584,1.86-2.641,3.085L38.687,63.62z"/>
	</g>
	<g>
		<path d="M48.489,56.697l0.092,1.749l-4.534,0.234l-0.092-1.748L48.489,56.697z"/>
	</g>
</g>
<g>
	<ellipse transform="matrix(-0.9571 0.2898 -0.2898 -0.9571 53.9552 175.2035)" cx="14.007" cy="91.596" rx="6.949" ry="4.81"/>
</g>
<g>
	<ellipse transform="matrix(-0.8409 0.5412 -0.5412 -0.8409 151.7262 166.4792)" cx="51.392" cy="105.542" rx="6.949" ry="4.808"/>
</g>
<g>
	<path fill="#010101" d="M43.058,41.77l-1.586-0.576c-2.828-1.026-7.051-1.728-7.624-0.377l-1.841-0.781
		c1.179-2.775,5.635-2.037,8.314-1.302c-0.589-1.471-1.805-3.534-4.186-4.573c-3.895-1.699-7.153,0.943-7.185,0.97l-1.275-1.54
		c0.171-0.142,4.253-3.449,9.26-1.263c4.948,2.159,5.831,7.545,5.866,7.773L43.058,41.77z"/>
</g>
<g>
	<g>
		<g>
			<circle cx="94.247" cy="60.582" r="3.584"/>
		</g>
	</g>
</g>
<g>
	<polygon points="92.969,59.174 86.14,48.016 75.65,54.101 74.144,51.506 87.169,43.95 95.528,57.608 	"/>
</g>
<g>
	<polygon points="15.913,87.917 13.021,74.757 25.823,67.95 27.231,70.598 16.44,76.337 18.842,87.272 	"/>
</g>
<g>
	<ellipse transform="matrix(0.9444 0.3287 -0.3287 0.9444 7.0967 -9.6675)" cx="32.145" cy="16.158" rx="2.33" ry="3.351"/>
</g>
<g>
	<ellipse transform="matrix(0.9445 0.3286 -0.3286 0.9445 11.3635 -15.3521)" cx="51.106" cy="25.947" rx="2.33" ry="3.352"/>
</g>
</svg>
