<?xml version="1.0" encoding="utf-8"?>
<!-- Generator: Adobe Illustrator 15.0.0, SVG Export Plug-In . SVG Version: 6.00 Build 0)  -->
<!DOCTYPE svg PUBLIC "-//W3C//DTD SVG 1.1//EN" "http://www.w3.org/Graphics/SVG/1.1/DTD/svg11.dtd">
<svg version="1.1" id="Layer_1" xmlns="http://www.w3.org/2000/svg" xmlns:xlink="http://www.w3.org/1999/xlink" x="0px" y="0px"
	 width="78.866px" height="90.562px" viewBox="0 0 78.866 90.562" enable-background="new 0 0 78.866 90.562" xml:space="preserve">
<g>
	<g>
		<g>
			<circle cx="66.255" cy="69.904" r="3.584"/>
		</g>
	</g>
	<g>
		<polygon points="59.41,36.257 57.29,36.894 65.086,68.045 67.206,67.409 		"/>
	</g>
</g>
<g>
	<circle fill="#E6E7E8" cx="38.707" cy="38.707" r="38.707"/>
</g>
<g>
	<path fill="#DCDDDE" d="M38.706,0c21.378,0,38.707,17.33,38.707,38.707c0,21.376-17.329,38.707-38.707,38.707"/>
</g>
<g>
	<rect x="62.179" y="65.903" transform="matrix(0.3216 -0.9469 0.9469 0.3216 -28.2217 111.4378)" width="2.955" height="19.02"/>
</g>
<g>
	<rect x="45.826" y="63.278" transform="matrix(0.3212 -0.947 0.947 0.3212 -44.3081 99.5746)" width="2.955" height="34.833"/>
</g>
<g>
	<g>
		<path fill="#00AEEF" d="M38.706,53.683c-20.209,0-36.792-8.104-38.544-18.438C0.061,36.386,0,37.539,0,38.707
			c0,21.376,17.329,38.707,38.706,38.707c21.378,0,38.707-17.33,38.707-38.707c0-1.167-0.061-2.32-0.162-3.462
			C75.498,45.579,58.916,53.683,38.706,53.683z"/>
	</g>
</g>
<g>
	<ellipse transform="matrix(0.9661 -0.2582 0.2582 0.9661 -5.4861 8.893)" cx="31.11" cy="25.331" rx="2.33" ry="3.351"/>
</g>
<g>
	<ellipse transform="matrix(0.9661 -0.2583 0.2583 0.9661 -4.7909 14.1997)" cx="51.638" cy="25.33" rx="2.33" ry="3.352"/>
</g>
<g>
	<g>
		<path fill="#1C75BC" d="M38.706,77.413c21.378,0,38.707-17.33,38.707-38.707c0-1.167-0.061-2.32-0.162-3.462
			c-1.753,10.334-18.335,18.438-38.545,18.438"/>
	</g>
</g>
<g>
	<g>
		<path d="M41.676,67.876c0.352,1.846,2.28,2.533,4.379,2.305c1.537-0.168,2.756-0.51,3.927-1.026l0.923,2.979
			c-1.414,0.753-3.184,1.244-5.135,1.457c-4.908,0.535-8.025-1.996-8.519-6.519c-0.399-3.665,1.437-7.964,6.462-8.511
			c4.67-0.51,6.839,2.934,7.229,6.51c0.084,0.77,0.069,1.458,0.045,1.789L41.676,67.876z M46.633,64.226
			c-0.12-1.094-0.792-2.876-2.861-2.65c-1.893,0.206-2.475,2.005-2.461,3.23L46.633,64.226z"/>
	</g>
	<g>
		<path d="M56.024,56.757l0.19,1.74l-4.514,0.492l-0.191-1.74L56.024,56.757z"/>
	</g>
</g>
<g>
	<ellipse transform="matrix(0.0703 -0.9975 0.9975 0.0703 -6.7661 144.3191)" cx="74.043" cy="75.79" rx="6.949" ry="4.81"/>
</g>
<g>
	<ellipse transform="matrix(0.0703 -0.9975 0.9975 0.0703 -21.9256 141.5673)" cx="64.982" cy="82.546" rx="6.949" ry="4.81"/>
</g>
<g>
	<g>
		<g>
			<circle cx="11.073" cy="86.978" r="3.583"/>
		</g>
	</g>
	<g>
		<polygon points="13.481,52.726 15.666,53.08 11.99,84.981 9.805,84.628 		"/>
	</g>
</g>
<g>
	<path d="M37.03,39.255l-1.672-1.098c3.209-4.891,13.208-3.625,13.631-3.568l-0.263,1.982C46.182,36.237,39.124,36.065,37.03,39.255
		z"/>
</g>
</svg>
