<?xml version="1.0" encoding="utf-8"?>
<!-- Generator: Adobe Illustrator 15.0.0, SVG Export Plug-In . SVG Version: 6.00 Build 0)  -->
<!DOCTYPE svg PUBLIC "-//W3C//DTD SVG 1.1//EN" "http://www.w3.org/Graphics/SVG/1.1/DTD/svg11.dtd">
<svg version="1.1" id="Layer_1" xmlns="http://www.w3.org/2000/svg" xmlns:xlink="http://www.w3.org/1999/xlink" x="0px" y="0px"
	 width="88.651px" height="99.312px" viewBox="0 0 88.651 99.312" enable-background="new 0 0 88.651 99.312" xml:space="preserve">
<g>
	<g>
		<g>
			<circle cx="82.153" cy="58.979" r="3.585"/>
		</g>
	</g>
	<g>
		<polygon points="56.118,50.093 55.622,52.249 79.96,59.087 80.456,56.93 		"/>
	</g>
</g>
<g>
	<circle fill="#E6E7E8" cx="38.706" cy="38.706" r="38.706"/>
</g>
<g>
	<path fill="#DCDDDE" d="M38.705,0c21.378,0,38.707,17.329,38.707,38.706c0,21.376-17.329,38.707-38.707,38.707"/>
</g>
<g>
	<rect x="26.468" y="75.134" transform="matrix(-0.8675 -0.4975 0.4975 -0.8675 10.0784 171.9729)" width="2.956" height="19.021"/>
</g>
<g>
	<rect x="48.748" y="59.03" transform="matrix(-0.9591 0.2832 -0.2832 -0.9591 120.0459 135.5375)" width="2.955" height="34.833"/>
</g>
<g>
	<g>
		<path fill="#00AEEF" d="M38.705,53.682c-20.209,0-36.791-8.103-38.543-18.437C0.061,36.386,0,37.539,0,38.706
			c0,21.376,17.328,38.707,38.705,38.707c21.378,0,38.707-17.33,38.707-38.707c0-1.167-0.061-2.32-0.162-3.461
			C75.498,45.579,58.915,53.682,38.705,53.682z"/>
	</g>
</g>
<g>
	<g>
		<path fill="#1C75BC" d="M38.705,77.413c21.378,0,38.707-17.33,38.707-38.707c0-1.167-0.061-2.32-0.162-3.461
			c-1.752,10.334-18.335,18.437-38.545,18.437"/>
	</g>
</g>
<g>
	<g>
		<path d="M36.558,66.684c0.351,1.846,2.279,2.533,4.379,2.305c1.537-0.168,2.756-0.51,3.926-1.025l0.924,2.979
			c-1.414,0.754-3.185,1.244-5.136,1.457c-4.907,0.535-8.024-1.996-8.519-6.518c-0.398-3.666,1.437-7.965,6.462-8.512
			c4.671-0.51,6.839,2.934,7.229,6.51c0.084,0.77,0.07,1.459,0.045,1.789L36.558,66.684z M41.514,63.034
			c-0.12-1.094-0.792-2.875-2.861-2.65c-1.892,0.207-2.474,2.006-2.46,3.23L41.514,63.034z"/>
	</g>
	<g>
		<path d="M50.905,55.565l0.19,1.74l-4.514,0.492l-0.19-1.74L50.905,55.565z"/>
	</g>
</g>
<g>
	<path d="M17.63,94.667c0.062,2.656,3.223,4.734,7.059,4.643c3.837-0.088,6.898-2.314,6.834-4.972
		c-0.062-2.653-3.223-4.733-7.06-4.644C20.626,89.785,17.566,92.01,17.63,94.667z"/>
</g>
<g>
	<ellipse transform="matrix(-0.9995 0.0304 -0.0304 -0.9995 114.1834 184.4903)" cx="55.691" cy="93.112" rx="6.949" ry="4.809"/>
</g>
<g>
	<path fill="#010101" d="M37.944,38.153c-4.329,0-7.299-3.058-7.44-3.206l1.448-1.38c0.03,0.031,3.224,3.277,7.417,2.444
		c4.164-0.831,5.329-4.863,5.34-4.903l1.927,0.535c-0.06,0.214-1.519,5.261-6.876,6.329C39.133,38.098,38.526,38.153,37.944,38.153z
		"/>
</g>
<g>
	<path fill="#010101" d="M24.906,25.713l-1.919-0.564c0.042-0.146,1.08-3.581,4.431-4.25c3.431-0.689,5.294,2.196,5.372,2.319
		l-1.69,1.068c-0.046-0.07-1.227-1.836-3.29-1.426C25.66,23.29,24.936,25.615,24.906,25.713z"/>
</g>
<g>
	<g>
		<path fill="#010101" d="M42.974,25.713l-1.919-0.564c0.042-0.146,1.08-3.581,4.432-4.25c3.429-0.687,5.294,2.195,5.372,2.318
			l-1.691,1.068c-0.045-0.07-1.227-1.84-3.29-1.426C43.728,23.29,43.003,25.615,42.974,25.713z"/>
	</g>
</g>
<g>
	<g enable-background="new    ">
		<g>
			<g>
				<polygon fill="#D55024" points="88.651,64.004 88.623,79.211 56.333,83.75 56.361,68.542 				"/>
			</g>
		</g>
		<g>
			<g>
				<polygon fill="#8F320B" points="56.333,83.75 33.54,71.35 33.568,56.143 56.361,68.542 				"/>
			</g>
		</g>
		<g>
			<g>
				<polygon fill="#B4431B" points="56.361,68.542 33.568,56.143 65.858,51.605 88.651,64.004 				"/>
			</g>
		</g>
	</g>
</g>
<g>
	<g>
		<g>
			<path d="M34.931,67.139c-0.822,1.802-2.947,2.598-4.75,1.776c-1.799-0.821-2.596-2.946-1.776-4.749
				c0.822-1.799,2.946-2.594,4.748-1.772C34.955,63.213,35.751,65.338,34.931,67.139z"/>
		</g>
	</g>
	<g>
		<polygon points="6.746,54.004 6.021,56.092 29.477,65.524 30.203,63.432 		"/>
	</g>
</g>
<g>
	<g enable-background="new    ">
		<g>
			<g>
				<polygon fill="#263081" points="78.693,57.458 78.684,62.558 57.176,65.573 57.185,60.481 				"/>
			</g>
		</g>
		<g>
			<g>
				<polygon fill="#121457" points="57.176,65.573 43.5,58.133 43.509,53.042 57.185,60.481 				"/>
			</g>
		</g>
		<g>
			<g>
				<polygon fill="#1E256E" points="57.185,60.481 43.509,53.042 65.017,50.018 78.693,57.458 				"/>
			</g>
		</g>
	</g>
</g>
</svg>
