<?xml version="1.0" encoding="utf-8"?>
<!-- Generator: Adobe Illustrator 15.0.0, SVG Export Plug-In . SVG Version: 6.00 Build 0)  -->
<!DOCTYPE svg PUBLIC "-//W3C//DTD SVG 1.1//EN" "http://www.w3.org/Graphics/SVG/1.1/DTD/svg11.dtd">
<svg version="1.1" id="Layer_1" xmlns="http://www.w3.org/2000/svg" xmlns:xlink="http://www.w3.org/1999/xlink" x="0px" y="0px"
	 width="77.413px" height="96.208px" viewBox="0 0 77.413 96.208" enable-background="new 0 0 77.413 96.208" xml:space="preserve">
<g>
	<ellipse transform="matrix(0.9383 -0.3457 0.3457 0.9383 -30.4971 11.1913)" cx="16.126" cy="91.094" rx="6.949" ry="4.809"/>
</g>
<g>
	<polygon points="17.709,88.186 15.579,72.624 29.976,67.438 30.994,70.26 18.88,74.624 20.682,87.78 	"/>
</g>
<g>
	<polygon points="52.016,84.72 43.812,71.802 46.345,70.195 53.247,81.062 65.693,76.43 66.74,79.243 	"/>
</g>
<g>
	<circle fill="#E6E7E8" cx="38.706" cy="38.707" r="38.706"/>
</g>
<g>
	<path fill="#DCDDDE" d="M38.706,0c21.378,0,38.707,17.33,38.707,38.707S60.083,77.413,38.706,77.413"/>
</g>
<g>
	<g>
		<path fill="#00AEEF" d="M38.706,53.683c-20.208,0-36.792-8.104-38.543-18.438C0.061,36.386,0,37.539,0,38.707
			c0,21.377,17.329,38.706,38.706,38.706c21.378,0,38.707-17.329,38.707-38.706c0-1.167-0.061-2.32-0.162-3.462
			C75.499,45.579,58.916,53.683,38.706,53.683z"/>
	</g>
</g>
<g>
	<ellipse transform="matrix(0.9978 -0.0658 0.0658 0.9978 -1.4024 1.768)" cx="26.136" cy="22.171" rx="2.33" ry="3.351"/>
</g>
<g>
	<ellipse transform="matrix(0.9978 -0.0659 0.0659 0.9978 -1.4924 3.1033)" cx="46.274" cy="24.163" rx="2.329" ry="3.352"/>
</g>
<g>
	<g>
		<path fill="#1C75BC" d="M38.706,77.413c21.378,0,38.707-17.329,38.707-38.706c0-1.167-0.061-2.32-0.162-3.462
			c-1.752,10.334-18.335,18.438-38.545,18.438"/>
	</g>
</g>
<g>
	<g>
		<path d="M31.175,66.852c0.351,1.847,2.28,2.533,4.378,2.305c1.537-0.167,2.757-0.51,3.928-1.025l0.923,2.979
			c-1.415,0.753-3.185,1.244-5.136,1.457c-4.908,0.534-8.025-1.997-8.519-6.519c-0.399-3.666,1.437-7.964,6.462-8.512
			c4.67-0.509,6.84,2.934,7.23,6.51c0.084,0.77,0.068,1.459,0.045,1.79L31.175,66.852z M36.131,63.202
			c-0.119-1.094-0.791-2.876-2.861-2.65c-1.893,0.206-2.474,2.004-2.46,3.229L36.131,63.202z"/>
	</g>
	<g>
		<path d="M45.524,55.733l0.189,1.741L41.2,57.966l-0.19-1.741L45.524,55.733z"/>
	</g>
</g>
<g>
	<ellipse transform="matrix(0.0703 -0.9975 0.9975 0.0703 -16.9041 143.948)" cx="68.775" cy="81.043" rx="6.949" ry="4.809"/>
</g>
<g>
	<g>
		<g>
			<circle cx="20.492" cy="34.197" r="3.584"/>
		</g>
	</g>
	<g>
		<polygon points="6.906,58.071 5.271,56.627 18.857,34.196 20.493,35.64 		"/>
	</g>
</g>
<g>
	<path d="M45.993,40.109l-4.13-2.257c-0.247-0.133-6.129-3.211-10.765,2.233l-1.523-1.297c3.228-3.789,7.02-4.166,9.717-3.771
		c-2.096-2.02-4.219-2.992-6.226-2.962c-3.652,0.092-6.08,3.567-6.104,3.603l-1.653-1.126c0.12-0.177,3.006-4.346,7.687-4.475
		c3.499-0.115,6.872,2.028,10.142,6.311L45.993,40.109z"/>
</g>
<g>
	<g>
		<g>
			<circle cx="52.064" cy="34.905" r="3.584"/>
		</g>
	</g>
	<g>
		<polygon points="68.776,56.707 66.809,57.651 51.428,36.411 53.394,35.466 		"/>
	</g>
</g>
</svg>
