<?xml version="1.0" encoding="utf-8"?>
<!-- Generator: Adobe Illustrator 15.0.0, SVG Export Plug-In . SVG Version: 6.00 Build 0)  -->
<!DOCTYPE svg PUBLIC "-//W3C//DTD SVG 1.1//EN" "http://www.w3.org/Graphics/SVG/1.1/DTD/svg11.dtd">
<svg version="1.1" id="Layer_1" xmlns="http://www.w3.org/2000/svg" xmlns:xlink="http://www.w3.org/1999/xlink" x="0px" y="0px"
	 width="100.94px" height="82.953px" viewBox="0 0 100.94 82.953" enable-background="new 0 0 100.94 82.953" xml:space="preserve">
<g>
	<g>
		<g>
			<path d="M31.732,1.879c0.943-1.74,3.117-2.389,4.859-1.446c1.739,0.941,2.388,3.115,1.448,4.858
				c-0.943,1.739-3.116,2.387-4.858,1.444C31.44,5.797,30.79,3.62,31.732,1.879z"/>
		</g>
	</g>
	<g>
		<polygon points="58.954,16.908 59.819,14.874 37.063,3.863 36.196,5.901 		"/>
	</g>
</g>
<g>
	<circle fill="#E6E7E8" cx="62.229" cy="44.242" r="38.706"/>
</g>
<g>
	<path fill="#DCDDDE" d="M100.63,49.104c-2.687,21.209-22.056,36.224-43.264,33.537C36.159,79.956,21.144,60.586,23.83,39.378"/>
</g>
<g>
	<rect x="16.53" y="18.285" transform="matrix(0.6023 -0.7983 0.7983 0.6023 -15.0264 25.4286)" width="2.956" height="19.021"/>
</g>
<g>
	<rect x="21.098" y="36.9" transform="matrix(-0.1604 -0.9871 0.9871 -0.1604 -27.4168 85.3122)" width="2.956" height="34.833"/>
</g>
<g>
	<g>
		<path fill="#00AEEF" d="M47.372,42.359c2.54-20.049,12.662-35.481,23.135-35.921c-1.119-0.244-2.256-0.449-3.414-0.596
			C45.886,3.157,26.516,18.17,23.83,39.378s12.33,40.578,33.537,43.264c1.158,0.146,2.311,0.231,3.454,0.274
			C50.789,79.879,44.833,62.409,47.372,42.359z"/>
	</g>
</g>
<g>
	<g>
		<path fill="#1C75BC" d="M23.83,39.378c-2.686,21.208,12.33,40.578,33.537,43.264c1.158,0.146,2.311,0.231,3.454,0.274
			c-10.032-3.037-15.987-20.507-13.448-40.557"/>
	</g>
</g>
<g>
	<g>
		<path d="M34.743,38.596c-1.875,0.115-2.799,1.942-2.836,4.055c-0.027,1.546,0.159,2.798,0.525,4.023l-3.072,0.542
			c-0.569-1.497-0.834-3.315-0.8-5.278c0.086-4.936,2.989-7.71,7.538-7.632c3.686,0.065,7.72,2.426,7.631,7.48
			c-0.081,4.697-3.77,6.416-7.367,6.354c-0.774-0.013-1.455-0.113-1.78-0.18L34.743,38.596z M37.742,43.971
			c1.101,0.019,2.953-0.424,2.989-2.506c0.033-1.902-1.678-2.705-2.896-2.846L37.742,43.971z"/>
	</g>
	<g>
		<path d="M43.971,54.227l-1.75-0.029l0.079-4.54l1.75,0.029L43.971,54.227z"/>
	</g>
</g>
<g>
	<ellipse transform="matrix(0.7852 -0.6193 0.6193 0.7852 -9.4784 11.5136)" cx="11.856" cy="19.418" rx="6.949" ry="4.809"/>
</g>
<g>
	<ellipse transform="matrix(0.0955 -0.9954 0.9954 0.0955 -48.6056 52.9505)" cx="4.833" cy="53.221" rx="6.95" ry="4.809"/>
</g>
<g>
	<g>
		<path d="M82.352,29.629l-0.339,2.682L78.5,34.74l2.79,3.266l-0.36,2.515l-3.798-4.702l-5.142,3.757l0.335-2.646l3.75-2.635
			l-2.986-3.396l0.332-2.622l4.043,4.92L82.352,29.629z"/>
	</g>
</g>
<g>
	<g>
		<path d="M78.68,52.705l-0.339,2.681l-3.513,2.431l2.79,3.266l-0.359,2.515l-3.799-4.702l-5.141,3.757l0.334-2.646l3.75-2.635
			l-2.986-3.396l0.333-2.623l4.042,4.92L78.68,52.705z"/>
	</g>
</g>
<g>
	<path fill="#010101" d="M60.197,51.059l-0.85-1.811c0.039-0.019,4.133-2.013,4.671-6.258c0.534-4.212-2.919-6.599-2.954-6.622
		l1.119-1.657c0.185,0.125,4.506,3.112,3.819,8.53C65.324,48.597,60.406,50.961,60.197,51.059z"/>
</g>
<g>
	<g>
		<g>
			<circle cx="16.421" cy="76.371" r="3.585"/>
		</g>
	</g>
	<g>
		<polygon points="42.746,68.381 41.89,66.342 18.138,75.003 18.996,77.044 		"/>
	</g>
</g>
</svg>
