<?xml version="1.0" encoding="utf-8"?>
<!-- Generator: Adobe Illustrator 15.0.0, SVG Export Plug-In . SVG Version: 6.00 Build 0)  -->
<!DOCTYPE svg PUBLIC "-//W3C//DTD SVG 1.1//EN" "http://www.w3.org/Graphics/SVG/1.1/DTD/svg11.dtd">
<svg version="1.1" id="Layer_1" xmlns="http://www.w3.org/2000/svg" xmlns:xlink="http://www.w3.org/1999/xlink" x="0px" y="0px"
	 width="178.788px" height="174.597px" viewBox="0 0 178.788 174.597" enable-background="new 0 0 178.788 174.597"
	 xml:space="preserve">
<g>
	<ellipse transform="matrix(0.6965 -0.7175 0.7175 0.6965 -99.3327 102.3122)" cx="71.29" cy="168.59" rx="6.949" ry="4.808"/>
</g>
<g>
	<polygon points="71.46,165.283 62.808,152.173 73.545,141.271 75.682,143.375 66.65,152.548 73.965,163.631 	"/>
</g>
<g>
	<ellipse transform="matrix(0.6966 -0.7175 0.7175 0.6966 -87.3287 125.688)" cx="104.933" cy="166.09" rx="6.949" ry="4.808"/>
</g>
<g>
	<polygon points="105.104,162.783 96.45,149.673 107.188,138.771 109.324,140.875 100.293,150.048 107.607,161.131 	"/>
</g>
<g>
	<circle fill="#E6E7E8" cx="87.032" cy="115.355" r="38.707"/>
</g>
<g>
	<path fill="#DCDDDE" d="M87.032,76.648c21.377,0,38.707,17.33,38.707,38.707c0,21.376-17.33,38.707-38.707,38.707"/>
</g>
<g>
	<g>
		<path fill="#00AEEF" d="M87.032,130.331c-20.21,0-36.793-8.104-38.545-18.438c-0.102,1.142-0.162,2.294-0.162,3.462
			c0,21.376,17.329,38.707,38.707,38.707c21.377,0,38.707-17.33,38.707-38.707c0-1.167-0.061-2.32-0.162-3.462
			C123.823,122.228,107.241,130.331,87.032,130.331z"/>
	</g>
</g>
<g>
	<ellipse transform="matrix(0.994 0.1091 -0.1091 0.994 10.6326 -7.224)" cx="71.348" cy="93.578" rx="2.33" ry="3.351"/>
</g>
<g>
	<path d="M95.068,97.62c-0.199,1.84-1.399,3.218-2.681,3.078c-1.277-0.141-2.15-1.746-1.949-3.586
		c0.203-1.84,1.403-3.218,2.681-3.078C94.399,94.174,95.271,95.779,95.068,97.62z"/>
</g>
<g>
	<g>
		<path fill="#1C75BC" d="M87.032,154.062c21.377,0,38.707-17.33,38.707-38.707c0-1.167-0.061-2.32-0.162-3.462
			c-1.754,10.334-18.336,18.438-38.545,18.438"/>
	</g>
</g>
<g>
	<g>
		<path d="M76.802,144.052c0.35,1.847,2.279,2.533,4.377,2.305c1.537-0.167,2.758-0.51,3.928-1.025l0.924,2.979
			c-1.416,0.753-3.186,1.244-5.137,1.457c-4.908,0.534-8.025-1.997-8.518-6.519c-0.4-3.666,1.436-7.964,6.461-8.512
			c4.67-0.51,6.84,2.934,7.23,6.51c0.084,0.77,0.068,1.459,0.045,1.79L76.802,144.052z M81.757,140.401
			c-0.119-1.094-0.791-2.875-2.861-2.649c-1.893,0.206-2.473,2.005-2.459,3.229L81.757,140.401z"/>
	</g>
	<g>
		<path d="M91.149,132.933l0.189,1.74l-4.514,0.492l-0.189-1.74L91.149,132.933z"/>
	</g>
</g>
<g>
	<g>
		<g>
			<circle cx="119.794" cy="100.95" r="3.583"/>
		</g>
	</g>
	<g>
		<polygon points="114.402,127.887 112.398,127.028 118.241,101.464 120.248,102.321 		"/>
	</g>
</g>
<g>
	<g>
		<g>
			<circle cx="49.709" cy="93.61" r="3.584"/>
		</g>
	</g>
	<g>
		<polygon points="51.469,121.021 49.311,120.714 48.342,94.508 50.503,94.816 		"/>
	</g>
</g>
<path fill="none" stroke="#000000" stroke-width="1.5" stroke-miterlimit="10" d="M73.572,101.703c0,0,3.58,8.097,12.764,2.133
	c0,0-4.597,11.274-11.058,7.468"/>
<rect x="40.737" y="52.356" transform="matrix(0.9924 0.123 -0.123 0.9924 7.6569 -10.5184)" width="96.499" height="8.75"/>
<line fill="#FFFFFF" stroke="#000000" stroke-miterlimit="10" x1="58.459" y1="53.204" x2="49.709" y2="92.204"/>
<line fill="none" stroke="#000000" stroke-miterlimit="10" x1="129.209" y1="63.704" x2="119.794" y2="100.95"/>
<g>
	<path d="M70.178,10.652l-4.797,28.89l0.549,0.05c1.927,3.183,11.723,6.333,23.9,7.441c12.178,1.11,22.712-0.188,25.622-2.929
		l0.55,0.05l4.798-28.89L70.178,10.652z"/>
	<polygon points="96.755,54.729 84.37,53.601 86.1,43.185 98.484,44.313 	"/>
</g>
<path fill="none" stroke="#000000" stroke-miterlimit="10" d="M0.209,0.454c0,0,76.5,35.184,178.5,18.888"/>
</svg>
