<?xml version="1.0" encoding="utf-8"?>
<!-- Generator: Adobe Illustrator 15.0.0, SVG Export Plug-In . SVG Version: 6.00 Build 0)  -->
<!DOCTYPE svg PUBLIC "-//W3C//DTD SVG 1.1//EN" "http://www.w3.org/Graphics/SVG/1.1/DTD/svg11.dtd">
<svg version="1.1" id="Layer_1" xmlns="http://www.w3.org/2000/svg" xmlns:xlink="http://www.w3.org/1999/xlink" x="0px" y="0px"
	 width="100.364px" height="122.098px" viewBox="0 0 100.364 122.098" enable-background="new 0 0 100.364 122.098"
	 xml:space="preserve">
<g>
	<g>
		<circle cx="96.78" cy="38.699" r="3.584"/>
	</g>
	<polygon points="74.019,64.408 75.802,65.719 95.999,40.752 94.215,39.441 	"/>
</g>
<circle fill="#E6E7E8" cx="38.706" cy="56.053" r="38.706"/>
<path fill="#DCDDDE" d="M38.706,17.346c21.377,0,38.707,17.33,38.707,38.707S60.083,94.759,38.706,94.759"/>
<rect x="68.796" y="78.418" transform="matrix(0.3216 -0.9469 0.9469 0.3216 -35.5831 126.1936)" width="2.955" height="19.021"/>
<rect x="27.94" y="82.427" transform="matrix(0.9047 0.426 -0.426 0.9047 45.3365 -3.019)" width="2.955" height="34.833"/>
<g>
	<path fill="#00AEEF" d="M38.706,71.029c-20.209,0-36.792-8.104-38.544-18.438C0.061,53.732,0,54.885,0,56.053
		C0,77.43,17.329,94.759,38.706,94.759c21.377,0,38.707-17.329,38.707-38.706c0-1.167-0.061-2.32-0.162-3.462
		C75.499,62.925,58.916,71.029,38.706,71.029z"/>
</g>
<ellipse transform="matrix(0.9661 -0.2582 0.2582 0.9661 -9.876 8.6627)" cx="28.039" cy="41.927" rx="2.33" ry="3.351"/>
<ellipse transform="matrix(0.9661 -0.2583 0.2583 0.9661 -8.5021 14.0521)" cx="49.226" cy="39.382" rx="2.33" ry="3.352"/>
<g>
	<path fill="#1C75BC" d="M38.706,94.759c21.377,0,38.707-17.329,38.707-38.706c0-1.167-0.061-2.32-0.162-3.462
		c-1.752,10.334-18.335,18.438-38.544,18.438"/>
</g>
<g>
	<path d="M41.676,84.222c0.351,1.847,2.28,2.534,4.378,2.305c1.537-0.167,2.756-0.509,3.927-1.026l0.923,2.98
		c-1.415,0.752-3.185,1.244-5.136,1.457c-4.908,0.535-8.025-1.997-8.519-6.52c-0.399-3.665,1.437-7.963,6.462-8.511
		c4.67-0.509,6.839,2.934,7.23,6.51c0.084,0.77,0.069,1.458,0.045,1.79L41.676,84.222z M46.632,80.572
		c-0.12-1.095-0.792-2.877-2.861-2.65c-1.892,0.205-2.474,2.004-2.46,3.229L46.632,80.572z"/>
	<path d="M56.024,73.103l0.19,1.741l-4.514,0.492l-0.19-1.741L56.024,73.103z"/>
</g>
<ellipse transform="matrix(0.0704 -0.9975 0.9975 0.0704 -13.105 162.5468)" cx="80.66" cy="88.305" rx="6.949" ry="4.81"/>
<ellipse transform="matrix(0.9832 0.1823 -0.1823 0.9832 21.7986 -2.7003)" cx="25.585" cy="117.201" rx="6.949" ry="4.81"/>
<g>
	<g>
		<circle cx="11.073" cy="104.324" r="3.584"/>
	</g>
	<polygon points="13.481,70.072 15.666,70.426 11.99,102.327 9.805,101.974 	"/>
</g>
<g>
	<path fill="#010101" d="M39.224,64.26l0.255-1.983c1.817,0.234,3.318-0.146,4.59-1.163c1.324-1.056,2.175-2.64,2.72-4.106
		c-1.621,1.128-3.893,1.928-6.831,1.549c-6.916-0.89-8.43-6.778-8.491-7.027l1.943-0.476l-0.972,0.237l0.971-0.241
		c0.049,0.196,1.281,4.812,6.804,5.522c5.471,0.705,7.483-3.434,7.566-3.61l2.43-5.168l-0.528,5.681
		c-0.023,0.252-0.616,6.202-4.357,9.195C43.63,64.028,41.578,64.562,39.224,64.26z"/>
</g>
<path fill="#FFF200" d="M77.847,0c-5.673,0.621-5.712,4.125-5.712,4.125S72.095,0.621,66.422,0c-11.5,0,5.713,20.654,5.713,20.654
	S89.346,0,77.847,0z"/>
</svg>
