<?xml version="1.0" encoding="utf-8"?>
<!-- Generator: Adobe Illustrator 15.0.0, SVG Export Plug-In . SVG Version: 6.00 Build 0)  -->
<!DOCTYPE svg PUBLIC "-//W3C//DTD SVG 1.1//EN" "http://www.w3.org/Graphics/SVG/1.1/DTD/svg11.dtd">
<svg version="1.1" id="Layer_1" xmlns="http://www.w3.org/2000/svg" xmlns:xlink="http://www.w3.org/1999/xlink" x="0px" y="0px"
	 width="92.366px" height="98.854px" viewBox="0 0 92.366 98.854" enable-background="new 0 0 92.366 98.854" xml:space="preserve">
<rect x="27.205" y="70.056" width="3.079" height="23.538"/>
<g>
	<ellipse transform="matrix(-0.9055 -0.4244 0.4244 -0.9055 23.0051 192.3098)" cx="32.917" cy="93.593" rx="6.949" ry="4.809"/>
</g>
<rect x="55.353" y="70.056" width="3.079" height="23.538"/>
<g>
	<ellipse transform="matrix(-0.9995 -0.031 0.031 -0.9995 119.1973 189.0339)" cx="61.063" cy="93.593" rx="6.949" ry="4.809"/>
</g>
<g>
	<circle fill="#E6E7E8" cx="44.433" cy="38.707" r="38.707"/>
</g>
<g>
	<path fill="#DCDDDE" d="M44.433,0C65.81,0,83.14,17.33,83.14,38.707c0,21.376-17.33,38.707-38.707,38.707"/>
</g>
<g>
	<g>
		<path fill="#00AEEF" d="M44.433,53.683c-20.21,0-36.793-8.104-38.545-18.438c-0.102,1.142-0.162,2.294-0.162,3.462
			c0,21.376,17.329,38.707,38.707,38.707c21.377,0,38.707-17.33,38.707-38.707c0-1.167-0.061-2.32-0.162-3.462
			C81.224,45.579,64.642,53.683,44.433,53.683z"/>
	</g>
</g>
<g>
	<ellipse transform="matrix(0.9962 -0.0865 0.0865 0.9962 -1.7991 3.2216)" cx="36.254" cy="22.359" rx="2.33" ry="3.351"/>
</g>
<g>
	<ellipse transform="matrix(0.9962 -0.0867 0.0867 0.9962 -1.7015 4.7865)" cx="54.261" cy="21.984" rx="2.329" ry="3.352"/>
</g>
<g>
	<g>
		<path fill="#1C75BC" d="M44.433,77.413c21.377,0,38.707-17.33,38.707-38.707c0-1.167-0.061-2.32-0.162-3.462
			c-1.754,10.334-18.336,18.438-38.545,18.438"/>
	</g>
</g>
<g>
	<g>
		<path d="M41.202,67.403c0.35,1.847,2.279,2.533,4.377,2.305c1.537-0.167,2.758-0.51,3.928-1.025l0.924,2.979
			c-1.416,0.753-3.186,1.244-5.137,1.457c-4.908,0.534-8.025-1.997-8.518-6.519c-0.4-3.666,1.436-7.964,6.461-8.512
			c4.67-0.51,6.84,2.934,7.23,6.51c0.084,0.77,0.068,1.459,0.045,1.79L41.202,67.403z M46.157,63.753
			c-0.119-1.094-0.791-2.875-2.861-2.649c-1.893,0.206-2.473,2.005-2.459,3.229L46.157,63.753z"/>
	</g>
	<g>
		<path d="M55.55,56.284l0.189,1.74l-4.514,0.492l-0.189-1.74L55.55,56.284z"/>
	</g>
</g>
<g>
	<g>
		<g>
			<circle cx="88.783" cy="30.862" r="3.583"/>
		</g>
	</g>
	<g>
		<polygon points="75.564,54.942 73.91,53.522 87.147,30.886 88.806,32.306 		"/>
	</g>
</g>
<g>
	<g>
		<g>
			<path d="M2.529,79.158c1.893,0.581,3.898-0.479,4.479-2.37c0.584-1.894-0.479-3.898-2.37-4.481
				c-1.892-0.58-3.897,0.48-4.478,2.373C-0.424,76.57,0.638,78.574,2.529,79.158z"/>
		</g>
	</g>
	<g>
		<polygon points="10.266,49.089 12.228,50.04 5.159,75.295 3.196,74.342 		"/>
	</g>
</g>
<path fill="none" stroke="#000000" stroke-width="1.5" stroke-miterlimit="10" d="M51.922,29.931c0,0-4.562,7.25-12.438,0
	c0,0,1.5,9,7.875,7.25"/>
</svg>
