<?xml version="1.0" encoding="utf-8"?>
<!-- Generator: Adobe Illustrator 15.0.0, SVG Export Plug-In . SVG Version: 6.00 Build 0)  -->
<!DOCTYPE svg PUBLIC "-//W3C//DTD SVG 1.1//EN" "http://www.w3.org/Graphics/SVG/1.1/DTD/svg11.dtd">
<svg version="1.1" id="Layer_1" xmlns="http://www.w3.org/2000/svg" xmlns:xlink="http://www.w3.org/1999/xlink" x="0px" y="0px"
	 width="105.604px" height="98.3px" viewBox="11.751 0 105.604 98.3" enable-background="new 11.751 0 105.604 98.3"
	 xml:space="preserve">
<g>
	<g>
		<g>
			<circle cx="15.335" cy="61.369" r="3.584"/>
		</g>
	</g>
	<g>
		<polygon points="40.375,37.875 41.738,39.62 17.365,60.527 16.002,58.783 		"/>
	</g>
</g>
<g>
	<circle fill="#E6E7E8" cx="63.316" cy="38.707" r="38.707"/>
</g>
<g>
	<path fill="#DCDDDE" d="M63.315,0c21.377,0,38.707,17.33,38.707,38.707c0,21.376-17.33,38.707-38.707,38.707"/>
</g>
<g>
	<rect x="52.681" y="74.471" width="2.955" height="19.021"/>
</g>
<g>
	<rect x="80.503" y="67.733" transform="matrix(-0.8907 0.4546 -0.4546 -0.8907 190.1155 108.776)" width="2.956" height="19.02"/>
</g>
<g>
	<g>
		<path fill="#00AEEF" d="M63.315,53.684c-20.209,0-36.792-8.104-38.544-18.439c-0.102,1.142-0.162,2.294-0.162,3.462
			c0,21.376,17.329,38.707,38.706,38.707s38.707-17.328,38.707-38.707c0-1.167-0.061-2.32-0.162-3.462
			C100.108,45.579,83.524,53.684,63.315,53.684z"/>
	</g>
</g>
<g>
	<ellipse transform="matrix(-0.1998 -0.9798 0.9798 -0.1998 24.9322 76.8655)" cx="43.853" cy="28.252" rx="3.351" ry="2.329"/>
</g>
<g>
	<ellipse transform="matrix(-0.2 -0.9798 0.9798 -0.2 48.2952 94.9989)" cx="62.93" cy="27.783" rx="3.352" ry="2.329"/>
</g>
<g>
	<path d="M59.711,44.965l-4.646-3.611c-0.175-0.131-1.835-1.282-3.928,0.159c-0.009,0.006-0.017,0.012-0.026,0.018
		c-2.217,1.546-1.69,3.809-1.686,3.832l-1.942,0.478c-0.036-0.147-0.847-3.627,2.484-5.95c0.852-0.618,1.719-0.911,2.517-1.027
		c-0.319-0.176-0.663-0.313-1.02-0.382c-0.729-0.142-1.426,0.019-2.121,0.514L48.2,37.354c1.128-0.817,2.384-1.085,3.656-0.834
		c2.719,0.535,4.584,3.382,4.662,3.503L59.711,44.965z"/>
</g>
<g>
	<g>
		<path fill="#1C75BC" d="M63.315,77.412c21.377,0,38.707-17.328,38.707-38.706c0-1.167-0.061-2.32-0.162-3.462
			c-1.752,10.334-18.336,18.439-38.545,18.439"/>
	</g>
</g>
<g>
	<g>
		<path d="M58.286,67.875c0.351,1.849,2.279,2.535,4.378,2.306c1.537-0.166,2.757-0.509,3.927-1.024l0.924,2.979
			c-1.415,0.753-3.185,1.244-5.136,1.457c-4.908,0.535-8.025-1.998-8.52-6.52c-0.398-3.666,1.438-7.963,6.462-8.512
			c4.671-0.51,6.84,2.934,7.23,6.51c0.084,0.77,0.069,1.459,0.045,1.791L58.286,67.875z M63.242,64.226
			c-0.12-1.096-0.792-2.876-2.861-2.648c-1.893,0.205-2.474,2.004-2.46,3.229L63.242,64.226z"/>
	</g>
	<g>
		<path d="M72.634,56.755l0.189,1.742l-4.515,0.492l-0.188-1.742L72.634,56.755z"/>
	</g>
</g>
<g>
	<g>
		<g>
			<circle cx="113.771" cy="64.953" r="3.584"/>
		</g>
	</g>
	<g>
		<polygon points="93.594,53.009 92.651,55.012 112.827,65.759 113.771,63.757 		"/>
	</g>
</g>
<g>
	<ellipse cx="48.687" cy="93.49" rx="6.949" ry="4.81"/>
</g>
<g>
	<ellipse transform="matrix(-0.4549 -0.8905 0.8905 -0.4549 40.148 200.8564)" cx="81.545" cy="88.141" rx="4.811" ry="6.949"/>
</g>
</svg>
