<?xml version="1.0" encoding="utf-8"?>
<!-- Generator: Adobe Illustrator 15.0.0, SVG Export Plug-In . SVG Version: 6.00 Build 0)  -->
<!DOCTYPE svg PUBLIC "-//W3C//DTD SVG 1.1//EN" "http://www.w3.org/Graphics/SVG/1.1/DTD/svg11.dtd">
<svg version="1.1" id="Layer_1" xmlns="http://www.w3.org/2000/svg" xmlns:xlink="http://www.w3.org/1999/xlink" x="0px" y="0px"
	 width="118.734px" height="125.769px" viewBox="0 0 118.734 125.769" enable-background="new 0 0 118.734 125.769"
	 xml:space="preserve">
<g>
	<g>
		<g>
			<circle cx="115.15" cy="47.602" r="3.584"/>
		</g>
	</g>
	<g>
		<polygon points="81.746,39.658 82.45,37.56 113.329,46.372 112.625,48.47 		"/>
	</g>
</g>
<g>
	<g>
		<g>
			<circle cx="48.187" cy="122.185" r="3.584"/>
		</g>
	</g>
	<g>
		<polygon points="43.719,88.141 41.561,88.627 47.151,120.249 49.311,119.762 		"/>
	</g>
</g>
<g>
	<circle fill="#E6E7E8" cx="56.69" cy="58.863" r="38.707"/>
</g>
<g>
	<path fill="#DCDDDE" d="M74.586,93.184c-18.956,9.884-42.334,2.529-52.217-16.426S19.84,34.425,38.796,24.542"/>
</g>
<g>
	<rect x="11.941" y="32.572" transform="matrix(0.1527 0.9883 -0.9883 0.1527 52.9582 22.396)" width="2.955" height="19.021"/>
</g>
<g>
	<rect x="36.499" y="0.468" transform="matrix(-0.7491 0.6625 -0.6625 -0.7491 78.2716 6.1211)" width="2.956" height="34.832"/>
</g>
<g>
	<g>
		<path fill="#00AEEF" d="M49.767,45.583c17.919-9.343,36.37-9.824,42.702-1.471c-0.438-1.059-0.918-2.109-1.457-3.145
			C81.128,22.013,57.75,14.659,38.796,24.542C19.84,34.425,12.485,57.803,22.369,76.758c0.54,1.035,1.126,2.029,1.744,2.994
			C20.889,69.779,31.847,54.926,49.767,45.583z"/>
	</g>
</g>
<g>
	<ellipse transform="matrix(-0.7371 0.6757 -0.6757 -0.7371 166.3395 69.7183)" cx="69.61" cy="67.211" rx="2.33" ry="3.351"/>
</g>
<g>
	<ellipse transform="matrix(-0.7371 0.6757 -0.6757 -0.7371 141.1333 98.5057)" cx="51.408" cy="76.703" rx="2.33" ry="3.353"/>
</g>
<g>
	<g>
		<path fill="#1C75BC" d="M38.796,24.542C19.84,34.425,12.485,57.803,22.369,76.758c0.54,1.035,1.126,2.029,1.744,2.994
			c-3.224-9.974,7.734-24.826,25.654-34.169"/>
	</g>
</g>
<g>
	<g>
		<path d="M40.571,34.372c-1.165-1.475-3.193-1.193-4.948-0.019c-1.286,0.858-2.209,1.726-3.008,2.725l-2.196-2.215
			c0.906-1.322,2.249-2.576,3.88-3.667c4.105-2.743,8.039-1.939,10.567,1.842c2.048,3.065,2.408,7.725-1.794,10.534
			c-3.906,2.611-7.421,0.561-9.421-2.43c-0.43-0.644-0.736-1.261-0.868-1.566L40.571,34.372z M37.864,39.899
			c0.611,0.915,2.031,2.184,3.762,1.027c1.583-1.057,1.267-2.921,0.689-4.001L37.864,39.899z"/>
	</g>
	<g>
		<path d="M32.989,50.865l-0.973-1.456l3.775-2.523l0.973,1.456L32.989,50.865z"/>
	</g>
</g>
<g>
	<ellipse transform="matrix(0.2044 0.9789 -0.9789 0.2044 50.8476 33.3303)" cx="4.919" cy="47.947" rx="6.949" ry="4.809"/>
</g>
<g>
	<ellipse transform="matrix(-0.9309 0.3653 -0.3653 -0.9309 44.1842 1.9364)" cx="21.909" cy="5.148" rx="6.949" ry="4.81"/>
</g>
<g>
	<path d="M60.461,67.851l-2.983-5.075c-0.116-0.187-1.246-1.885-3.739-1.297c-2.591,0.607-2.969,2.85-2.984,2.946l-1.98-0.283
		c0.021-0.15,0.554-3.684,4.507-4.61c1.025-0.24,1.934-0.211,2.717-0.024c-0.233-0.282-0.5-0.536-0.806-0.732
		c-0.624-0.4-1.332-0.501-2.161-0.307l-0.457-1.947c1.371-0.321,2.616-0.127,3.707,0.576c2.328,1.501,3.01,4.836,3.038,4.978
		L60.461,67.851z"/>
</g>
</svg>
