<?xml version="1.0" encoding="utf-8"?>
<!-- Generator: Adobe Illustrator 15.0.0, SVG Export Plug-In . SVG Version: 6.00 Build 0)  -->
<!DOCTYPE svg PUBLIC "-//W3C//DTD SVG 1.1//EN" "http://www.w3.org/Graphics/SVG/1.1/DTD/svg11.dtd">
<svg version="1.1" id="Layer_1" xmlns="http://www.w3.org/2000/svg" xmlns:xlink="http://www.w3.org/1999/xlink" x="0px" y="0px"
	 width="84.13px" height="99.331px" viewBox="0 0 84.13 99.331" enable-background="new 0 0 84.13 99.331" xml:space="preserve">
<g>
	<g>
		<g>
			<circle cx="3.585" cy="72.642" r="3.585"/>
		</g>
	</g>
	<g>
		<polygon points="19.017,49.867 17.069,48.822 4.058,70.498 6.009,71.544 		"/>
	</g>
</g>
<g>
	<g>
		<g>
			<circle cx="80.546" cy="73.945" r="3.584"/>
		</g>
	</g>
	<g>
		<polygon points="69.336,48.822 67.42,49.925 78.975,72.413 80.893,71.307 		"/>
	</g>
</g>
<g>
	<circle fill="#E6E7E8" cx="39.7" cy="38.706" r="38.706"/>
</g>
<g>
	<path fill="#DCDDDE" d="M39.699,0c21.378,0,38.707,17.329,38.707,38.706c0,21.376-17.329,38.707-38.707,38.707"/>
</g>
<g>
	<rect x="27.461" y="75.134" transform="matrix(-0.8675 -0.4975 0.4975 -0.8675 11.934 172.4673)" width="2.956" height="19.021"/>
</g>
<g>
	<rect x="53.2" y="59.363" transform="matrix(-0.959 0.2835 -0.2835 -0.959 128.8799 134.9065)" width="2.955" height="34.833"/>
</g>
<g>
	<g>
		<path fill="#00AEEF" d="M39.699,53.682c-20.209,0-36.791-8.103-38.543-18.437c-0.102,1.141-0.162,2.294-0.162,3.461
			c0,21.376,17.328,38.707,38.705,38.707c21.378,0,38.707-17.33,38.707-38.707c0-1.167-0.061-2.32-0.162-3.461
			C76.492,45.579,59.909,53.682,39.699,53.682z"/>
	</g>
</g>
<g>
	<g>
		<path fill="#1C75BC" d="M39.699,77.413c21.378,0,38.707-17.33,38.707-38.707c0-1.167-0.061-2.32-0.162-3.461
			c-1.752,10.334-18.335,18.437-38.545,18.437"/>
	</g>
</g>
<g>
	<g>
		<path d="M30.551,67.684c0.351,1.846,2.279,2.533,4.379,2.305c1.537-0.168,2.756-0.51,3.926-1.025l0.924,2.979
			c-1.414,0.754-3.185,1.244-5.136,1.457c-4.907,0.535-8.024-1.996-8.519-6.518c-0.398-3.666,1.437-7.965,6.462-8.512
			c4.671-0.51,6.839,2.934,7.229,6.51c0.084,0.77,0.07,1.459,0.045,1.789L30.551,67.684z M35.507,64.034
			c-0.12-1.094-0.792-2.875-2.861-2.65c-1.892,0.207-2.474,2.006-2.46,3.23L35.507,64.034z"/>
	</g>
	<g>
		<path d="M44.899,56.565l0.19,1.74l-4.514,0.492l-0.19-1.74L44.899,56.565z"/>
	</g>
</g>
<g>
	<ellipse transform="matrix(-0.9997 0.0238 -0.0238 -0.9997 45.116 187.2678)" cx="21.446" cy="93.902" rx="6.948" ry="4.809"/>
</g>
<g>
	<path d="M48.873,94.731c0.082,2.654,3.256,4.711,7.092,4.596c3.836-0.117,6.881-2.365,6.801-5.018
		c-0.081-2.656-3.256-4.713-7.092-4.596C51.837,89.827,48.792,92.075,48.873,94.731z"/>
</g>
<g>
	<path fill="#010101" d="M35.937,38.153c-4.329,0-7.299-3.058-7.44-3.206l1.448-1.38c0.03,0.031,3.228,3.279,7.417,2.444
		c4.164-0.831,5.33-4.863,5.34-4.903l1.928,0.535c-0.06,0.214-1.52,5.261-6.876,6.329C37.126,38.098,36.519,38.153,35.937,38.153z"
		/>
</g>
<g>
	<path fill="#010101" d="M22.891,26.189l-1.919-0.563c0.044-0.151,1.119-3.711,4.59-4.404c3.554-0.712,5.479,2.273,5.56,2.4
		l-1.691,1.068c-0.048-0.075-1.294-1.945-3.478-1.508C23.685,23.636,22.922,26.085,22.891,26.189z"/>
</g>
<g>
	<path fill="#010101" d="M41.792,24.294l-1.919-0.563c0.044-0.151,1.119-3.711,4.591-4.404c3.545-0.711,5.479,2.273,5.56,2.4
		l-1.691,1.068c-0.048-0.075-1.28-1.944-3.478-1.508C42.584,21.741,41.823,24.19,41.792,24.294z"/>
</g>
<g>
	<circle cx="47.385" cy="22.407" r="2.249"/>
</g>
<g>
	<circle cx="28.354" cy="24.657" r="2.249"/>
</g>
</svg>
