<?xml version="1.0" encoding="utf-8"?>
<!-- Generator: Adobe Illustrator 15.0.0, SVG Export Plug-In . SVG Version: 6.00 Build 0)  -->
<!DOCTYPE svg PUBLIC "-//W3C//DTD SVG 1.1//EN" "http://www.w3.org/Graphics/SVG/1.1/DTD/svg11.dtd">
<svg version="1.1" id="Layer_1" xmlns="http://www.w3.org/2000/svg" xmlns:xlink="http://www.w3.org/1999/xlink" x="0px" y="0px"
	 width="77.413px" height="96.207px" viewBox="0 0 77.413 96.207" enable-background="new 0 0 77.413 96.207" xml:space="preserve">
<g>
	<polygon points="57.879,88.187 54.906,87.78 56.707,74.623 44.595,70.26 45.612,67.438 60.008,72.623 	"/>
</g>
<g>
	<ellipse transform="matrix(0.9384 -0.3456 0.3456 0.9384 -30.4928 11.1887)" cx="16.126" cy="91.094" rx="6.949" ry="4.809"/>
</g>
<g>
	<polygon points="17.71,88.187 15.58,72.623 29.976,67.438 30.993,70.26 18.881,74.623 20.683,87.78 	"/>
</g>
<g>
	<circle fill="#E6E7E8" cx="38.707" cy="38.707" r="38.707"/>
</g>
<g>
	<path fill="#DCDDDE" d="M38.707,0c21.377,0,38.707,17.33,38.707,38.707c0,21.376-17.33,38.707-38.707,38.707"/>
</g>
<g>
	<g>
		<path fill="#00AEEF" d="M38.707,53.683c-20.21,0-36.793-8.104-38.545-18.438C0.061,36.386,0,37.539,0,38.707
			c0,21.376,17.329,38.707,38.707,38.707c21.377,0,38.707-17.33,38.707-38.707c0-1.167-0.061-2.32-0.162-3.462
			C75.498,45.579,58.916,53.683,38.707,53.683z"/>
	</g>
</g>
<g>
	<ellipse transform="matrix(0.9978 -0.0658 0.0658 0.9978 -1.3948 1.9908)" cx="29.526" cy="22.171" rx="2.33" ry="3.351"/>
</g>
<g>
	<ellipse transform="matrix(0.9978 -0.0659 0.0659 0.9978 -1.3583 3.1822)" cx="47.537" cy="22.171" rx="2.329" ry="3.352"/>
</g>
<g>
	<g>
		<path fill="#1C75BC" d="M38.707,77.413c21.377,0,38.707-17.33,38.707-38.707c0-1.167-0.061-2.32-0.162-3.462
			c-1.754,10.334-18.336,18.438-38.545,18.438"/>
	</g>
</g>
<g>
	<g>
		<path d="M35.477,67.403c0.35,1.847,2.279,2.533,4.377,2.305c1.537-0.167,2.758-0.51,3.928-1.025l0.924,2.979
			c-1.416,0.753-3.186,1.244-5.137,1.457c-4.908,0.534-8.025-1.997-8.518-6.519c-0.4-3.666,1.436-7.964,6.461-8.512
			c4.67-0.51,6.84,2.934,7.23,6.51c0.084,0.77,0.068,1.459,0.045,1.79L35.477,67.403z M40.432,63.753
			c-0.119-1.094-0.791-2.875-2.861-2.649c-1.893,0.206-2.473,2.005-2.459,3.229L40.432,63.753z"/>
	</g>
	<g>
		<path d="M49.824,56.284l0.189,1.74L45.5,58.517l-0.189-1.74L49.824,56.284z"/>
	</g>
</g>
<g>
	<g>
		<g>
			<circle cx="58.923" cy="30.791" r="3.584"/>
		</g>
	</g>
	<g>
		<polygon points="70.111,55.88 67.98,56.339 57.954,32.108 60.087,31.646 		"/>
	</g>
</g>
<g>
	<ellipse transform="matrix(-0.9384 -0.3457 0.3457 -0.9384 83.7721 197.1268)" cx="59.462" cy="91.094" rx="6.949" ry="4.809"/>
</g>
<g>
	<rect x="37.333" y="27.658" transform="matrix(0.3613 0.9325 -0.9325 0.3613 55.623 -14.4144)" width="2" height="11.472"/>
</g>
<g>
	<g>
		<g>
			<circle cx="19.481" cy="29.32" r="3.584"/>
		</g>
	</g>
	<g>
		<polygon points="11.084,55.474 9.188,54.396 17.88,29.655 19.778,30.733 		"/>
	</g>
</g>
</svg>
